<?xml version="1.0" encoding="UTF-8"?>
<svg id="iconos" xmlns="http://www.w3.org/2000/svg" viewBox="0 0 80 80">
  <defs>
    <style>
      .cls-1 {
        fill: #220e27;
      }

      .cls-1, .cls-2, .cls-3 {
        stroke-width: 0px;
      }

      .cls-2 {
        fill: #1d59f9;
      }

      .cls-3 {
        fill: #fff;
      }
    </style>
  </defs>
  <g>
    <path class="cls-2" d="M31.7,51.75l-4.54-4.54-.48-.08-5.37-3.24c-.22-.13-.22-.45,0-.59l1.57-.95c.56-.34,1.23-.45,1.87-.32l7,1.43,4.34,4.9,1.2,6.32c.12.63,0,1.29-.33,1.84l-.95,1.57c-.13.22-.46.22-.59,0l-3.73-6.34Z"/>
    <path class="cls-2" d="M35.72,58.76h0c-.3,0-.57-.16-.72-.42l-3.7-6.28-4.38-4.38-.5-.12-5.37-3.24c-.25-.15-.41-.42-.41-.72s.15-.57.41-.72l1.57-.95c.67-.41,1.46-.54,2.23-.39l7.17,1.47,4.54,5.12,1.23,6.45c.14.75,0,1.53-.39,2.19l-.95,1.57c-.16.26-.42.41-.72.41ZM26.85,46.65l.54.08,4.74,4.76,3.6,6.11.81-1.35c.27-.45.36-.97.27-1.48l-1.18-6.18-4.14-4.67-6.84-1.4c-.52-.11-1.06-.01-1.51.26l-1.35.81,5.07,3.06Z"/>
  </g>
  <g>
    <rect class="cls-2" x="50.64" y="35.94" width="4.04" height="9" rx="2.02" ry="2.02" transform="translate(44.02 -25.39) rotate(45)"/>
    <path class="cls-2" d="M50.91,44.72c-.65,0-1.29-.25-1.78-.74h0c-.48-.48-.74-1.11-.74-1.78s.26-1.31.74-1.78l3.51-3.51c.95-.95,2.62-.95,3.57,0,.98.98.98,2.58,0,3.57l-3.51,3.51c-.49.49-1.14.74-1.78.74ZM54.42,37.17c-.41,0-.79.16-1.08.45l-3.51,3.51c-.29.29-.45.67-.45,1.08s.16.79.45,1.08h0c.59.6,1.56.59,2.15,0l3.51-3.51c.59-.59.59-1.56,0-2.15-.29-.29-.67-.45-1.08-.45Z"/>
  </g>
  <g>
    <rect class="cls-2" x="52.33" y="42.46" width="4.04" height="9" rx="2.02" ry="2.02" transform="translate(49.13 -24.68) rotate(45)"/>
    <path class="cls-2" d="M52.6,51.24c-.67,0-1.31-.26-1.78-.74h0c-.48-.48-.74-1.11-.74-1.78s.26-1.31.74-1.78l3.51-3.51c.98-.98,2.58-.98,3.57,0s.98,2.58,0,3.57l-3.51,3.51c-.48.48-1.11.74-1.78.74ZM56.1,43.69c-.41,0-.79.16-1.08.45l-3.51,3.51c-.29.29-.45.67-.45,1.08s.16.79.45,1.08h0c.58.58,1.58.58,2.15,0l3.51-3.51c.29-.29.45-.67.45-1.08s-.16-.79-.45-1.08-.67-.45-1.08-.45Z"/>
  </g>
  <g>
    <rect class="cls-2" x="30.67" y="21.19" width="4.04" height="9" rx="2.02" ry="2.02" transform="translate(27.74 -15.59) rotate(45)"/>
    <path class="cls-2" d="M30.94,29.96c-.65,0-1.29-.25-1.78-.74-.98-.98-.98-2.58,0-3.57l3.51-3.51c.98-.98,2.58-.98,3.57,0h0c.98.98.98,2.58,0,3.57l-3.51,3.51c-.49.49-1.14.74-1.78.74ZM34.44,22.42c-.39,0-.78.15-1.08.44l-3.51,3.51c-.59.59-.59,1.56,0,2.15.59.59,1.56.59,2.15,0l3.51-3.51c.59-.59.59-1.56,0-2.15-.3-.3-.69-.44-1.08-.44Z"/>
  </g>
  <g>
    <rect class="cls-2" x="37.39" y="22.87" width="4.04" height="9" rx="2.02" ry="2.02" transform="translate(30.9 -19.85) rotate(45)"/>
    <path class="cls-2" d="M37.66,31.65c-.67,0-1.31-.26-1.78-.74-.98-.98-.98-2.58,0-3.57l3.51-3.51c.98-.98,2.58-.98,3.57,0h0c.48.48.74,1.11.74,1.78s-.26,1.31-.74,1.78l-3.51,3.51c-.48.48-1.11.74-1.78.74ZM41.17,24.1c-.39,0-.78.15-1.08.44l-3.51,3.51c-.59.59-.59,1.56,0,2.15.57.58,1.58.58,2.15,0l3.51-3.51c.29-.29.45-.67.45-1.08s-.16-.79-.45-1.08h0c-.3-.3-.69-.44-1.08-.44Z"/>
  </g>
  <g>
    <path class="cls-3" d="M40.6,36.45l-18.53-6.38c-.22-.08-.29-.36-.12-.52l2.47-2.47c.37-.37.89-.53,1.4-.45l19.36,3.23.96.18,3.76,3.24,3.45,20.89c.08.51-.08,1.03-.45,1.4l-2.47,2.47c-.17.17-.45.1-.52-.12l-5.96-17.55-3.35-3.92Z"/>
    <path class="cls-1" d="M25.56,26.61c.09,0,.18,0,.26.02l19.36,3.23.96.18,3.76,3.24,3.45,20.89c.08.51-.08,1.03-.45,1.4l-2.47,2.47c-.06.06-.14.09-.22.09-.13,0-.25-.08-.3-.21l-5.96-17.55-3.35-3.92-18.53-6.38c-.22-.08-.29-.36-.12-.52l2.47-2.47c.3-.3.71-.47,1.14-.47M25.56,25.61h0c-.7,0-1.35.27-1.84.76l-2.47,2.47c-.32.32-.45.78-.35,1.23.1.45.42.8.85.95l18.28,6.29,3.05,3.56,5.9,17.36c.18.53.68.89,1.25.89.35,0,.68-.14.93-.39l2.47-2.47c.59-.59.87-1.44.73-2.27l-3.45-20.89c-.04-.23-.16-.44-.33-.59l-3.76-3.24c-.13-.12-.3-.19-.47-.23l-.96-.18-19.37-3.24c-.14-.02-.29-.04-.43-.04h0Z"/>
  </g>
  <g>
    <path class="cls-3" d="M57.55,22.46c-1.08-1.08-3.48-.5-4.75.45,0,0-2.77,2.1-4.34,3.67l-3.29,3.29h0l-19.36-3.23c-.51-.09-1.03.08-1.4.45l-2.47,2.47c-.17.17-.1.45.12.52l17.04,5.86-9.87,9.87c-1.41,1.41-2.95,5.14-1.59,6.49,1.35,1.35,5.09-.18,6.49-1.59l9.95-9.95,5.83,17.15c.08.22.36.29.52.12l2.47-2.47c.37-.37.53-.89.45-1.4l-3.22-19.46,3.69-3.69c1.15-1.15,3.2-3.7,3.2-3.7,1.03-1.27,1.63-3.74.52-4.85Z"/>
    <path class="cls-1" d="M55.87,21.88c.66,0,1.27.17,1.68.58,1.11,1.11.5,3.58-.52,4.85,0,0-2.04,2.55-3.2,3.7l-3.69,3.69,3.22,19.46c.08.51-.08,1.03-.45,1.4l-2.47,2.47c-.06.06-.14.09-.22.09-.13,0-.25-.08-.3-.21l-5.83-17.15-9.95,9.95c-1.02,1.02-3.28,2.12-4.95,2.12-.63,0-1.17-.15-1.54-.52-1.35-1.35.18-5.09,1.59-6.49l9.87-9.87-17.04-5.86c-.22-.08-.29-.36-.12-.52l2.47-2.47c.3-.3.71-.47,1.14-.47.09,0,.18,0,.26.02l19.36,3.23,3.29-3.29c1.56-1.56,4.34-3.67,4.34-3.67.78-.59,2-1.03,3.07-1.03M55.87,19.88c-1.45,0-3.09.55-4.26,1.43-.13.1-2.91,2.21-4.55,3.85l-2.56,2.56-18.34-3.06c-.2-.03-.4-.05-.59-.05-.96,0-1.87.38-2.55,1.06l-2.47,2.47c-.57.57-.8,1.38-.62,2.16.18.78.74,1.41,1.5,1.67l14.01,4.82-7.6,7.6c-.96.96-1.85,2.53-2.33,4.1-.68,2.22-.42,4.07.74,5.23.51.51,1.43,1.11,2.96,1.11,2.29,0,5.04-1.37,6.36-2.7l7.67-7.67,4.79,14.11c.32.94,1.2,1.57,2.19,1.57.62,0,1.2-.24,1.64-.68l2.47-2.47c.82-.82,1.2-1.99,1.01-3.14l-3.05-18.45,2.97-2.97c1.22-1.22,3.26-3.76,3.34-3.87,1.47-1.82,2.43-5.46.38-7.51-.76-.76-1.83-1.17-3.1-1.17h0Z"/>
  </g>
  <g>
    <line class="cls-3" x1="51.5" y1="34.05" x2="43.45" y2="42.11"/>
    <rect class="cls-1" x="41.78" y="37.58" width="11.39" height="1" transform="translate(-13.02 44.72) rotate(-45)"/>
  </g>
  <g>
    <line class="cls-3" x1="45.93" y1="28.4" x2="37.88" y2="36.45"/>
    <rect class="cls-1" x="36.21" y="31.92" width="11.39" height="1" transform="translate(-10.65 39.13) rotate(-45)"/>
  </g>
</svg>