<svg width="317" height="352" viewBox="0 0 317 352" fill="none" xmlns="http://www.w3.org/2000/svg">
<rect x="0.5" y="0.5" width="316" height="351" rx="9.5" stroke="#F7F7F7"/>
<mask id="path-2-inside-1_388_703" fill="white">
<rect x="39" y="19" width="240" height="240" rx="8.6"/>
</mask>
<rect x="39" y="19" width="240" height="240" rx="8.6" stroke="black" stroke-width="20" mask="url(#path-2-inside-1_388_703)"/>
<rect x="30" y="279" width="258" height="57" rx="8.6" fill="black"/>
<path d="M125.241 302.987C125.153 303.141 125.058 303.255 124.955 303.328C124.86 303.394 124.739 303.427 124.592 303.427C124.438 303.427 124.269 303.372 124.086 303.262C123.91 303.145 123.697 303.016 123.448 302.877C123.199 302.738 122.905 302.613 122.568 302.503C122.238 302.386 121.846 302.327 121.391 302.327C120.98 302.327 120.621 302.378 120.313 302.481C120.005 302.576 119.745 302.712 119.532 302.888C119.327 303.064 119.173 303.277 119.07 303.526C118.967 303.768 118.916 304.036 118.916 304.329C118.916 304.703 119.019 305.015 119.224 305.264C119.437 305.513 119.715 305.726 120.06 305.902C120.405 306.078 120.797 306.236 121.237 306.375C121.677 306.514 122.128 306.665 122.59 306.826C123.052 306.98 123.503 307.163 123.943 307.376C124.383 307.581 124.775 307.845 125.12 308.168C125.465 308.483 125.74 308.872 125.945 309.334C126.158 309.796 126.264 310.357 126.264 311.017C126.264 311.736 126.139 312.41 125.89 313.041C125.648 313.664 125.289 314.211 124.812 314.68C124.343 315.142 123.767 315.509 123.085 315.78C122.403 316.044 121.622 316.176 120.742 316.176C120.236 316.176 119.737 316.125 119.246 316.022C118.755 315.927 118.282 315.787 117.827 315.604C117.38 315.421 116.958 315.201 116.562 314.944C116.166 314.687 115.814 314.401 115.506 314.086L116.375 312.667C116.448 312.564 116.544 312.48 116.661 312.414C116.778 312.341 116.903 312.304 117.035 312.304C117.218 312.304 117.416 312.381 117.629 312.535C117.842 312.682 118.095 312.847 118.388 313.03C118.681 313.213 119.022 313.382 119.411 313.536C119.807 313.683 120.28 313.756 120.83 313.756C121.673 313.756 122.326 313.558 122.788 313.162C123.25 312.759 123.481 312.183 123.481 311.435C123.481 311.017 123.375 310.676 123.162 310.412C122.957 310.148 122.682 309.928 122.337 309.752C121.992 309.569 121.6 309.415 121.16 309.29C120.72 309.165 120.273 309.03 119.818 308.883C119.363 308.736 118.916 308.56 118.476 308.355C118.036 308.15 117.644 307.882 117.299 307.552C116.954 307.222 116.676 306.811 116.463 306.32C116.258 305.821 116.155 305.209 116.155 304.483C116.155 303.904 116.269 303.339 116.496 302.789C116.731 302.239 117.068 301.751 117.508 301.326C117.948 300.901 118.491 300.56 119.136 300.303C119.781 300.046 120.522 299.918 121.358 299.918C122.297 299.918 123.162 300.065 123.954 300.358C124.746 300.651 125.421 301.062 125.978 301.59L125.241 302.987ZM136.458 307.101C136.378 307.204 136.297 307.284 136.216 307.343C136.143 307.402 136.033 307.431 135.886 307.431C135.747 307.431 135.611 307.391 135.479 307.31C135.347 307.222 135.19 307.127 135.006 307.024C134.823 306.914 134.603 306.819 134.346 306.738C134.097 306.65 133.785 306.606 133.411 306.606C132.935 306.606 132.517 306.694 132.157 306.87C131.798 307.039 131.497 307.284 131.255 307.607C131.021 307.93 130.845 308.322 130.727 308.784C130.61 309.239 130.551 309.756 130.551 310.335C130.551 310.936 130.614 311.472 130.738 311.941C130.87 312.41 131.057 312.806 131.299 313.129C131.541 313.444 131.835 313.686 132.179 313.855C132.524 314.016 132.913 314.097 133.345 314.097C133.778 314.097 134.126 314.046 134.39 313.943C134.662 313.833 134.889 313.716 135.072 313.591C135.256 313.459 135.413 313.342 135.545 313.239C135.685 313.129 135.839 313.074 136.007 313.074C136.227 313.074 136.392 313.158 136.502 313.327L137.283 314.317C136.983 314.669 136.656 314.966 136.304 315.208C135.952 315.443 135.586 315.633 135.204 315.78C134.83 315.919 134.442 316.018 134.038 316.077C133.642 316.136 133.246 316.165 132.85 316.165C132.154 316.165 131.497 316.037 130.881 315.78C130.265 315.516 129.726 315.135 129.264 314.636C128.802 314.137 128.436 313.529 128.164 312.81C127.9 312.084 127.768 311.259 127.768 310.335C127.768 309.506 127.886 308.74 128.12 308.036C128.362 307.325 128.714 306.712 129.176 306.199C129.638 305.678 130.21 305.271 130.892 304.978C131.574 304.685 132.359 304.538 133.246 304.538C134.09 304.538 134.827 304.674 135.457 304.945C136.095 305.216 136.667 305.605 137.173 306.111L136.458 307.101ZM144.949 311.182C144.164 311.219 143.504 311.288 142.969 311.391C142.433 311.486 142.004 311.611 141.682 311.765C141.359 311.919 141.128 312.099 140.989 312.304C140.849 312.509 140.78 312.733 140.78 312.975C140.78 313.452 140.919 313.793 141.198 313.998C141.484 314.203 141.854 314.306 142.309 314.306C142.866 314.306 143.346 314.207 143.75 314.009C144.16 313.804 144.56 313.496 144.949 313.085V311.182ZM138.723 306.287C140.021 305.099 141.583 304.505 143.409 304.505C144.069 304.505 144.659 304.615 145.18 304.835C145.7 305.048 146.14 305.348 146.5 305.737C146.859 306.118 147.13 306.577 147.314 307.112C147.504 307.647 147.6 308.234 147.6 308.872V316H146.368C146.111 316 145.913 315.963 145.774 315.89C145.634 315.809 145.524 315.652 145.444 315.417L145.202 314.603C144.916 314.86 144.637 315.087 144.366 315.285C144.094 315.476 143.812 315.637 143.519 315.769C143.225 315.901 142.91 316 142.573 316.066C142.243 316.139 141.876 316.176 141.473 316.176C140.996 316.176 140.556 316.114 140.153 315.989C139.749 315.857 139.401 315.663 139.108 315.406C138.814 315.149 138.587 314.83 138.426 314.449C138.264 314.068 138.184 313.624 138.184 313.118C138.184 312.832 138.231 312.55 138.327 312.271C138.422 311.985 138.576 311.714 138.789 311.457C139.009 311.2 139.291 310.958 139.636 310.731C139.98 310.504 140.402 310.306 140.901 310.137C141.407 309.968 141.993 309.833 142.661 309.73C143.328 309.62 144.091 309.554 144.949 309.532V308.872C144.949 308.117 144.787 307.559 144.465 307.2C144.142 306.833 143.676 306.65 143.068 306.65C142.628 306.65 142.261 306.701 141.968 306.804C141.682 306.907 141.429 307.024 141.209 307.156C140.989 307.281 140.787 307.394 140.604 307.497C140.428 307.6 140.23 307.651 140.01 307.651C139.819 307.651 139.658 307.603 139.526 307.508C139.394 307.405 139.287 307.288 139.207 307.156L138.723 306.287ZM152.699 306.1C152.927 305.873 153.165 305.664 153.414 305.473C153.671 305.275 153.939 305.11 154.217 304.978C154.503 304.839 154.808 304.732 155.13 304.659C155.453 304.578 155.805 304.538 156.186 304.538C156.802 304.538 157.349 304.644 157.825 304.857C158.302 305.062 158.698 305.356 159.013 305.737C159.336 306.111 159.578 306.562 159.739 307.09C159.908 307.611 159.992 308.186 159.992 308.817V316H157.275V308.817C157.275 308.128 157.118 307.596 156.802 307.222C156.487 306.841 156.007 306.65 155.361 306.65C154.892 306.65 154.452 306.756 154.041 306.969C153.631 307.182 153.242 307.471 152.875 307.838V316H150.158V304.714H151.819C152.171 304.714 152.402 304.879 152.512 305.209L152.699 306.1ZM167.926 316V304.714H169.587C169.939 304.714 170.17 304.879 170.28 305.209L170.456 306.045C170.654 305.825 170.859 305.623 171.072 305.44C171.292 305.257 171.523 305.099 171.765 304.967C172.014 304.835 172.278 304.732 172.557 304.659C172.843 304.578 173.155 304.538 173.492 304.538C174.203 304.538 174.786 304.732 175.241 305.121C175.703 305.502 176.048 306.012 176.275 306.65C176.451 306.276 176.671 305.957 176.935 305.693C177.199 305.422 177.489 305.202 177.804 305.033C178.119 304.864 178.453 304.74 178.805 304.659C179.164 304.578 179.524 304.538 179.883 304.538C180.506 304.538 181.06 304.633 181.544 304.824C182.028 305.015 182.435 305.293 182.765 305.66C183.095 306.027 183.344 306.474 183.513 307.002C183.689 307.53 183.777 308.135 183.777 308.817V316H181.06V308.817C181.06 308.098 180.902 307.559 180.587 307.2C180.272 306.833 179.81 306.65 179.201 306.65C178.922 306.65 178.662 306.698 178.42 306.793C178.185 306.888 177.976 307.028 177.793 307.211C177.617 307.387 177.478 307.611 177.375 307.882C177.272 308.153 177.221 308.465 177.221 308.817V316H174.493V308.817C174.493 308.062 174.339 307.512 174.031 307.167C173.73 306.822 173.287 306.65 172.7 306.65C172.304 306.65 171.934 306.749 171.589 306.947C171.252 307.138 170.936 307.402 170.643 307.739V316H167.926ZM193.631 309.059C193.631 308.707 193.579 308.377 193.477 308.069C193.381 307.754 193.235 307.479 193.037 307.244C192.839 307.009 192.586 306.826 192.278 306.694C191.977 306.555 191.625 306.485 191.222 306.485C190.437 306.485 189.817 306.709 189.363 307.156C188.915 307.603 188.629 308.238 188.505 309.059H193.631ZM188.45 310.698C188.494 311.277 188.596 311.78 188.758 312.205C188.919 312.623 189.132 312.971 189.396 313.25C189.66 313.521 189.971 313.727 190.331 313.866C190.697 313.998 191.101 314.064 191.541 314.064C191.981 314.064 192.358 314.013 192.674 313.91C192.996 313.807 193.275 313.694 193.51 313.569C193.752 313.444 193.961 313.331 194.137 313.228C194.32 313.125 194.496 313.074 194.665 313.074C194.892 313.074 195.061 313.158 195.171 313.327L195.952 314.317C195.651 314.669 195.314 314.966 194.94 315.208C194.566 315.443 194.173 315.633 193.763 315.78C193.359 315.919 192.945 316.018 192.52 316.077C192.102 316.136 191.695 316.165 191.299 316.165C190.514 316.165 189.784 316.037 189.11 315.78C188.435 315.516 187.848 315.131 187.35 314.625C186.851 314.112 186.459 313.481 186.173 312.733C185.887 311.978 185.744 311.105 185.744 310.115C185.744 309.345 185.868 308.623 186.118 307.948C186.367 307.266 186.723 306.676 187.185 306.177C187.654 305.671 188.222 305.271 188.89 304.978C189.564 304.685 190.323 304.538 191.167 304.538C191.878 304.538 192.534 304.652 193.136 304.879C193.737 305.106 194.254 305.44 194.687 305.88C195.119 306.313 195.457 306.848 195.699 307.486C195.948 308.117 196.073 308.839 196.073 309.653C196.073 310.064 196.029 310.342 195.941 310.489C195.853 310.628 195.684 310.698 195.435 310.698H188.45ZM201.148 300.094V306.386C201.148 307.053 201.115 307.71 201.049 308.355C200.983 308.993 200.898 309.671 200.796 310.39H198.948C198.845 309.671 198.761 308.993 198.695 308.355C198.629 307.71 198.596 307.053 198.596 306.386V300.094H201.148ZM198.167 314.504C198.167 314.277 198.207 314.06 198.288 313.855C198.376 313.65 198.493 313.474 198.64 313.327C198.794 313.18 198.973 313.063 199.179 312.975C199.384 312.887 199.604 312.843 199.839 312.843C200.066 312.843 200.282 312.887 200.488 312.975C200.693 313.063 200.869 313.18 201.016 313.327C201.17 313.474 201.291 313.65 201.379 313.855C201.467 314.06 201.511 314.277 201.511 314.504C201.511 314.739 201.467 314.959 201.379 315.164C201.291 315.362 201.17 315.534 201.016 315.681C200.869 315.828 200.693 315.941 200.488 316.022C200.282 316.11 200.066 316.154 199.839 316.154C199.604 316.154 199.384 316.11 199.179 316.022C198.973 315.941 198.794 315.828 198.64 315.681C198.493 315.534 198.376 315.362 198.288 315.164C198.207 314.959 198.167 314.739 198.167 314.504Z" fill="white"/>
</svg>
