<svg class="MuiSvgIcon-root" focusable="false" viewBox="0 0 24 24" aria-hidden="true" style="font-size: 24px;"><path d="m13.5391 1.1024c-1.8137-.2482-3.6607-.0435-5.376.5958-1.7154.6394-3.2458 1.6935-4.4546 3.0683-1.0345 1.1915-1.8021 2.5906-2.2512 4.1032-.449 1.5127-.5692 3.104-.3524 4.667.583 4.2833 3.8037 7.9276 8.0134 9.0705.9384.2568 1.9068.3877 2.8798.3894l.1562-.0011c.5561-.0072 1.1013-.1547 1.5852-.4289.4838-.2743.8905-.6663 1.1823-1.1397.2928-.4709.4618-1.0081.4912-1.5618.0295-.5537-.0816-1.1058-.3229-1.6051l-.2189-.4576c-.1683-.3289-.2474-.6963-.2293-1.0654.0182-.369.1329-.7269.3327-1.0377.2859-.4645.7339-.8064 1.2572-.9598.5234-.1534 1.085-.1073 1.5764.1293l.4532.2167c.4532.2178.935.3289 1.4311.3289.8682-.0045 1.7002-.3484 2.3181-.9583.6179-.6099.9726-1.4373.9884-2.3054.0137-1.0252-.1171-2.0472-.3883-3.036-1.1439-4.2085-4.7882-7.4293-9.0716-8.0123zm5.6738 11.9998-.4532-.2167c-2.0108-.9658-4.477-.2178-5.6485 1.6434-.8117 1.2936-.8942 2.8335-.2244 4.2261l.2189.4576c.0821.1663.12.3508.1102.5359-.0098.1851-.0671.3646-.1663.5212-.0966.16-.2328.2925-.3953.3847-.1626.0923-.3461.1413-.533.1422h-.1232c-.7785-.0021-1.5534-.1068-2.3045-.3113-3.3693-.9141-5.9432-3.8268-6.4085-7.2445-.3531-2.5905.3872-5.0853 2.0822-7.0278.9644-1.1064 2.1902-1.954 3.5657-2.4658 1.3756-.5118 2.8572-.6715 4.3102-.4646 3.4177.4653 6.3305 3.0404 7.2446 6.4085.2178.803.3223 1.6214.3102 2.4277-.0132.8877-.9295 1.3013-1.5851.9834zm-12.164 3.2944c.9113 0 1.65-.7387 1.65-1.6499 0-.9113-.7387-1.65-1.65-1.65-.9113 0-1.65.7387-1.65 1.65 0 .9112.7387 1.6499 1.65 1.6499zm0-4.4003c.9113 0 1.65-.7388 1.65-1.65 0-.9113-.7387-1.65-1.65-1.65-.9113 0-1.65.7387-1.65 1.65 0 .9112.7387 1.65 1.65 1.65zm3.2998-3.2998c.9113 0 1.65-.7388 1.65-1.65 0-.9113-.7387-1.65-1.65-1.65-.9112 0-1.65.7387-1.65 1.65 0 .9112.7388 1.65 1.65 1.65zm4.4002 0c.9112 0 1.6499-.7388 1.6499-1.65 0-.9113-.7387-1.65-1.6499-1.65-.9113 0-1.65.7387-1.65 1.65 0 .9112.7387 1.65 1.65 1.65z" fill="currentColor"></path></svg>