<svg width="36" height="36" viewBox="0 0 36 36" fill="none" xmlns="http://www.w3.org/2000/svg">
<path d="M23.7507 12.49V12.64C23.7407 13.35 23.6107 14.02 23.3607 14.64L25.0307 15.64C24.9007 15.95 24.7307 16.25 24.5607 16.54C24.4107 16.8 24.2307 17.05 24.0407 17.29L22.3707 16.29C21.9507 16.79 21.4407 17.21 20.8807 17.53C20.8607 17.55 20.8307 17.57 20.8007 17.58C20.2407 17.9 19.6207 18.12 18.9607 18.22V20.16C18.6407 20.2 18.3307 20.22 18.0007 20.22C17.6707 20.22 17.3607 20.2 17.0407 20.16V18.22C16.3807 18.11 15.7607 17.89 15.2007 17.58C15.1707 17.57 15.1407 17.55 15.1207 17.53C14.5607 17.2 14.0507 16.78 13.6307 16.29L11.9607 17.29C11.7707 17.05 11.6007 16.8 11.4407 16.54C11.2707 16.25 11.1007 15.95 10.9707 15.64L12.6407 14.64C12.3907 14.02 12.2607 13.35 12.2507 12.64V12.49C12.2607 11.78 12.3907 11.11 12.6407 10.49L10.9707 9.49C11.1007 9.18 11.2707 8.88 11.4407 8.59C11.5907 8.33 11.7707 8.08 11.9607 7.84L13.6307 8.84C14.0507 8.34 14.5607 7.92 15.1207 7.6C15.1407 7.58 15.1707 7.56 15.2007 7.55C15.7607 7.23 16.3807 7.01 17.0407 6.91V4.96C17.3607 4.92 17.6707 4.9 18.0007 4.9C18.3307 4.9 18.6407 4.92 18.9607 4.96V6.9C19.6207 7.01 20.2407 7.23 20.8007 7.54C20.8307 7.55 20.8607 7.57 20.8807 7.59C21.4507 7.92 21.9507 8.34 22.3707 8.83L24.0407 7.83C24.2307 8.07 24.4007 8.32 24.5607 8.58C24.7307 8.87 24.9007 9.17 25.0307 9.48L23.3607 10.48C23.6007 11.11 23.7407 11.78 23.7507 12.49Z" fill="white"/>
<path d="M18.0006 4.9C18.3306 4.9 18.6406 4.92 18.9606 4.96V6.9C19.6206 7.01 20.2406 7.23 20.8006 7.54C20.8306 7.55 20.8606 7.57 20.8806 7.59C21.4506 7.92 21.9506 8.34 22.3706 8.83L24.0406 7.83C24.2306 8.07 24.4006 8.32 24.5606 8.58C24.7306 8.87 24.9006 9.17 25.0306 9.48L23.3606 10.48C23.6106 11.1 23.7406 11.77 23.7506 12.48V12.63C23.7406 13.34 23.6106 14.01 23.3606 14.63L25.0306 15.63C24.9006 15.94 24.7306 16.24 24.5606 16.53C24.4106 16.79 24.2306 17.04 24.0406 17.28L22.3706 16.28C21.9506 16.78 21.4406 17.2 20.8806 17.52C20.8606 17.54 20.8306 17.56 20.8006 17.57C20.2406 17.89 19.6206 18.11 18.9606 18.21V20.15C18.6406 20.19 18.3306 20.21 18.0006 20.21C17.6706 20.21 17.3606 20.19 17.0406 20.15V18.21C16.3806 18.1 15.7606 17.88 15.2006 17.57C15.1706 17.56 15.1406 17.54 15.1206 17.52C14.5606 17.19 14.0506 16.77 13.6306 16.28L11.9606 17.28C11.7706 17.04 11.6006 16.79 11.4406 16.53C11.2706 16.24 11.1006 15.94 10.9706 15.63L12.6406 14.63C12.3906 14.01 12.2606 13.34 12.2506 12.63V12.48C12.2606 11.77 12.3906 11.1 12.6406 10.48L10.9706 9.48C11.1006 9.17 11.2706 8.87 11.4406 8.58C11.5906 8.32 11.7706 8.07 11.9606 7.83L13.6306 8.83C14.0506 8.33 14.5606 7.91 15.1206 7.59C15.1406 7.57 15.1706 7.55 15.2006 7.54C15.7606 7.22 16.3806 7 17.0406 6.9V4.96C17.3606 4.92 17.6706 4.9 18.0006 4.9ZM18.0006 4.15C17.6406 4.15 17.3006 4.17 16.9506 4.21C16.5706 4.26 16.2906 4.58 16.2906 4.95V6.3C15.7906 6.43 15.3206 6.62 14.8706 6.87C14.8106 6.9 14.7506 6.93 14.6906 6.98C14.2506 7.24 13.8506 7.54 13.4906 7.89L12.3506 7.2C12.2306 7.13 12.1006 7.09 11.9706 7.09C11.7506 7.09 11.5306 7.19 11.3806 7.37C11.1706 7.64 10.9706 7.92 10.8006 8.2C10.6006 8.53 10.4306 8.86 10.2906 9.18C10.1406 9.53 10.2706 9.93 10.5906 10.12L11.7406 10.81C11.5906 11.34 11.5106 11.9 11.5006 12.47V12.63C11.5106 13.21 11.5906 13.77 11.7406 14.3L10.5906 14.99C10.2706 15.18 10.1406 15.59 10.2906 15.93C10.4306 16.25 10.6006 16.58 10.8006 16.92C10.9706 17.2 11.1606 17.48 11.3706 17.75C11.5206 17.93 11.7306 18.03 11.9606 18.03C12.0906 18.03 12.2206 18 12.3406 17.92L13.4906 17.23C13.8506 17.58 14.2506 17.88 14.6906 18.14C14.7406 18.18 14.8006 18.22 14.8706 18.25C15.3206 18.5 15.7906 18.69 16.2906 18.82V20.16C16.2906 20.54 16.5706 20.86 16.9506 20.9C17.3006 20.94 17.6406 20.96 18.0006 20.96C18.3606 20.96 18.7006 20.94 19.0506 20.9C19.4306 20.85 19.7106 20.53 19.7106 20.16V18.82C20.2106 18.69 20.6806 18.5 21.1306 18.25C21.1906 18.22 21.2506 18.19 21.3106 18.15C21.7506 17.89 22.1506 17.59 22.5106 17.24L23.6606 17.93C23.7806 18 23.9106 18.04 24.0406 18.04C24.2606 18.04 24.4806 17.94 24.6306 17.76C24.8406 17.5 25.0406 17.22 25.2106 16.93C25.4106 16.6 25.5806 16.27 25.7206 15.95C25.8706 15.6 25.7406 15.2 25.4206 15.01L24.2706 14.32C24.4206 13.79 24.5006 13.23 24.5106 12.66V12.5C24.5006 11.92 24.4206 11.36 24.2706 10.83L25.4206 10.14C25.7406 9.95 25.8706 9.54 25.7206 9.2C25.5806 8.88 25.4106 8.55 25.2106 8.21C25.0406 7.93 24.8506 7.65 24.6406 7.38C24.4906 7.2 24.2806 7.1 24.0506 7.1C23.9206 7.1 23.7906 7.13 23.6706 7.21L22.5006 7.88C22.1406 7.53 21.7406 7.23 21.3006 6.97C21.2506 6.93 21.1906 6.89 21.1206 6.87C20.6706 6.62 20.2006 6.43 19.7006 6.3V4.96C19.7006 4.58 19.4206 4.26 19.0406 4.22C18.7006 4.17 18.3606 4.15 18.0006 4.15Z" fill="black"/>
<path d="M18.0005 14.75C19.2101 14.75 20.1905 13.7695 20.1905 12.56C20.1905 11.3505 19.2101 10.37 18.0005 10.37C16.791 10.37 15.8105 11.3505 15.8105 12.56C15.8105 13.7695 16.791 14.75 18.0005 14.75Z" fill="#1D59F9"/>
<path d="M15.9202 26.34H20.8202C21.4702 26.33 21.9902 25.74 21.9902 25.09C21.9802 24.44 21.4502 23.92 20.8002 23.92L15.7302 24C15.7302 24 12.9902 22.26 10.7202 24.54C9.19016 26.07 7.66016 27.63 7.66016 27.63L11.1602 31.1L12.7902 29.59C14.1002 29.48 17.4402 29.56 19.7802 29.59C20.3202 29.6 20.8302 29.4 21.2102 29.01L26.3602 23.96C26.9202 23.4 26.9002 22.48 26.3202 21.94C25.7802 21.44 24.9502 21.44 24.4102 21.94L21.7602 24.4" fill="white"/>
<path d="M11.1498 31.47C11.0498 31.47 10.9598 31.43 10.8898 31.36L7.38984 27.89C7.23984 27.74 7.23984 27.51 7.38984 27.36C7.38984 27.36 8.92984 25.79 10.4598 24.26C12.6598 22.06 15.2798 23.31 15.8298 23.61L20.7898 23.54C21.1498 23.53 21.4898 23.65 21.7698 23.87L24.1498 21.66C24.8298 21.03 25.8898 21.03 26.5698 21.66C26.9298 21.99 27.1298 22.44 27.1398 22.93C27.1498 23.42 26.9698 23.87 26.6198 24.22L21.4698 29.27C21.0298 29.72 20.3898 29.96 19.7798 29.95L18.2198 29.93C16.2498 29.9 14.0298 29.87 12.9498 29.94L11.4098 31.36C11.3298 31.44 11.2398 31.47 11.1498 31.47ZM8.17984 27.62L11.1598 30.58L12.5298 29.31C12.5898 29.25 12.6698 29.22 12.7498 29.21C13.7998 29.12 16.1498 29.16 18.2198 29.19L19.7798 29.21C20.1998 29.22 20.6298 29.05 20.9398 28.75L26.0898 23.7C26.2798 23.5 26.3898 23.24 26.3798 22.96C26.3698 22.68 26.2598 22.42 26.0498 22.23C25.6598 21.87 25.0498 21.87 24.6498 22.23L22.2198 24.49C22.2998 24.68 22.3498 24.89 22.3498 25.1C22.3598 25.97 21.6598 26.72 20.8098 26.73H15.9098C15.6998 26.73 15.5298 26.56 15.5298 26.35C15.5298 26.14 15.6998 25.97 15.9098 25.97H20.8098C21.2298 25.97 21.6098 25.56 21.5998 25.1C21.5998 24.94 21.5498 24.79 21.4598 24.66C21.4498 24.64 21.4398 24.63 21.4198 24.61C21.3998 24.58 21.3798 24.56 21.3498 24.53C21.1998 24.38 21.0298 24.31 20.7798 24.3L15.7098 24.37C15.6498 24.36 15.5698 24.35 15.4998 24.31C15.3998 24.25 12.9798 22.76 10.9598 24.79C9.82984 25.94 8.67984 27.11 8.17984 27.62Z" fill="black"/>
<path d="M30.6207 13.58L31.2707 14.9L32.7207 15.11L31.6707 16.13L31.9207 17.58L30.6207 16.9L29.3207 17.58L29.5607 16.13L28.5107 15.11L29.9707 14.9L30.6207 13.58Z" fill="#1D59F9"/>
<path d="M5.38027 13.58L6.03027 14.9L7.49027 15.11L6.44027 16.13L6.68027 17.58L5.38027 16.9L4.08027 17.58L4.33027 16.13L3.28027 15.11L4.73027 14.9L5.38027 13.58Z" fill="#1D59F9"/>
</svg>
