<?xml version="1.0" encoding="utf-8"?>
<!-- Generator: Adobe Illustrator 28.0.0, SVG Export Plug-In . SVG Version: 6.00 Build 0)  -->
<svg version="1.1" xmlns="http://www.w3.org/2000/svg" xmlns:xlink="http://www.w3.org/1999/xlink" x="0px" y="0px"
	 viewBox="0 0 80 80" style="enable-background:new 0 0 80 80;" xml:space="preserve">
<style type="text/css">
	.st0{fill:#FFFFFF;}
	.st1{fill:#220E27;}
	.st2{fill:#FFFFFF;stroke:#220E27;stroke-width:2;stroke-linecap:round;stroke-linejoin:round;stroke-miterlimit:10;}
	.st3{fill:#1D59F9;}
	.st4{fill:#FFFFFF;stroke:#220E27;stroke-width:2;stroke-linejoin:round;stroke-miterlimit:10;}
	.st5{fill:none;stroke:#220E27;stroke-linecap:round;stroke-linejoin:round;stroke-miterlimit:10;}
	.st6{fill:#1D59F9;stroke:#1D59F9;stroke-width:0.25;stroke-linejoin:round;stroke-miterlimit:10;}
	.st7{fill:none;stroke:#220E27;stroke-linejoin:round;stroke-miterlimit:10;}
	.st8{fill:none;stroke:#220E27;stroke-width:2;stroke-linejoin:round;stroke-miterlimit:10;}
	.st9{fill:none;stroke:#220E27;stroke-width:2;stroke-linecap:round;stroke-linejoin:round;stroke-miterlimit:10;}
	.st10{fill:#FFFFFF;stroke:#220E27;stroke-linecap:round;stroke-miterlimit:10;}
	.st11{fill:none;stroke:#220E27;stroke-linecap:round;stroke-miterlimit:10;}
	.st12{fill:#1D59F9;stroke:#1D59F9;stroke-miterlimit:10;}
	.st13{fill:#1D59F9;stroke:#220E27;stroke-width:2;stroke-linecap:round;stroke-linejoin:round;stroke-miterlimit:10;}
	.st14{fill:none;stroke:#1D59F9;stroke-linecap:round;stroke-miterlimit:10;}
	.st15{fill:none;stroke:#FFFFFF;stroke-width:2;stroke-linecap:round;stroke-linejoin:round;stroke-miterlimit:10;}
	.st16{fill:none;stroke:#1D59F9;stroke-width:2;stroke-linecap:round;stroke-linejoin:round;stroke-miterlimit:10;}
	.st17{fill:#FFFFFF;stroke:#220E27;stroke-linejoin:round;stroke-miterlimit:10;}
	.st18{fill:none;stroke:#1D59F9;stroke-linecap:round;stroke-linejoin:round;stroke-miterlimit:10;}
	.st19{fill:#FFFFFF;stroke:#220E27;stroke-miterlimit:10;}
</style>
<g id="titulos">
</g>
<g id="iconos">
	<g>
		<line class="st4" x1="28.3" y1="44.5" x2="22.8" y2="57.1"/>
		<line class="st2" x1="18.7" y1="55.3" x2="26.9" y2="58.9"/>
		<g>
			<path class="st0" d="M30.7,46.2c-1,0-2-0.2-2.9-0.6c-1.8-0.8-3.2-2.2-3.9-4.1c-0.8-2-0.7-4.2,0.2-6.2c1.1-2.4,2.6-4.6,4.4-6.7
				c0.2-0.2,0.5-0.3,0.8-0.3c0.1,0,0.3,0,0.4,0.1l9.5,4.1c0.4,0.2,0.6,0.6,0.6,1c-0.3,3-1,5.7-2.1,8.1
				C36.4,44.4,33.7,46.2,30.7,46.2z"/>
			<path class="st1" d="M29.3,29.3l9.5,4.1c-0.3,3-1,5.6-2,7.8c-1.1,2.5-3.6,4-6.1,4c-0.8,0-1.7-0.2-2.5-0.5l0,0
				c-3.3-1.4-4.7-5.5-3.2-8.9C26.1,33.4,27.5,31.2,29.3,29.3 M29.3,27.3c-0.6,0-1.1,0.2-1.5,0.7c-1.9,2.1-3.4,4.5-4.5,6.9
				c-1,2.2-1.1,4.7-0.2,7c0.8,2.1,2.4,3.8,4.4,4.7c1,0.4,2.1,0.7,3.3,0.7c3.4,0,6.5-2,7.9-5.2c1.1-2.5,1.8-5.3,2.1-8.4
				c0.1-0.9-0.4-1.7-1.2-2l-9.5-4.1C29.8,27.3,29.5,27.3,29.3,27.3L29.3,27.3z"/>
		</g>
		<path class="st3" d="M37,37.3c0,0-10.5,0-11.5,0c-0.1,1.4,0,6.1,4.7,6.8C34,44.3,36.1,41.5,37,37.3z"/>
		<line class="st4" x1="51.7" y1="44.5" x2="57.2" y2="57.1"/>
		<line class="st2" x1="61.3" y1="55.3" x2="53.1" y2="58.9"/>
		<g>
			<path class="st0" d="M49.3,46.2c-3,0-5.7-1.8-7-4.6c-1.1-2.4-1.8-5.1-2.1-8.1c0-0.4,0.2-0.8,0.6-1l9.5-4.1
				c0.1-0.1,0.3-0.1,0.4-0.1c0.3,0,0.6,0.1,0.8,0.3c1.8,2.1,3.3,4.3,4.4,6.7c0.9,2,1,4.2,0.2,6.2c-0.7,1.9-2.1,3.3-3.9,4.1
				C51.3,46,50.3,46.2,49.3,46.2C49.3,46.2,49.3,46.2,49.3,46.2z"/>
			<path class="st1" d="M50.7,29.3c1.8,2,3.2,4.1,4.2,6.4c1.6,3.5,0.1,7.5-3.2,8.9l0,0c-0.8,0.3-1.6,0.5-2.5,0.5
				c-2.5,0-4.9-1.5-6.1-4c-1-2.2-1.7-4.8-2-7.8L50.7,29.3 M50.7,27.3c-0.3,0-0.5,0.1-0.8,0.2l-9.5,4.1c-0.8,0.3-1.3,1.2-1.2,2
				c0.3,3.1,1,6,2.1,8.4c1.4,3.1,4.5,5.2,7.9,5.2c1.1,0,2.2-0.2,3.3-0.7c2-0.9,3.6-2.5,4.4-4.7c0.9-2.2,0.8-4.8-0.2-7
				c-1.1-2.5-2.6-4.8-4.5-6.9C51.8,27.5,51.3,27.3,50.7,27.3L50.7,27.3z"/>
		</g>
		<path class="st3" d="M43,37.3c0,0,10.5,0,11.5,0c0.1,1.4,0,6.1-4.7,6.8C46,44.3,43.9,41.5,43,37.3z"/>
		<line class="st16" x1="39.8" y1="25.1" x2="39.8" y2="21.1"/>
		<line class="st16" x1="43.7" y1="27" x2="46.7" y2="24.1"/>
		<line class="st16" x1="35.8" y1="27" x2="32.8" y2="24.1"/>
	</g>
</g>
</svg>
