<svg width="80" height="80" viewBox="0 0 80 80" fill="none" xmlns="http://www.w3.org/2000/svg">
<g id="Group 1314">
<rect id="Rectangle 6" width="80" height="80" rx="8" fill="#F7F7F7"/>
<g id="Group 1306">
<g id="Group">
<g id="Group_2">
<path id="Vector" d="M34.2146 24.4561C26.0058 24.4561 19.353 31.1089 19.353 39.3177C19.353 41.911 20.0213 44.3447 21.1883 46.4692C21.6471 47.3669 22.1957 48.2346 22.854 49.0326C21.9962 50.2594 21.0087 51.2967 19.7719 52.1744C22.056 53.8002 24.5795 54.0496 27.2626 52.5235C28.5094 53.1719 29.816 53.6008 31.1426 53.8501C32.13 54.0596 33.1573 54.1693 34.2146 54.1693C42.4234 54.1693 49.0762 47.5165 49.0762 39.3077C49.0762 31.0989 42.4234 24.4561 34.2146 24.4561Z" fill="white"/>
<path id="Vector_2" d="M34.2147 55.1767C33.1175 55.1767 32.0204 55.057 30.9332 54.8375C29.6764 54.6081 28.4396 54.2092 27.2726 53.6606C24.5297 55.037 21.7369 54.8076 19.1835 53.0023C18.9242 52.8128 18.7646 52.5135 18.7646 52.1944C18.7646 51.8752 18.9242 51.566 19.1835 51.3765C20.0912 50.7282 20.8692 49.9801 21.5973 49.0525C21.1086 48.3842 20.6697 47.6761 20.2907 46.928C19.024 44.6239 18.3457 41.9907 18.3457 39.3276C18.3557 30.5703 25.4673 23.4586 34.2147 23.4586C42.9621 23.4586 50.0737 30.5703 50.0737 39.3177C50.0737 48.065 42.9621 55.1767 34.2147 55.1767ZM27.2627 51.5361C27.4222 51.5361 27.5719 51.576 27.7215 51.6458C28.8486 52.2243 30.0654 52.6432 31.3222 52.8726C32.2897 53.0721 33.2572 53.1818 34.2147 53.1818C41.8549 53.1818 48.0789 46.9679 48.0789 39.3177C48.0789 31.6674 41.8549 25.4535 34.2147 25.4535C26.5744 25.4535 20.3505 31.6674 20.3505 39.3177C20.3505 41.6516 20.939 43.9557 22.0661 45.9904C22.5149 46.8681 23.0336 47.6761 23.6221 48.4042C23.9013 48.7533 23.9213 49.242 23.662 49.611C23.0037 50.5387 22.2955 51.3466 21.5175 52.0547C23.2131 52.8327 24.9387 52.7031 26.7639 51.6657C26.9136 51.576 27.0831 51.5361 27.2527 51.5361H27.2627Z" fill="#220E27"/>
</g>
<path id="Vector_3" d="M50.6522 33.4728C56.7265 33.4728 61.6538 38.4 61.6538 44.4743C61.6538 46.3994 61.1551 48.2047 60.2973 49.7706C59.9582 50.4389 59.5492 51.0773 59.0705 51.6657C59.7088 52.5734 60.4369 53.3414 61.3546 53.9997C59.6689 55.1966 57.7938 55.3861 55.8089 54.259C54.8813 54.7378 53.9138 55.057 52.9363 55.2365C52.1982 55.3861 51.4402 55.4759 50.6622 55.4759C44.5879 55.4759 39.6606 50.5486 39.6606 44.4743C39.6606 38.4 44.5879 33.4728 50.6622 33.4728H50.6522Z" fill="#1D59F9"/>
</g>
<path id="Vector_4" d="M32.7085 42.3299C32.7085 41.901 32.7484 41.492 32.8282 41.0931C32.908 40.6941 33.0476 40.3251 33.2372 39.9859C33.4067 39.6568 33.5862 39.3975 33.7957 39.2079C34.0052 39.0184 34.2246 38.819 34.4839 38.6294C34.7333 38.4399 35.0225 38.1706 35.3218 37.8515C35.5711 37.5722 35.7407 37.3029 35.8205 37.0236C35.9003 36.7443 35.9402 36.4551 35.9402 36.1359C35.9402 35.9364 35.9202 35.7369 35.8703 35.5574C35.8304 35.3778 35.7507 35.2282 35.6409 35.0986C35.4714 34.8692 35.242 34.7096 34.9727 34.6098C34.7034 34.5101 34.4141 34.4702 34.1049 34.4702C33.8556 34.4702 33.6062 34.5001 33.3768 34.5699C33.1474 34.6398 32.9479 34.7395 32.7883 34.8692C32.5988 35.0188 32.4691 35.1983 32.3794 35.4177C32.2896 35.6372 32.2497 35.8766 32.2597 36.1259H29.9058C29.9656 35.5075 30.1352 34.939 30.4144 34.4103C30.6937 33.8817 31.0528 33.4628 31.5016 33.1436C31.8507 32.8843 32.2497 32.6848 32.6886 32.5651C33.1274 32.4454 33.5763 32.3656 34.0151 32.3656C34.6934 32.3656 35.3317 32.4753 35.9402 32.6848C36.5386 32.8943 37.0473 33.2434 37.4463 33.7221C37.7255 34.0413 37.935 34.4004 38.0846 34.8093C38.2342 35.2282 38.3041 35.6372 38.3041 36.0661C38.3041 36.7044 38.1644 37.2829 37.8951 37.8016C37.6158 38.3302 37.2767 38.809 36.8578 39.2578C36.6583 39.4673 36.4688 39.6568 36.2893 39.8164C36.1097 39.976 35.9501 40.1355 35.7906 40.2852C35.6409 40.4348 35.5113 40.5944 35.4115 40.7639C35.242 41.0532 35.1323 41.3025 35.1023 41.502C35.0724 41.7015 35.0525 41.9808 35.0525 42.3398H32.6886L32.7085 42.3299ZM32.7285 45.9505V43.4969H35.0724V45.9505H32.7285Z" fill="#220E27"/>
<path id="Vector_5" d="M46.1742 46.0901C47.0225 46.0901 47.7102 45.4024 47.7102 44.5541C47.7102 43.7058 47.0225 43.0181 46.1742 43.0181C45.3259 43.0181 44.6382 43.7058 44.6382 44.5541C44.6382 45.4024 45.3259 46.0901 46.1742 46.0901Z" fill="white"/>
<path id="Vector_6" d="M50.8017 46.0901C51.65 46.0901 52.3377 45.4024 52.3377 44.5541C52.3377 43.7058 51.65 43.0181 50.8017 43.0181C49.9533 43.0181 49.2656 43.7058 49.2656 44.5541C49.2656 45.4024 49.9533 46.0901 50.8017 46.0901Z" fill="white"/>
<path id="Vector_7" d="M55.4398 46.0901C56.2882 46.0901 56.9759 45.4024 56.9759 44.5541C56.9759 43.7058 56.2882 43.0181 55.4398 43.0181C54.5915 43.0181 53.9038 43.7058 53.9038 44.5541C53.9038 45.4024 54.5915 46.0901 55.4398 46.0901Z" fill="white"/>
</g>
</g>
</svg>
