<svg xmlns="http://www.w3.org/2000/svg" viewBox="0 0 80 80"><defs><style>.g{display:none}.g:target{display:inline}</style></defs><g id="app" class="g"><path fill="#fff" d="M50 17c2.21 0 4 1.72 4 3.83v38.34c0 2.12-1.79 3.83-4 3.83H30c-2.21 0-4-1.72-4-3.83V20.83c0-2.12 1.79-3.83 4-3.83h20Z"/><rect width="18" height="5" x="31" y="54" fill="#1d59f9" rx="1" ry="1"/><path fill="#220e27" d="M50 16H30c-2.76 0-5 2.17-5 4.83v38.34c0 2.67 2.24 4.83 5 4.83h20c2.76 0 5-2.17 5-4.83V20.83c0-2.67-2.24-4.83-5-4.83Zm3 43.17c0 1.56-1.35 2.83-3 2.83H30c-1.65 0-3-1.27-3-2.83V20.83c0-1.56 1.35-2.83 3-2.83h20c1.65 0 3 1.27 3 2.83v38.34Z"/><path fill="#220e27" d="M48 41H32c-.55 0-1 .45-1 1s.45 1 1 1h16c.55 0 1-.45 1-1s-.45-1-1-1ZM44 45h-8c-.55 0-1 .45-1 1s.45 1 1 1h8c.55 0 1-.45 1-1s-.45-1-1-1ZM40 38.5c4.14 0 7.5-3.36 7.5-7.5s-3.36-7.5-7.5-7.5-7.5 3.36-7.5 7.5 3.36 7.5 7.5 7.5Zm0-14c3.58 0 6.5 2.92 6.5 6.5s-2.92 6.5-6.5 6.5-6.5-2.92-6.5-6.5 2.92-6.5 6.5-6.5Z"/></g><g id="mp3" class="g"><rect width="38" height="42" x="21" y="19" fill="#fff" rx="5" ry="5"/><path fill="#220e27" d="M54 18H26c-3.31 0-6 2.69-6 6v32c0 3.31 2.69 6 6 6h28c3.31 0 6-2.69 6-6V24c0-3.31-2.69-6-6-6Zm4 38c0 2.21-1.79 4-4 4H26c-2.21 0-4-1.79-4-4v-5h36v5Zm0-6H22V24c0-2.21 1.79-4 4-4h28c2.21 0 4 1.79 4 4v26Z"/><path fill="#220e27" d="M35 55.62h14c.28 0 .5-.22.5-.5s-.22-.5-.5-.5H35c-.28 0-.5.22-.5.5s.22.5.5.5ZM52.08 55.51c.02.06.05.12.09.17s.08.11.12.15c.19.19.45.3.71.3s.52-.11.71-.3c.04-.04.08-.1.12-.15.04-.05.07-.11.09-.17.03-.06.05-.13.06-.19 0-.07.02-.13.02-.2 0-.26-.11-.52-.29-.7-.1-.09-.21-.17-.33-.22a1 1 0 0 0-1.36 1.12c0 .06.03.13.06.19ZM28 56.12c.26 0 .52-.1.71-.29.18-.18.29-.44.29-.7 0-.14-.03-.27-.08-.39s-.12-.23-.21-.32c-.37-.37-1.04-.37-1.42 0-.09.09-.16.2-.21.32s-.08.25-.08.39a.99.99 0 0 0 1 .99ZM31 56.13c.26 0 .52-.11.71-.3.04-.04.08-.1.12-.15.04-.05.07-.11.09-.17.03-.06.05-.13.06-.19a1.014 1.014 0 0 0-.27-.9c-.05-.05-.1-.09-.15-.13l-.18-.09-.18-.06c-.33-.06-.68.05-.91.28-.18.18-.29.44-.29.71s.11.52.29.7c.19.19.45.3.71.3Z"/><rect width="2" height="10" x="29" y="31" fill="#1d59f9" rx="1" ry="1"/><rect width="2" height="16" x="34" y="28" fill="#1d59f9" rx="1" ry="1"/><rect width="2" height="10" x="39" y="31" fill="#1d59f9" rx="1" ry="1"/><rect width="2" height="16" x="44" y="28" fill="#1d59f9" rx="1" ry="1"/><rect width="2" height="10" x="49" y="31" fill="#1d59f9" rx="1" ry="1"/></g><g id="coupon" class="g"><path fill="#fff" d="M16.35 45.65c-.93.93-.72 2.49.42 3.15L45 65 21 41l-4.65 4.65ZM64.04 44.24 59.8 40c-.94-.94-2.2-1.46-3.54-1.46-.24 0-.47.02-.71.05a4.994 4.994 0 0 0-1.41-4.25L35.76 15.96c-.57-.57-1.32-.88-2.12-.88s-1.55.31-2.12.88l-4.89 4.89.45.68a4.01 4.01 0 0 1-.51 5.03c-.76.75-1.76 1.17-2.83 1.17-.79 0-1.55-.23-2.21-.66l-.68-.45-4.89 4.89a3 3 0 0 0 0 4.24l18.38 18.38c.94.94 2.2 1.46 3.54 1.46.24 0 .47-.02.71-.05A4.994 4.994 0 0 0 40 59.79l4.24 4.24c.57.57 1.32.88 2.12.88s1.55-.31 2.12-.88l4.89-4.89-.45-.68a4.01 4.01 0 0 1 .51-5.03c.76-.75 1.76-1.17 2.83-1.17.79 0 1.55.23 2.21.66l.68.45 4.89-4.89a3 3 0 0 0 0-4.24Z"/><path fill="#220e27" d="m64.75 43.54-4.24-4.24a5.946 5.946 0 0 0-3.87-1.74s0-.02-.02-.02-.02 0-.02-.02c-.09-1.46-.7-2.83-1.74-3.87l-18.4-18.4c-.76-.76-1.76-1.17-2.83-1.17s-2.07.42-2.83 1.17l-4.31 4.31-1.16 1.16.9 1.36a3.01 3.01 0 0 1-.38 3.77c-.57.57-1.32.88-2.12.88-.59 0-1.16-.17-1.65-.5l-1.36-.9-1.16 1.16-4.31 4.31c-.76.76-1.17 1.76-1.17 2.83s.42 2.07 1.17 2.83l4.44 4.44-4.04 4.05a2.95 2.95 0 0 0-.85 2.52c.12.93.66 1.74 1.48 2.21l28.23 16.2.19-.33c.52.24 1.08.38 1.67.38 1.07 0 2.07-.42 2.83-1.17l4.31-4.31 1.16-1.16-.9-1.36a3.01 3.01 0 0 1 .38-3.77c.57-.57 1.32-.88 2.12-.88.59 0 1.16.17 1.65.5l1.36.9 1.16-1.16 4.31-4.31a4.008 4.008 0 0 0 0-5.66ZM16.77 47.2c-.04-.31.06-.62.28-.84l4.04-4.05 12.54 12.54a5.964 5.964 0 0 0 3.91 1.75c.08 1.48.69 2.85 1.75 3.91l.16.16-22.18-12.73a.99.99 0 0 1-.49-.73Zm46.56.58-4.31 4.31c-.83-.55-1.8-.83-2.76-.83-1.28 0-2.56.49-3.53 1.46a5.006 5.006 0 0 0-.64 6.29l-4.31 4.31c-.39.39-.9.59-1.41.59s-1.02-.2-1.41-.59l-4.24-4.24c-1.07-1.07-1.39-2.6-.99-3.96l1.34-1.34c.2-.2.2-.51 0-.71s-.51-.2-.71 0l-1.34 1.34c-.37.11-.75.18-1.13.18-1.02 0-2.05-.39-2.83-1.17L16.68 35.04c-.78-.78-.78-2.05 0-2.83l4.31-4.31c.83.55 1.8.83 2.76.83 1.28 0 2.56-.49 3.53-1.46a5.006 5.006 0 0 0 .64-6.29l4.31-4.31c.39-.39.9-.59 1.41-.59s1.02.2 1.41.59l18.38 18.38c1.07 1.07 1.39 2.6.99 3.96l-1.34 1.34c-.2.2-.2.51 0 .71a.485.485 0 0 0 .7 0l1.34-1.34c.37-.11.75-.18 1.13-.18 1.02 0 2.05.39 2.83 1.17l4.24 4.24c.78.78.78 2.05 0 2.83Z"/><path fill="#220e27" d="m43.89 49.55-1.41 1.41c-.2.2-.2.51 0 .71a.485.485 0 0 0 .7 0l1.41-1.41c.2-.2.2-.51 0-.71s-.51-.2-.71 0ZM47.42 46.01l-1.41 1.41c-.2.2-.2.51 0 .71a.485.485 0 0 0 .7 0l1.41-1.41c.2-.2.2-.51 0-.71s-.51-.2-.71 0ZM50.96 42.48l-1.41 1.41c-.2.2-.2.51 0 .71a.485.485 0 0 0 .7 0l1.41-1.41c.2-.2.2-.51 0-.71s-.51-.2-.71 0Z"/><path fill="#1d59f9" d="M36.26 28.6c-.55 0-1 .45-1 1v14.14c0 .55.45 1 1 1s1-.45 1-1V29.6c0-.55-.45-1-1-1ZM27.42 33.49c-.66.66-1.03 1.54-1.03 2.48s.36 1.81 1.03 2.48c.66.66 1.54 1.02 2.47 1.02s1.81-.36 2.47-1.02 1.03-1.54 1.03-2.48-.36-1.81-1.03-2.48c-1.32-1.32-3.63-1.32-4.95 0Zm3.54 3.54c-.57.57-1.56.57-2.12 0a1.499 1.499 0 1 1 2.12-2.12 1.499 1.499 0 0 1 0 2.12ZM45.1 33.49c-1.32-1.32-3.63-1.32-4.95 0-.66.66-1.03 1.54-1.03 2.48s.36 1.81 1.03 2.48c.66.66 1.54 1.02 2.47 1.02s1.81-.36 2.47-1.02c.66-.66 1.03-1.54 1.03-2.48s-.36-1.81-1.03-2.47Zm-1.41 3.54c-.57.57-1.55.57-2.12 0a1.499 1.499 0 1 1 2.12-2.12 1.499 1.499 0 0 1 0 2.12Z"/></g><g id="feedback" class="g"><path fill="#fff" d="M60 20H20c-2.21 0-4 1.79-4 4v26c0 2.21 1.79 4 4 4h12l5.88 5.88a3 3 0 0 0 4.24 0L48 54h12c2.21 0 4-1.79 4-4V24c0-2.21-1.79-4-4-4Z"/><path fill="#1d59f9" d="m30.75 34.66-2-.29-.9-1.82c-.17-.34-.52-.56-.9-.56s-.73.22-.9.56l-.9 1.82-2 .29c-.38.05-.69.32-.81.68-.12.36-.02.76.25 1.03l1.45 1.41-.34 1.99c-.06.38.09.75.4.98.17.13.38.19.59.19.16 0 .32-.04.47-.11l1.79-.94 1.79.94c.15.08.31.11.47.11a1.002 1.002 0 0 0 .99-1.17l-.34-1.99 1.45-1.41a1.006 1.006 0 0 0-.56-1.71ZM44.6 35.34a.997.997 0 0 0-.81-.68l-2-.29-.9-1.82c-.17-.34-.52-.56-.9-.56s-.73.22-.9.56l-.9 1.82-2 .29c-.38.05-.69.32-.81.68-.12.36-.02.76.25 1.03l1.45 1.41-.34 1.99c-.06.38.09.75.4.98.17.13.38.19.59.19.16 0 .32-.04.47-.11l1.79-.94 1.79.94c.15.08.31.11.47.11a1.002 1.002 0 0 0 .99-1.17l-.34-1.99 1.45-1.41c.27-.27.37-.66.25-1.03Z"/><path fill="#220e27" d="M60 19H20c-2.76 0-5 2.24-5 5v26c0 2.76 2.24 5 5 5h11.59l5.59 5.59c.78.78 1.8 1.17 2.83 1.17s2.05-.39 2.83-1.17L48.43 55h11.59c2.76 0 5-2.24 5-5V24c0-2.76-2.24-5-5-5Zm3 31c0 1.65-1.35 3-3 3H48c-.27 0-.52.11-.71.29l-5.88 5.88c-.78.78-2.05.78-2.83 0l-5.88-5.88a.99.99 0 0 0-.71-.29h-12c-1.65 0-3-1.35-3-3V24c0-1.65 1.35-3 3-3h40c1.65 0 3 1.35 3 3v26Z"/><path fill="#220e27" d="m56.84 34.66-2-.29-.9-1.82c-.17-.34-.52-.56-.9-.56s-.73.22-.9.56l-.9 1.82-2 .29c-.38.05-.69.32-.81.68-.12.36-.02.76.25 1.03l1.45 1.41-.34 1.99c-.06.38.09.75.4.98.17.13.38.19.59.19.16 0 .32-.04.47-.11l1.79-.94 1.79.94c.15.08.31.11.47.11a1.002 1.002 0 0 0 .99-1.17l-.34-1.99 1.45-1.41a1.006 1.006 0 0 0-.56-1.71Zm-1.97 2.77.43 2.51-2.26-1.19-2.26 1.19.43-2.51-1.83-1.78 2.52-.37 1.13-2.29 1.13 2.29 2.52.37-1.83 1.78Z"/></g><g id="images" class="g"><rect width="38" height="42" x="21" y="19" fill="#fff" rx="5" ry="5"/><circle cx="34.5" cy="30.5" r="4" fill="#1d59f9"/><path fill="#220e27" d="M54 18H26c-3.31 0-6 2.69-6 6v32c0 3.31 2.69 6 6 6h28c3.31 0 6-2.69 6-6V24c0-3.31-2.69-6-6-6Zm-32 6c0-2.21 1.79-4 4-4h28c2.21 0 4 1.79 4 4v30H22V24Zm32 36H26c-2.21 0-4-1.79-4-4v-1h36v1c0 2.21-1.79 4-4 4Z"/><path fill="#220e27" d="M45.58 36.47a.494.494 0 0 0-.73-.02l-7.09 7.09-3.38-3.86a.494.494 0 0 0-.36-.17c-.12 0-.27.05-.37.15l-8 8c-.2.2-.2.51 0 .71s.51.2.71 0l7.62-7.62 6.65 7.6c.1.11.24.17.38.17.12 0 .23-.04.33-.12.21-.18.23-.5.05-.71l-2.96-3.38 6.76-6.76 9.45 10.8c.1.11.24.17.38.17.12 0 .23-.04.33-.12.21-.18.23-.5.05-.71l-9.8-11.2Z"/></g><g id="landing" class="g"><rect width="54" height="42" x="13" y="19" fill="#fff" rx="4" ry="4"/><path fill="#220e27" d="M63 18H17c-2.76 0-5 2.24-5 5v34c0 2.76 2.24 5 5 5h46c2.76 0 5-2.24 5-5V23c0-2.76-2.24-5-5-5Zm-46 2h46c1.65 0 3 1.35 3 3v3.5H14V23c0-1.65 1.35-3 3-3Zm46 40H17c-1.65 0-3-1.35-3-3V27.5h52V57c0 1.65-1.35 3-3 3Z"/><circle cx="18" cy="23" r="1" fill="#220e27"/><circle cx="21" cy="23" r="1" fill="#220e27"/><circle cx="24" cy="23" r="1" fill="#220e27"/><path fill="#220e27" d="M49 39H30c-.55 0-1 .45-1 1s.45 1 1 1h19c.55 0 1-.45 1-1s-.45-1-1-1ZM46 33.6h3c.28 0 .5-.22.5-.5s-.22-.5-.5-.5h-3c-.28 0-.5.22-.5.5s.22.5.5.5ZM30 33.6h3c.28 0 .5-.22.5-.5s-.22-.5-.5-.5h-3c-.28 0-.5.22-.5.5s.22.5.5.5ZM26 32.6h-3c-.28 0-.5.22-.5.5s.22.5.5.5h3c.28 0 .5-.22.5-.5s-.22-.5-.5-.5ZM56 32.6h-3c-.28 0-.5.22-.5.5s.22.5.5.5h3c.28 0 .5-.22.5-.5s-.22-.5-.5-.5ZM44 43h-9c-.55 0-1 .45-1 1s.45 1 1 1h9c.55 0 1-.45 1-1s-.45-1-1-1Z"/><rect width="17" height="5" x="31" y="49" fill="#1d59f9" rx="1" ry="1"/><path fill="#1d59f9" d="M37.69 35.1c.18.31.51.5.87.5h1.73c.36 0 .69-.19.87-.5l.87-1.5c.18-.31.18-.69 0-1l-.87-1.5c-.18-.31-.51-.5-.87-.5h-1.73c-.36 0-.69.19-.87.5l-.87 1.5c-.18.31-.18.69 0 1l.87 1.5Zm1.44-2.5h.58l.29.5-.29.5h-.58l-.29-.5.29-.5Z"/></g><g id="link-list" class="g"><rect width="38" height="42" x="21" y="19" fill="#fff" rx="5" ry="5"/><path fill="#220e27" d="M54 18H26c-3.31 0-6 2.69-6 6v32c0 3.31 2.69 6 6 6h28c3.31 0 6-2.69 6-6V24c0-3.31-2.69-6-6-6Zm4 38c0 2.21-1.79 4-4 4H26c-2.21 0-4-1.79-4-4V24c0-2.21 1.79-4 4-4h28c2.21 0 4 1.79 4 4v32Z"/><path fill="#220e27" d="M49.75 41h-15.5c-.28 0-.5.22-.5.5s.22.5.5.5h15.5c.28 0 .5-.22.5-.5s-.22-.5-.5-.5ZM31 41h-.75c-.28 0-.5.22-.5.5s.22.5.5.5H31c.28 0 .5-.22.5-.5s-.22-.5-.5-.5ZM31 45h-.75c-.28 0-.5.22-.5.5s.22.5.5.5H31c.28 0 .5-.22.5-.5s-.22-.5-.5-.5ZM31 49h-.75c-.28 0-.5.22-.5.5s.22.5.5.5H31c.28 0 .5-.22.5-.5s-.22-.5-.5-.5ZM31 53h-.75c-.28 0-.5.22-.5.5s.22.5.5.5H31c.28 0 .5-.22.5-.5s-.22-.5-.5-.5ZM49.75 45h-15.5c-.28 0-.5.22-.5.5s.22.5.5.5h15.5c.28 0 .5-.22.5-.5s-.22-.5-.5-.5ZM49.75 49h-15.5c-.28 0-.5.22-.5.5s.22.5.5.5h15.5c.28 0 .5-.22.5-.5s-.22-.5-.5-.5ZM49.75 53h-15.5c-.28 0-.5.22-.5.5s.22.5.5.5h15.5c.28 0 .5-.22.5-.5s-.22-.5-.5-.5Z"/><path fill="#1d59f9" d="M43.5 33h-7c-.55 0-1 .45-1 1s.45 1 1 1h7c.55 0 1-.45 1-1s-.45-1-1-1Z"/><circle cx="40" cy="28.5" r="2.5" fill="#1d59f9"/></g><g id="menu" class="g"><rect width="34" height="46" x="23" y="17" fill="#fff" rx="5" ry="5"/><path fill="#220e27" d="M52 16H28c-3.31 0-6 2.69-6 6v36c0 3.31 2.69 6 6 6h24c3.31 0 6-2.69 6-6V22c0-3.31-2.69-6-6-6Zm4 42c0 2.21-1.79 4-4 4H28c-2.21 0-4-1.79-4-4V22c0-2.21 1.79-4 4-4h24c2.21 0 4 1.79 4 4v36Z"/><path fill="#220e27" d="M37 31.5h-9c-.28 0-.5.22-.5.5s.22.5.5.5h9c.28 0 .5-.22.5-.5s-.22-.5-.5-.5ZM52 31h-2c-.55 0-1 .45-1 1s.45 1 1 1h2c.55 0 1-.45 1-1s-.45-1-1-1ZM52 35h-2c-.55 0-1 .45-1 1s.45 1 1 1h2c.55 0 1-.45 1-1s-.45-1-1-1ZM28 36.5h7c.28 0 .5-.22.5-.5s-.22-.5-.5-.5h-7c-.28 0-.5.22-.5.5s.22.5.5.5ZM37 39.5h-9c-.28 0-.5.22-.5.5s.22.5.5.5h9c.28 0 .5-.22.5-.5s-.22-.5-.5-.5ZM52 39h-2c-.55 0-1 .45-1 1s.45 1 1 1h2c.55 0 1-.45 1-1s-.45-1-1-1ZM52 43h-2c-.55 0-1 .45-1 1s.45 1 1 1h2c.55 0 1-.45 1-1s-.45-1-1-1ZM28 44.5h7c.28 0 .5-.22.5-.5s-.22-.5-.5-.5h-7c-.28 0-.5.22-.5.5s.22.5.5.5ZM37 47.5h-9c-.28 0-.5.22-.5.5s.22.5.5.5h9c.28 0 .5-.22.5-.5s-.22-.5-.5-.5ZM35 51.5h-7c-.28 0-.5.22-.5.5s.22.5.5.5h7c.28 0 .5-.22.5-.5s-.22-.5-.5-.5Z"/><path fill="#1d59f9" d="M42 23.5c0-.55-.45-1-1-1h-6c-.55 0-1 .45-1 1s.45 1 1 1h6c.55 0 1-.45 1-1Z"/><circle cx="29.5" cy="23.5" r="2" fill="#1d59f9"/><path fill="#1d59f9" d="m55.12 50.76-5.65-2.82-.94 6.59-5.65-.94.94 5.65-3.76.94L41.88 62H52c2.21 0 4-1.79 4-4v-9l-.88 1.76Z"/></g><g id="pdf" class="g"><path fill="#fff" d="M27.66 63C25.09 63 23 60.87 23 58.26V21.74c0-2.62 2.09-4.74 4.66-4.74h18.71l10.64 10.89v30.36c0 2.62-2.09 4.74-4.66 4.74H27.66Z"/><path fill="#1d59f9" d="M56 28h-6.36A3.64 3.64 0 0 1 46 24.36V18"/><path fill="#220e27" d="M57.43 26.9 47.37 16.6l-.59-.6H27.66C24.54 16 22 18.58 22 21.74v36.52c0 3.17 2.54 5.74 5.66 5.74h24.69c3.12 0 5.66-2.58 5.66-5.74V27.48l-.57-.58ZM56 58.25c0 2.07-1.64 3.74-3.66 3.74H27.66c-2.02 0-3.66-1.68-3.66-3.74V21.74c0-2.07 1.64-3.74 3.66-3.74h18.29l10.06 10.3v29.96Z"/><path fill="#220e27" d="M28 24h10c.55 0 1-.45 1-1s-.45-1-1-1H28c-.55 0-1 .45-1 1s.45 1 1 1ZM34 28c.55 0 1-.45 1-1s-.45-1-1-1h-6c-.55 0-1 .45-1 1s.45 1 1 1h6ZM45 56c-.55 0-1 .45-1 1s.45 1 1 1h6c.55 0 1-.45 1-1s-.45-1-1-1h-6ZM27.5 36c0 .28.22.5.5.5h23c.28 0 .5-.22.5-.5s-.22-.5-.5-.5H28c-.28 0-.5.22-.5.5ZM51 39.5H28c-.28 0-.5.22-.5.5s.22.5.5.5h23c.28 0 .5-.22.5-.5s-.22-.5-.5-.5ZM51 43.5H28c-.28 0-.5.22-.5.5s.22.5.5.5h23c.28 0 .5-.22.5-.5s-.22-.5-.5-.5ZM41 47.5H28c-.28 0-.5.22-.5.5s.22.5.5.5h13c.28 0 .5-.22.5-.5s-.22-.5-.5-.5Z"/></g><g id="playlist" class="g"><rect width="38" height="42" x="21" y="19" fill="#fff" rx="5" ry="5"/><path fill="#220e27" d="M54 18H26c-3.31 0-6 2.69-6 6v32c0 3.31 2.69 6 6 6h28c3.31 0 6-2.69 6-6V24c0-3.31-2.69-6-6-6Zm0 42H26c-2.21 0-4-1.79-4-4V42h4c.28 0 .5-.22.5-.5s-.22-.5-.5-.5h-4v-5h10c.28 0 .5-.22.5-.5s-.22-.5-.5-.5H22v-5h10c.28 0 .5-.22.5-.5s-.22-.5-.5-.5H22v-5c0-2.21 1.79-4 4-4h28c2.21 0 4 1.79 4 4v5h-7c-.28 0-.5.22-.5.5s.22.5.5.5h7v5h-7c-.28 0-.5.22-.5.5s.22.5.5.5h7v5h-7c-.28 0-.5.22-.5.5s.22.5.5.5h7v14c0 2.21-1.79 4-4 4Z"/><path fill="#220e27" d="m46.8 26.88-11.2 2.23c-.47.09-.8.5-.8.98v9.05c-.63-.35-1.36-.57-2.15-.57-2.29 0-4.15 1.7-4.15 3.8s1.86 3.8 4.15 3.8 4.15-1.7 4.15-3.8V30.91l9.2-1.83v8.46c-.63-.35-1.36-.57-2.15-.57-2.29 0-4.15 1.7-4.15 3.8s1.86 3.8 4.15 3.8 4.15-1.7 4.15-3.8V27.86c0-.3-.13-.58-.37-.77a.999.999 0 0 0-.83-.21ZM32.65 44.17c-1.19 0-2.15-.81-2.15-1.8s.96-1.8 2.15-1.8 2.15.81 2.15 1.8-.96 1.8-2.15 1.8Zm11.2-1.6c-1.19 0-2.15-.81-2.15-1.8s.96-1.8 2.15-1.8 2.15.81 2.15 1.8-.96 1.8-2.15 1.8Z"/><path fill="#1d59f9" d="M40.25 47.5c-2.62 0-4.75 2.13-4.75 4.75S37.63 57 40.25 57 45 54.87 45 52.25s-2.13-4.75-4.75-4.75Zm.58 5.69-1.7.94v-3.75l1.7.94 1.7.94-1.7.94Z"/></g><g id="business" class="g"><path fill="#1d59f9" d="M46 20H34c.71-2.31 3.13-4 6-4s5.29 1.69 6 4Z"/><path fill="#fff" d="M60.73 33.33 57 24v-2c0-.55-.44-1-1-1H24c-.56 0-1 .45-1 1v2l-3.73 9.33c-.17.18-.27.41-.27.67v4c0 .55.46 1 1.02 1H22v20c0 1.1.87 2 2 2h32c1.13 0 2-.9 2-2V39h1.98c.57 0 1.02-.45 1.02-1v-4c0-.26-.11-.49-.27-.67Z"/><path fill="#220e27" d="m61.6 32.81-3.6-9V22c0-1.1-.9-2-2-2H24c-1.1 0-2 .9-2 2v1.81l-3.6 9c-.26.35-.4.76-.4 1.19v4c0 1.1.91 2 2.02 2H21v19c0 1.68 1.32 3 3 3h32c1.68 0 3-1.32 3-3V40h.98c1.12 0 2.02-.9 2.02-2v-4c0-.43-.14-.84-.4-1.19Zm-2.08.19h-5.53s0-.09-.01-.14L52.02 26h4.7l2.8 7Zm.46 5H20v-3.99h40L59.98 38ZM28.99 26h4.99l-1.96 6.86s-.01.09-.01.14h-4.99l1.96-6.86s.01-.09.01-.14Zm22.02 0s0 .09.01.14L52.98 33h-4.99s0-.09-.01-.14L46.02 26h4.99Zm-6 0s0 .09.01.14L46.98 33H40.5v-7h4.51Zm-5.51 7h-6.48l1.96-6.86s.01-.09.01-.14h4.51v7ZM24 22h32v2.19l.32.81H23.68l.32-.81V22Zm-.72 4h4.7l-1.96 6.86s-.01.09-.01.14h-5.53l2.8-7ZM38 60H28V46.5c0-.83.67-1.5 1.5-1.5h7c.83 0 1.5.67 1.5 1.5V60Zm18 0H39V46.5a2.5 2.5 0 0 0-2.5-2.5h-7a2.5 2.5 0 0 0-2.5 2.5V60h-3c-.57 0-1-.43-1-1V39h34v20c0 .57-.43 1-1 1Z"/><path fill="#220e27" d="M52.5 44h-7a2.5 2.5 0 0 0-2.5 2.5v4a2.5 2.5 0 0 0 2.5 2.5h7a2.5 2.5 0 0 0 2.5-2.5v-4a2.5 2.5 0 0 0-2.5-2.5Zm1.5 6.5c0 .83-.67 1.5-1.5 1.5h-7c-.83 0-1.5-.67-1.5-1.5v-4c0-.83.67-1.5 1.5-1.5h7c.83 0 1.5.67 1.5 1.5v4ZM31 51.5h-1c-.28 0-.5.22-.5.5s.22.5.5.5h1c.28 0 .5-.22.5-.5s-.22-.5-.5-.5Z"/></g><g id="text" class="g"><rect width="100%" height="100%" fill="transparent"/><g transform="translate(22 16)"><g clip-path="url(#a)"><path fill="#fff" d="M30 1H6a5 5 0 0 0-5 5v36a5 5 0 0 0 5 5h24a5 5 0 0 0 5-5V6a5 5 0 0 0-5-5Z"/><path fill="#220E27" d="M30 2c2.21 0 4 1.79 4 4v36c0 2.21-1.79 4-4 4H6c-2.21 0-4-1.79-4-4V6c0-2.21 1.79-4 4-4h24Zm0-2H6C2.69 0 0 2.69 0 6v36c0 3.31 2.69 6 6 6h24c3.31 0 6-2.69 6-6V6c0-3.31-2.69-6-6-6Z"/><path stroke="#220E27" stroke-linecap="round" stroke-linejoin="round" d="M8 25.5h20m-20-4h20m-20-4h20m-20 12h20m-20 4h20m-20 4h11.3"/><path fill="#1D59F9" stroke="#1D59F9" stroke-miterlimit="10" d="M11.5 7.5h-3a1 1 0 0 0 0 2h3a1 1 0 1 0 0-2Z"/></g><defs><clipPath id="a"><path fill="#fff" d="M0 0h36v48H0z"/></clipPath></defs></g></g><g id="vcard-plus" class="g"><path fill="#fff" d="M33 23v-4h-7c-2.76 0-5 2.24-5 5v32c0 2.76 2.24 5 5 5h27c2.76 0 5-2.24 5-5V27H37c-2.21 0-4-1.79-4-4Z"/><path fill="#220e27" d="M58 27h-1v29c0 2.21-1.79 4-4 4H26c-2.21 0-4-1.79-4-4V24c0-2.21 1.79-4 4-4h7v-1c0-.35.06-.68.14-1H26c-3.31 0-6 2.69-6 6v32c0 3.31 2.69 6 6 6h27c3.31 0 6-2.69 6-6V26.86c-.32.08-.65.14-1 .14Z"/><path fill="#220e27" d="M48.5 50.64c0-.55-.45-1-1-1h-16c-.55 0-1 .45-1 1s.45 1 1 1h16c.55 0 1-.45 1-1ZM35.5 53.64c-.55 0-1 .45-1 1s.45 1 1 1h8c.55 0 1-.45 1-1s-.45-1-1-1h-8ZM29.5 35.64c0 2.3.8 4.54 2.24 6.32 1.91 2.34 4.74 3.68 7.76 3.68s5.84-1.34 7.74-3.68a9.986 9.986 0 0 0 2.25-6.32c0-3.69-2.01-6.9-4.98-8.64H42c3.74 1.09 6.49 4.55 6.49 8.64 0 1.87-.59 3.7-1.66 5.21-.06-.07-.13-.12-.19-.19-.11-.12-.23-.23-.35-.34-.14-.14-.29-.26-.44-.39-.12-.1-.25-.2-.38-.3-.16-.12-.32-.23-.48-.34a9.05 9.05 0 0 0-.4-.26c-.17-.1-.34-.19-.52-.28-.14-.07-.28-.15-.42-.21-.18-.08-.37-.16-.56-.23-.14-.05-.28-.11-.43-.16-.2-.07-.41-.12-.61-.17-.14-.04-.27-.08-.41-.11-.23-.05-.47-.08-.7-.12l-.36-.06a9.773 9.773 0 0 0-2.16 0c-.12.01-.23.04-.35.06-.24.03-.47.07-.71.12-.14.03-.27.07-.41.11-.21.05-.42.11-.62.18-.14.05-.28.1-.42.16-.19.07-.38.15-.57.23-.14.06-.27.14-.41.21-.18.09-.36.19-.53.29-.13.08-.26.17-.39.25-.17.11-.33.22-.49.34-.13.09-.25.19-.37.29-.15.13-.31.26-.45.4-.12.11-.23.22-.34.34-.06.06-.13.12-.19.19a9.041 9.041 0 0 1-1.66-5.21c0-4.09 2.75-7.55 6.49-8.64-.62 0-1.2-.16-1.73-.41-3.4 1.6-5.77 5.05-5.77 9.05Zm10 9c-2.57 0-4.99-1.09-6.7-2.99.07-.08.14-.16.21-.23.11-.11.21-.22.33-.33.13-.12.26-.23.39-.34.12-.1.23-.19.35-.28.14-.11.29-.2.43-.3.12-.08.24-.17.37-.24.15-.09.31-.17.47-.26.13-.07.25-.14.38-.2.17-.08.34-.14.51-.21.13-.05.26-.11.39-.15.18-.06.37-.11.55-.16.13-.03.25-.07.38-.1.21-.05.42-.08.64-.11.11-.02.21-.04.32-.05.32-.04.65-.05.98-.05s.66.02.98.05c.11.01.21.04.32.05.21.03.43.06.64.11.13.03.25.07.38.1.19.05.37.1.56.16.13.04.26.1.38.15.17.07.34.13.51.21.13.06.25.13.38.19.16.08.32.17.47.26.12.07.24.16.36.24.15.1.29.2.44.3.12.09.23.18.34.28.14.11.27.23.4.35.11.1.21.21.31.32.07.08.15.16.22.24a8.922 8.922 0 0 1-6.69 2.99Z"/><path fill="#220e27" d="M39.5 36.64c1.65 0 3-1.35 3-3s-1.35-3-3-3-3 1.35-3 3 1.35 3 3 3Zm0-5c1.1 0 2 .9 2 2s-.9 2-2 2-2-.9-2-2 .9-2 2-2Z"/><rect width="29" height="12" x="33" y="15" fill="#1d59f9" rx="4" ry="4"/><path fill="#fff" d="M41.14 20.95c-.14.18-.35.31-.63.42-.27.1-.59.16-.96.16h-.92v2.21h-1.12v-5.56h2.05c.64 0 1.14.16 1.49.48.35.32.52.7.52 1.13s-.14.82-.42 1.16Zm-2.51-.29h.92c.28 0 .5-.07.65-.22.15-.15.22-.34.22-.59s-.07-.45-.22-.59-.36-.22-.65-.22h-.92v1.62ZM43.2 18.18h1.12v4.71h1.78v.85h-2.91v-5.56ZM47.65 21.61v-3.42h1.12v3.42c0 .38.1.67.29.87.19.2.47.29.83.29s.64-.1.84-.29.29-.49.29-.87v-3.42h1.11v3.42c0 .7-.22 1.24-.66 1.62-.44.38-.98.57-1.61.57s-1.16-.19-1.58-.57c-.42-.38-.64-.92-.64-1.62ZM55.91 19a.9.9 0 0 0-.55.17c-.14.11-.21.27-.21.47s.05.36.16.47c.1.11.24.2.41.26.17.06.36.12.56.16.2.05.4.11.61.18.2.07.39.15.56.25.17.1.31.25.41.44.1.19.16.43.16.7 0 .46-.18.85-.55 1.18s-.85.49-1.45.49-1.09-.14-1.46-.43-.56-.68-.56-1.2h1.19c.04.49.32.73.84.73.25 0 .46-.07.61-.2s.22-.31.22-.53-.1-.39-.29-.52c-.2-.13-.43-.22-.71-.29-.28-.06-.56-.14-.84-.23-.28-.09-.52-.25-.72-.47-.2-.23-.29-.52-.29-.9 0-.5.18-.91.55-1.21.37-.3.84-.45 1.41-.45s1.04.13 1.39.39c.35.26.54.66.57 1.2H56.7a.769.769 0 0 0-.24-.51.806.806 0 0 0-.54-.19Z"/></g><g id="video" class="g"><rect width="38" height="42" x="21" y="19" fill="#fff" rx="5" ry="5"/><path fill="#1d59f9" d="m44.48 34.69-7-3.86a.975.975 0 0 0-.99.02c-.3.18-.49.51-.49.86v7.71c0 .35.19.68.49.86a1.005 1.005 0 0 0 .99.02l7-3.86a1.006 1.006 0 0 0 0-1.76Z"/><path fill="#220e27" d="M54 18H26c-3.31 0-6 2.69-6 6v32c0 3.31 2.69 6 6 6h28c3.31 0 6-2.69 6-6V24c0-3.31-2.69-6-6-6Zm4 38c0 2.21-1.79 4-4 4H26c-2.21 0-4-1.79-4-4v-5h36v5Zm0-6H22V24c0-2.21 1.79-4 4-4h28c2.21 0 4 1.79 4 4v26Z"/><path fill="#220e27" d="M35 55.62h14c.28 0 .5-.22.5-.5s-.22-.5-.5-.5H35c-.28 0-.5.22-.5.5s.22.5.5.5ZM52.08 55.51c.02.06.05.12.09.17.04.05.08.11.12.15.19.19.45.3.71.3s.52-.11.71-.3c.04-.04.08-.1.12-.15.04-.05.07-.11.09-.17.03-.06.05-.13.06-.19.01-.07.02-.13.02-.2 0-.26-.11-.52-.29-.7-.1-.09-.21-.17-.33-.22a1 1 0 0 0-1.36 1.12c.01.06.03.13.06.19ZM28 56.12c.26 0 .52-.1.71-.29.18-.18.29-.44.29-.7 0-.14-.03-.27-.08-.39s-.12-.23-.21-.32c-.37-.37-1.04-.37-1.42 0-.09.09-.16.2-.21.32s-.08.25-.08.39a.99.99 0 0 0 1 .99ZM31 56.13c.26 0 .52-.11.71-.3.04-.04.08-.1.12-.15.04-.05.07-.11.09-.17.03-.06.05-.13.06-.19a1.014 1.014 0 0 0-.27-.9c-.05-.05-.1-.09-.15-.13l-.18-.09-.18-.06c-.33-.06-.68.05-.91.28-.18.18-.29.44-.29.71s.11.52.29.7c.19.19.45.3.71.3Z"/></g><g id="url" class="g"><circle cx="39" cy="40" r="22" fill="#fff"/><path fill="#1d59f9" d="m62.92 46.18-3.54-3.54 2.12-2.12c.26-.26.36-.64.25-1-.11-.35-.4-.62-.76-.69l-10.61-2.12a.99.99 0 0 0-1.17 1.17l2.12 10.61a1.002 1.002 0 0 0 1.69.51l2.12-2.12 3.54 3.54c.2.2.45.29.71.29s.51-.1.71-.29l2.83-2.83a.996.996 0 0 0 0-1.41Z"/><path d="M39 17c-12.68 0-23 10.32-23 23s10.32 23 23 23c7.64 0 14.76-3.78 19.05-10.11a.999.999 0 0 0-.27-1.39c-.1-.07-.2-.1-.31-.13A.492.492 0 0 0 57 51h-7.22c.16-.53.31-1.06.45-1.62.07-.27-.1-.54-.36-.61a.498.498 0 0 0-.61.36c-.16.64-.34 1.26-.53 1.86H39.5v-10.5H48c.28 0 .5-.22.5-.5s-.22-.5-.5-.5h-8.5v-10.5h9.23c.47 1.49.86 3.11 1.13 4.82.04.27.3.46.57.42.27-.04.46-.3.42-.57-.26-1.66-.63-3.21-1.07-4.66h7.12c1.39 2.28 2.38 4.85 2.83 7.64.09.55.6.92 1.15.83.55-.09.92-.6.83-1.15C59.91 25.12 50.36 17 39 17Zm-2.83 43.79c-2.72-1.32-5.05-4.49-6.58-8.79h8.91v8.97c-.79-.02-1.57-.08-2.33-.19ZM18.03 40.5h8.64c.05 3.81.61 7.38 1.58 10.5h-7.09c-1.9-3.07-3.03-6.65-3.12-10.5ZM21.15 29h7.09c-.96 3.12-1.53 6.69-1.58 10.5h-8.64c.09-3.85 1.22-7.43 3.12-10.5Zm17.35 0v10.5H27.67c.05-3.83.63-7.41 1.6-10.5h9.23Zm-8.91-1c1.51-4.25 3.81-7.42 6.49-8.77.8-.11 1.6-.18 2.42-.2V28h-8.91Zm-1.92 12.5H38.5V51h-9.23c-.98-3.09-1.56-6.67-1.6-10.5Zm6-20.79c-2.1 1.84-3.87 4.73-5.1 8.29H21.8c2.81-4.02 7-7 11.88-8.29ZM21.79 52h6.77c1.24 3.56 3.01 6.45 5.1 8.29A21.014 21.014 0 0 1 21.78 52Zm27.66 0h6.77c-2.9 4.15-7.14 7.07-11.92 8.31 2.09-1.81 3.89-4.68 5.14-8.31Zm-1.06 0c-1.57 4.38-3.94 7.51-6.62 8.81-.75.1-1.51.16-2.28.17V52h8.9Zm-8.9-24v-8.98c.8.02 1.58.08 2.35.19 2.66 1.34 4.99 4.49 6.54 8.79h-8.89Zm9.96 0c-1.24-3.62-3.01-6.49-5.09-8.31 4.88 1.27 9.09 4.24 11.9 8.31h-6.81Z"/></g><g id="wifi" class="g"><rect width="38" height="42" x="21" y="19" fill="#fff" rx="5" ry="5"/><path fill="#220e27" d="M54 18H26c-3.31 0-6 2.69-6 6v32c0 3.31 2.69 6 6 6h28c3.31 0 6-2.69 6-6V24c0-3.31-2.69-6-6-6Zm4 38c0 2.21-1.79 4-4 4H26c-2.21 0-4-1.79-4-4V24c0-2.21 1.79-4 4-4h28c2.21 0 4 1.79 4 4v32Z"/><path fill="#220e27" d="M39.5 37.85a2.57 2.57 0 1 0 0 5.14 2.57 2.57 0 1 0 0-5.14ZM39.5 24.51c-4.2 0-8.17 1.85-10.88 5.07-.18.21-.15.53.06.7.21.18.53.15.71-.06a13.23 13.23 0 0 1 20.24 0 .493.493 0 0 0 .7.06c.21-.18.24-.49.06-.7a14.201 14.201 0 0 0-10.88-5.07Z"/><path fill="#220e27" d="M39.5 28.79c-3.09 0-5.95 1.4-7.85 3.85-.17.22-.13.53.09.7.22.17.53.13.7-.09 1.7-2.2 4.27-3.46 7.06-3.46s5.35 1.26 7.06 3.46c.1.13.25.19.4.19a.496.496 0 0 0 .4-.8 9.838 9.838 0 0 0-7.85-3.85Z"/><path fill="#220e27" d="M39.5 33.07c-2.18 0-4.21 1.09-5.42 2.9a.498.498 0 0 0 .83.55c1.03-1.54 2.74-2.46 4.59-2.46s3.56.92 4.59 2.46c.1.14.25.22.42.22.1 0 .19-.03.28-.08.23-.15.29-.46.14-.69a6.494 6.494 0 0 0-5.42-2.9Z"/><path fill="#1d59f9" d="M34.6 53.01c-.22-1.21-.88-3.75-1.22-5.01H32.1c-.38 1.58-1.02 3.87-1.27 5.07-.08-.72-.35-2.07-.97-5.07h-1.51l1.68 6.56h1.47c.35-1.32.94-3.53 1.18-4.7.23 1.12.81 3.25 1.15 4.7h1.48L37.08 48h-1.37c-.24 1.02-.88 3.56-1.09 5.01ZM38.82 48h1.42v6.56h-1.42zM42.7 54.56h1.39v-2.63h2.99v-1.16h-2.99v-1.61h3.19V48H42.7v6.56zM49.24 48h1.42v6.56h-1.42z"/></g><g id="event" class="g"><rect x="22" y="24" width="36" height="34" rx="4" ry="4" fill="#fff"/><rect x="49" y="47" width="6" height="5" rx="1.5" ry="1.5" fill="#1d59f9"/><path d="m54,22h-3v-2c0-.55-.45-1-1-1s-1,.45-1,1v2h-18v-2c0-.55-.45-1-1-1s-1,.45-1,1v2h-3c-3.31,0-6,2.69-6,6v26c0,3.31,2.69,6,6,6h28c3.31,0,6-2.69,6-6v-26c0-3.31-2.69-6-6-6Zm-32,6c0-2.21,1.79-4,4-4h3v2.18c-1.16.41-2,1.51-2,2.82,0,1.65,1.35,3,3,3s3-1.35,3-3c0-1.3-.84-2.4-2-2.82v-2.18h18v2.18c-1.16.41-2,1.51-2,2.82,0,1.65,1.35,3,3,3s3-1.35,3-3c0-1.3-.84-2.4-2-2.82v-2.18h3c2.21,0,4,1.79,4,4v6H22v-6Zm8,2c.55,0,1-.45,1-1v-1.72c.6.35,1,.98,1,1.72,0,1.1-.9,2-2,2s-2-.9-2-2c0-.74.4-1.38,1-1.72v1.72c0,.55.45,1,1,1Zm20,0c.55,0,1-.45,1-1v-1.72c.6.35,1,.98,1,1.72,0,1.1-.9,2-2,2s-2-.9-2-2c0-.74.4-1.38,1-1.72v1.72c0,.55.45,1,1,1Zm4,28h-28c-2.21,0-4-1.79-4-4v-19h36v19c0,2.21-1.79,4-4,4Z" fill="#220e27"/><path d="m37.5,40h-3c-.83,0-1.5.67-1.5,1.5v2c0,.83.67,1.5,1.5,1.5h3c.83,0,1.5-.67,1.5-1.5v-2c0-.83-.67-1.5-1.5-1.5Zm.5,3.5c0,.28-.22.5-.5.5h-3c-.28,0-.5-.22-.5-.5v-2c0-.28.22-.5.5-.5h3c.28,0,.5.22.5.5v2Z" fill="#220e27"/><path d="m45.5,40h-3c-.83,0-1.5.67-1.5,1.5v2c0,.83.67,1.5,1.5,1.5h3c.83,0,1.5-.67,1.5-1.5v-2c0-.83-.67-1.5-1.5-1.5Zm.5,3.5c0,.28-.22.5-.5.5h-3c-.28,0-.5-.22-.5-.5v-2c0-.28.22-.5.5-.5h3c.28,0,.5.22.5.5v2Z" fill="#220e27"/><path d="m53.5,40h-3c-.83,0-1.5.67-1.5,1.5v2c0,.83.67,1.5,1.5,1.5h3c.83,0,1.5-.67,1.5-1.5v-2c0-.83-.67-1.5-1.5-1.5Zm.5,3.5c0,.28-.22.5-.5.5h-3c-.28,0-.5-.22-.5-.5v-2c0-.28.22-.5.5-.5h3c.28,0,.5.22.5.5v2Z" fill="#220e27"/><path d="m29.5,40h-3c-.83,0-1.5.67-1.5,1.5v2c0,.83.67,1.5,1.5,1.5h3c.83,0,1.5-.67,1.5-1.5v-2c0-.83-.67-1.5-1.5-1.5Zm.5,3.5c0,.28-.22.5-.5.5h-3c-.28,0-.5-.22-.5-.5v-2c0-.28.22-.5.5-.5h3c.28,0,.5.22.5.5v2Z" fill="#220e27"/><path d="m37.5,47h-3c-.83,0-1.5.67-1.5,1.5v2c0,.83.67,1.5,1.5,1.5h3c.83,0,1.5-.67,1.5-1.5v-2c0-.83-.67-1.5-1.5-1.5Zm.5,3.5c0,.28-.22.5-.5.5h-3c-.28,0-.5-.22-.5-.5v-2c0-.28.22-.5.5-.5h3c.28,0,.5.22.5.5v2Z" fill="#220e27"/><path d="m45.5,47h-3c-.83,0-1.5.67-1.5,1.5v2c0,.83.67,1.5,1.5,1.5h3c.83,0,1.5-.67,1.5-1.5v-2c0-.83-.67-1.5-1.5-1.5Zm.5,3.5c0,.28-.22.5-.5.5h-3c-.28,0-.5-.22-.5-.5v-2c0-.28.22-.5.5-.5h3c.28,0,.5.22.5.5v2Z" fill="#220e27"/><path d="m29.5,47h-3c-.83,0-1.5.67-1.5,1.5v2c0,.83.67,1.5,1.5,1.5h3c.83,0,1.5-.67,1.5-1.5v-2c0-.83-.67-1.5-1.5-1.5Zm.5,3.5c0,.28-.22.5-.5.5h-3c-.28,0-.5-.22-.5-.5v-2c0-.28.22-.5.5-.5h3c.28,0,.5.22.5.5v2Z" fill="#220e27"/></g><g id="email" class="g"><path d="M59 28H21C19.3431 28 18 29.3431 18 31V59C18 60.6569 19.3431 62 21 62H59C60.6569 62 62 60.6569 62 59V31C62 29.3431 60.6569 28 59 28Z" fill="white"/><path d="M59 29C60.1 29 61 29.9 61 31V59C61 60.1 60.1 61 59 61H21C19.9 61 19 60.1 19 59V31C19 29.9 19.9 29 21 29H59ZM59 27H21C18.79 27 17 28.79 17 31V59C17 61.21 18.79 63 21 63H59C61.21 63 63 61.21 63 59V31C63 28.79 61.21 27 59 27Z" fill="#220E27"/><path d="M18.64 29.8701L35.68 44.3701C38.06 46.4001 41.93 46.4001 44.31 44.3701L61.35 29.8701" stroke="#220E27" stroke-linecap="round" stroke-linejoin="round" fill="#fff"/><path d="M25.76 54.49L30.51 49.75" stroke="#220E27" stroke-linecap="round" stroke-linejoin="round"/><path d="M54.24 54.49L49.49 49.75" stroke="#220E27" stroke-linecap="round" stroke-linejoin="round"/><path d="M40 22V18" stroke="#1D59F9" stroke-width="2" stroke-linecap="round" stroke-linejoin="round"/><path d="M44 24L47 21" stroke="#1D59F9" stroke-width="2" stroke-linecap="round" stroke-linejoin="round"/><path d="M36 24L33 21" stroke="#1D59F9" stroke-width="2" stroke-linecap="round" stroke-linejoin="round"/></g><g id="vcard" class="g"><path d="M53 19H26C23.2386 19 21 21.2386 21 24V56C21 58.7614 23.2386 61 26 61H53C55.7614 61 58 58.7614 58 56V24C58 21.2386 55.7614 19 53 19Z" fill="white"/><path d="M53 20C55.21 20 57 21.79 57 24V56C57 58.21 55.21 60 53 60H26C23.79 60 22 58.21 22 56V24C22 21.79 23.79 20 26 20H53ZM53 18H26C22.69 18 20 20.69 20 24V56C20 59.31 22.69 62 26 62H53C56.31 62 59 59.31 59 56V24C59 20.69 56.31 18 53 18Z" fill="#220E27"/><path d="M31.5 50.6401H47.5" stroke="#1D59F9" stroke-width="2" stroke-linecap="round" stroke-linejoin="round"/><path d="M35.5 54.6401H43.5" stroke="#1D59F9" stroke-width="2" stroke-linecap="round" stroke-linejoin="round"/><path d="M49 35.6401C49 37.9101 48.2 40.0101 46.86 41.6401C45.12 39.5001 42.47 38.1401 39.5 38.1401C36.53 38.1401 33.88 39.5001 32.13 41.6401C30.8 40.0101 30 37.9101 30 35.6401C30 30.3901 34.25 26.1401 39.5 26.1401C44.75 26.1401 49 30.3901 49 35.6401Z" stroke="#220E27" stroke-linecap="round" stroke-linejoin="round" fill="#fff"/><path d="M39.5 36.1401C40.8807 36.1401 42 35.0208 42 33.6401C42 32.2594 40.8807 31.1401 39.5 31.1401C38.1193 31.1401 37 32.2594 37 33.6401C37 35.0208 38.1193 36.1401 39.5 36.1401Z" stroke="#220E27" stroke-linecap="round" stroke-linejoin="round" fill="#fff"/><path d="M46.86 41.6401C45.12 43.7801 42.47 45.1401 39.5 45.1401C36.53 45.1401 33.88 43.7801 32.13 41.6401C33.88 39.5001 36.53 38.1401 39.5 38.1401C42.47 38.1401 45.12 39.5001 46.86 41.6401Z" stroke="#220E27" stroke-linecap="round" stroke-linejoin="round" fill="#fff"/></g><g id="sms" class="g"><path d="M60 20H20C17.79 20 16 21.79 16 24V50C16 52.21 17.79 54 20 54H44L49.88 59.88C49.88 59.88 49.9 59.9 49.92 59.91C51.49 61.43 54.13 60.15 54.09 57.96L54.01 53.99H60.01C62.22 53.99 64.01 52.2 64.01 49.99V24C64.01 21.79 62.22 20 60.01 20H60Z" fill="white" stroke="#220E27" stroke-width="2" stroke-linecap="round" stroke-linejoin="round"/><path d="M29 40.5C30.933 40.5 32.5 38.933 32.5 37C32.5 35.067 30.933 33.5 29 33.5C27.067 33.5 25.5 35.067 25.5 37C25.5 38.933 27.067 40.5 29 40.5Z" fill="white" stroke="#220E27" stroke-linejoin="round"/><path d="M40 40.5C41.933 40.5 43.5 38.933 43.5 37C43.5 35.067 41.933 33.5 40 33.5C38.067 33.5 36.5 35.067 36.5 37C36.5 38.933 38.067 40.5 40 40.5Z" fill="white" stroke="#220E27" stroke-linejoin="round"/><path d="M51 40.5C52.933 40.5 54.5 38.933 54.5 37C54.5 35.067 52.933 33.5 51 33.5C49.067 33.5 47.5 35.067 47.5 37C47.5 38.933 49.067 40.5 51 40.5Z" fill="#1D59F9"/></g><g id="whatsapp" class="g"><path fill-rule="evenodd" clip-rule="evenodd" d="M39.98 60C36.39 60 32.87 59.03 29.8 57.21L29.47 57.01L21.02 59.23L23.28 50.97L23.06 50.62C21.06 47.45 20.01 43.78 20.01 39.99C20 28.96 28.97 20 39.99 20C45.32 20 50.34 22.08 54.13 25.86C57.9 29.64 59.98 34.66 59.98 40C59.97 51.03 51 60.01 39.99 60.01L39.98 60Z" fill="white"/><path d="M39.99 21C45.06 21 49.83 22.98 53.42 26.56C57 30.15 58.97 34.92 58.97 39.99C58.96 50.47 50.44 59 39.98 59C36.56 59 33.22 58.08 30.31 56.35L29.62 55.93L22.43 57.81L24.35 50.8L23.9 50.08C21.99 47.06 21 43.56 21 39.98C21 29.51 29.52 21 39.99 21ZM39.99 19C28.42 19 19 28.41 19 39.98C19 43.94 20.1 47.79 22.19 51.12L20.5 57.29L19.59 60.63L22.94 59.75L29.31 58.08C32.54 59.99 36.23 61 39.98 61C51.54 61 60.96 51.58 60.97 40C60.97 34.4 58.79 29.13 54.83 25.16C50.86 21.18 45.59 19 39.99 19Z" fill="#220E27"/><path fill-rule="evenodd" clip-rule="evenodd" d="M50.4 44.7702C49.83 44.4902 47.03 43.1002 46.5 42.9102C45.97 42.7202 45.59 42.6302 45.22 43.1902C44.84 43.7602 43.74 45.0502 43.41 45.4202C43.08 45.8002 42.74 45.8502 42.17 45.5602C41.6 45.2802 39.76 44.6702 37.58 42.7202C35.88 41.2102 34.74 39.3402 34.4 38.7702C34.07 38.2002 34.37 37.8902 34.65 37.6102C34.9 37.3602 35.22 36.9402 35.5 36.6102C35.78 36.2802 35.88 36.0402 36.07 35.6602C36.26 35.2802 36.17 34.9502 36.03 34.6602C35.89 34.3802 34.75 31.5602 34.27 30.4202C33.81 29.3002 33.34 29.4602 32.99 29.4502C32.66 29.4302 32.28 29.4302 31.89 29.4302C31.5 29.4302 30.89 29.5702 30.37 30.1402C29.84 30.7102 28.38 32.0902 28.38 34.9102C28.38 37.7302 30.43 40.4302 30.71 40.8102C30.99 41.1902 34.73 46.9602 40.46 49.4302C41.82 50.0202 42.88 50.3702 43.71 50.6302C45.08 51.0702 46.32 51.0002 47.3 50.8602C48.4 50.7002 50.67 49.4802 51.16 48.1402C51.63 46.8002 51.63 45.6602 51.49 45.4202C51.35 45.1802 50.96 45.0402 50.39 44.7502L50.4 44.7702Z" fill="#1D59F9"/></g><g id="barcode" class="g"><path fill="#fff" d="M55.79 61H24.21C21.88 61 20 59.12 20 56.79V23.21A4.21 4.21 0 0 1 24.21 19H55.8a4.21 4.21 0 0 1 4.21 4.21V56.8a4.217 4.217 0 0 1-4.22 4.2Z"/><path fill="#220E27" d="M20 30.74c-.55 0-1-.45-1-1v-6.63C19 20.3 21.31 18 24.14 18h6.66c.55 0 1 .45 1 1s-.45 1-1 1h-6.66C22.41 20 21 21.4 21 23.12v6.63c0 .55-.45.99-1 .99ZM60 30.74c-.55 0-1-.45-1-1v-6.63C59 21.4 57.59 20 55.86 20H49.2c-.55 0-1-.45-1-1s.45-1 1-1h6.66c2.83 0 5.14 2.3 5.14 5.12v6.63c0 .55-.45.99-1 .99ZM30.8 62h-6.66C21.31 62 19 59.7 19 56.88v-6.63c0-.55.45-1 1-1s1 .45 1 1v6.63C21 58.6 22.41 60 24.14 60h6.66c.55 0 1 .45 1 1s-.45 1-1 1ZM55.86 62H49.2c-.55 0-1-.45-1-1s.45-1 1-1h6.66c1.73 0 3.14-1.4 3.14-3.12v-6.63c0-.55.45-1 1-1s1 .45 1 1v6.63C61 59.7 58.69 62 55.86 62ZM40.02 44.53c-.55 0-1-.45-1-1V29.01c0-.55.45-1 1-1s1 .45 1 1v14.52c0 .55-.44 1-1 1ZM33.56 43.52c-.28 0-.5-.22-.5-.5V28.5c0-.28.22-.5.5-.5s.5.22.5.5v14.52c0 .27-.22.5-.5.5ZM30.05 44.53c-.55 0-1-.45-1-1V29.01c0-.55.45-1 1-1s1 .45 1 1v14.52c0 .55-.45 1-1 1ZM50 44.53c-.55 0-1-.45-1-1V29.01c0-.55.45-1 1-1s1 .45 1 1v14.52c0 .55-.45 1-1 1ZM46.51 44.5c-.28 0-.5-.22-.5-.5V28.5c0-.28.22-.5.5-.5s.5.22.5.5V44c0 .28-.22.5-.5.5ZM43.56 44.5c-.28 0-.5-.22-.5-.5V28.5c0-.28.22-.5.5-.5s.5.22.5.5V44c0 .28-.23.5-.5.5ZM36.52 44.5c-.28 0-.5-.22-.5-.5V28.5c0-.28.22-.5.5-.5s.5.22.5.5V44c0 .28-.23.5-.5.5Z"/><path fill="#1D59F8" d="M56 44.86H24c-.55 0-1-.45-1-1s.45-1 1-1h32c.55 0 1 .45 1 1s-.45 1-1 1Z"/></g><g id="social" class="g"><path d="M21.18 17h36.64c2.31 0 4.18 1.85 4.18 4.13v30.75c0 2.28-1.87 4.13-4.18 4.13H38.53s-4.59 4.78-6.15 6.27c-1.53 1.47-4.39.66-4.39-2.26l.09-4.01h-6.89c-2.31 0-4.18-1.85-4.18-4.13V21.13C17 18.85 18.87 17 21.18 17Z" fill="#fff"/><path d="M30.6 64c-.47 0-.95-.09-1.4-.29-1.39-.59-2.22-1.97-2.22-3.69l.06-3.01h-5.87c-2.86 0-5.18-2.3-5.18-5.13V21.13C16 18.3 18.32 16 21.18 16h36.64c2.86 0 5.18 2.3 5.18 5.13v30.75c0 2.83-2.32 5.13-5.18 5.13H38.95c-1.05 1.09-4.54 4.71-5.88 6-.68.65-1.56.99-2.47.99Zm-9.42-46C19.43 18 18 19.4 18 21.13v30.75c0 1.72 1.43 3.13 3.18 3.13h6.89c.27 0 .53.11.71.3.19.19.29.45.29.72l-.09 4.01c0 .88.37 1.56 1.01 1.83.57.25 1.24.12 1.7-.31 1.53-1.46 6.07-6.19 6.12-6.24.19-.2.45-.31.72-.31h19.29c1.75 0 3.18-1.4 3.18-3.13V21.13c0-1.72-1.43-3.13-3.18-3.13H21.18Z" fill="#220E27"/><path d="M34.4 44.95H30c-1.1 0-2-.9-2-2v-8.97c0-1.1.9-2 2-2h4.4v12.97Z" fill="#1D59F9"/><path d="M48.88 32.51h-8.61s1.57-4.01 2.09-5.41c.41-1.1-.61-2.59-2.06-2.59h-1.89l-4.02 7.57v11.86c0 2.05.55 2.5 2.53 2.5h9.65c1.32 0 2.25-1 2.61-2.25.54-1.86 1.55-5.39 2.06-7.19.34-1.14.72-4.49-2.36-4.49Z" fill="#fff"/><path d="M46.58 46.94h-9.65c-2.29 0-3.03-.73-3.03-3V32.08c0-.08.02-.16.06-.23l4.02-7.57c.09-.16.26-.27.44-.27h1.89c.86 0 1.68.44 2.19 1.17.46.66.58 1.44.34 2.09-.39 1.04-1.36 3.53-1.83 4.74h7.88c1.07 0 1.89.36 2.43 1.07.91 1.21.69 3.12.42 4.07l-.39 1.36c-.54 1.87-1.25 4.36-1.68 5.83-.47 1.6-1.66 2.6-3.09 2.6ZM34.9 32.21v11.74c0 1.72.28 2 2.03 2h9.65c1.16 0 1.86-.97 2.13-1.89.43-1.46 1.14-3.95 1.67-5.82l.39-1.36c.2-.71.41-2.3-.26-3.19-.34-.45-.87-.67-1.63-.67h-8.61c-.17 0-.32-.08-.41-.22a.503.503 0 0 1-.05-.46s1.57-4.01 2.09-5.41c.13-.35.05-.78-.22-1.17-.32-.46-.83-.74-1.37-.74h-1.59l-3.82 7.19Z" fill="#220E27"/><path d="M31.2 36.45c.553 0 1-.452 1-1.01s-.448-1.01-1-1.01-1 .452-1 1.01.448 1.01 1 1.01Z" fill="#fff"/></g></svg>