<?xml version="1.0" encoding="utf-8"?>
<!-- Generator: Adobe Illustrator 28.0.0, SVG Export Plug-In . SVG Version: 6.00 Build 0)  -->
<svg version="1.1" xmlns="http://www.w3.org/2000/svg" xmlns:xlink="http://www.w3.org/1999/xlink" x="0px" y="0px"
	 viewBox="0 0 80 80" style="enable-background:new 0 0 80 80;" xml:space="preserve">
<style type="text/css">
	.st0{fill:#FFFFFF;}
	.st1{fill:#220E27;}
	.st2{fill:#FFFFFF;stroke:#220E27;stroke-width:2;stroke-linecap:round;stroke-linejoin:round;stroke-miterlimit:10;}
	.st3{fill:#1D59F9;}
	.st4{fill:#FFFFFF;stroke:#220E27;stroke-width:2;stroke-linejoin:round;stroke-miterlimit:10;}
	.st5{fill:none;stroke:#220E27;stroke-linecap:round;stroke-linejoin:round;stroke-miterlimit:10;}
	.st6{fill:#1D59F9;stroke:#1D59F9;stroke-width:0.25;stroke-linejoin:round;stroke-miterlimit:10;}
	.st7{fill:none;stroke:#220E27;stroke-linejoin:round;stroke-miterlimit:10;}
	.st8{fill:none;stroke:#220E27;stroke-width:2;stroke-linejoin:round;stroke-miterlimit:10;}
	.st9{fill:none;stroke:#220E27;stroke-width:2;stroke-linecap:round;stroke-linejoin:round;stroke-miterlimit:10;}
	.st10{fill:#FFFFFF;stroke:#220E27;stroke-linecap:round;stroke-miterlimit:10;}
	.st11{fill:none;stroke:#220E27;stroke-linecap:round;stroke-miterlimit:10;}
	.st12{fill:#1D59F9;stroke:#1D59F9;stroke-miterlimit:10;}
	.st13{fill:#1D59F9;stroke:#220E27;stroke-width:2;stroke-linecap:round;stroke-linejoin:round;stroke-miterlimit:10;}
	.st14{fill:none;stroke:#1D59F9;stroke-linecap:round;stroke-miterlimit:10;}
	.st15{fill:none;stroke:#FFFFFF;stroke-width:2;stroke-linecap:round;stroke-linejoin:round;stroke-miterlimit:10;}
	.st16{fill:none;stroke:#1D59F9;stroke-width:2;stroke-linecap:round;stroke-linejoin:round;stroke-miterlimit:10;}
	.st17{fill:#FFFFFF;stroke:#220E27;stroke-linejoin:round;stroke-miterlimit:10;}
	.st18{fill:none;stroke:#1D59F9;stroke-linecap:round;stroke-linejoin:round;stroke-miterlimit:10;}
	.st19{fill:#FFFFFF;stroke:#220E27;stroke-miterlimit:10;}
</style>
<g id="titulos">
</g>
<g id="iconos">
	<g>
		<path class="st0" d="M24.4,59.7c-0.6,0-1-0.4-1-1v-8.5c-0.5-0.5-0.8-1.2-0.8-1.9c0-1.5,1.2-2.7,2.7-2.7s2.7,1.2,2.7,2.7
			c0,0.7-0.3,1.4-0.8,1.9v8.5c0,0.6-0.4,1-1,1H24.4z"/>
		<path class="st1" d="M25.3,46.6c0.9,0,1.7,0.8,1.7,1.7c0,0.6-0.3,1.2-0.8,1.5v9h-1.8v-9c-0.5-0.3-0.8-0.8-0.8-1.5
			C23.6,47.3,24.4,46.6,25.3,46.6 M25.3,44.6c-2.1,0-3.7,1.7-3.7,3.7c0,0.9,0.3,1.7,0.8,2.3v8.1c0,1.1,0.9,2,2,2h1.8
			c1.1,0,2-0.9,2-2v-8.1c0.5-0.6,0.8-1.5,0.8-2.3C29.1,46.2,27.4,44.6,25.3,44.6L25.3,44.6z"/>
	</g>
	<line class="st7" x1="26.8" y1="50.2" x2="23.8" y2="50.2"/>
	<g>
		<path class="st0" d="M39.1,59.7c-0.6,0-1-0.4-1-1v-8.5c-0.5-0.5-0.8-1.2-0.8-1.9c0-1.5,1.2-2.7,2.7-2.7s2.7,1.2,2.7,2.7
			c0,0.7-0.3,1.4-0.8,1.9v8.5c0,0.6-0.4,1-1,1H39.1z"/>
		<path class="st1" d="M39.9,46.6c0.9,0,1.7,0.8,1.7,1.7c0,0.6-0.3,1.2-0.8,1.5v9h-1.8v-9c-0.5-0.3-0.8-0.8-0.8-1.5
			C38.2,47.3,39,46.6,39.9,46.6 M39.9,44.6c-2.1,0-3.7,1.7-3.7,3.7c0,0.9,0.3,1.7,0.8,2.3v8.1c0,1.1,0.9,2,2,2h1.8c1.1,0,2-0.9,2-2
			v-8.1c0.5-0.6,0.8-1.5,0.8-2.3C43.7,46.2,42,44.6,39.9,44.6L39.9,44.6z"/>
	</g>
	<line class="st7" x1="41.4" y1="50.2" x2="38.4" y2="50.2"/>
	<g>
		<path class="st0" d="M53.8,59.7c-0.6,0-1-0.4-1-1v-8.5c-0.5-0.5-0.8-1.2-0.8-1.9c0-1.5,1.2-2.7,2.7-2.7s2.7,1.2,2.7,2.7
			c0,0.7-0.3,1.4-0.8,1.9v8.5c0,0.6-0.4,1-1,1H53.8z"/>
		<path class="st1" d="M54.7,46.6c0.9,0,1.7,0.8,1.7,1.7c0,0.6-0.3,1.2-0.8,1.5v9h-1.8v-9c-0.5-0.3-0.8-0.8-0.8-1.5
			C52.9,47.3,53.7,46.6,54.7,46.6 M54.7,44.6c-2.1,0-3.7,1.7-3.7,3.7c0,0.9,0.3,1.7,0.8,2.3v8.1c0,1.1,0.9,2,2,2h1.8
			c1.1,0,2-0.9,2-2v-8.1c0.5-0.6,0.8-1.5,0.8-2.3C58.4,46.2,56.7,44.6,54.7,44.6L54.7,44.6z"/>
	</g>
	<line class="st7" x1="56.1" y1="50.2" x2="53.5" y2="50.2"/>
	<path class="st8" d="M52.8,49.5c-3.7,2.2-7.4,2.4-11.1,0.1"/>
	<path class="st8" d="M38.2,49.6c-3.7,2.2-7.4,2.4-11.1,0.1"/>
	<g>
		<path class="st0" d="M29.2,42.5c-1.5,0-2.8-1.2-2.8-2.8V23.3c0-1.5,1.2-2.8,2.8-2.8h21.7c1.5,0,2.8,1.2,2.8,2.8v16.5
			c0,1.5-1.2,2.8-2.8,2.8H29.2z"/>
		<path class="st1" d="M50.8,21.5c1,0,1.8,0.8,1.8,1.8v16.5c0,1-0.8,1.8-1.8,1.8H29.2c-1,0-1.8-0.8-1.8-1.8V23.3
			c0-1,0.8-1.8,1.8-1.8H50.8 M50.8,19.5H29.2c-2.1,0-3.8,1.7-3.8,3.8v16.5c0,2.1,1.7,3.8,3.8,3.8h21.7c2.1,0,3.8-1.7,3.8-3.8V23.3
			C54.6,21.2,52.9,19.5,50.8,19.5L50.8,19.5z"/>
	</g>
	<g>
		<path class="st0" d="M30.9,39.4c-0.7,0-1.3-0.6-1.3-1.3V24.8c0-0.7,0.6-1.3,1.3-1.3h18.1c0.7,0,1.3,0.6,1.3,1.3v13.3
			c0,0.7-0.6,1.3-1.3,1.3H30.9z"/>
		<path class="st1" d="M49.1,24.1c0.4,0,0.8,0.3,0.8,0.8v13.3c0,0.4-0.3,0.8-0.8,0.8H30.9c-0.4,0-0.8-0.3-0.8-0.8V24.8
			c0-0.4,0.3-0.8,0.8-0.8H49.1 M49.1,23.1H30.9c-1,0-1.8,0.8-1.8,1.8v13.3c0,1,0.8,1.8,1.8,1.8h18.1c1,0,1.8-0.8,1.8-1.8V24.8
			C50.8,23.9,50,23.1,49.1,23.1L49.1,23.1z"/>
	</g>
	<circle class="st3" cx="36.4" cy="27.4" r="2.1"/>
	<polyline class="st18" points="32.1,36.4 36.2,32.3 39.8,36.4 	"/>
	<polyline class="st18" points="38.2,34.4 41.9,30.7 47,36.4 	"/>
</g>
</svg>
