<?xml version="1.0" encoding="UTF-8"?>
<svg id="iconos" xmlns="http://www.w3.org/2000/svg" viewBox="0 0 80 80">
  <defs>
    <style>
      .cls-1 {
        fill: #220e27;
      }

      .cls-1, .cls-2, .cls-3 {
        stroke-width: 0px;
      }

      .cls-2 {
        fill: #1d59f9;
      }

      .cls-3 {
        fill: #fff;
      }
    </style>
  </defs>
  <g>
    <g>
      <path class="cls-3" d="M17.5,58.56c-1.5,0-2.6-1.2-2.6-2.6v-28.5c0-1.5,1.2-2.6,2.6-2.6h45c1.5,0,2.6,1.2,2.6,2.6v28.5c0,1.5-1.2,2.6-2.6,2.6H17.5Z"/>
      <path class="cls-1" d="M62.5,25.86c.9,0,1.6.7,1.6,1.6v28.5c0,.9-.7,1.6-1.6,1.6H17.5c-.9,0-1.6-.7-1.6-1.6v-28.5c0-.9.7-1.6,1.6-1.6h45M62.5,23.86H17.5c-2,0-3.6,1.6-3.6,3.6v28.5c0,2,1.6,3.6,3.6,3.6h45c2,0,3.6-1.6,3.6-3.6v-28.5c0-2-1.6-3.6-3.6-3.6h0Z"/>
    </g>
    <g>
      <path class="cls-3" d="M37.79,57.46c-5.9-3.5-10.2-1-17.9-2.5-1-.1-1.8-1-1.8-1.9v-29.7c0-1.2,1.2-2.1,2.4-1.9,8.1,2.7,14.5,1.4,17.9,2.5,1.2.5,1.8,1,1.8,1.9v29.7c.1,1.2-1.1,2.1-2.4,1.9Z"/>
      <path class="cls-1" d="M38.15,58.49c-.17,0-.34-.01-.51-.04l-.19-.03-.17-.1c-3.28-1.95-5.98-1.9-9.4-1.84-2.34.04-4.98.09-8.18-.54-1.4-.13-2.61-1.43-2.61-2.88v-29.7c0-.83.38-1.63,1.04-2.18.7-.6,1.62-.86,2.53-.7l.15.04c4.81,1.6,9,1.76,12.36,1.88,2.18.08,4.07.15,5.53.62,1.27.53,2.49,1.25,2.49,2.85v29.7c.06.73-.25,1.52-.86,2.09-.58.54-1.36.83-2.18.83ZM38.11,56.49c.33.01.65-.1.86-.3.17-.16.25-.34.23-.55v-29.78c0-.22,0-.48-1.19-.98-1.11-.36-2.87-.42-4.91-.49-3.47-.13-7.79-.28-12.84-1.95-.3-.03-.61.07-.84.27-.12.1-.33.33-.33.66v29.7c0,.37.4.86.9.9,3.09.6,5.51.56,7.85.51,3.38-.06,6.58-.11,10.26,2.01Z"/>
    </g>
    <g>
      <path class="cls-3" d="M42.55,57.46c5.9-3.5,10.2-1,17.9-2.5,1-.1,1.8-1,1.8-1.9v-29.7c0-1.2-1.2-2.1-2.4-1.9-8.1,2.7-14.5,1.4-17.9,2.5-1.2.5-1.8,1-1.8,1.9v29.7c-.1,1.2,1.1,2.1,2.4,1.9Z"/>
      <path class="cls-1" d="M39.84,57.66c-.61-.57-.93-1.36-.86-2.09v-29.7c0-1.6,1.22-2.33,2.49-2.85,1.46-.47,3.34-.54,5.53-.62,3.36-.12,7.55-.27,12.36-1.88l.15-.04c.91-.15,1.83.11,2.53.7.66.56,1.04,1.35,1.04,2.18v29.7c0,1.45-1.21,2.75-2.61,2.88-3.2.62-5.84.58-8.18.54-3.42-.06-6.12-.11-9.4,1.84l-.17.1-.19.03c-.17.03-.34.04-.51.04-.82,0-1.6-.3-2.18-.83ZM52.33,54.48c2.34.04,4.77.08,7.85-.51.5-.05.9-.54.9-.9v-29.7c0-.33-.21-.55-.33-.66-.24-.2-.54-.3-.84-.27-5.05,1.67-9.36,1.82-12.84,1.95-2.04.07-3.79.14-4.91.49-1.19.49-1.19.76-1.19.98v29.78c-.02.21.06.39.22.55.21.2.53.31.86.3,3.69-2.12,6.88-2.07,10.26-2.01Z"/>
    </g>
    <path class="cls-3" d="M45.6,29.76l10.9-.9c.2,0,.4.2.4.4l-.1,6.2c0,.2-.2.4-.3.4l-10.8.9c-.2,0-.4-.2-.4-.4v-6.2c-.1-.2.1-.3.3-.4Z"/>
  </g>
  <g>
    <path class="cls-1" d="M26.37,28.47v3.96s-4.11-.45-4.11-.45l-.02-4,4.13.49M26.36,27.68l-4.13-.5c-.5-.06-.84.22-.83.7l.02,4.01c0,.48.34.84.84.89l4.13.44c.49.05.81-.23.81-.7v-3.95c-.01-.4-.34-.83-.83-.89h0Z"/>
    <polygon class="cls-3" points="22.27 36.14 26.39 36.55 26.4 40.49 22.29 40.12 22.27 36.14"/>
    <g>
      <polygon class="cls-2" points="22.27 36.22 26.39 36.63 26.4 40.57 22.29 40.2 22.27 36.22"/>
      <path class="cls-2" d="M26.41,41.45l-4.11-.35c-.52-.04-.94-.48-.94-.98l-.02-3.99c0-.5.42-.86.93-.8l4.12.41c.51.05.92.49.92.98v3.93c.01.49-.39.85-.9.8ZM23.22,39.4l2.27.2v-2.17s-2.28-.22-2.28-.22v2.19Z"/>
    </g>
    <path class="cls-1" d="M26.42,45.11v3.91s-4.09-.27-4.09-.27l-.02-3.96,4.11.31M26.42,44.33l-4.11-.32c-.5-.04-.83.25-.83.73l.02,3.96c0,.48.34.81.83.84l4.1.26c.49.03.81-.26.81-.73v-3.91c-.01-.47-.34-.81-.83-.85h0Z"/>
    <path class="cls-1" d="M35.87,32.04s-.04,0-.06,0l-7.27-.83c-.27-.03-.47-.28-.44-.55s.28-.47.55-.44l7.27.83c.27.03.47.28.44.55-.03.25-.25.44-.5.44Z"/>
    <path class="cls-1" d="M35.87,33.97s-.04,0-.06,0l-7.26-.79c-.27-.03-.47-.28-.44-.55s.28-.47.55-.44l7.26.79c.27.03.47.28.44.55-.03.26-.25.45-.5.45Z"/>
    <path class="cls-1" d="M31.91,29.63s-.04,0-.06,0l-3.31-.4c-.27-.03-.47-.28-.44-.56s.29-.47.56-.44l3.31.4c.27.03.47.28.44.56-.03.25-.25.44-.5.44Z"/>
    <path class="cls-1" d="M35.87,48.24s-.02,0-.04,0l-7.22-.51c-.28-.02-.48-.26-.46-.53.02-.28.28-.49.53-.46l7.22.51c.28.02.48.26.46.53-.02.26-.24.46-.5.46Z"/>
    <path class="cls-1" d="M34.67,50.07s-.02,0-.03,0l-6.03-.4c-.28-.02-.48-.26-.47-.53.02-.28.27-.49.53-.47l6.03.4c.28.02.48.26.47.53-.02.26-.24.47-.5.47Z"/>
    <path class="cls-1" d="M31.93,46.03s-.03,0-.04,0l-3.29-.25c-.28-.02-.48-.26-.46-.54.02-.28.3-.47.54-.46l3.29.25c.28.02.48.26.46.54-.02.26-.24.46-.5.46Z"/>
    <path class="cls-2" d="M34.67,39.79s-.03,0-.05,0l-6.05-.57c-.27-.03-.48-.27-.45-.54.03-.27.26-.46.54-.45l6.05.57c.27.03.48.27.45.54-.02.26-.24.45-.5.45Z"/>
    <path class="cls-2" d="M35.87,41.82s-.03,0-.04,0l-7.24-.64c-.28-.02-.48-.27-.45-.54.02-.27.28-.46.54-.45l7.24.64c.28.02.48.27.45.54-.02.26-.24.46-.5.46Z"/>
    <path class="cls-2" d="M31.92,37.6s-.03,0-.05,0l-3.3-.33c-.28-.03-.48-.27-.45-.55.03-.27.27-.46.55-.45l3.3.33c.28.03.48.27.45.55-.03.26-.24.45-.5.45Z"/>
  </g>
  <g>
    <g>
      <path class="cls-1" d="M47.85,29l.05,3.84-3.83.68-.04-3.79,3.83-.73M47.84,28.23l-3.82.74c-.45.09-.75.45-.74.9l.04,3.78c0,.45.31.7.76.62l3.83-.67c.47-.08.77-.44.77-.91l-.05-3.85c0-.38-.32-.71-.79-.62h0Z"/>
      <polygon class="cls-3" points="44.11 37.48 47.94 36.85 47.99 40.7 44.16 41.27 44.11 37.48"/>
      <g>
        <path class="cls-1" d="M48.08,36.05s-.1,0-.15.01l-3.83.64c-.47.08-.84.52-.84.99l.04,3.78c0,.43.32.74.73.74.04,0,.08,0,.12,0l3.83-.56c.48-.07.87-.52.87-1l-.05-3.86c0-.43-.32-.73-.74-.73h0ZM45,40.36l-.02-2.09,2.11-.34.03,2.11-2.11.32h0Z"/>
        <polygon class="cls-3" points="44.11 37.55 47.94 36.93 47.99 40.77 44.16 41.35 44.11 37.55"/>
      </g>
      <path class="cls-2" d="M48.04,45.23l.05,3.85-3.84.47-.04-3.8,3.83-.52M48.03,44.46l-3.83.53c-.45.06-.75.41-.75.86l.04,3.79c0,.46.31.72.76.67l3.84-.46c.47-.06.78-.4.77-.87l-.05-3.86c0-.46-.32-.73-.79-.67h0Z"/>
      <path class="cls-1" d="M50.01,31.02c-.24,0-.45-.17-.49-.41-.05-.27.13-.53.4-.58l7.4-1.36c.28-.05.53.13.58.4.05.27-.13.53-.4.58l-7.4,1.36s-.06,0-.09,0Z"/>
      <path class="cls-1" d="M50.04,32.96c-.24,0-.45-.17-.49-.41-.05-.27.13-.53.4-.58l7.4-1.32c.27-.05.53.13.58.4.05.27-.13.53-.4.58l-7.4,1.32s-.06,0-.09,0Z"/>
      <path class="cls-1" d="M49.99,29.09c-.23,0-.44-.17-.49-.41-.05-.27.13-.53.4-.58l3.29-.63c.26-.05.53.13.58.4s-.13.53-.4.58l-3.29.63s-.06,0-.09,0Z"/>
      <path class="cls-2" d="M50.21,47.38c-.25,0-.46-.18-.5-.44-.04-.27.16-.52.43-.56l7.42-.95c.27-.04.52.16.56.43s-.16.52-.43.56l-7.42.95s-.04,0-.06,0Z"/>
      <path class="cls-2" d="M50.24,49.32c-.25,0-.46-.19-.5-.44-.03-.27.16-.52.44-.56l6.15-.75c.27-.04.52.16.56.44.03.27-.16.52-.44.56l-6.15.75s-.04,0-.06,0Z"/>
      <path class="cls-2" d="M50.19,45.44c-.25,0-.46-.18-.49-.43-.04-.27.15-.53.43-.56l3.3-.44c.26-.05.53.15.56.43.04.27-.15.53-.43.56l-3.3.44s-.04,0-.07,0Z"/>
      <path class="cls-1" d="M50.11,38.93c-.24,0-.45-.18-.49-.42-.04-.27.14-.53.42-.57l6.14-.96c.26-.04.53.14.57.42.04.27-.14.53-.42.57l-6.14.96s-.05,0-.08,0Z"/>
      <path class="cls-1" d="M50.13,40.87c-.24,0-.46-.18-.49-.43-.04-.27.15-.53.42-.57l7.41-1.11c.27-.04.53.15.57.42.04.27-.15.53-.42.57l-7.41,1.11s-.05,0-.08,0Z"/>
      <line class="cls-3" x1="50.09" y1="36.5" x2="53.38" y2="35.96"/>
    </g>
    <polygon class="cls-2" points="48.3 44.95 48.45 49.19 44.02 49.94 43.84 45.36 48.3 44.95"/>
  </g>
</svg>