<?xml version="1.0" encoding="utf-8"?>
<!-- Generator: Adobe Illustrator 28.0.0, SVG Export Plug-In . SVG Version: 6.00 Build 0)  -->
<svg version="1.1" xmlns="http://www.w3.org/2000/svg" xmlns:xlink="http://www.w3.org/1999/xlink" x="0px" y="0px"
	 viewBox="0 0 80 80" style="enable-background:new 0 0 80 80;" xml:space="preserve">
<style type="text/css">
	.st0{fill:#FFFFFF;}
	.st1{fill:#220E27;}
	.st2{fill:#FFFFFF;stroke:#220E27;stroke-width:2;stroke-linecap:round;stroke-linejoin:round;stroke-miterlimit:10;}
	.st3{fill:#1D59F9;}
	.st4{fill:#FFFFFF;stroke:#220E27;stroke-width:2;stroke-linejoin:round;stroke-miterlimit:10;}
	.st5{fill:none;stroke:#220E27;stroke-linecap:round;stroke-linejoin:round;stroke-miterlimit:10;}
	.st6{fill:#1D59F9;stroke:#1D59F9;stroke-width:0.25;stroke-linejoin:round;stroke-miterlimit:10;}
	.st7{fill:none;stroke:#220E27;stroke-linejoin:round;stroke-miterlimit:10;}
	.st8{fill:none;stroke:#220E27;stroke-width:2;stroke-linejoin:round;stroke-miterlimit:10;}
	.st9{fill:none;stroke:#220E27;stroke-width:2;stroke-linecap:round;stroke-linejoin:round;stroke-miterlimit:10;}
	.st10{fill:#FFFFFF;stroke:#220E27;stroke-linecap:round;stroke-miterlimit:10;}
	.st11{fill:none;stroke:#220E27;stroke-linecap:round;stroke-miterlimit:10;}
	.st12{fill:#1D59F9;stroke:#1D59F9;stroke-miterlimit:10;}
	.st13{fill:#1D59F9;stroke:#220E27;stroke-width:2;stroke-linecap:round;stroke-linejoin:round;stroke-miterlimit:10;}
	.st14{fill:none;stroke:#1D59F9;stroke-linecap:round;stroke-miterlimit:10;}
	.st15{fill:none;stroke:#FFFFFF;stroke-width:2;stroke-linecap:round;stroke-linejoin:round;stroke-miterlimit:10;}
	.st16{fill:none;stroke:#1D59F9;stroke-width:2;stroke-linecap:round;stroke-linejoin:round;stroke-miterlimit:10;}
	.st17{fill:#FFFFFF;stroke:#220E27;stroke-linejoin:round;stroke-miterlimit:10;}
	.st18{fill:none;stroke:#1D59F9;stroke-linecap:round;stroke-linejoin:round;stroke-miterlimit:10;}
	.st19{fill:#FFFFFF;stroke:#220E27;stroke-miterlimit:10;}
</style>
<g id="titulos">
</g>
<g id="iconos">
	<g>
		<g>
			<path class="st0" d="M52.4,31.1l-2.7-2l5.6-7.6l-3.1-2.3l-5.6,7.6l-2.7-2l-17,22.8c-0.4,0.5-0.3,1.2,0.2,1.6l1.5,1.1l-1.1,1.4
				c-0.2,0.3-0.2,0.7,0.1,1l2.5,1.9c0.3,0.2,0.7,0.2,1-0.1l1.1-1.4l1.5,1.1c0.5,0.4,1.2,0.3,1.6-0.2L52.4,31.1z"/>
			<path class="st1" d="M29.6,55.5L27,53.6c-0.8-0.6-1-1.8-0.4-2.6l0.4-0.5l-0.6-0.4c-1-0.8-1.2-2.2-0.5-3.2l17-22.8
				c0.4-0.5,1.1-0.6,1.6-0.2l1.8,1.3l5-6.6c0.4-0.5,1.1-0.6,1.6-0.2l3.1,2.3c0.5,0.4,0.6,1.1,0.2,1.6l-5,6.6l1.8,1.3
				c0.5,0.4,0.6,1.1,0.2,1.6l-17,22.8c-0.8,1-2.2,1.2-3.2,0.5l-0.6-0.4l-0.4,0.5C31.5,55.9,30.4,56.1,29.6,55.5z M28.7,52.1l1.8,1.4
				l0.8-1.1c0.4-0.5,1.1-0.6,1.6-0.2l1.5,1.1l16.4-21.9l-1.8-1.3c-0.5-0.4-0.6-1.1-0.2-1.6l5-6.6l-1.3-1l-5,6.6
				c-0.4,0.5-1.1,0.6-1.6,0.2l-1.8-1.3L27.8,48.3l1.5,1.1c0.5,0.4,0.6,1.1,0.2,1.6L28.7,52.1z"/>
		</g>
		<g>
			<line class="st0" x1="32.6" y1="52.8" x2="28.4" y2="49.7"/>
			
				<rect x="29.9" y="48.7" transform="matrix(0.599 -0.8008 0.8008 0.599 -28.8104 44.9656)" class="st1" width="1.1" height="5.2"/>
		</g>
		<g>
			<line class="st0" x1="50.2" y1="30.2" x2="45.7" y2="26.8"/>
			<rect x="47.4" y="25.7" transform="matrix(0.599 -0.8008 0.8008 0.599 -3.5959 49.8111)" class="st1" width="1.1" height="5.5"/>
		</g>
		<g>
			<line class="st0" x1="50.2" y1="29.4" x2="53.9" y2="32.2"/>
			<path class="st1" d="M53.2,33.1C53.2,33.1,53.2,33.1,53.2,33.1l-3.7-2.8c-0.5-0.4-0.6-1.1-0.2-1.6c0.4-0.5,1.1-0.6,1.6-0.2
				c0,0,0,0,0,0l3.7,2.8c0.5,0.4,0.6,1.1,0.2,1.6C54.4,33.4,53.7,33.5,53.2,33.1z"/>
		</g>
		<g>
			<line class="st0" x1="42.4" y1="23.5" x2="46.1" y2="26.4"/>
			<path class="st1" d="M45.4,27.3C45.4,27.3,45.4,27.3,45.4,27.3l-3.7-2.8c-0.5-0.4-0.6-1.1-0.2-1.6c0.4-0.5,1.1-0.6,1.6-0.2
				l3.7,2.8c0.5,0.4,0.6,1.1,0.2,1.6C46.6,27.5,45.9,27.6,45.4,27.3z"/>
		</g>
		<g>
			<line class="st0" x1="57.5" y1="23.2" x2="50.2" y2="17.7"/>
			<path class="st1" d="M56.8,24.1l-7.3-5.4c-0.5-0.4-0.6-1.1-0.2-1.6c0.4-0.5,1.1-0.6,1.6-0.2l7.3,5.4c0.5,0.4,0.6,1.1,0.2,1.6
				C58,24.3,57.3,24.4,56.8,24.1z"/>
		</g>
		<g>
			<line class="st0" x1="29" y1="53.7" x2="22.5" y2="62.3"/>
			<path class="st1" d="M21.8,63.2c-0.5-0.4-0.6-1.1-0.2-1.6l6.5-8.6c0.4-0.5,1.1-0.6,1.6-0.2s0.6,1.1,0.2,1.6L23.4,63
				C23.1,63.5,22.3,63.6,21.8,63.2z"/>
		</g>
		<path class="st3" d="M33.7,53.2L28,49c-0.3-0.2-0.3-0.6-0.1-0.8l9.8-13.1l6.7,5l-9.8,13.1C34.4,53.4,34,53.4,33.7,53.2z"/>
		<path class="st0" d="M33.9,47.3l-3.5-2.6l0.7-0.9l3.5,2.6c0.3,0.2,0.3,0.5,0.1,0.8C34.5,47.5,34.1,47.5,33.9,47.3z"/>
		<path class="st0" d="M39.4,39.9L36,37.3l0.7-0.9l3.5,2.6c0.3,0.2,0.3,0.5,0.1,0.8C40,40,39.7,40.1,39.4,39.9z"/>
		<g>
			<line class="st0" x1="45.6" y1="31.7" x2="41.9" y2="28.9"/>
			<path class="st1" d="M45.2,32.1l-3.7-2.8c-0.3-0.2-0.3-0.5-0.1-0.8c0.2-0.3,0.5-0.3,0.8-0.1l3.7,2.8c0.3,0.2,0.3,0.5,0.1,0.8
				C45.8,32.3,45.5,32.3,45.2,32.1z"/>
		</g>
		<path class="st0" d="M35,43l-2.1-1.6l0.7-0.9l2.1,1.6c0.3,0.2,0.3,0.5,0.1,0.8S35.3,43.2,35,43z"/>
		<g>
			<line class="st0" x1="41.1" y1="34.8" x2="38.8" y2="33"/>
			<path class="st1" d="M40.8,35.3l-2.4-1.8c-0.3-0.2-0.3-0.5-0.1-0.8c0.2-0.3,0.5-0.3,0.8-0.1l2.4,1.8c0.3,0.2,0.3,0.5,0.1,0.8
				S41.1,35.5,40.8,35.3z"/>
		</g>
	</g>
</g>
</svg>
