<?xml version="1.0" encoding="UTF-8"?>
<svg id="iconos" xmlns="http://www.w3.org/2000/svg" viewBox="0 0 80 80">
  <defs>
    <style>
      .cls-1 {
        fill: #220e27;
      }

      .cls-1, .cls-2, .cls-3 {
        stroke-width: 0px;
      }

      .cls-2 {
        fill: #1d59f9;
      }

      .cls-3 {
        fill: #fff;
      }
    </style>
  </defs>
  <g>
    <path class="cls-3" d="M57.27,36.96s-5.4-1.42-6.52-1.75c.43-.75.87-1.49,1.31-2.23.67-1.12,1.34-2.24,2.03-3.51,1.06-1.69.33-2.83-.2-3.36-1.26-1.26-2.59-.68-3.03-.49,0,0-4.63,1.86-6.75,2.91-.72-2.65-1.23-4.16-1.95-6.3-1.42-3.7-4.63-2.11-5.28-.08-.32.99-.61,1.97-.9,2.96-.3,1.03-.6,2.06-.98,3.22,0,0,0,0,0,.01-.75-.42-1.5-.85-2.25-1.29-1.15-.66-3.82-2.08-4.03-2.12-.79-.26-1.64-.12-2.29.4-.8.64-1.15,1.74-.89,2.8.18.73.48,1.28.76,1.81,0,0,1.59,3.64,2.37,5.31l-.29.08c-1.99.56-6.46,1.91-6.66,2.01-.92.46-1.49,1.36-1.49,2.35,0,.99.57,1.89,1.49,2.36.22.11,5.57,1.79,6.38,2.05-.11.21-.22.43-.33.64-.79,1.53-2.28,4.57-2.28,4.57-.2.59-1.41,1.98-.18,3.61.05.07.1.13.16.19.68.68,1.71,1.23,3.47.3,0,0,4.01-1.84,5.89-2.77l2.35,6.17c.65,1.94,1.71,2.42,2.67,2.42.11,0,.23-.01.34-.03,1.81-.36,2.36-2.71,2.36-2.71.53-1.48.99-2.96,1.47-4.47.08-.25.15-.49.23-.74,2.07,1.18,4.04,2.2,5.85,3.04.72.36,1.44.26,2.01.18,1-.11,1.72-1.09,1.77-1.89.06-.43.16-1.15-.15-1.74-.4-1.01-2.4-4.55-2.9-5.45-.16-.29-.32-.58-.48-.87,2.28-.88,4.6-1.65,6.85-2.4.56-.18,2.25-.75,2.25-2.71,0-.88-.39-2.03-2.22-2.48Z"/>
    <path class="cls-1" d="M39.65,20.01c.94,0,1.91.61,2.53,2.23.72,2.14,1.23,3.65,1.95,6.3,2.12-1.06,6.75-2.91,6.75-2.91.23-.1.69-.3,1.25-.3.54,0,1.16.18,1.77.79.53.53,1.26,1.67.2,3.36-.69,1.28-1.36,2.39-2.03,3.51-.44.74-.89,1.48-1.31,2.23,1.12.33,6.52,1.75,6.52,1.75,1.84.46,2.22,1.61,2.22,2.48,0,1.97-1.69,2.53-2.25,2.71-2.25.75-4.57,1.52-6.85,2.4.16.29.32.58.48.87.49.9,2.49,4.44,2.9,5.45.3.59.2,1.31.15,1.74-.06.8-.77,1.78-1.77,1.89-.25.03-.54.07-.84.07-.37,0-.77-.06-1.17-.26-1.81-.84-3.78-1.86-5.85-3.04-.08.25-.16.49-.23.74-.48,1.52-.94,2.99-1.47,4.47,0,0-.55,2.35-2.36,2.71-.11.02-.23.03-.34.03-.95,0-2.02-.47-2.67-2.42l-2.35-6.17c-1.87.93-5.89,2.77-5.89,2.77-.67.35-1.23.49-1.71.49-.78,0-1.34-.37-1.76-.79-.06-.06-.11-.12-.16-.19-1.23-1.63-.02-3.02.18-3.61,0,0,1.5-3.03,2.28-4.57.11-.21.22-.43.33-.64-.81-.26-6.17-1.94-6.38-2.05-.92-.46-1.49-1.36-1.49-2.36,0-.99.57-1.89,1.49-2.35.2-.1,4.67-1.45,6.66-2.01l.29-.08c-.79-1.67-2.37-5.31-2.37-5.31-.29-.53-.58-1.08-.76-1.81-.26-1.06.09-2.15.89-2.8.43-.35.96-.52,1.5-.52.26,0,.53.04.79.13.21.03,2.88,1.45,4.03,2.12.75.43,1.5.87,2.25,1.29,0,0,0,0,0-.01.38-1.16.68-2.19.98-3.22.29-.98.57-1.97.9-2.96.36-1.14,1.54-2.15,2.75-2.15M39.65,18.01v2s0-2,0-2c-2.01,0-4.02,1.52-4.66,3.54-.32.99-.62,2-.9,2.98l-.04.12c-.07.24-.14.47-.21.72-.02-.01-.05-.03-.07-.04-.15-.08-3.21-1.85-4.41-2.28h0c-.46-.16-.94-.24-1.42-.24-1,0-1.98.34-2.75.97-1.41,1.13-2.03,3.03-1.58,4.84.24.94.6,1.64.9,2.2.15.35.77,1.77,1.4,3.16-1.95.57-4.7,1.4-5.06,1.58-1.61.8-2.6,2.39-2.61,4.14,0,1.76.99,3.34,2.59,4.15.21.1.29.15,4.43,1.46-.73,1.45-1.51,3.04-1.56,3.13-.03.06-.06.13-.08.19-.02.05-.06.11-.09.17-.43.82-1.57,2.99.19,5.33.1.13.21.27.34.39.92.92,1.99,1.39,3.19,1.39.83,0,1.7-.23,2.59-.7.33-.15,2.21-1.01,3.91-1.82l1.56,4.1c1.1,3.25,3.32,3.74,4.55,3.74.24,0,.49-.02.73-.07,2.76-.55,3.69-3.37,3.89-4.08.34-.96.65-1.91.96-2.87,1.33.71,2.6,1.35,3.82,1.91.62.3,1.3.45,2.03.45.43,0,.81-.05,1.09-.09,2.02-.24,3.36-2.03,3.51-3.66.08-.58.21-1.69-.31-2.78-.35-.84-1.34-2.66-2.32-4.43,1.53-.55,3.08-1.06,4.58-1.56,3.18-1.05,3.65-3.35,3.65-4.62,0-2.19-1.4-3.84-3.74-4.42-.02,0-2.12-.56-3.95-1.05.66-1.1,1.33-2.22,2.02-3.49,1.47-2.41.71-4.56-.51-5.78-.9-.9-2-1.37-3.19-1.37-.98,0-1.72.32-2.04.46-.11.04-2.53,1.01-4.68,1.96-.4-1.34-.77-2.45-1.2-3.74l-.13-.4s-.02-.05-.03-.08c-1.21-3.17-3.48-3.51-4.39-3.51h0Z"/>
  </g>
  <g>
    <path class="cls-2" d="M39.55,46.95c-2.18,0-4.35,0-6.53,0-.62,0-.77-.15-.77-.77,0-.35.01-.71,0-1.06-.04-.97.36-1.74,1.08-2.36,1.16-.99,2.55-1.48,4-1.82,2.72-.64,5.26-.11,7.66,1.21.44.24.84.6,1.2.96.51.51.75,1.16.74,1.89,0,.42,0,.84,0,1.26,0,.52-.18.68-.69.68-2.23,0-4.46,0-6.69,0Z"/>
    <path class="cls-2" d="M39.62,32.28c2.04.01,3.67,1.67,3.65,3.7-.02,2-1.69,3.64-3.7,3.62-2.04-.02-3.67-1.68-3.65-3.71.02-2.02,1.67-3.63,3.7-3.62Z"/>
  </g>
</svg>