<?xml version="1.0" encoding="utf-8"?>
<!-- Generator: Adobe Illustrator 28.0.0, SVG Export Plug-In . SVG Version: 6.00 Build 0)  -->
<svg version="1.1" xmlns="http://www.w3.org/2000/svg" xmlns:xlink="http://www.w3.org/1999/xlink" x="0px" y="0px"
	 viewBox="0 0 80 80" style="enable-background:new 0 0 80 80;" xml:space="preserve">
<style type="text/css">
	.st0{fill:#FFFFFF;}
	.st1{fill:#220E27;}
	.st2{fill:#FFFFFF;stroke:#220E27;stroke-width:2;stroke-linecap:round;stroke-linejoin:round;stroke-miterlimit:10;}
	.st3{fill:#1D59F9;}
	.st4{fill:#FFFFFF;stroke:#220E27;stroke-width:2;stroke-linejoin:round;stroke-miterlimit:10;}
	.st5{fill:none;stroke:#220E27;stroke-linecap:round;stroke-linejoin:round;stroke-miterlimit:10;}
	.st6{fill:#1D59F9;stroke:#1D59F9;stroke-width:0.25;stroke-linejoin:round;stroke-miterlimit:10;}
	.st7{fill:none;stroke:#220E27;stroke-linejoin:round;stroke-miterlimit:10;}
	.st8{fill:none;stroke:#220E27;stroke-width:2;stroke-linejoin:round;stroke-miterlimit:10;}
	.st9{fill:none;stroke:#220E27;stroke-width:2;stroke-linecap:round;stroke-linejoin:round;stroke-miterlimit:10;}
	.st10{fill:#FFFFFF;stroke:#220E27;stroke-linecap:round;stroke-miterlimit:10;}
	.st11{fill:none;stroke:#220E27;stroke-linecap:round;stroke-miterlimit:10;}
	.st12{fill:#1D59F9;stroke:#1D59F9;stroke-miterlimit:10;}
	.st13{fill:#1D59F9;stroke:#220E27;stroke-width:2;stroke-linecap:round;stroke-linejoin:round;stroke-miterlimit:10;}
	.st14{fill:none;stroke:#1D59F9;stroke-linecap:round;stroke-miterlimit:10;}
	.st15{fill:none;stroke:#FFFFFF;stroke-width:2;stroke-linecap:round;stroke-linejoin:round;stroke-miterlimit:10;}
	.st16{fill:none;stroke:#1D59F9;stroke-width:2;stroke-linecap:round;stroke-linejoin:round;stroke-miterlimit:10;}
	.st17{fill:#FFFFFF;stroke:#220E27;stroke-linejoin:round;stroke-miterlimit:10;}
	.st18{fill:none;stroke:#1D59F9;stroke-linecap:round;stroke-linejoin:round;stroke-miterlimit:10;}
	.st19{fill:#FFFFFF;stroke:#220E27;stroke-miterlimit:10;}
</style>
<g id="titulos">
</g>
<g id="iconos">
	<g>
		<g>
			<path class="st0" d="M34.5,60c-0.6,0-0.8-0.1-0.8-0.1c-2.3-0.9-4.2-2.5-5.7-4.5c-2.8-3.8-4.3-8-4.5-12.4
				c-0.2-3.2,0.5-6.1,2.1-8.8c1.2-2,2.8-3.2,4.7-3.7c0.6-0.1,1.1-0.2,1.7-0.2c0.8,0,1.6,0.1,2.4,0.4c0.6,0.2,1.2,0.4,1.8,0.7
				c0.4,0.1,0.8,0.3,1.1,0.4c0.2,0.1,0.5,0.2,0.8,0.2l0.3,0.1c0.1,0,0.2,0,0.3,0c0,0,3-0.1,3-0.1c0.1,0,0.1,0,0.2,0
				c0.4-0.1,2.5-0.9,3.2-1.1c1.2-0.4,2.2-0.7,3.2-0.7c0.5,0,1,0,1.4,0.1c1.8,0.4,3.2,1.4,4.4,3c1.2,1.7,2,3.8,2.3,6.2
				c0.7,6.4-1.1,12.1-5.3,17c-1.1,1.2-2.4,2.2-4.2,3.1c-0.1,0-0.5,0.2-1.5,0.2l0,0c-1.5,0-3.3-0.3-3.6-0.4c-0.1,0-0.1,0-0.2,0
				c-0.5-0.1-1.1-0.1-1.6-0.1c-0.5,0-1,0-1.5,0.1c-0.1,0-0.1,0-0.2,0C37.8,59.7,35.8,60,34.5,60z"/>
			<path class="st1" d="M32,31.4L32,31.4c0.7,0,1.4,0.1,2.1,0.4c0.6,0.2,1.1,0.4,1.7,0.7c0.4,0.2,0.8,0.3,1.2,0.4
				c0.3,0.1,0.5,0.2,0.8,0.3l0.3,0.1c0.2,0.1,0.4,0.1,0.6,0.1c0,0,0,0,0.1,0l3-0.1c0.1,0,0.2,0,0.3,0c0.5-0.1,3-1,3.4-1.2
				c1-0.4,2-0.6,2.9-0.6c0.4,0,0.8,0,1.2,0.1c1.6,0.3,2.8,1.2,3.8,2.6c1.1,1.6,1.8,3.5,2.1,5.7c0.7,6.2-1,11.5-5.1,16.2
				c-1,1.1-2.2,2-3.9,2.8c0,0-0.3,0.1-1.1,0.1c-1.4,0-3-0.3-3.3-0.3c-0.1,0-0.2-0.1-0.4-0.1c-0.6-0.1-1.1-0.1-1.7-0.1
				c-0.5,0-1.1,0-1.6,0.1c-0.1,0-0.2,0-0.3,0.1c-0.5,0.1-2.4,0.4-3.6,0.4c-0.3,0-0.4,0-0.5,0c-2.1-0.9-3.8-2.3-5.1-4.2
				c-2.6-3.7-4.1-7.7-4.3-11.9c-0.2-3,0.5-5.7,2-8.2c1.1-1.8,2.4-2.8,4.1-3.2C31,31.4,31.5,31.4,32,31.4 M32,29.4
				c-0.6,0-1.3,0.1-1.9,0.2c-2.4,0.6-4.1,2.1-5.3,4.1c-1.7,2.9-2.4,6-2.3,9.3c0.3,4.7,1.9,9,4.7,12.9c1.6,2.2,3.6,3.8,6.1,4.9
				c0.2,0.1,0.6,0.1,1.2,0.1c1.4,0,3.5-0.3,4.2-0.5c0.5-0.1,0.9-0.1,1.4-0.1c0.6,0,1.1,0,1.5,0.1c0.4,0.1,2.3,0.4,3.8,0.4
				c0.8,0,1.5-0.1,1.9-0.3c1.7-0.8,3.3-1.9,4.6-3.3c4.5-5.1,6.3-11,5.6-17.7c-0.3-2.4-1-4.6-2.4-6.6c-1.2-1.8-2.9-2.9-5-3.4
				c-0.5-0.1-1.1-0.2-1.6-0.2c-1.2,0-2.4,0.3-3.6,0.7c-0.9,0.3-2.8,1-3.1,1.1l-3,0.1c-0.4-0.1-0.7-0.2-1-0.3c-1-0.4-1.9-0.8-2.9-1.1
				C33.8,29.5,32.9,29.4,32,29.4L32,29.4z"/>
		</g>
		<path class="st2" d="M40.2,31.4c0.3-1.7,0.3-2.4-0.5-5.6"/>
		<path class="st2" d="M29.1,45.8c-1.5-3-0.7-7.8,1.2-9.3"/>
		<path class="st6" d="M42.5,28.4c0,0-1.7-3.6,0.8-6.2c2.4-2.5,7.9-3.2,7.9-3.2s-0.5,5-3,7.8C45.7,29.6,42.5,28.4,42.5,28.4z"/>
	</g>
</g>
</svg>
