<?xml version="1.0" encoding="utf-8"?>
<!-- Generator: Adobe Illustrator 28.0.0, SVG Export Plug-In . SVG Version: 6.00 Build 0)  -->
<svg version="1.1" xmlns="http://www.w3.org/2000/svg" xmlns:xlink="http://www.w3.org/1999/xlink" x="0px" y="0px"
	 viewBox="0 0 80 80" style="enable-background:new 0 0 80 80;" xml:space="preserve">
<style type="text/css">
	.st0{fill:#FFFFFF;}
	.st1{fill:#220E27;}
	.st2{fill:#FFFFFF;stroke:#220E27;stroke-width:2;stroke-linecap:round;stroke-linejoin:round;stroke-miterlimit:10;}
	.st3{fill:#1D59F9;}
	.st4{fill:#FFFFFF;stroke:#220E27;stroke-width:2;stroke-linejoin:round;stroke-miterlimit:10;}
	.st5{fill:none;stroke:#220E27;stroke-linecap:round;stroke-linejoin:round;stroke-miterlimit:10;}
	.st6{fill:#1D59F9;stroke:#1D59F9;stroke-width:0.25;stroke-linejoin:round;stroke-miterlimit:10;}
	.st7{fill:none;stroke:#220E27;stroke-linejoin:round;stroke-miterlimit:10;}
	.st8{fill:none;stroke:#220E27;stroke-width:2;stroke-linejoin:round;stroke-miterlimit:10;}
	.st9{fill:none;stroke:#220E27;stroke-width:2;stroke-linecap:round;stroke-linejoin:round;stroke-miterlimit:10;}
	.st10{fill:#FFFFFF;stroke:#220E27;stroke-linecap:round;stroke-miterlimit:10;}
	.st11{fill:none;stroke:#220E27;stroke-linecap:round;stroke-miterlimit:10;}
	.st12{fill:#1D59F9;stroke:#1D59F9;stroke-miterlimit:10;}
	.st13{fill:#1D59F9;stroke:#220E27;stroke-width:2;stroke-linecap:round;stroke-linejoin:round;stroke-miterlimit:10;}
	.st14{fill:none;stroke:#1D59F9;stroke-linecap:round;stroke-miterlimit:10;}
	.st15{fill:none;stroke:#FFFFFF;stroke-width:2;stroke-linecap:round;stroke-linejoin:round;stroke-miterlimit:10;}
	.st16{fill:none;stroke:#1D59F9;stroke-width:2;stroke-linecap:round;stroke-linejoin:round;stroke-miterlimit:10;}
	.st17{fill:#FFFFFF;stroke:#220E27;stroke-linejoin:round;stroke-miterlimit:10;}
	.st18{fill:none;stroke:#1D59F9;stroke-linecap:round;stroke-linejoin:round;stroke-miterlimit:10;}
	.st19{fill:#FFFFFF;stroke:#220E27;stroke-miterlimit:10;}
</style>
<g id="titulos">
</g>
<g id="iconos">
	<g>
		<g>
			<path class="st0" d="M30.2,59.1c-0.5,0-0.9-0.4-1-0.9l-2.6-24.5c0-0.3,0.1-0.6,0.2-0.8c0.1-0.1,0.1-0.1,0.2-0.2
				c0.1-0.8,0.5-1.5,1-2.1c-0.1-0.4-0.2-0.8-0.2-1.2c0-2.2,1.8-4,4-4c0,0,0.1,0,0.1,0c0-0.1,0-0.2,0-0.3c0-2.2,1.8-4,4-4
				c1.6,0,3,1,3.7,2.3c0.6-1.5,2-2.5,3.7-2.5c1.9,0,3.5,1.3,3.9,3.1c0.7,0.3,1.3,0.7,1.7,1.4c1.1,0.5,1.9,1.5,2.1,2.7
				c1.3,0.5,2.3,1.8,2.3,3.3c0,0.5-0.1,1-0.3,1.4c0,0,0,0,0,0c0.2,0.2,0.3,0.5,0.3,0.8l-2.2,24.5c0,0.5-0.5,0.9-1,0.9H30.2z"/>
			<path class="st1" d="M43.4,21.9c1.6,0,3,1.3,3,2.9c0.8,0.1,1.6,0.6,1.9,1.4c1.1,0.4,1.9,1.5,1.9,2.7c1.2,0.2,2.2,1.2,2.2,2.5
				c0,0.9-0.5,1.7-1.2,2.1h1.2l-2.2,24.5H30.2l-2.6-24.5H28c0-0.1,0-0.2,0-0.3c0-1,0.5-1.8,1.3-2.2c-0.2-0.4-0.4-0.9-0.4-1.5
				c0-1.7,1.4-3,3-3c0.5,0,0.9,0.1,1.3,0.3c0.1-0.1,0.1-0.1,0.2-0.2c-0.2-0.4-0.4-0.9-0.4-1.5c0-1.7,1.4-3,3-3c1.6,0,3,1.3,3,2.9
				c0.5,0.1,1,0.3,1.4,0.7c-0.1-0.2-0.1-0.5-0.1-0.7C40.4,23.3,41.7,21.9,43.4,21.9 M36.8,30.7c0.1-0.1,0.2-0.1,0.3-0.2
				c-0.1-0.1-0.1-0.2-0.1-0.3c-0.1,0.1-0.1,0.2-0.2,0.3C36.8,30.6,36.8,30.7,36.8,30.7 M48.5,33.5h0.2
				C48.6,33.5,48.6,33.5,48.5,33.5C48.5,33.5,48.5,33.5,48.5,33.5 M41,33.5L41,33.5C41,33.5,41,33.5,41,33.5
				C41,33.5,41,33.5,41,33.5 M43.4,19.9c-1.5,0-2.8,0.7-3.8,1.7c-0.9-1-2.2-1.5-3.6-1.5c-2.6,0-4.7,1.9-5,4.4
				c-2.4,0.4-4.2,2.5-4.2,5c0,0.3,0,0.6,0.1,0.9c-0.4,0.5-0.7,1.2-0.9,1.8c0,0,0,0,0,0c-0.4,0.4-0.6,1-0.5,1.6l2.6,24.5
				c0.1,1,1,1.8,2,1.8h20.1c1,0,1.9-0.8,2-1.8l2.2-24.5c0-0.3,0-0.7-0.2-1c0.1-0.4,0.2-0.8,0.2-1.3c0-1.7-1-3.3-2.5-4
				c-0.4-1.2-1.2-2.1-2.3-2.8c-0.4-0.6-1-1-1.6-1.3C47.5,21.3,45.6,19.9,43.4,19.9L43.4,19.9z"/>
		</g>
		<g>
			<g>
				<path class="st0" d="M42.1,31.8c-1.7,0-3.1-1.4-3.1-3.1c0-0.9,0.4-1.8,1.1-2.4c-0.2-0.4-0.3-0.9-0.3-1.3c0-1.9,1.6-3.5,3.5-3.5
					c1.8,0,3.2,1.3,3.5,3c1.3,0.3,2.2,1.5,2.2,2.9c0,1.6-1.3,3-3,3c-0.4,0-0.8-0.1-1.2-0.3C44.4,31.1,43.3,31.8,42.1,31.8z"/>
				<path class="st1" d="M43.4,21.9c1.6,0,3,1.3,3,2.9c1.2,0.2,2.2,1.2,2.2,2.5c0,1.4-1.1,2.5-2.5,2.5c-0.5,0-1.1-0.2-1.5-0.5
					c-0.3,1.1-1.3,2-2.5,2c-1.5,0-2.6-1.2-2.6-2.6c0-1,0.5-1.8,1.3-2.2c-0.2-0.4-0.4-0.9-0.4-1.5C40.4,23.3,41.7,21.9,43.4,21.9
					 M43.4,20.9c-2.2,0-4,1.8-4,4c0,0.4,0.1,0.8,0.2,1.2c-0.7,0.7-1.1,1.6-1.1,2.6c0,2,1.6,3.6,3.6,3.6c1.2,0,2.4-0.6,3-1.6
					c0.3,0.1,0.6,0.1,1,0.1c1.9,0,3.5-1.6,3.5-3.5c0-1.5-0.9-2.8-2.3-3.3C46.9,22.3,45.3,20.9,43.4,20.9L43.4,20.9z"/>
			</g>
			<g>
				<path class="st0" d="M34.7,32c-1.7,0-3.1-1.4-3.1-3.1c0-0.9,0.4-1.8,1.1-2.4c-0.2-0.4-0.3-0.9-0.3-1.3c0-1.9,1.6-3.5,3.5-3.5
					c1.8,0,3.2,1.3,3.5,3c1.3,0.3,2.2,1.5,2.2,2.9c0,1.6-1.3,3-3,3c-0.4,0-0.8-0.1-1.2-0.3C37,31.3,35.9,32,34.7,32z"/>
				<path class="st1" d="M36,22.1c1.6,0,3,1.3,3,2.9c1.2,0.2,2.2,1.2,2.2,2.5c0,1.4-1.1,2.5-2.5,2.5c-0.5,0-1.1-0.2-1.5-0.5
					c-0.3,1.1-1.3,2-2.5,2c-1.5,0-2.6-1.2-2.6-2.6c0-1,0.5-1.8,1.3-2.2c-0.2-0.4-0.4-0.9-0.4-1.5C33,23.4,34.4,22.1,36,22.1
					 M36,21.1c-2.2,0-4,1.8-4,4c0,0.4,0.1,0.8,0.2,1.2c-0.7,0.7-1.1,1.6-1.1,2.6c0,2,1.6,3.6,3.6,3.6c1.2,0,2.4-0.6,3-1.6
					c0.3,0.1,0.6,0.1,1,0.1c1.9,0,3.5-1.6,3.5-3.5c0-1.5-0.9-2.8-2.3-3.3C39.6,22.4,38,21.1,36,21.1L36,21.1z"/>
			</g>
			<g>
				<path class="st0" d="M46,35.9c-1.7,0-3.1-1.4-3.1-3.1c0-0.9,0.4-1.8,1.1-2.4c-0.2-0.4-0.3-0.9-0.3-1.3c0-1.9,1.6-3.5,3.5-3.5
					c1.8,0,3.2,1.3,3.5,3c1.3,0.3,2.2,1.5,2.2,2.9c0,1.6-1.3,3-3,3c-0.4,0-0.8-0.1-1.2-0.3C48.3,35.2,47.2,35.9,46,35.9z"/>
				<path class="st1" d="M47.3,26c1.6,0,3,1.3,3,2.9c1.2,0.2,2.2,1.2,2.2,2.5c0,1.4-1.1,2.5-2.5,2.5c-0.5,0-1.1-0.2-1.5-0.5
					c-0.3,1.1-1.3,2-2.5,2c-1.5,0-2.6-1.2-2.6-2.6c0-1,0.5-1.8,1.3-2.2c-0.2-0.4-0.4-0.9-0.4-1.5C44.2,27.4,45.6,26,47.3,26
					 M47.3,25c-2.2,0-4,1.8-4,4c0,0.4,0.1,0.8,0.2,1.2c-0.7,0.7-1.1,1.6-1.1,2.6c0,2,1.6,3.6,3.6,3.6c1.2,0,2.4-0.6,3-1.6
					c0.3,0.1,0.6,0.1,1,0.1c1.9,0,3.5-1.6,3.5-3.5c0-1.5-0.9-2.8-2.3-3.3C50.8,26.3,49.2,25,47.3,25L47.3,25z"/>
			</g>
			<g>
				<path class="st0" d="M38.4,35.9c-1.7,0-3.1-1.4-3.1-3.1c0-0.9,0.4-1.8,1.1-2.4c-0.2-0.4-0.3-0.9-0.3-1.3c0-1.9,1.6-3.5,3.5-3.5
					c1.8,0,3.2,1.3,3.5,3c1.3,0.3,2.2,1.5,2.2,2.9c0,1.6-1.3,3-3,3c-0.4,0-0.8-0.1-1.2-0.3C40.7,35.3,39.6,35.9,38.4,35.9z"/>
				<path class="st1" d="M39.7,26.1c1.6,0,3,1.3,3,2.9c1.2,0.2,2.2,1.2,2.2,2.5c0,1.4-1.1,2.5-2.5,2.5c-0.5,0-1.1-0.2-1.5-0.5
					c-0.3,1.1-1.3,2-2.5,2c-1.5,0-2.6-1.2-2.6-2.6c0-1,0.5-1.8,1.3-2.2c-0.2-0.4-0.4-0.9-0.4-1.5C36.7,27.4,38,26.1,39.7,26.1
					 M39.7,25.1c-2.2,0-4,1.8-4,4c0,0.4,0.1,0.8,0.2,1.2c-0.7,0.7-1.1,1.6-1.1,2.6c0,2,1.6,3.6,3.6,3.6c1.2,0,2.4-0.6,3-1.6
					c0.3,0.1,0.6,0.1,1,0.1c1.9,0,3.5-1.6,3.5-3.5c0-1.5-0.9-2.8-2.3-3.3C43.2,26.4,41.6,25.1,39.7,25.1L39.7,25.1z"/>
			</g>
			<g>
				<path class="st0" d="M30.6,36.3c-1.7,0-3.1-1.4-3.1-3.1c0-0.9,0.4-1.8,1.1-2.4c-0.2-0.4-0.3-0.9-0.3-1.3c0-1.9,1.6-3.5,3.5-3.5
					c1.8,0,3.2,1.3,3.5,3c1.3,0.3,2.2,1.5,2.2,2.9c0,1.6-1.3,3-3,3c-0.4,0-0.8-0.1-1.2-0.3C32.9,35.6,31.8,36.3,30.6,36.3z"/>
				<path class="st1" d="M31.9,26.4c1.6,0,3,1.3,3,2.9c1.2,0.2,2.2,1.2,2.2,2.5c0,1.4-1.1,2.5-2.5,2.5c-0.5,0-1.1-0.2-1.5-0.5
					c-0.3,1.1-1.3,2-2.5,2c-1.5,0-2.6-1.2-2.6-2.6c0-1,0.5-1.8,1.3-2.2c-0.2-0.4-0.4-0.9-0.4-1.5C28.8,27.8,30.2,26.4,31.9,26.4
					 M31.9,25.4c-2.2,0-4,1.8-4,4c0,0.4,0.1,0.8,0.2,1.2c-0.7,0.7-1.1,1.6-1.1,2.6c0,2,1.6,3.6,3.6,3.6c1.2,0,2.4-0.6,3-1.6
					c0.3,0.1,0.6,0.1,1,0.1c1.9,0,3.5-1.6,3.5-3.5c0-1.5-0.9-2.8-2.3-3.3C35.4,26.8,33.8,25.4,31.9,25.4L31.9,25.4z"/>
			</g>
		</g>
		<g>
			<path class="st3" d="M30.2,58.6c-0.3,0-0.5-0.2-0.5-0.4L27,33.6c0-0.1,0-0.3,0.1-0.4s0.2-0.2,0.4-0.2h25c0.1,0,0.3,0.1,0.4,0.2
				c0.1,0.1,0.1,0.2,0.1,0.4l-2.2,24.5c0,0.3-0.2,0.5-0.5,0.5H30.2z"/>
			<path class="st1" d="M52.5,33.5l-2.2,24.5H30.2l-2.6-24.5H52.5 M52.5,32.5h-25c-0.3,0-0.6,0.1-0.7,0.3c-0.2,0.2-0.3,0.5-0.3,0.8
				l2.6,24.5c0.1,0.5,0.5,0.9,1,0.9h20.1c0.5,0,0.9-0.4,1-0.9l2.2-24.5c0-0.3-0.1-0.6-0.3-0.8S52.8,32.5,52.5,32.5L52.5,32.5z"/>
		</g>
		<polygon class="st0" points="45.3,33.5 49.9,33.5 47.9,58.1 45.3,58.1 		"/>
		<polygon class="st0" points="35.2,33.5 30.5,33.5 32.6,58.1 35.2,58.1 		"/>
		<rect x="38.7" y="33.6" class="st0" width="3.4" height="24.5"/>
	</g>
</g>
</svg>
