<?xml version="1.0" encoding="UTF-8"?>
<svg id="iconos" xmlns="http://www.w3.org/2000/svg" viewBox="0 0 80 80">
  <defs>
    <style>
      .cls-1 {
        fill: #220e27;
      }

      .cls-1, .cls-2, .cls-3 {
        stroke-width: 0px;
      }

      .cls-2 {
        fill: #1d59f9;
      }

      .cls-3 {
        fill: #fff;
      }
    </style>
  </defs>
  <path class="cls-2" d="M49.94,36.72c0-.15.15-.29.29-.29,1.03-.15,1.91-.29,2.95-.44.29-.15.59-.29.59-.74v-3.83c0-.44-.15-.74-.59-.74-1.03-.15-1.91-.29-2.95-.44-.15-.15-.29-.15-.29-.29-.15-.44-.44-.88-.59-1.33-.15-.15-.15-.29,0-.44.59-.59,1.03-1.33,1.62-2.06.29-.44.29-.59,0-1.03l-2.8-2.8c-.15-.15-.29-.29-.44-.29s-.29,0-.44.15c-.74.59-1.47,1.18-2.21,1.77q-.15.15-.29.15h-.15c-.44-.15-.74-.29-1.18-.44-.15,0-.29-.15-.29-.29-.15-.88-.29-1.91-.44-2.95,0-.44-.15-.59-.59-.59h-1.91c-.59,0-1.33,0-2.36-.15-.29,0-.59.15-.59.59-.15,1.03-.29,1.91-.44,2.95,0,.29-.15.44-.29.44-.44.15-.88.29-1.18.44h-.15c-.15,0-.15-.15-.29-.15-.59-.59-1.33-1.03-2.06-1.62-.29-.15-.44-.29-.59-.29s-.29.15-.59.29c-.44.29-.74.59-1.03.88-.59.59-1.18,1.33-1.77,1.91-.44.29-.29.59,0,1.03.44.59,1.03,1.33,1.62,2.06.15.15,0,.29,0,.44-.15.44-.29.74-.44,1.18,0,.15-.15.29-.29.29-1.03.15-1.91.29-2.95.44-.29.15-.59.29-.59.74v3.83c.15.44.29.74.74.74,1.03.15,1.91.29,2.95.44.15.15.29.15.29.29.15.44.44.88.59,1.33q.15.15,0,.29c-.59.59-1.03,1.33-1.62,2.06-.44.44-.44.74,0,1.18.88,1.03,1.91,1.91,2.8,2.8.15.15.29.15.44.15.29,0,.44,0,.59-.15.74-.44,1.47-1.03,2.21-1.62q.15-.15.29-.15h.29c.44.15.74.29,1.18.44.15,0,.29.15.29.29.15,1.03.29,1.91.44,2.95,0,.15.15.44.29.59h4.57c.15-.15.29-.29.29-.59.15-.88.29-1.91.44-2.8,0-.29.15-.44.29-.44.44-.15.74-.29,1.18-.44h.15l.15.15c.74.44,1.47,1.03,2.21,1.62.29.15.44.29.59.29s.29-.15.44-.29c.59-.44,1.18-1.03,1.77-1.62.29-.29.74-.74,1.03-1.18s.29-.59,0-1.03c-.59-.59-1.03-1.33-1.62-2.06-.15-.15-.15-.29,0-.44.15-.44.29-.74.44-1.18ZM40.22,38.05c-2.5,0-4.57-2.06-4.57-4.57s2.06-4.57,4.57-4.57,4.57,2.06,4.57,4.57-2.06,4.57-4.57,4.57Z"/>
  <g>
    <path class="cls-3" d="M27.64,59.51c-.72,0-1.36-.14-2-.36-2.65-.93-4.01-3.72-3.22-6.72.86-3.43,1.57-6.08,2.43-8.44.86-2.5,3.22-4.15,5.94-4.15,1.65,0,3.22.64,4.44,1.79.36.36.93.57,1.43.57,1.07.07,2.22.07,3.43.07,1.14,0,2.36,0,3.65-.07.36,0,.86-.21,1.07-.43,1.29-1.22,2.93-1.93,4.65-1.93,2.72,0,5.08,1.72,5.94,4.36.86,2.5,1.57,5.15,2.36,8.16.72,2.86-.79,5.72-3.51,6.72-.64.21-1.36.36-2,.36h0c-2.07,0-3.93-1.14-5.01-3.15l-.64-1.29-.21.14c-.79.5-1.57.79-2.43.79-1,0-2-.36-3.22-1.22-.21-.14-.79-.14-1.07,0-1.14.57-2.15,1-3.36,1-.86,0-1.72-.21-2.65-.79l-.64,1.29c-1.14,2.07-3.15,3.29-5.37,3.29Z"/>
    <path class="cls-1" d="M30.79,39.83c1.65,0,3.22.64,4.44,1.79.36.36.93.57,1.43.57,1.07.07,2.22.07,3.43.07,1.14,0,2.36,0,3.65-.07.36,0,.86-.21,1.07-.43,1.29-1.22,2.93-1.93,4.65-1.93,2.72,0,5.08,1.72,5.94,4.36.86,2.5,1.57,5.15,2.36,8.16.72,2.86-.79,5.72-3.51,6.72-.64.21-1.36.36-2,.36-2.07,0-3.93-1.14-5.01-3.15-.21-.43-.43-.86-.64-1.29l-.21.14c-.79.5-1.57.79-2.43.79-1,0-2-.36-3.22-1.22-.11-.07-.3-.11-.51-.11s-.42.04-.56.11c-1.14.57-2.15,1-3.36,1-.86,0-1.72-.21-2.65-.79-.21.43-.43.86-.64,1.29-1.14,2.07-3.15,3.29-5.37,3.29-.72,0-1.36-.14-2-.36-2.65-.93-4.01-3.72-3.22-6.72.86-3.43,1.57-6.08,2.43-8.44.86-2.5,3.22-4.15,5.94-4.15M30.79,37.83c-3.56,0-6.7,2.21-7.83,5.5-.88,2.41-1.6,5.08-2.48,8.61-1.04,3.98.85,7.81,4.5,9.1.97.32,1.81.47,2.67.47,2.85,0,5.41-1.49,6.94-4.01.56.15,1.13.22,1.72.22,1.5,0,2.72-.47,3.83-1,1.32.83,2.55,1.22,3.83,1.22.6,0,1.19-.09,1.77-.27,1.45,2.38,3.85,3.78,6.53,3.78,1.04,0,2.01-.25,2.64-.46h.03s.03-.02.03-.02c3.67-1.35,5.71-5.26,4.75-9.09-.76-2.89-1.51-5.69-2.41-8.32-1.1-3.41-4.26-5.72-7.83-5.72-2.14,0-4.23.84-5.91,2.37-1.21.06-2.35.06-3.47.06-1.18,0-2.29,0-3.3-.07h-.07s-.07,0-.07,0c0,0-.03,0-.05-.02h-.01c-1.6-1.51-3.66-2.34-5.81-2.34h0Z"/>
  </g>
  <g>
    <circle class="cls-3" cx="36.08" cy="51.71" r="2"/>
    <path class="cls-1" d="M36.08,54.21c-1.38,0-2.5-1.12-2.5-2.5s1.12-2.5,2.5-2.5,2.5,1.12,2.5,2.5-1.12,2.5-2.5,2.5ZM36.08,50.21c-.83,0-1.5.67-1.5,1.5s.67,1.5,1.5,1.5,1.5-.67,1.5-1.5-.67-1.5-1.5-1.5Z"/>
  </g>
  <g>
    <circle class="cls-3" cx="43.82" cy="51.78" r="2"/>
    <path class="cls-1" d="M43.82,54.28c-1.38,0-2.5-1.12-2.5-2.5s1.12-2.5,2.5-2.5,2.5,1.12,2.5,2.5-1.12,2.5-2.5,2.5ZM43.82,50.28c-.83,0-1.5.67-1.5,1.5s.67,1.5,1.5,1.5,1.5-.67,1.5-1.5-.67-1.5-1.5-1.5Z"/>
  </g>
  <g>
    <path class="cls-3" d="M33.72,46.99v-.93c0-.29-.21-.5-.5-.5h-1.72v-1.65c0-.29-.21-.5-.5-.5h-.93c-.29,0-.5.21-.5.5v1.65h-1.72c-.29,0-.5.21-.5.5v.93c0,.29.21.5.5.5h1.72v1.79c0,.29.21.5.5.5h.93c.29,0,.5-.21.5-.5v-1.79h1.72c.29,0,.5-.21.5-.5Z"/>
    <path class="cls-1" d="M31,50.28h-.93c-.56,0-1-.44-1-1v-1.29h-1.22c-.56,0-1-.44-1-1v-.93c0-.56.44-1,1-1h1.22v-1.15c0-.56.44-1,1-1h.93c.56,0,1,.44,1,1v1.15h1.22c.56,0,1,.44,1,1v.93c0,.56-.44,1-1,1h-1.22v1.29c0,.56-.44,1-1,1ZM27.86,46.06v.93s2.22,0,2.22,0v2.29h.93v-2.29s2.22,0,2.22,0v-.93h-2.22v-2.15h-.93v2.15h-2.22Z"/>
  </g>
  <circle class="cls-1" cx="50.03" cy="49.42" r=".93"/>
  <circle class="cls-1" cx="50.03" cy="44.7" r=".93"/>
  <circle class="cls-1" cx="52.25" cy="46.99" r=".93"/>
  <circle class="cls-1" cx="47.6" cy="46.99" r=".93"/>
  <path class="cls-1" d="M38.02,47.34h-1.72c-.28,0-.5-.22-.5-.5s.22-.5.5-.5h1.72c.28,0,.5.22.5.5s-.22.5-.5.5Z"/>
  <path class="cls-1" d="M43.24,47.34h-1.79c-.28,0-.5-.22-.5-.5s.22-.5.5-.5h1.79c.28,0,.5.22.5.5s-.22.5-.5.5Z"/>
</svg>