<svg xmlns="http://www.w3.org/2000/svg" width="80" height="80" viewBox="0 0 80 80" fill="none">
    <path d="M24.1001 61.55C23.8001 61.55 22.9001 61.55 22.4001 60.95C21.9001 60.35 22.0001 59.45 22.1001 59.15C22.2001 58.65 22.3001 58.05 22.4001 57.55C22.5001 57.05 22.6001 56.55 22.7001 56.05C21.9001 53.45 21.5001 50.75 21.3001 48.25C20.9001 44.25 20.9001 40.15 21.1001 35.65C21.2001 32.95 21.5001 29.35 22.3001 25.75V25.65L22.4001 25.55C22.9001 24.65 22.6001 23.65 22.4001 22.45V22.25C22.3001 21.85 22.2001 21.35 22.2001 20.95C22.1001 20.35 22.2001 19.85 22.6001 19.45C22.8001 19.15 23.3001 18.85 24.1001 18.75H50.4001C51.1001 18.75 51.7001 18.95 52.0001 19.35C52.4001 19.75 52.5001 20.35 52.4001 21.05L52.3001 21.45C52.2001 21.95 52.1001 22.45 52.0001 22.95C51.8001 23.75 51.8001 24.55 52.1001 25.45C52.7001 27.65 53.0001 29.85 53.2001 32.05C53.5001 35.65 53.6001 39.45 53.5001 43.55C53.4001 47.35 53.1001 50.45 52.5001 53.25C52.4001 53.85 52.2001 54.45 52.1001 55.05C52.0001 55.35 51.9001 55.75 51.8001 56.05V56.25C51.9001 57.05 52.1001 57.75 52.2001 58.55L52.4001 59.55C52.5001 60.15 52.4001 60.75 52.0001 61.15C51.7001 61.55 51.1001 61.75 50.5001 61.75H40.8001L24.1001 61.55Z" fill="white"/>
    <path d="M23.9009 19.55H50.1009C50.9009 19.55 51.2009 19.95 51.1009 20.75C51.0009 21.35 50.9009 21.95 50.8009 22.55C50.5009 23.55 50.6009 24.55 50.9009 25.55C51.5009 27.65 51.8009 29.7501 51.9009 31.9501C52.2009 35.75 52.3009 39.55 52.2009 43.35C52.1009 46.55 51.9009 49.75 51.3009 52.85C51.1009 53.75 50.8009 54.65 50.6009 55.55C50.6009 55.75 50.5009 55.9501 50.6009 56.1501C50.8009 57.25 51.0009 58.3501 51.2009 59.4501C51.3009 60.1501 51.0009 60.55 50.3009 60.55H24.1009C23.2009 60.55 22.9009 60.25 23.0009 59.25C23.2009 58.1501 23.4009 57.15 23.6009 56.05V55.55C22.8009 53.05 22.5009 50.55 22.2009 47.9501C21.8009 43.75 21.8009 39.6501 22.0009 35.4501C22.1009 32.1501 22.4009 28.95 23.2009 25.65C23.9009 24.35 23.5009 23.05 23.2009 21.75C23.1009 21.35 23.0009 20.9501 23.0009 20.4501C22.9009 19.9501 23.2009 19.55 23.9009 19.55ZM23.9009 17.55C22.9009 17.55 22.1009 17.95 21.6009 18.55C21.1009 19.15 20.9009 20.0501 21.0009 20.85C21.1009 21.2501 21.1009 21.75 21.3009 22.25V22.4501C21.6009 23.6501 21.7009 24.2501 21.4009 24.85L21.3009 25.05L21.2009 25.25C20.3009 28.95 20.1009 32.65 19.9009 35.35C19.7009 39.95 19.8009 44.0501 20.1009 48.1501C20.3009 50.6501 20.7009 53.3501 21.5009 55.9501C21.4009 56.3501 21.3009 56.85 21.3009 57.25C21.2009 57.75 21.1009 58.35 21.0009 58.85C20.8009 59.95 21.0009 60.75 21.6009 61.4501C22.2009 62.1501 23.0009 62.4501 24.1009 62.4501H50.3009C51.2009 62.4501 52.0009 62.05 52.6009 61.4501C53.1009 60.75 53.3009 59.9501 53.2009 59.05L53.0009 58.1501C52.9009 57.4501 52.7009 56.75 52.6009 55.9501C52.7009 55.6501 52.8009 55.35 52.8009 55.05C53.0009 54.4501 53.1009 53.8501 53.3009 53.1501C53.8009 50.3501 54.2009 47.15 54.3009 43.35C54.4009 39.15 54.3009 35.35 54.0009 31.75C53.8009 29.55 53.6009 27.2501 52.9009 24.9501C52.7009 24.2501 52.7009 23.65 52.8009 23.05C52.9009 22.45 53.0009 21.9501 53.1009 21.4501L53.2009 21.05C53.4009 19.75 53.0009 18.95 52.6009 18.55C52.2009 18.05 51.5009 17.55 50.2009 17.55H23.9009Z" fill="#220E27"/>
    <path d="M50.5 25.75H23.5C23.22 25.75 23 25.53 23 25.25C23 24.97 23.22 24.75 23.5 24.75H50.5C50.78 24.75 51 24.97 51 25.25C51 25.53 50.78 25.75 50.5 25.75Z" fill="#220E27"/>
    <path d="M50.5 55.85H23.5C23.22 55.85 23 55.63 23 55.35C23 55.07 23.22 54.85 23.5 54.85H50.5C50.78 54.85 51 55.07 51 55.35C51 55.63 50.78 55.85 50.5 55.85Z" fill="#220E27"/>
    <path d="M37 22.05C36.72 22.05 36.5 21.83 36.5 21.55V19.55C36.5 19.27 36.72 19.05 37 19.05C37.28 19.05 37.5 19.27 37.5 19.55V21.55C37.5 21.83 37.28 22.05 37 22.05Z" fill="#220E27"/>
    <path d="M32.6992 22.05C32.4192 22.05 32.1992 21.83 32.1992 21.55V19.55C32.1992 19.27 32.4192 19.05 32.6992 19.05C32.9792 19.05 33.1992 19.27 33.1992 19.55V21.55C33.1992 21.83 32.9792 22.05 32.6992 22.05Z" fill="#220E27"/>
    <path d="M41.1992 22.05C40.9192 22.05 40.6992 21.83 40.6992 21.55V19.55C40.6992 19.27 40.9192 19.05 41.1992 19.05C41.4792 19.05 41.6992 19.27 41.6992 19.55V21.55C41.6992 21.83 41.4792 22.05 41.1992 22.05Z" fill="#220E27"/>
    <path d="M45.6992 22.05C45.4192 22.05 45.1992 21.83 45.1992 21.55V19.55C45.1992 19.27 45.4192 19.05 45.6992 19.05C45.9792 19.05 46.1992 19.27 46.1992 19.55V21.55C46.1992 21.83 45.9792 22.05 45.6992 22.05Z" fill="#220E27"/>
    <path d="M28.5 22.05C28.22 22.05 28 21.83 28 21.55V19.55C28 19.27 28.22 19.05 28.5 19.05C28.78 19.05 29 19.27 29 19.55V21.55C29 21.83 28.78 22.05 28.5 22.05Z" fill="#220E27"/>
    <path d="M36.8008 61.0499C36.5208 61.0499 36.3008 60.8299 36.3008 60.5499V58.45C36.3008 58.17 36.5208 57.95 36.8008 57.95C37.0808 57.95 37.3008 58.17 37.3008 58.45V60.5499C37.3008 60.8299 37.0808 61.0499 36.8008 61.0499Z" fill="#220E27"/>
    <path d="M41.1016 61.0499C40.8216 61.0499 40.6016 60.8299 40.6016 60.5499V58.45C40.6016 58.17 40.8216 57.95 41.1016 57.95C41.3816 57.95 41.6016 58.17 41.6016 58.45V60.5499C41.6016 60.8299 41.3816 61.0499 41.1016 61.0499Z" fill="#220E27"/>
    <path d="M32.6016 61.0499C32.3216 61.0499 32.1016 60.8299 32.1016 60.5499V58.45C32.1016 58.17 32.3216 57.95 32.6016 57.95C32.8816 57.95 33.1016 58.17 33.1016 58.45V60.5499C33.1016 60.8299 32.8816 61.0499 32.6016 61.0499Z" fill="#220E27"/>
    <path d="M28.1016 61.0499C27.8216 61.0499 27.6016 60.8299 27.6016 60.5499V58.45C27.6016 58.17 27.8216 57.95 28.1016 57.95C28.3816 57.95 28.6016 58.17 28.6016 58.45V60.5499C28.6016 60.8299 28.3816 61.0499 28.1016 61.0499Z" fill="#220E27"/>
    <path d="M45.3008 61.0499C45.0208 61.0499 44.8008 60.8299 44.8008 60.5499V58.45C44.8008 58.17 45.0208 57.95 45.3008 57.95C45.5808 57.95 45.8008 58.17 45.8008 58.45V60.5499C45.8008 60.8299 45.5808 61.0499 45.3008 61.0499Z" fill="#220E27"/>
    <path d="M60.2017 53.95C59.9417 53.95 59.6917 53.85 59.4917 53.66L44.9917 39.16C44.6017 38.77 44.6017 38.14 44.9917 37.75C45.3817 37.36 46.0117 37.36 46.4017 37.75L60.9017 52.25C61.2917 52.64 61.2917 53.27 60.9017 53.66C60.7017 53.86 60.4517 53.95 60.1917 53.95H60.2017Z" fill="#220E27"/>
    <path d="M36.8008 55.85C36.5208 55.85 36.3008 55.63 36.3008 55.35V25.25C36.3008 24.97 36.5208 24.75 36.8008 24.75C37.0808 24.75 37.3008 24.97 37.3008 25.25V55.35C37.3008 55.63 37.0808 55.85 36.8008 55.85Z" fill="#220E27"/>
    <path d="M45.7 49.25C39.8 49.25 35 44.45 35 38.55C35 32.65 39.8 27.85 45.7 27.85C51.6 27.85 56.4 32.65 56.4 38.55C56.5 44.45 51.7 49.25 45.7 49.25Z" fill="white"/>
    <path d="M45.7 28.75C51.1 28.75 55.4 33.15 55.4 38.45C55.4 43.75 51 48.15 45.7 48.15C40.4 48.15 36 43.75 36 38.45C36 33.15 40.3 28.75 45.7 28.75ZM45.7 26.75C39.2 26.75 34 32.05 34 38.45C34 44.85 39.3 50.15 45.7 50.15C52.1 50.15 57.4 44.85 57.4 38.45C57.4 32.05 52.2 26.75 45.7 26.75Z" fill="#220E27"/>
    <path d="M49.9 35.15H41.5C40.95 35.15 40.5 34.7 40.5 34.15C40.5 33.6 40.95 33.15 41.5 33.15H49.9C50.45 33.15 50.9 33.6 50.9 34.15C50.9 34.7 50.45 35.15 49.9 35.15Z" fill="#1D59F9"/>
    <path d="M50.4016 37.95H41.1016C40.8216 37.95 40.6016 37.73 40.6016 37.45C40.6016 37.17 40.8216 36.95 41.1016 36.95H50.4016C50.6816 36.95 50.9016 37.17 50.9016 37.45C50.9016 37.73 50.6816 37.95 50.4016 37.95Z" fill="#1D59F9"/>
    <path d="M50.4016 40.65H41.1016C40.8216 40.65 40.6016 40.43 40.6016 40.15C40.6016 39.87 40.8216 39.65 41.1016 39.65H50.4016C50.6816 39.65 50.9016 39.87 50.9016 40.15C50.9016 40.43 50.6816 40.65 50.4016 40.65Z" fill="#1D59F9"/>
    <path d="M50.4016 43.35H41.1016C40.8216 43.35 40.6016 43.13 40.6016 42.85C40.6016 42.57 40.8216 42.35 41.1016 42.35H50.4016C50.6816 42.35 50.9016 42.57 50.9016 42.85C50.9016 43.13 50.6816 43.35 50.4016 43.35Z" fill="#1D59F9"/>
  </svg>