<svg xmlns="http://www.w3.org/2000/svg" width="80" height="80" viewBox="0 0 80 80" fill="none">
    <path d="M27.7 63.05C25.1 63.05 23 60.95 23 58.35V21.75C23 19.15 25.1 17.05 27.7 17.05H52.4C55 17.05 57.1 19.15 57.1 21.75V54.55C57.1 54.85 57 55.05 56.8 55.25L49.4 62.6501C49.2 62.8501 49 62.9501 48.7 62.9501L27.7 63.05Z" fill="white"/>
    <path d="M52.3 18.05C54.3 18.05 56 19.75 56 21.75V54.55L48.6 61.9501H27.7C25.7 61.9501 24 60.25 24 58.25V21.75C24 19.65 25.6 18.05 27.7 18.05H52.3ZM52.3 16.05H27.7C24.6 16.05 22 18.65 22 21.75V58.25C22 61.4501 24.5 63.9501 27.7 63.9501H48.6C49.1 63.9501 49.6 63.75 50 63.35L57.4 55.9501C57.8 55.55 58 55.05 58 54.55V21.75C58 18.65 55.5 16.05 52.3 16.05Z" fill="#220E27"/>
    <path d="M56.0016 54.65H51.3016C49.8016 54.65 48.6016 55.85 48.6016 57.35C48.6016 66.35 48.6016 53.05 48.6016 62.05" fill="#1D59F9"/>
    <path d="M37.3984 42.75H28.3984C28.1184 42.75 27.8984 42.53 27.8984 42.25C27.8984 41.97 28.1184 41.75 28.3984 41.75H37.3984C37.6784 41.75 37.8984 41.97 37.8984 42.25C37.8984 42.53 37.6784 42.75 37.3984 42.75Z" fill="#220E27"/>
    <path d="M50.3984 43.25H48.3984C47.8484 43.25 47.3984 42.8 47.3984 42.25C47.3984 41.7 47.8484 41.25 48.3984 41.25H50.3984C50.9484 41.25 51.3984 41.7 51.3984 42.25C51.3984 42.8 50.9484 43.25 50.3984 43.25Z" fill="#220E27"/>
    <path d="M50.3984 47.25H48.3984C47.8484 47.25 47.3984 46.8 47.3984 46.25C47.3984 45.7 47.8484 45.25 48.3984 45.25H50.3984C50.9484 45.25 51.3984 45.7 51.3984 46.25C51.3984 46.8 50.9484 47.25 50.3984 47.25Z" fill="#220E27"/>
    <path d="M35.3984 46.75H28.3984C28.1184 46.75 27.8984 46.53 27.8984 46.25C27.8984 45.97 28.1184 45.75 28.3984 45.75H35.3984C35.6784 45.75 35.8984 45.97 35.8984 46.25C35.8984 46.53 35.6784 46.75 35.3984 46.75Z" fill="#220E27"/>
    <path d="M37.3984 50.75H28.3984C28.1184 50.75 27.8984 50.53 27.8984 50.25C27.8984 49.97 28.1184 49.75 28.3984 49.75H37.3984C37.6784 49.75 37.8984 49.97 37.8984 50.25C37.8984 50.53 37.6784 50.75 37.3984 50.75Z" fill="#220E27"/>
    <path d="M50.3984 51.25H48.3984C47.8484 51.25 47.3984 50.8 47.3984 50.25C47.3984 49.7 47.8484 49.25 48.3984 49.25H50.3984C50.9484 49.25 51.3984 49.7 51.3984 50.25C51.3984 50.8 50.9484 51.25 50.3984 51.25Z" fill="#220E27"/>
    <path d="M35.0007 33.35H32.8007C32.6007 33.05 32.4007 32.65 32.2007 32.35C31.9007 31.75 32.0007 31.25 32.3007 30.65C33.0007 29.45 33.7007 28.35 34.4007 27.15C34.6007 27.75 34.8007 28.45 35.0007 29.05C35.1007 29.45 35.3007 29.55 35.7007 29.45C36.3007 29.35 36.9007 29.15 37.4007 29.05H37.7007C36.7007 30.45 35.9007 31.95 35.0007 33.35Z" fill="#1D59F9"/>
    <path d="M45.9016 27.35C45.3016 27.15 44.6016 27.05 44.0016 26.85C43.5016 26.75 43.3016 26.75 43.2016 27.25C43.0016 27.85 42.8016 28.4499 42.7016 29.0499C41.8016 27.6499 41.0016 26.15 40.1016 24.75C40.3016 24.25 40.7016 23.75 41.0016 23.25C41.1016 23.15 41.1016 23.05 41.2016 22.95H42.5016C43.1016 23.05 43.6016 23.35 43.9016 23.95C44.5016 24.95 45.1016 25.95 45.7016 26.95C45.8016 27.15 45.8016 27.25 45.9016 27.35Z" fill="#1D59F9"/>
    <path d="M40 36.95C40.5 36.45 41 36.05 41.4 35.55C41.7 35.25 41.7 35.05 41.4 34.75C40.9 34.25 40.4 33.85 40 33.35H45.2C45.5 33.85 45.8 34.35 46.1 34.85C46.2 34.95 46.2 35.05 46.3 35.05C46.1 35.55 45.9 35.95 45.5 36.35C45.2 36.65 44.8 36.85 44.3 36.95C42.9 36.95 41.4 36.95 40 36.95Z" fill="#1D59F9"/>
    <path d="M35.3015 29.95C34.7015 29.95 34.6015 29.45 34.5015 29.25L33.9015 27.35L33.8015 27.05C33.7015 26.75 33.7015 26.55 33.6015 26.25C33.5015 25.75 33.7015 25.55 33.8015 25.35C33.9015 25.25 34.1015 25.15 34.3015 25.15C34.5015 25.15 34.7015 25.25 34.8015 25.25C34.8015 25.25 34.9015 25.25 34.9015 25.35L35.1015 25.05C35.4015 24.65 35.6015 24.15 35.9015 23.75C36.3015 23.05 37.0015 22.65 37.9015 22.65H41.1015C41.2015 22.65 41.3015 22.75 41.4015 22.75C41.5015 22.85 41.5015 22.95 41.5015 23.05C41.5015 23.25 41.4015 23.35 41.3015 23.45C41.0015 23.95 40.5015 24.85 40.3015 25.15L38.9015 27.55C39.0015 27.65 39.5015 27.85 39.4015 28.45C39.3015 28.95 38.9015 29.05 38.7015 29.15C38.3015 29.25 37.5015 29.45 37.4015 29.45L36.7015 29.65C36.4015 29.75 36.0015 29.85 35.7015 29.95H35.3015Z" fill="#1D59F9"/>
    <path d="M38.0006 22.9501H41.2006C41.2006 23.0501 41.1006 23.15 41.0006 23.25C40.7006 23.75 40.0006 24.8501 40.0006 24.9501C39.5006 25.7501 39.1006 26.45 38.6006 27.25C38.4673 27.5167 38.5339 27.7167 38.8006 27.85C39.0006 27.95 39.2006 28.05 39.1006 28.35C39.1006 28.55 38.9006 28.65 38.6006 28.75C38.2006 28.85 37.3006 29.05 37.3006 29.05C36.7006 29.15 36.2006 29.3501 35.6006 29.4501H35.4006C35.2006 29.4501 35.1006 29.35 35.0006 29.05C34.8006 28.45 34.6006 27.75 34.4006 27.15C34.3006 26.75 34.2006 26.45 34.1006 26.05C34.0006 25.85 34.1006 25.65 34.2006 25.55C34.3006 25.45 34.4006 25.4501 34.4006 25.4501C34.5006 25.4501 34.6006 25.45 34.7006 25.55C34.9006 25.65 35.0006 25.75 35.1006 25.75C35.2006 25.75 35.3006 25.65 35.4006 25.35C35.7006 24.85 36.0006 24.35 36.3006 23.85C36.7006 23.25 37.3006 22.9501 38.0006 22.9501ZM38.0006 22.25C37.0006 22.25 36.2006 22.65 35.7006 23.55C35.4006 23.95 35.2006 24.35 34.9006 24.85V24.9501C34.8006 24.9501 34.6006 24.85 34.4006 24.85C34.1006 24.85 33.9006 24.95 33.7006 25.15C33.5006 25.35 33.1006 25.7501 33.3006 26.4501C33.4006 26.7501 33.4006 26.95 33.5006 27.25L33.6006 27.55L33.8006 28.15L34.2006 29.4501C34.4006 30.2501 35.0006 30.35 35.3006 30.35C35.4006 30.35 35.6006 30.35 35.7006 30.25C36.1006 30.15 36.4006 30.0501 36.8006 29.9501L37.5006 29.75C37.6006 29.75 38.5006 29.45 38.9006 29.35C39.1006 29.2501 39.8006 29.1501 39.9006 28.35C40.0006 28.05 39.9006 27.65 39.5006 27.25L40.4006 25.85L40.7006 25.25L40.8006 25.15C41.0006 24.85 41.5006 24.05 41.7006 23.55V23.4501C41.8006 23.3501 41.9006 23.1501 41.9006 22.9501C41.9006 22.7501 41.9006 22.55 41.7006 22.35C41.6006 22.15 41.3006 22.05 41.1006 22.05H40.2006C39.5006 22.25 38.7006 22.25 38.0006 22.25Z" fill="white"/>
    <path d="M46.2993 35.55H46.0993C45.8993 35.45 45.8993 35.35 45.7993 35.25C45.4993 34.85 45.0993 34.05 44.8993 33.75C44.8993 33.75 43.3993 31.25 43.3993 31.15C43.3993 31.15 43.2993 31.25 43.1993 31.25C42.9993 31.35 42.8993 31.35 42.7993 31.35C42.5993 31.35 42.4993 31.25 42.2993 31.15C42.0993 31.05 41.8993 30.75 41.9993 30.25C42.0993 29.95 42.0993 29.7501 42.1993 29.4501L42.2993 29.15L42.7993 27.35C42.8993 27.15 42.9993 26.55 43.5993 26.55C43.6993 26.55 43.8993 26.55 44.0993 26.65C44.4993 26.75 47.0993 27.4501 47.0993 27.4501C47.2993 27.4501 47.6993 27.65 47.7993 28.15C47.8993 28.65 47.4993 28.8501 47.2993 28.9501H47.1993L47.4993 29.4501C47.6993 29.7501 47.8993 30.0501 48.0993 30.4501C48.5993 31.2501 48.5993 32.05 48.0993 32.85L46.5993 35.25C46.5993 35.35 46.4993 35.35 46.4993 35.4501C46.4993 35.4501 46.3993 35.55 46.2993 35.55Z" fill="#1D59F9"/>
    <path d="M43.6986 26.85C43.7986 26.85 43.8986 26.8501 44.0986 26.9501C44.6986 27.1501 46.6986 27.65 47.0986 27.75C47.2986 27.85 47.4986 27.85 47.4986 28.15C47.4986 28.35 47.3986 28.45 47.1986 28.55C46.9319 28.6834 46.8652 28.8834 46.9986 29.15C47.2986 29.65 47.5986 30.15 47.8986 30.55C48.2986 31.25 48.2986 31.85 47.8986 32.55C47.3986 33.35 46.8986 34.1501 46.3986 34.9501L46.2986 35.05C46.1986 34.95 46.1986 34.85 46.0986 34.85C45.7986 34.35 45.0986 33.1501 45.0986 33.1501C44.6986 32.4501 44.1986 31.6501 43.7986 30.9501C43.5986 30.6501 43.5986 30.55 43.4986 30.55C43.3986 30.55 43.2986 30.65 43.0986 30.75C42.9986 30.75 42.8986 30.85 42.7986 30.85C42.6986 30.85 42.5986 30.85 42.5986 30.75C42.3986 30.65 42.3986 30.45 42.4986 30.25C42.5986 29.85 42.6986 29.45 42.7986 29.15C42.9986 28.55 43.1986 27.95 43.2986 27.35C43.2986 26.95 43.3986 26.85 43.6986 26.85ZM43.6986 26.05C42.7986 26.05 42.5986 26.85 42.4986 27.05L42.0986 28.35L41.8986 28.9501L41.7986 29.35C41.6986 29.65 41.6986 29.85 41.5986 30.15C41.4986 30.65 41.5986 31.1501 41.9986 31.4501C42.1986 31.6501 42.3986 31.65 42.6986 31.65C42.7986 31.65 42.9986 31.65 43.1986 31.55C43.4986 32.05 43.7986 32.5501 44.0986 32.9501L44.4986 33.55L44.5986 33.75C44.7986 34.15 45.2986 34.95 45.4986 35.25C45.5986 35.35 45.6986 35.55 45.9986 35.75C46.0986 35.85 46.1986 35.85 46.3986 35.85C46.5986 35.85 46.7986 35.75 46.9986 35.55C47.0652 35.4834 47.1319 35.4167 47.1986 35.35L48.1986 33.6501L48.5986 32.9501C49.0986 32.0501 49.0986 31.05 48.5986 30.15C48.3986 29.85 48.1986 29.45 47.9986 29.15L47.8986 28.9501C48.1986 28.6501 48.3986 28.3501 48.2986 27.9501C48.2986 27.5501 48.0986 27.1501 47.2986 26.9501L46.1986 26.65C45.4986 26.45 44.6986 26.25 44.2986 26.15C43.9986 26.05 43.7986 26.05 43.6986 26.05Z" fill="white"/>
    <path d="M38.8008 38.25C38.7008 38.25 38.6008 38.25 38.5008 38.15C38.0008 37.95 38.0008 37.45 38.0008 37.35V37.25H36.0008C35.2008 37.25 34.6008 36.95 34.2008 36.35C33.6008 35.35 33.0008 34.45 32.5008 33.45C32.4008 33.35 32.4008 33.15 32.5008 33.05C32.6008 32.95 32.7008 32.85 32.8008 32.85H38.0008C38.0008 32.65 38.0008 32.15 38.5008 31.95C38.6008 31.95 38.7008 31.85 38.8008 31.85C39.2008 31.85 39.4008 32.05 39.5008 32.15L39.7008 32.35C40.2008 32.85 41.3008 33.85 41.7008 34.25C41.9008 34.45 42.0008 34.65 42.0008 34.95C42.0008 35.25 41.8008 35.45 41.7008 35.55C41.4008 35.85 40.6008 36.55 40.1008 37.15L39.5008 37.75C39.4008 38.05 39.1008 38.25 38.8008 38.25Z" fill="#1D59F9"/>
    <path d="M38.8016 32.45C39.0016 32.45 39.1016 32.55 39.2016 32.65C39.5016 32.95 40.9016 34.35 41.4016 34.75C41.7016 35.05 41.7016 35.25 41.4016 35.55C40.9016 36.05 39.4016 37.45 39.1016 37.75C39.0016 37.85 38.9016 37.95 38.7016 37.95H38.5016C38.3016 37.85 38.2016 37.65 38.2016 37.45C38.2016 37.1167 38.0349 36.95 37.7016 36.95H35.9016C35.3016 36.95 34.8016 36.65 34.4016 36.25C33.8016 35.35 33.2016 34.35 32.7016 33.45H38.0016C38.1016 33.45 38.2016 33.35 38.2016 33.25V32.95C38.2016 32.75 38.2016 32.55 38.5016 32.45H38.8016ZM38.8016 31.65C38.7016 31.65 38.5016 31.65 38.4016 31.75C38.0016 31.95 37.8016 32.15 37.7016 32.65H32.9016C32.6016 32.65 32.4016 32.75 32.3016 33.05C32.2016 33.25 32.2016 33.55 32.3016 33.75C32.8016 34.65 33.4016 35.65 34.0016 36.65C34.5016 37.35 35.2016 37.75 36.1016 37.75H37.7016C37.8016 38.25 38.1016 38.55 38.4016 38.65C38.5016 38.65 38.7016 38.75 38.8016 38.75C39.3016 38.75 39.6016 38.45 39.7016 38.35L40.3016 37.75C40.9016 37.25 41.6016 36.45 41.9016 36.15C42.0016 36.05 42.3016 35.75 42.3016 35.25C42.3016 34.85 42.1016 34.55 41.9016 34.35C41.5016 33.95 40.5016 32.95 40.0016 32.45L39.7016 32.15C39.7016 31.95 39.3016 31.65 38.8016 31.65Z" fill="white"/>
  </svg>