<svg xmlns="http://www.w3.org/2000/svg" width="80" height="80" viewBox="0 0 80 80" fill="none">
    <path d="M24.1008 57.41C22.3008 57.41 20.8008 55.91 20.8008 54.11V20.71C20.8008 18.91 22.3008 17.41 24.1008 17.41H58.0008C58.6008 17.41 59.2008 17.91 59.2008 18.61V54.11C59.2008 55.91 57.7008 57.41 55.9008 57.41H24.1008Z" fill="white"/>
    <path d="M58.0008 18.51C58.1008 18.51 58.2008 18.61 58.2008 18.71V54.21C58.2008 55.51 57.2008 56.51 55.9008 56.51H24.1008C22.8008 56.51 21.8008 55.51 21.8008 54.21V20.81C21.8008 19.51 22.8008 18.51 24.1008 18.51H58.0008ZM58.0008 16.51H24.1008C23.0008 16.51 21.9008 16.91 21.1008 17.81C20.3008 18.61 19.8008 19.71 19.8008 20.81V54.21C19.8008 56.61 21.7008 58.51 24.1008 58.51H55.9008C57.0008 58.51 58.1008 58.11 58.9008 57.21C59.7008 56.41 60.2008 55.31 60.2008 54.21V18.71C60.2008 17.41 59.2008 16.51 58.0008 16.51Z" fill="#220E27"/>
    <path d="M24.9008 61.01C22.6008 61.01 20.8008 59.21 20.8008 56.91V55.01C20.8008 52.71 22.6008 50.91 24.9008 50.91H59.2008V59.41C59.2008 60.31 58.5008 61.01 57.6008 61.01H24.9008Z" fill="white"/>
    <path d="M58.2008 51.91V59.41C58.2008 59.71 57.9008 60.01 57.6008 60.01H24.9008C23.2008 60.01 21.8008 58.61 21.8008 56.91V55.01C21.8008 53.31 23.2008 51.91 24.9008 51.91H58.2008ZM60.2008 49.91H24.9008C22.1008 49.91 19.8008 52.21 19.8008 55.01V56.91C19.8008 59.71 22.1008 62.01 24.9008 62.01H57.6008C59.0008 62.01 60.2008 60.81 60.2008 59.41V49.91Z" fill="#220E27"/>
    <path d="M54.3984 56.41H51.8984C51.6184 56.41 51.3984 56.19 51.3984 55.91C51.3984 55.63 51.6184 55.41 51.8984 55.41H54.3984C54.6784 55.41 54.8984 55.63 54.8984 55.91C54.8984 56.19 54.6784 56.41 54.3984 56.41Z" fill="#220E27"/>
    <path d="M48.1992 56.41H25.1992C24.9192 56.41 24.6992 56.19 24.6992 55.91C24.6992 55.63 24.9192 55.41 25.1992 55.41H48.1992C48.4792 55.41 48.6992 55.63 48.6992 55.91C48.6992 56.19 48.4792 56.41 48.1992 56.41Z" fill="#220E27"/>
    <path d="M33.2 63.41L31 62.31L28.8 63.41C28.4 63.61 28 63.41 28 63.01V56.51H34.1V63.01C34 63.41 33.5 63.61 33.2 63.41Z" fill="#1D59F9"/>
    <path d="M38.2992 44.3101C38.0992 44.3101 37.8992 44.2101 37.6992 44.1101C37.2992 43.8101 37.0992 43.5101 37.0992 43.0101C37.0992 42.7101 36.8992 41.7101 36.8992 41.5101C36.4992 41.8101 36.1992 42.1101 35.7992 42.3101C35.3992 42.6101 35.0992 42.7101 34.7992 42.7101C34.4992 42.7101 34.1992 42.6101 33.7992 42.3101L31.8992 40.4101C31.4992 40.0101 31.0992 39.3101 31.7992 38.3101C31.7992 38.3101 32.3992 37.5101 32.5992 37.2101C32.5992 37.2101 32.5992 37.1101 32.4992 37.1101C32.1992 37.1101 30.9992 36.9101 30.9992 36.9101C30.1992 36.8101 29.6992 36.2101 29.6992 35.4101V32.8101C29.6992 32.0101 30.1992 31.5101 30.9992 31.3101L32.5992 31.1101V31.0101C32.4992 30.8101 31.6992 29.9101 31.6992 29.9101C31.1992 29.2101 31.1992 28.5101 31.6992 27.9101C32.0992 27.4101 32.4992 27.0101 32.9992 26.5101C33.1992 26.3101 33.4992 26.0101 33.7992 25.8101C33.9992 25.6101 34.2992 25.4101 34.7992 25.4101C35.2992 25.4101 35.5992 25.7101 35.7992 25.8101C35.7992 25.8101 36.5992 26.5101 36.8992 26.6101H36.9992C37.0992 26.1101 37.1992 25.5101 37.2992 25.0101C37.3992 24.3101 37.9992 23.8101 38.6992 23.8101H41.3992C42.0992 23.8101 42.6992 24.3101 42.7992 25.0101C42.7992 25.0101 42.9992 26.2101 43.0992 26.6101C43.4992 26.3101 43.8992 26.0101 44.2992 25.7101C44.5992 25.5101 44.8992 25.4101 45.1992 25.4101C45.4992 25.4101 45.8992 25.5101 46.1992 25.9101L48.0992 27.8101C48.6992 28.4101 48.6992 29.1101 48.1992 29.8101C48.1992 29.8101 47.5992 30.6101 47.3992 30.9101C47.3992 30.9101 47.3992 31.0101 47.4992 31.0101C47.9992 31.1101 48.4992 31.2101 49.0992 31.2101C49.8992 31.3101 50.3992 31.9101 50.3992 32.7101V35.3101C50.3992 36.1101 49.8992 36.6101 49.0992 36.8101L47.4992 37.0101V37.1101C47.6992 37.3101 48.3992 38.2101 48.3992 38.2101C48.9992 39.0101 48.6992 39.7101 48.3992 40.2101C48.0992 40.5101 47.8992 40.8101 47.5992 41.1101C47.1992 41.5101 46.7992 41.9101 46.2992 42.3101C46.1992 42.4101 45.7992 42.7101 45.2992 42.7101C44.8992 42.7101 44.4992 42.5101 44.2992 42.3101C44.2992 42.3101 43.4992 41.7101 43.1992 41.4101C43.0992 41.8101 42.9992 42.9101 42.9992 42.9101C42.8992 43.4101 42.6992 43.8101 42.2992 44.0101C42.0992 44.1101 41.9992 44.2101 41.7992 44.2101H38.2992V44.3101ZM39.8992 32.0101C38.6992 32.0101 37.7992 32.9101 37.7992 34.1101C37.7992 35.3101 38.6992 36.2101 39.8992 36.2101C40.4992 36.2101 40.9992 36.0101 41.3992 35.6101C41.7992 35.2101 41.9992 34.7101 41.9992 34.1101C41.8992 32.9101 40.9992 32.0101 39.8992 32.0101Z" fill="#1D59F9"/>
    <path d="M39.8992 24.8101H41.1992C41.4992 24.8101 41.5992 24.9101 41.5992 25.2101C41.6992 25.9101 41.7992 26.6101 41.8992 27.2101C41.8992 27.3101 41.9992 27.4101 42.0992 27.4101C42.3992 27.5101 42.5992 27.6101 42.8992 27.7101H42.9992C43.0659 27.7101 43.1326 27.6767 43.1992 27.6101C43.6992 27.2101 44.1992 26.8101 44.6992 26.4101C44.7992 26.3101 44.8992 26.3101 44.9992 26.3101C45.0992 26.3101 45.1992 26.4101 45.2992 26.5101L47.1992 28.4101C47.3992 28.7101 47.3992 28.8101 47.1992 29.1101C46.7992 29.6101 46.4992 30.1101 46.0992 30.5101C45.9992 30.6101 45.9992 30.7101 46.0992 30.8101C46.1992 31.1101 46.3992 31.4101 46.4992 31.7101C46.4992 31.8101 46.5992 31.8101 46.6992 31.9101C47.3992 32.0101 47.9992 32.1101 48.6992 32.2101C48.9992 32.2101 49.0992 32.4101 49.0992 32.7101V35.3101C49.0992 35.6101 48.8992 35.7101 48.6992 35.8101C47.9992 35.9101 47.3992 36.0101 46.6992 36.1101C46.5992 36.1101 46.4992 36.2101 46.4992 36.3101C46.3992 36.6101 46.2992 36.8101 46.1992 37.1101C46.0992 37.2101 46.0992 37.3101 46.1992 37.4101C46.5992 37.9101 46.8992 38.4101 47.2992 38.8101C47.4992 39.1101 47.4992 39.2101 47.2992 39.5101C47.0992 39.8101 46.7992 40.1101 46.5992 40.3101C46.1992 40.7101 45.7992 41.1101 45.3992 41.4101C45.2992 41.5101 45.1992 41.6101 45.0992 41.6101C44.9992 41.6101 44.8992 41.5101 44.6992 41.4101C44.1992 41.0101 43.6992 40.6101 43.1992 40.3101L43.0992 40.2101H42.9992C42.6992 40.3101 42.4992 40.4101 42.1992 40.5101C42.0992 40.5101 41.9992 40.6101 41.9992 40.8101C41.8992 41.4101 41.7992 42.1101 41.6992 42.7101C41.6992 42.9101 41.5992 43.0101 41.4992 43.1101H38.3992C38.2992 43.0101 38.1992 42.8101 38.1992 42.7101C38.0992 42.0101 37.9992 41.4101 37.8992 40.7101C37.8992 40.6101 37.7992 40.5101 37.6992 40.5101C37.3992 40.4101 37.1992 40.3101 36.8992 40.2101H36.6992C36.6326 40.2101 36.5659 40.2434 36.4992 40.3101C35.9992 40.7101 35.4992 41.1101 34.9992 41.4101C34.8992 41.5101 34.7992 41.5101 34.5992 41.5101C34.4992 41.5101 34.3992 41.5101 34.2992 41.4101C33.6992 40.8101 32.9992 40.2101 32.3992 39.5101C32.0992 39.2101 32.0992 39.0101 32.3992 38.7101C32.7992 38.2101 33.0992 37.7101 33.4992 37.3101C33.5659 37.2434 33.5659 37.1767 33.4992 37.1101C33.3992 36.8101 33.1992 36.5101 33.0992 36.2101C33.0992 36.1101 32.9992 36.1101 32.8992 36.0101C32.1992 35.9101 31.5992 35.8101 30.8992 35.7101C30.5992 35.7101 30.4992 35.5101 30.3992 35.2101V32.6101C30.3992 32.3101 30.5992 32.2101 30.7992 32.1101C31.4992 32.0101 32.0992 31.9101 32.7992 31.8101C32.8992 31.8101 32.9992 31.7101 32.9992 31.6101C33.0992 31.3101 33.1992 31.1101 33.2992 30.8101C33.2992 30.7101 33.3992 30.6101 33.2992 30.5101C32.8992 30.0101 32.4992 29.5101 32.1992 29.1101C31.9992 28.8101 31.8992 28.6101 32.1992 28.4101C32.5992 28.0101 32.9992 27.5101 33.3992 27.1101C33.5992 26.9101 33.7992 26.7101 34.0992 26.5101C34.2992 26.4101 34.3992 26.3101 34.4992 26.3101C34.5992 26.3101 34.6992 26.4101 34.8992 26.5101C35.3992 26.9101 35.8992 27.2101 36.2992 27.6101C36.3992 27.6101 36.3992 27.7101 36.4992 27.7101H36.5992C36.7992 27.6101 37.0992 27.5101 37.3992 27.4101C37.4992 27.4101 37.5992 27.3101 37.5992 27.1101C37.6992 26.4101 37.7992 25.8101 37.8992 25.1101C37.8992 24.8101 38.0992 24.7101 38.2992 24.7101C38.9992 24.8101 39.4992 24.8101 39.8992 24.8101ZM39.8992 37.2101C41.5992 37.2101 42.9992 35.8101 42.9992 34.1101C42.9992 32.4101 41.5992 31.0101 39.8992 31.0101C38.1992 31.0101 36.7992 32.4101 36.7992 34.1101C36.7992 35.8101 38.1992 37.2101 39.8992 37.2101ZM39.8992 22.8101H38.4992C37.2992 22.8101 36.2992 23.6101 36.0992 24.8101V24.9101C35.7992 24.7101 35.2992 24.4101 34.6992 24.4101C33.9992 24.4101 33.4992 24.7101 33.1992 25.0101C32.8992 25.2101 32.5992 25.5101 32.2992 25.8101C31.7992 26.3101 31.3992 26.8101 30.9992 27.2101C30.1992 28.1101 30.0992 29.3101 30.7992 30.3101C29.5992 30.5101 28.6992 31.5101 28.6992 32.7101V35.4101C28.6992 36.7101 29.5992 37.6101 30.8992 37.8101C30.1992 38.9101 30.2992 40.1101 31.1992 41.0101C31.8992 41.7101 32.4992 42.4101 33.0992 42.9101C33.5992 43.4101 34.1992 43.6101 34.7992 43.6101C35.2992 43.6101 35.7992 43.4101 36.1992 43.1101C36.3992 44.0101 36.7992 44.5101 37.1992 44.8101C37.4992 45.1101 37.9992 45.2101 38.3992 45.2101H41.4992C41.8992 45.2101 42.2992 45.1101 42.5992 44.9101C42.9992 44.6101 43.5992 44.1101 43.6992 43.2101C43.9992 43.4101 44.4992 43.7101 45.0992 43.7101C45.6992 43.7101 46.1992 43.5101 46.6992 43.1101C47.1992 42.7101 47.6992 42.2101 47.9992 41.9101C48.2992 41.6101 48.5992 41.2101 48.8992 40.9101C49.6992 40.0101 49.6992 38.8101 49.0992 37.9101C50.2992 37.7101 51.1992 36.7101 51.1992 35.5101V32.9101C51.1992 31.6101 50.2992 30.6101 49.0992 30.4101C49.7992 29.4101 49.6992 28.1101 48.8992 27.2101L46.9992 25.3101C46.3992 24.7101 45.6992 24.6101 45.2992 24.6101C44.7992 24.6101 44.2992 24.8101 43.8992 25.1101C43.6992 23.9101 42.6992 23.0101 41.4992 23.0101C40.7992 22.8101 40.3992 22.8101 39.8992 22.8101Z" fill="white"/>
  </svg>