<svg xmlns="http://www.w3.org/2000/svg" width="80" height="80" viewBox="0 0 80 80" fill="none">
    <path d="M32.6016 31C32.3016 31 32.1016 30.8 32.1016 30.5C32.1016 24.8 36.9016 20.1 42.7016 20.1C48.5016 20.1 53.3016 24.8 53.3016 30.5C53.3016 30.8 53.1016 31 52.8016 31H32.6016Z" fill="#1D59F9"/>
    <path d="M28.9031 55.6C28.1031 55.6 27.4031 54.9 27.4031 54.1V51C25.8031 50.7001 24.7031 49.4001 24.7031 47.7001V35.8C24.7031 35 25.4031 34.3 26.2031 34.3H59.5031C60.3031 34.3 61.0031 35 61.0031 35.8V47.7001C61.0031 49.3001 59.8031 50.7001 58.3031 51V54.1C58.3031 54.9 57.6031 55.6 56.8031 55.6H28.9031Z" fill="white"/>
    <path d="M59.4016 35.3C59.7016 35.3 59.9016 35.5 59.9016 35.8V47.7001C59.9016 49.0001 58.9016 50 57.6016 50H57.2016V54.1C57.2016 54.4 57.0016 54.6 56.7016 54.6H28.9016C28.6016 54.6 28.4016 54.4 28.4016 54.1V50H28.0016C26.7016 50 25.7016 49.0001 25.7016 47.7001V35.8C25.7016 35.5 25.9016 35.3 26.2016 35.3H59.4016ZM59.4016 33.3H26.1016C24.7016 33.3 23.6016 34.4 23.6016 35.8V47.7001C23.6016 49.5 24.7016 51.1 26.3016 51.7001V54.1C26.3016 55.5 27.4016 56.6 28.8016 56.6H56.6016C58.0016 56.6 59.1016 55.5 59.1016 54.1V51.7001C60.7016 51.1 61.8016 49.5 61.8016 47.7001V35.8C61.9016 34.4 60.8016 33.3 59.4016 33.3Z" fill="#220E27"/>
    <path d="M30.8 60.4001C32.0703 60.4001 33.1 59.3703 33.1 58.1C33.1 56.8298 32.0703 55.8 30.8 55.8C29.5297 55.8 28.5 56.8298 28.5 58.1C28.5 59.3703 29.5297 60.4001 30.8 60.4001Z" fill="white"/>
    <path d="M30.8 61.4001C28.98 61.4001 27.5 59.92 27.5 58.1C27.5 56.28 28.98 54.8 30.8 54.8C32.62 54.8 34.1 56.28 34.1 58.1C34.1 59.92 32.62 61.4001 30.8 61.4001ZM30.8 56.8C30.08 56.8 29.5 57.38 29.5 58.1C29.5 58.82 30.08 59.4001 30.8 59.4001C31.52 59.4001 32.1 58.82 32.1 58.1C32.1 57.38 31.52 56.8 30.8 56.8Z" fill="#220E27"/>
    <path d="M54.4992 60.4001C55.7695 60.4001 56.7992 59.3703 56.7992 58.1C56.7992 56.8298 55.7695 55.8 54.4992 55.8C53.229 55.8 52.1992 56.8298 52.1992 58.1C52.1992 59.3703 53.229 60.4001 54.4992 60.4001Z" fill="white"/>
    <path d="M54.4992 61.4001C52.6792 61.4001 51.1992 59.92 51.1992 58.1C51.1992 56.28 52.6792 54.8 54.4992 54.8C56.3192 54.8 57.7992 56.28 57.7992 58.1C57.7992 59.92 56.3192 61.4001 54.4992 61.4001ZM54.4992 56.8C53.7792 56.8 53.1992 57.38 53.1992 58.1C53.1992 58.82 53.7792 59.4001 54.4992 59.4001C55.2192 59.4001 55.7992 58.82 55.7992 58.1C55.7992 57.38 55.2192 56.8 54.4992 56.8Z" fill="#220E27"/>
    <path d="M57.5008 51H28.3008C28.0208 51 27.8008 50.78 27.8008 50.5C27.8008 50.22 28.0208 50 28.3008 50H57.5008C57.7808 50 58.0008 50.22 58.0008 50.5C58.0008 50.78 57.7808 51 57.5008 51Z" fill="#220E27"/>
    <path d="M27.7008 33.7H25.7008V28.2C25.7008 28.2 25.6508 28.1 25.6008 28.1H24.3008V26.1H25.6008C26.7608 26.1 27.7008 27.04 27.7008 28.2V33.7Z" fill="#220E27"/>
    <path d="M22.1992 29H19.4992C18.7992 29 18.1992 28.4 18.1992 27.7V26.4C18.1992 25.7 18.7992 25.1 19.4992 25.1H22.1992C22.8992 25.1 23.4992 25.7 23.4992 26.4V27.7C23.5992 28.4 22.9992 29 22.1992 29Z" fill="white"/>
    <path d="M22.1992 30H19.4992C18.2492 30 17.1992 28.95 17.1992 27.7V26.4C17.1992 25.15 18.2492 24.1 19.4992 24.1H22.1992C23.4492 24.1 24.4992 25.15 24.4992 26.4V27.64C24.5592 28.2 24.3792 28.77 23.9992 29.21C23.5592 29.71 22.9092 30 22.1992 30ZM19.4992 26.1C19.3492 26.1 19.1992 26.25 19.1992 26.4V27.7C19.1992 27.85 19.3492 28 19.4992 28H22.1992C22.3492 28 22.4492 27.95 22.4892 27.9V27.83L22.4992 27.7V26.4C22.4992 26.25 22.3492 26.1 22.1992 26.1H19.4992Z" fill="#220E27"/>
    <path d="M52.6984 33.5L32.8984 33.4C32.3484 33.4 31.8984 32.95 31.8984 32.4C31.8984 31.85 32.3484 31.4 32.8984 31.4L52.6984 31.5C53.2484 31.5 53.6984 31.95 53.6984 32.5C53.6984 33.05 53.2484 33.5 52.6984 33.5Z" fill="#220E27"/>
    <path d="M42.6992 22.6C42.1492 22.6 41.6992 22.15 41.6992 21.6V19.8C41.6992 19.25 42.1492 18.8 42.6992 18.8C43.2492 18.8 43.6992 19.25 43.6992 19.8V21.6C43.6992 22.15 43.2492 22.6 42.6992 22.6Z" fill="#1D59F9"/>
    <path d="M50.6969 27.9C49.5969 25.5 48.9969 24.9 46.7969 23.3L50.6969 27.9Z" fill="#1D59F9"/>
    <path d="M50.6985 28.4C50.5085 28.4 50.3285 28.29 50.2485 28.11C49.1885 25.8 48.6285 25.25 46.5085 23.71C46.2885 23.55 46.2385 23.24 46.3985 23.01C46.5585 22.79 46.8785 22.74 47.0985 22.9C49.3285 24.52 50.0185 25.2 51.1585 27.7C51.2785 27.95 51.1585 28.25 50.9085 28.36C50.8385 28.39 50.7685 28.41 50.6985 28.41V28.4Z" fill="white"/>
    <path d="M56.7984 48.2H28.3984C28.1184 48.2 27.8984 47.98 27.8984 47.7C27.8984 47.42 28.1184 47.2 28.3984 47.2H56.7984C57.0784 47.2 57.2984 47.42 57.2984 47.7C57.2984 47.98 57.0784 48.2 56.7984 48.2Z" fill="#220E27"/>
  </svg>