<svg xmlns="http://www.w3.org/2000/svg" width="80" height="80" viewBox="0 0 80 80" fill="none">
    <path d="M34.8969 38.45H31.6969C31.4969 38.45 31.2969 38.25 31.2969 38.05L31.3969 30.25C31.3969 30.05 31.5969 29.85 31.7969 29.85H33.7969C33.9969 29.85 34.1969 29.95 34.1969 30.15L35.3969 37.95C35.2969 38.25 35.0969 38.45 34.8969 38.45Z" fill="#1D59F9"/>
    <path d="M44.3984 35.45V20.55C44.3984 19.75 43.6984 19.25 43.1984 19.75C39.3984 23.05 34.4984 25.15 28.0984 25.75C27.6984 25.75 27.3984 26.25 27.3984 26.75V29.35C27.3984 29.85 27.7984 30.35 28.1984 30.35C33.7984 30.45 38.6984 32.65 43.1984 36.35C43.5984 36.65 44.3984 36.25 44.3984 35.45Z" fill="#1D59F9"/>
    <path d="M51.998 36.15C51.818 36.15 51.638 36.1 51.478 36C51.008 35.71 50.858 35.1 51.148 34.62C53.938 30.06 53.938 25.43 51.148 20.87C50.858 20.4 51.008 19.78 51.478 19.49C51.948 19.2 52.568 19.35 52.858 19.82C56.078 25.08 56.078 30.41 52.858 35.66C52.668 35.97 52.338 36.14 52.008 36.14L51.998 36.15Z" fill="#1D59F9"/>
    <path d="M48.498 32.9501C48.318 32.9501 48.138 32.9001 47.978 32.8001C47.508 32.5101 47.358 31.8901 47.648 31.4201C49.048 29.1501 49.048 26.9401 47.648 24.6701C47.358 24.2001 47.508 23.5801 47.978 23.2901C48.448 23.0001 49.068 23.1501 49.358 23.6201C51.168 26.5601 51.168 29.5301 49.358 32.4701C49.168 32.7801 48.838 32.9501 48.508 32.9501H48.498Z" fill="#1D59F9"/>
    <path d="M39.899 59.45C38.499 59.45 37.199 58.75 36.499 57.55L17.599 52.15C16.399 51.85 15.699 50.55 15.999 49.35L16.199 48.35C16.499 47.35 17.399 46.65 18.399 46.65C18.599 46.65 18.699 46.65 18.899 46.75L19.399 46.85L19.799 45.45C19.999 44.75 20.599 44.35 21.199 44.35C21.299 44.35 21.499 44.35 21.599 44.45L39.999 49.95L57.199 44.95C57.299 44.95 57.499 44.85 57.599 44.85C58.299 44.85 58.899 45.35 58.999 45.95L59.399 47.25L60.699 46.95C60.899 46.95 61.099 46.85 61.299 46.85C62.299 46.85 63.199 47.55 63.499 48.55L63.699 49.55C63.999 50.75 63.299 52.05 62.099 52.35L42.999 57.75C42.499 58.75 41.199 59.45 39.899 59.45Z" fill="white"/>
    <path d="M21.2996 45.15L39.2996 50.45L38.6996 52.65C38.5996 52.95 38.7996 53.25 39.0996 53.25H40.6996C40.9996 53.25 41.1996 52.95 41.0996 52.65L40.4996 50.55L57.5996 45.65H57.6996C57.8996 45.65 58.0996 45.75 58.1996 46.05L58.7996 48.35L61.0996 47.75H61.3996C61.9996 47.75 62.4996 48.15 62.5996 48.75L62.7996 49.75C62.9996 50.45 62.5996 51.15 61.8996 51.35L42.3996 56.95C41.8996 57.95 40.8996 58.55 39.7996 58.55C38.5996 58.55 37.4996 57.85 37.0996 56.75L17.7996 51.25C17.0996 51.05 16.6996 50.35 16.8996 49.65L17.0996 48.65C17.2996 48.05 17.7996 47.65 18.2996 47.65H18.5996L20.0996 47.85L20.6996 45.55C20.8996 45.25 21.0996 45.15 21.2996 45.15ZM21.2996 43.15C20.1996 43.15 19.1996 43.95 18.8996 44.95L18.6996 45.55H18.3996C16.8996 45.55 15.5996 46.55 15.2996 48.05L15.0996 49.05C14.6996 50.75 15.6996 52.65 17.3996 53.05L35.8996 58.35C36.7996 59.65 38.2996 60.45 39.8996 60.45C41.4996 60.45 42.8996 59.75 43.7996 58.55L62.5996 53.15C64.2996 52.65 65.2996 50.85 64.8996 49.15L64.6996 48.15C64.2996 46.65 62.9996 45.65 61.5996 45.65C61.2996 45.65 60.9996 45.65 60.7996 45.75L60.3996 45.85L60.2996 45.45C59.9996 44.35 58.9996 43.65 57.8996 43.65C57.6996 43.65 57.3996 43.65 57.1996 43.75L40.2996 48.65L40.0996 48.55L22.1996 43.25C21.6996 43.15 21.4996 43.15 21.2996 43.15Z" fill="#220E27"/>
    <path d="M40.3012 54.05C40.0812 54.05 39.8812 53.9 39.8212 53.68C39.7512 53.41 39.9112 53.14 40.1712 53.07L62.0712 47.17C62.3412 47.1 62.6112 47.25 62.6812 47.52C62.7512 47.79 62.5912 48.06 62.3312 48.13L40.4312 54.03C40.4312 54.03 40.3412 54.05 40.3012 54.05Z" fill="#220E27"/>
    <path d="M39.6979 54.05C39.6979 54.05 39.6079 54.05 39.5679 54.03L17.6679 48.13C17.3979 48.06 17.2479 47.78 17.3179 47.52C17.3879 47.25 17.6679 47.1 17.9279 47.17L39.8279 53.07C40.0979 53.14 40.2479 53.42 40.1779 53.68C40.1179 53.9 39.9179 54.05 39.6979 54.05Z" fill="#220E27"/>
    <path d="M39.8 55.75C40.518 55.75 41.1 54.9889 41.1 54.05C41.1 53.1111 40.518 52.35 39.8 52.35C39.082 52.35 38.5 53.1111 38.5 54.05C38.5 54.9889 39.082 55.75 39.8 55.75Z" fill="#220E27"/>
    <path d="M40 48.75C44 45.55 48.7 42.25 54 38.95L40 48.75Z" fill="white"/>
    <path d="M39.9992 49.25C39.8492 49.25 39.7092 49.19 39.6092 49.06C39.4392 48.84 39.4692 48.53 39.6892 48.36C43.7592 45.11 48.4792 41.8 53.7392 38.53C53.9792 38.39 54.2792 38.46 54.4292 38.69C54.5792 38.92 54.4992 39.23 54.2692 39.38C49.0492 42.63 44.3492 45.92 40.3192 49.15C40.2292 49.22 40.1192 49.26 40.0092 49.26L39.9992 49.25Z" fill="#220E27"/>
    <path d="M40.5 48.55C45.6 45.95 50.9 43.65 56.3 41.55L40.5 48.55Z" fill="white"/>
    <path d="M40.4993 49.05C40.3193 49.05 40.1392 48.95 40.0492 48.78C39.9192 48.53 40.0193 48.23 40.2693 48.11C45.0493 45.67 50.2292 43.38 56.1192 41.09C56.3792 40.99 56.6693 41.12 56.7693 41.37C56.8693 41.63 56.7393 41.92 56.4893 42.02C50.6393 44.3 45.4893 46.58 40.7393 49C40.6693 49.04 40.5892 49.05 40.5092 49.05H40.4993Z" fill="#220E27"/>
    <path d="M40.1992 48.8499C36.1992 45.6499 31.4992 42.3499 26.1992 39.0499L40.1992 48.8499Z" fill="white"/>
    <path d="M40.1995 49.3499C40.0895 49.3499 39.9795 49.3099 39.8895 49.2399C35.8495 46.0099 31.1595 42.7299 25.9395 39.4699C25.7095 39.3199 25.6295 39.0099 25.7795 38.7799C25.9295 38.5499 26.2395 38.4799 26.4695 38.6199C31.7295 41.8899 36.4495 45.1999 40.5195 48.4499C40.7395 48.6199 40.7695 48.9399 40.5995 49.1499C40.4995 49.2699 40.3595 49.3399 40.2095 49.3399L40.1995 49.3499Z" fill="#220E27"/>
    <path d="M39.7023 48.55C34.6023 45.95 29.3023 43.65 23.9023 41.55L39.7023 48.55Z" fill="white"/>
    <path d="M39.7013 49.05C39.6213 49.05 39.5513 49.03 39.4713 49C34.7213 46.58 29.5613 44.29 23.7213 42.02C23.4613 41.92 23.3413 41.63 23.4413 41.37C23.5413 41.11 23.8313 40.99 24.0913 41.09C29.9713 43.38 35.1513 45.67 39.9313 48.11C40.1813 48.23 40.2713 48.54 40.1513 48.78C40.0613 48.95 39.8913 49.05 39.7013 49.05Z" fill="#220E27"/>
  </svg>