<svg xmlns="http://www.w3.org/2000/svg" width="80" height="80" viewBox="0 0 80 80" fill="none">
    <path d="M23.35 59.6999C21.85 59.6999 20.75 58.4999 20.75 57.0999V20.0999C20.75 18.5999 21.95 17.4999 23.35 17.4999H53.75C55.25 17.4999 56.35 18.6999 56.35 20.0999V57.0999C56.35 58.5999 55.15 59.6999 53.75 59.6999H23.35Z" fill="white"/>
    <path d="M53.75 18.3999C54.65 18.3999 55.35 19.0999 55.35 19.9999V56.9999C55.35 57.8999 54.65 58.5999 53.75 58.5999H23.35C22.45 58.5999 21.75 57.8999 21.75 56.9999V19.9999C21.75 19.0999 22.45 18.3999 23.35 18.3999H53.75ZM53.75 16.3999H23.35C21.35 16.3999 19.75 17.9999 19.75 19.9999V56.9999C19.75 58.9999 21.35 60.5999 23.35 60.5999H53.75C55.75 60.5999 57.35 58.9999 57.35 56.9999V19.9999C57.35 18.0999 55.75 16.3999 53.75 16.3999Z" fill="#220E27"/>
    <path d="M51.5484 55.9001H25.4484C24.9484 55.9001 24.6484 55.5 24.6484 55.1V22.1C24.6484 21.6 25.0484 21.3 25.4484 21.3H51.5484C52.0484 21.3 52.3484 21.7 52.3484 22.1V55.1C52.3484 55.5 52.0484 55.9001 51.5484 55.9001Z" fill="white"/>
    <path d="M51.5484 56.4001H25.4484C24.6384 56.4001 24.1484 55.74 24.1484 55.1V22.1C24.1484 21.29 24.8084 20.8 25.4484 20.8H51.5484C52.3584 20.8 52.8484 21.46 52.8484 22.1V55.1C52.8484 55.74 52.3584 56.4001 51.5484 56.4001ZM25.4484 21.8C25.3484 21.8 25.1484 21.86 25.1484 22.1V55.1C25.1484 55.2 25.2084 55.4001 25.4484 55.4001H51.5484C51.7884 55.4001 51.8484 55.2 51.8484 55.1V22.1C51.8484 21.98 51.7684 21.8 51.5484 21.8H25.4484Z" fill="#220E27"/>
    <path d="M45.3484 22.3H30.9484C30.5484 22.3 30.1484 22 30.1484 21.5V18.7C30.1484 18.3 30.4484 17.9 30.9484 17.9H45.3484C45.7484 17.9 46.1484 18.2 46.1484 18.7V21.5C46.0484 22 45.7484 22.3 45.3484 22.3Z" fill="white"/>
    <path d="M45.3484 22.8H30.9484C30.3084 22.8 29.6484 22.31 29.6484 21.5V18.7C29.6484 18.06 30.1384 17.4 30.9484 17.4H45.3484C45.9884 17.4 46.6484 17.89 46.6484 18.7V21.5C46.4884 22.34 45.9984 22.8 45.3484 22.8ZM30.9484 18.4C30.7284 18.4 30.6484 18.58 30.6484 18.7V21.5C30.6484 21.74 30.8484 21.8 30.9484 21.8H45.3484C45.5484 21.8 45.6284 21.55 45.6584 21.4V18.7C45.6584 18.46 45.4484 18.4 45.3484 18.4H30.9484Z" fill="#220E27"/>
    <path d="M36.0516 28H28.3516C28.0716 28 27.8516 27.78 27.8516 27.5C27.8516 27.22 28.0716 27 28.3516 27H36.0516C36.3316 27 36.5516 27.22 36.5516 27.5C36.5516 27.78 36.3316 28 36.0516 28Z" fill="#220E27"/>
    <path d="M47.7508 28.5H46.0508C45.5008 28.5 45.0508 28.05 45.0508 27.5C45.0508 26.95 45.5008 26.5 46.0508 26.5H47.7508C48.3008 26.5 48.7508 26.95 48.7508 27.5C48.7508 28.05 48.3008 28.5 47.7508 28.5Z" fill="#1D59F9"/>
    <path d="M47.7508 32.5H46.0508C45.5008 32.5 45.0508 32.05 45.0508 31.5C45.0508 30.95 45.5008 30.5 46.0508 30.5H47.7508C48.3008 30.5 48.7508 30.95 48.7508 31.5C48.7508 32.05 48.3008 32.5 47.7508 32.5Z" fill="#220E27"/>
    <path d="M34.3516 32H28.3516C28.0716 32 27.8516 31.78 27.8516 31.5C27.8516 31.22 28.0716 31 28.3516 31H34.3516C34.6316 31 34.8516 31.22 34.8516 31.5C34.8516 31.78 34.6316 32 34.3516 32Z" fill="#220E27"/>
    <path d="M36.0516 36H28.3516C28.0716 36 27.8516 35.78 27.8516 35.5C27.8516 35.22 28.0716 35 28.3516 35H36.0516C36.3316 35 36.5516 35.22 36.5516 35.5C36.5516 35.78 36.3316 36 36.0516 36Z" fill="#220E27"/>
    <path d="M47.7508 36.5H46.0508C45.5008 36.5 45.0508 36.05 45.0508 35.5C45.0508 34.95 45.5008 34.5 46.0508 34.5H47.7508C48.3008 34.5 48.7508 34.95 48.7508 35.5C48.7508 36.05 48.3008 36.5 47.7508 36.5Z" fill="#220E27"/>
    <path d="M47.7508 40.5H46.0508C45.5008 40.5 45.0508 40.05 45.0508 39.5C45.0508 38.95 45.5008 38.5 46.0508 38.5H47.7508C48.3008 38.5 48.7508 38.95 48.7508 39.5C48.7508 40.05 48.3008 40.5 47.7508 40.5Z" fill="#220E27"/>
    <path d="M34.3516 40H28.3516C28.0716 40 27.8516 39.78 27.8516 39.5C27.8516 39.22 28.0716 39 28.3516 39H34.3516C34.6316 39 34.8516 39.22 34.8516 39.5C34.8516 39.78 34.6316 40 34.3516 40Z" fill="#220E27"/>
    <path d="M36.0516 44H28.3516C28.0716 44 27.8516 43.78 27.8516 43.5C27.8516 43.22 28.0716 43 28.3516 43H36.0516C36.3316 43 36.5516 43.22 36.5516 43.5C36.5516 43.78 36.3316 44 36.0516 44Z" fill="#220E27"/>
    <path d="M47.7508 44.5H46.0508C45.5008 44.5 45.0508 44.05 45.0508 43.5C45.0508 42.95 45.5008 42.5 46.0508 42.5H47.7508C48.3008 42.5 48.7508 42.95 48.7508 43.5C48.7508 44.05 48.3008 44.5 47.7508 44.5Z" fill="#220E27"/>
    <path d="M47.7508 48.5H46.0508C45.5008 48.5 45.0508 48.05 45.0508 47.5C45.0508 46.95 45.5008 46.5 46.0508 46.5H47.7508C48.3008 46.5 48.7508 46.95 48.7508 47.5C48.7508 48.05 48.3008 48.5 47.7508 48.5Z" fill="#220E27"/>
    <path d="M34.3516 48H28.3516C28.0716 48 27.8516 47.78 27.8516 47.5C27.8516 47.22 28.0716 47 28.3516 47H34.3516C34.6316 47 34.8516 47.22 34.8516 47.5C34.8516 47.78 34.6316 48 34.3516 48Z" fill="#220E27"/>
    <path d="M51.25 63.6C56.2206 63.6 60.25 59.5705 60.25 54.6C60.25 49.6294 56.2206 45.6 51.25 45.6C46.2794 45.6 42.25 49.6294 42.25 54.6C42.25 59.5705 46.2794 63.6 51.25 63.6Z" fill="#1D59F9"/>
    <path d="M51.25 64.6C45.74 64.6 41.25 60.11 41.25 54.6C41.25 49.09 45.74 44.6 51.25 44.6C56.76 44.6 61.25 49.09 61.25 54.6C61.25 60.11 56.76 64.6 51.25 64.6ZM51.25 46.6C46.84 46.6 43.25 50.19 43.25 54.6C43.25 59.01 46.84 62.6 51.25 62.6C55.66 62.6 59.25 59.01 59.25 54.6C59.25 50.19 55.66 46.6 51.25 46.6Z" fill="#1D59F9"/>
    <path d="M51.6484 59.1C51.0484 59.1 50.4484 59 49.9484 58.8C49.4484 58.6 49.0484 58.2 48.7484 57.8C48.4484 57.4 48.2484 56.9 48.1484 56.3L49.7484 56C49.8484 56.5 50.0484 56.8 50.4484 57.1C50.7484 57.4 51.2484 57.5 51.6484 57.5C52.1484 57.5 52.4484 57.4 52.7484 57.2C53.0484 57 53.1484 56.7 53.1484 56.4C53.1484 56.2 53.0484 56 52.9484 55.9C52.8484 55.8 52.6484 55.6 52.3484 55.6L50.2484 54.9C49.0484 54.5 48.4484 53.8 48.4484 52.6C48.4484 52.1 48.5484 51.6 48.8484 51.2C49.1484 50.8 49.4484 50.5 49.9484 50.3C50.4484 50.1 50.9484 50 51.5484 50C52.1484 50 52.6484 50.1 53.0484 50.3C53.4484 50.5 53.8484 50.8 54.1484 51.2C54.4484 51.6 54.6484 52 54.8484 52.6L53.1484 52.9C53.0484 52.6 52.9484 52.4 52.8484 52.2C52.6484 52 52.5484 51.9 52.2484 51.7C52.0484 51.6 51.7484 51.5 51.4484 51.5C51.1484 51.5 50.9484 51.5 50.7484 51.6C50.5484 51.7 50.3484 51.8 50.2484 52C50.1484 52.1 50.0484 52.3 50.0484 52.5C50.0484 52.7 50.1484 52.9 50.3484 53C50.5484 53.1 50.8484 53.3 51.1484 53.4L52.6484 53.8C53.4484 54 53.9484 54.3 54.3484 54.7C54.7484 55.1 54.8484 55.6 54.8484 56.2C54.8484 56.7 54.7484 57.2 54.4484 57.6C54.1484 58 53.7484 58.3 53.2484 58.6C52.8484 59 52.2484 59.1 51.6484 59.1ZM50.8484 50.5V49.1H52.4484V50.5H50.8484ZM50.8484 60.1V58.7H52.4484V60.1H50.8484Z" fill="white"/>
  </svg>