<svg xmlns="http://www.w3.org/2000/svg" width="80" height="80" viewBox="0 0 80 80" fill="none">
    <path d="M34.1508 62.1C34.0508 62.1 33.9508 62.1 33.8508 62L19.7508 57.3C19.3508 57.2 19.0508 56.8 19.0508 56.4V22.1C19.0508 21.8 19.2508 21.5 19.4508 21.3C19.6508 21.2 19.8508 21.1 20.0508 21.1H20.3508L33.9508 25.4L47.4508 18.2C47.5508 18.1 47.7508 18.1 47.9508 18.1C48.0508 18.1 48.1508 18.1 48.2508 18.2L60.2508 22.5C60.6508 22.6 60.9508 23 60.9508 23.4V58.1C60.9508 58.4 60.7508 58.7 60.5508 58.9C60.3508 59 60.1508 59.1 59.9508 59.1C59.8508 59.1 59.6508 59.1 59.5508 59L48.2508 54.5L34.6508 62C34.4508 62.1 34.2508 62.1 34.1508 62.1Z" fill="white"/>
    <path d="M47.8508 19.1L59.8508 23.4V58.1L48.0508 53.4L34.0508 61.2L19.9508 56.5V22.2L33.9508 26.6L47.8508 19.1ZM47.8508 17.1C47.5508 17.1 47.2508 17.2 46.9508 17.3L33.8508 24.3L20.6508 20.1C20.4508 20 20.2508 20 20.0508 20C19.6508 20 19.2508 20.1 18.8508 20.4C18.3508 20.8 18.0508 21.4 18.0508 22V56.3C18.0508 57.2 18.5508 57.9 19.4508 58.2L33.5508 62.9C33.7508 63 33.9508 63 34.1508 63C34.4508 63 34.8508 62.9 35.1508 62.7L48.3508 55.4L59.2508 59.8C59.4508 59.9 59.7508 59.9 59.9508 59.9C60.3508 59.9 60.7508 59.8 61.0508 59.6C61.5508 59.2 61.9508 58.6 61.9508 57.9V23.2C61.9508 22.4 61.4508 21.6 60.6508 21.3L48.6508 17C48.3508 17.1 48.1508 17.1 47.8508 17.1Z" fill="#220E27"/>
    <path d="M34.1508 61.1L48.0508 53.3L47.8508 19.1L34.0508 26.5L34.1508 61.1Z" fill="#1D59F9"/>
    <path d="M31.8496 49C31.7996 49 31.7396 49 31.6896 48.97L21.4896 45.47C21.2296 45.38 21.0896 45.1 21.1796 44.84C21.2696 44.58 21.5496 44.44 21.8096 44.53L32.0096 48.03C32.2696 48.12 32.4096 48.4 32.3196 48.66C32.2496 48.87 32.0596 49 31.8496 49Z" fill="#220E27"/>
    <path d="M31.8509 53.1C31.8009 53.1 31.7409 53.1 31.6909 53.07L21.4909 49.67C21.2309 49.58 21.0909 49.3 21.1709 49.04C21.2609 48.78 21.5409 48.64 21.8009 48.72L32.0009 52.12C32.2609 52.21 32.4009 52.49 32.3209 52.75C32.2509 52.96 32.0509 53.09 31.8509 53.09V53.1Z" fill="#220E27"/>
    <path d="M31.8509 57.1C31.8009 57.1 31.7409 57.1 31.6909 57.07L21.4909 53.67C21.2309 53.58 21.0909 53.3 21.1709 53.04C21.2609 52.78 21.5409 52.64 21.8009 52.72L32.0009 56.12C32.2609 56.21 32.4009 56.49 32.3209 56.75C32.2509 56.96 32.0509 57.09 31.8509 57.09V57.1Z" fill="#220E27"/>
    <path d="M57.9481 53.5C57.8881 53.5 57.8181 53.49 57.7581 53.46L49.8581 50.26C49.5981 50.16 49.4781 49.86 49.5781 49.61C49.6781 49.35 49.9681 49.23 50.2281 49.33L58.1281 52.53C58.3881 52.63 58.5081 52.93 58.4081 53.18C58.3281 53.37 58.1381 53.49 57.9481 53.49V53.5Z" fill="#220E27"/>
    <path d="M57.9481 50.1C57.8881 50.1 57.8181 50.09 57.7581 50.06L49.8581 46.86C49.5981 46.76 49.4781 46.46 49.5781 46.21C49.6781 45.95 49.9681 45.83 50.2281 45.93L58.1281 49.13C58.3881 49.23 58.5081 49.53 58.4081 49.78C58.3281 49.97 58.1381 50.09 57.9481 50.09V50.1Z" fill="#220E27"/>
    <path d="M57.9481 46.1C57.8881 46.1 57.8181 46.09 57.7581 46.06L49.8581 42.86C49.5981 42.76 49.4781 42.46 49.5781 42.21C49.6781 41.95 49.9681 41.83 50.2281 41.93L58.1281 45.13C58.3881 45.23 58.5081 45.53 58.4081 45.78C58.3281 45.97 58.1381 46.09 57.9481 46.09V46.1Z" fill="#220E27"/>
    <path d="M57.3508 38.3001C57.2908 38.3001 57.2308 38.2901 57.1708 38.2601L49.8708 35.3601C49.6708 35.2801 49.5508 35.0901 49.5508 34.8801L49.7508 27.2801C49.7508 27.1101 49.8408 26.9601 49.9808 26.8701C50.1208 26.7801 50.2908 26.7601 50.4408 26.8301L57.7408 29.8301C57.9308 29.9101 58.0508 30.1001 58.0508 30.3101L57.8508 37.8101C57.8508 37.9701 57.7608 38.1201 57.6308 38.2101C57.5508 38.2601 57.4508 38.2901 57.3508 38.2901V38.3001ZM50.5608 34.5601L56.8708 37.0701L57.0408 30.6301L50.7308 28.0401L50.5608 34.5701V34.5601Z" fill="#220E27"/>
    <path d="M26.5491 31.7C30.1491 30.1 32.4491 35.2 30.1491 37.5C29.2491 38.4 28.0491 39.2 26.5491 39.8C25.1491 38.5 24.0491 37 23.0491 35.3C20.5491 30.5 23.6491 28.3 26.5491 31.7Z" fill="#1D59F9"/>
    <path d="M36.8493 55.7C36.6693 55.7 36.4993 55.61 36.4093 55.44C36.2793 55.2 36.3593 54.89 36.6093 54.76L45.1093 50.06C45.3493 49.93 45.6593 50.01 45.7893 50.26C45.9193 50.5 45.8393 50.81 45.5893 50.94L37.0893 55.64C37.0093 55.68 36.9293 55.7 36.8493 55.7Z" fill="white"/>
    <path d="M36.8501 52.2001C36.6801 52.2001 36.5101 52.1101 36.4101 51.9501C36.2701 51.7101 36.3601 51.4001 36.6001 51.2701L45.1001 46.4701C45.3401 46.3301 45.6401 46.4201 45.7801 46.6601C45.9201 46.9001 45.8301 47.2101 45.5901 47.3401L37.0901 52.1401C37.0101 52.1801 36.9301 52.2001 36.8401 52.2001H36.8501Z" fill="white"/>
    <path d="M36.8501 48.3C36.6801 48.3 36.5101 48.21 36.4101 48.05C36.2701 47.81 36.3601 47.5 36.6001 47.37L45.1001 42.57C45.3401 42.43 45.6401 42.52 45.7801 42.76C45.9201 43 45.8301 43.31 45.5901 43.44L37.0901 48.24C37.0101 48.28 36.9301 48.3 36.8401 48.3H36.8501Z" fill="white"/>
    <path d="M44.55 36L38.05 39.5C37.65 39.7 37.25 39.4 37.25 39V31.8C37.25 31.6 37.35 31.4 37.55 31.3L44.05 27.8C44.45 27.6 44.85 27.9 44.85 28.3V35.5C44.85 35.7 44.75 35.9 44.55 36Z" fill="white"/>
  </svg>