<svg width="56" height="11" viewBox="0 0 56 11" fill="none" xmlns="http://www.w3.org/2000/svg">
<g id="discover 1">
<g id="Group">
<g id="Mark">
<path id="Vector" d="M3.46219 1.14923H1.0332V9.61766H3.4485C4.72799 9.61766 5.65853 9.31668 6.47276 8.63948C7.43751 7.83915 8.01225 6.63524 8.01225 5.39029C8.01225 2.89354 6.14433 1.14923 3.46219 1.14923ZM5.39169 7.51081C4.87168 7.97596 4.20114 8.18117 3.13376 8.18117H2.68902V2.58572H3.13376C4.20114 2.58572 4.85115 2.77725 5.39169 3.26976C5.96643 3.77595 6.30854 4.56944 6.30854 5.3766C6.30854 6.18377 5.96643 7.00462 5.39169 7.51081Z" fill="#261F20"/>
<path id="Vector_2" d="M10.4209 1.14923H8.77197V9.61766H10.4209V1.14923Z" fill="#261F20"/>
<path id="Vector_3" d="M14.4577 4.39839C13.4656 4.02901 13.1782 3.7896 13.1782 3.33129C13.1782 2.79774 13.6982 2.39415 14.4098 2.39415C14.9025 2.39415 15.313 2.59937 15.7441 3.07819L16.6062 1.94953C15.8946 1.32705 15.0462 1.01239 14.1156 1.01239C12.6172 1.01239 11.4745 2.05213 11.4745 3.44074C11.4745 4.61045 12.0082 5.20556 13.5614 5.75963C14.2046 5.98537 14.5398 6.1427 14.704 6.23846C15.0325 6.45052 15.1967 6.75833 15.1967 7.11404C15.1967 7.79808 14.6493 8.31111 13.9103 8.31111C13.1235 8.31111 12.4872 7.91436 12.104 7.18244L11.0366 8.2085C11.7961 9.32349 12.713 9.82284 13.9719 9.82284C15.6893 9.82284 16.8936 8.68049 16.8936 7.04563C16.8936 5.69807 16.3393 5.08927 14.4577 4.40523V4.39839Z" fill="#261F20"/>
<path id="Vector_4" d="M17.4204 5.39028C17.4204 7.88019 19.3773 9.80919 21.8884 9.80919C22.6 9.80919 23.2089 9.67238 23.9616 9.31668V7.374C23.2979 8.03752 22.7163 8.3043 21.9636 8.3043C20.301 8.3043 19.1173 7.10039 19.1173 5.38344C19.1173 3.75543 20.3352 2.47627 21.8884 2.47627C22.6752 2.47627 23.2705 2.75673 23.9616 3.42709V1.48441C23.2363 1.11503 22.641 0.964539 21.9294 0.964539C19.4252 0.964539 17.4204 2.93458 17.4204 5.39712V5.39028Z" fill="#261F20"/>
<path id="Vector_5" d="M37.0574 6.83361L34.7995 1.14923H32.9932L36.5922 9.83655H37.4816L41.1354 1.14923H39.3496L37.0574 6.83361Z" fill="#261F20"/>
<path id="Vector_6" d="M41.8882 9.61766H46.5683V8.18117H43.5372V5.89648H46.4588V4.45999H43.5372V2.58572H46.5683V1.14923H41.8882V9.61766Z" fill="#261F20"/>
<path id="Vector_7" d="M53.1163 3.64598C53.1163 2.05901 52.0216 1.14923 50.1194 1.14923H47.6699V9.61766H49.3189V6.21798H49.5378L51.8231 9.61766H53.8553L51.1868 6.04697C52.4321 5.79387 53.1163 4.94566 53.1163 3.64598ZM49.7978 5.04826H49.3121V2.48311H49.8184C50.8447 2.48311 51.4058 2.91406 51.4058 3.74175C51.4058 4.56944 50.8447 5.04826 49.791 5.04826H49.7978Z" fill="#261F20"/>
<path id="Vector_8" d="M54.4297 1.59384C54.4297 1.44335 54.327 1.36127 54.1491 1.36127H53.9097V2.10687H54.0876V1.81957L54.2997 2.10687H54.5186L54.2723 1.79905C54.3749 1.77169 54.4365 1.69645 54.4365 1.59384H54.4297ZM54.1149 1.69645H54.0876V1.49808H54.1218C54.2107 1.49808 54.2586 1.53228 54.2586 1.59384C54.2586 1.6554 54.2107 1.69645 54.1218 1.69645H54.1149Z" fill="#261F20"/>
<path id="Vector_9" d="M54.1837 1.08081C53.8211 1.08081 53.5337 1.36811 53.5337 1.73065C53.5337 2.09319 53.8279 2.38049 54.1837 2.38049C54.5395 2.38049 54.8269 2.08635 54.8269 1.73065C54.8269 1.37495 54.5395 1.08081 54.1837 1.08081ZM54.1769 2.27104C53.8895 2.27104 53.6569 2.03163 53.6569 1.73749C53.6569 1.44335 53.8895 1.20394 54.1769 1.20394C54.4642 1.20394 54.69 1.45019 54.69 1.73749C54.69 2.02479 54.4574 2.27104 54.1769 2.27104Z" fill="#261F20"/>
<path id="Vector_10" d="M33.4653 5.37659C33.4653 7.85282 31.4605 9.8639 28.9768 9.8639C26.493 9.8639 24.4883 7.85966 24.4883 5.37659C24.4883 2.89352 26.493 0.889282 28.9768 0.889282C31.4605 0.889282 33.4653 2.89352 33.4653 5.37659Z" fill="url(#paint0_linear_5981_9634)"/>
<path id="Vector_11" style="mix-blend-mode:multiply" opacity="0.65" d="M33.4653 5.37659C33.4653 7.85282 31.4605 9.8639 28.9768 9.8639C26.493 9.8639 24.4883 7.85966 24.4883 5.37659C24.4883 2.89352 26.493 0.889282 28.9768 0.889282C31.4605 0.889282 33.4653 2.89352 33.4653 5.37659Z" fill="url(#paint1_linear_5981_9634)"/>
<g id="Group_2" style="mix-blend-mode:multiply" opacity="0.5">
<g id="Clip path group">
<mask id="mask0_5981_9634" style="mask-type:luminance" maskUnits="userSpaceOnUse" x="24" y="0" width="10" height="10">
<g id="clippath">
<path id="Vector_12" d="M33.4653 5.37659C33.4653 7.85282 31.4536 9.8639 28.9768 9.8639C26.4999 9.8639 24.4883 7.85966 24.4883 5.37659C24.4883 2.89352 26.493 0.889282 28.9768 0.889282C31.4605 0.889282 33.4653 2.89352 33.4653 5.37659Z" fill="white"/>
</g>
</mask>
<g mask="url(#mask0_5981_9634)">
<g id="Group_3">
<path id="Vector_13" d="M28.9974 0.820866C31.5221 0.820866 33.5748 2.86615 33.5748 5.39026C33.5748 7.91437 31.5221 9.96649 28.9974 9.96649C26.4726 9.96649 24.4199 7.92121 24.4199 5.39026C24.4199 2.86615 26.4657 0.814026 28.9974 0.814026V0.820866Z" fill="#020000"/>
<path id="Vector_14" d="M29.0042 0.827698C31.529 0.827698 33.5816 2.86614 33.5816 5.39025C33.5816 7.91436 31.529 9.97333 29.0042 9.97333C26.4794 9.97333 24.4268 7.92804 24.4268 5.40393C24.4268 2.87982 26.4794 0.827698 29.0042 0.827698Z" fill="#030100"/>
<path id="Vector_15" d="M29.011 0.834534C31.5358 0.834534 33.5953 2.87298 33.5953 5.39709C33.5953 7.9212 31.5427 9.98016 29.011 9.98016C26.4794 9.98016 24.4336 7.93488 24.4404 5.41077C24.4404 2.88666 26.4931 0.834534 29.011 0.841374V0.834534Z" fill="#050100"/>
<path id="Vector_16" d="M29.011 0.841387C31.5358 0.841387 33.5953 2.87299 33.5953 5.3971C33.5953 7.92121 31.5358 9.98018 29.011 9.98018C26.4863 9.98018 24.4336 7.93489 24.4404 5.41078C24.4404 2.88667 26.4931 0.834546 29.011 0.841387Z" fill="#070200"/>
<path id="Vector_17" d="M29.0179 0.855059C31.5427 0.855059 33.6022 2.87982 33.6022 5.40393C33.6022 7.92804 31.5427 9.99385 29.0179 9.99385C26.4931 9.99385 24.4404 7.94856 24.4473 5.42445C24.4473 2.90034 26.4999 0.848218 29.0179 0.855059Z" fill="#080200"/>
<path id="Vector_18" d="M29.0247 0.861894C31.5495 0.861894 33.609 2.88666 33.609 5.41077C33.609 7.93488 31.5495 10.0007 29.0247 10.0007C26.4999 10.0007 24.4473 7.9554 24.4541 5.43129C24.4541 2.90718 26.5068 0.855054 29.0247 0.861894Z" fill="#0A0300"/>
<path id="Vector_19" d="M29.0315 0.86873C31.5563 0.86873 33.6227 2.88665 33.6227 5.41076C33.6227 7.93487 31.5563 10.0075 29.0315 10.0075C26.5068 10.0075 24.4541 7.96224 24.461 5.43812C24.461 2.91401 26.5136 0.86189 29.0315 0.86873Z" fill="#0C0300"/>
<path id="Vector_20" d="M29.0315 0.875571C31.5563 0.875571 33.6227 2.89349 33.6227 5.41076C33.6227 7.92803 31.5563 10.0075 29.0315 10.0075C26.5068 10.0075 24.4541 7.96224 24.461 5.43812C24.461 2.91401 26.5136 0.86189 29.0315 0.86873V0.875571Z" fill="#0E0400"/>
<path id="Vector_21" d="M29.0384 0.882402C31.5632 0.889243 33.6295 2.89348 33.6295 5.41759C33.6295 7.94171 31.5563 10.0212 29.0384 10.0212C26.5205 10.0212 24.4609 7.97591 24.4678 5.4518C24.4678 2.92768 26.5205 0.875562 29.0384 0.882402Z" fill="#0F0400"/>
<path id="Vector_22" d="M29.0452 0.889243C31.57 0.896083 33.6363 2.89348 33.6363 5.41759C33.6363 7.94171 31.5632 10.0212 29.0452 10.0212C26.5273 10.0212 24.4678 7.97591 24.4746 5.4518C24.4815 2.92768 26.5273 0.875562 29.0452 0.882402V0.889243Z" fill="#110500"/>
<path id="Vector_23" d="M29.0453 0.896118C31.57 0.902959 33.6432 2.90036 33.6432 5.41763C33.6432 7.9349 31.57 10.0281 29.0453 10.0281C26.5205 10.0281 24.4678 7.98278 24.4815 5.46551C24.4884 2.9414 26.5342 0.889278 29.0453 0.902959V0.896118Z" fill="#130500"/>
<path id="Vector_24" d="M29.0521 0.902954C31.57 0.909795 33.6501 2.90035 33.6501 5.42446C33.6501 7.94858 31.57 10.0349 29.0521 10.0349C26.5342 10.0349 24.4747 7.98962 24.4883 5.47235C24.4952 2.94824 26.541 0.896114 29.0521 0.909795V0.902954Z" fill="#140600"/>
<path id="Vector_25" d="M29.0589 0.909797C31.5769 0.916637 33.6569 2.90036 33.6569 5.42447C33.6569 7.94858 31.5769 10.0349 29.0589 10.0349C26.541 10.0349 24.4815 7.98962 24.4952 5.47235C24.502 2.94824 26.5547 0.896116 29.0589 0.909797Z" fill="#160600"/>
<path id="Vector_26" d="M29.0657 0.916633C31.5837 0.930314 33.6705 2.90719 33.6705 5.42446C33.6705 7.94173 31.5905 10.0417 29.0657 10.0417C26.5409 10.0417 24.4951 7.99646 24.502 5.47919C24.5088 2.95508 26.5615 0.902952 29.0657 0.916633Z" fill="#180600"/>
<path id="Vector_27" d="M29.0657 0.930305C31.5837 0.943986 33.6705 2.91402 33.6705 5.43814C33.6705 7.96225 31.5837 10.0554 29.0657 10.0554C26.5478 10.0554 24.4951 8.01013 24.502 5.49286C24.5157 2.96875 26.5615 0.916624 29.0657 0.930305Z" fill="#190700"/>
<path id="Vector_28" d="M29.0726 0.937141C31.5905 0.950822 33.6774 2.92086 33.6774 5.43813C33.6774 7.9554 31.5905 10.0622 29.0726 10.0622C26.5546 10.0622 24.502 8.01697 24.5088 5.49969C24.5225 2.97558 26.5683 0.92346 29.0726 0.937141Z" fill="#1B0700"/>
<path id="Vector_29" d="M29.0794 0.943981C31.5973 0.957662 33.6842 2.92086 33.6842 5.43813C33.6842 7.9554 31.5973 10.0622 29.0794 10.0622C26.5615 10.0622 24.5088 8.02381 24.5156 5.49969C24.5293 2.97558 26.5751 0.92346 29.0794 0.937141V0.943981Z" fill="#1D0800"/>
<path id="Vector_30" d="M29.0794 0.950813C31.5973 0.964494 33.691 2.92085 33.691 5.44496C33.691 7.96907 31.5973 10.0759 29.0794 10.0759C26.5615 10.0759 24.5088 8.03748 24.5156 5.51337C24.5293 2.98241 26.5751 0.937132 29.0794 0.950813Z" fill="#1F0800"/>
<path id="Vector_31" d="M29.0863 0.957703C31.6042 0.971383 33.6979 2.92774 33.6979 5.44501C33.6979 7.96228 31.6042 10.076 29.0863 10.076C26.5683 10.076 24.5157 8.03753 24.5294 5.52026C24.543 2.9893 26.5889 0.944022 29.0863 0.964543V0.957703Z" fill="#200900"/>
<path id="Vector_32" d="M29.0931 0.964539C31.611 0.978219 33.7048 2.92774 33.7048 5.44501C33.7048 7.96228 31.611 10.0828 29.0931 10.0828C26.5752 10.0828 24.5225 8.04436 24.5362 5.52709C24.5499 2.99614 26.5957 0.950858 29.0931 0.971379V0.964539Z" fill="#220900"/>
<path id="Vector_33" d="M29.0999 0.971344C31.6179 0.985025 33.7116 2.93454 33.7116 5.44497C33.7116 7.9554 31.611 10.0828 29.0999 10.0828C26.5889 10.0828 24.5294 8.04433 24.543 5.52706C24.5567 2.99611 26.6025 0.950823 29.0999 0.971344Z" fill="#240A00"/>
<path id="Vector_34" d="M29.0999 0.97818C31.6179 0.998702 33.7184 2.93454 33.7184 5.45181C33.7184 7.96908 31.6179 10.0896 29.0999 10.0896C26.582 10.0896 24.5294 8.05116 24.543 5.53389C24.5567 3.00294 26.6025 0.957659 29.0999 0.97818Z" fill="#250A00"/>
<path id="Vector_35" d="M29.1068 0.985016C31.6247 1.00554 33.7253 2.93453 33.7253 5.4518C33.7253 7.96908 31.6247 10.0964 29.1068 10.0964C26.5889 10.0964 24.5362 8.058 24.5499 5.54073C24.5636 3.00978 26.6162 0.964495 29.1068 0.985016Z" fill="#270B00"/>
<path id="Vector_36" d="M29.1136 0.99873C31.6316 1.01925 33.7321 2.94825 33.7321 5.45868C33.7321 7.96911 31.6247 10.1033 29.1136 10.1033C26.6025 10.1033 24.543 8.06487 24.5567 5.5476C24.5704 3.01665 26.6231 0.978209 29.1136 0.99189V0.99873Z" fill="#290B00"/>
<path id="Vector_37" d="M29.1136 1.00556C31.6316 1.02608 33.739 2.94824 33.739 5.46551C33.739 7.98278 31.6316 10.117 29.1136 10.117C26.5957 10.117 24.543 8.07855 24.5567 5.56128C24.5772 3.03032 26.6231 0.991881 29.1136 1.00556Z" fill="#2A0C00"/>
<path id="Vector_38" d="M29.1205 1.0124C31.6384 1.03292 33.7458 2.94824 33.7458 5.46551C33.7458 7.98278 31.6384 10.117 29.1205 10.117C26.6025 10.117 24.5499 8.07855 24.5635 5.56128C24.5841 3.03032 26.6299 0.991881 29.1205 1.00556V1.0124Z" fill="#2C0C00"/>
<path id="Vector_39" d="M29.1273 1.01923C31.6384 1.03975 33.7526 2.95507 33.7526 5.4655C33.7526 7.97593 31.6384 10.1238 29.1273 10.1238C26.6162 10.1238 24.5567 8.08538 24.5704 5.57495C24.5909 3.04399 26.6367 1.00555 29.1273 1.01923Z" fill="#2E0D00"/>
<path id="Vector_40" d="M29.1342 1.02606C31.6453 1.04658 33.7595 2.95506 33.7595 5.47233C33.7595 7.9896 31.6453 10.1306 29.1342 10.1306C26.6231 10.1306 24.5636 8.09221 24.5841 5.58178C24.6047 3.05082 26.6505 1.01238 29.1342 1.0329V1.02606Z" fill="#300D00"/>
<path id="Vector_41" d="M29.1342 1.0329C31.6453 1.05342 33.7664 2.96189 33.7664 5.47232C33.7664 7.98275 31.6521 10.1375 29.1342 10.1375C26.6163 10.1375 24.5636 8.09904 24.5841 5.58861C24.6047 3.05766 26.6505 1.01922 29.1342 1.03974V1.0329Z" fill="#310D00"/>
<path id="Vector_42" d="M29.141 1.03977C31.6521 1.06029 33.7732 2.96192 33.7732 5.47235C33.7732 7.98278 31.6521 10.1375 29.141 10.1375C26.63 10.1375 24.5704 8.09907 24.591 5.58864C24.6115 3.05769 26.6573 1.01924 29.141 1.03977Z" fill="#330E00"/>
<path id="Vector_43" d="M29.1479 1.0466C31.659 1.07396 33.78 2.96192 33.78 5.47919C33.78 7.99646 31.659 10.1443 29.1479 10.1443C26.6368 10.1443 24.5773 8.1059 24.5978 5.59547C24.6183 3.06452 26.6642 1.02608 29.1479 1.0466Z" fill="#350E00"/>
<path id="Vector_44" d="M29.1479 1.05344C31.659 1.0808 33.7869 2.96875 33.7869 5.47918C33.7869 7.98961 31.6658 10.1512 29.1479 10.1512C26.6299 10.1512 24.5773 8.11274 24.5978 5.60231C24.6183 3.07136 26.6642 1.03292 29.1479 1.05344Z" fill="#360F00"/>
<path id="Vector_45" d="M29.1547 1.06028C31.6658 1.08764 33.7937 2.96875 33.7937 5.47918C33.7937 7.98961 31.6658 10.1512 29.1547 10.1512C26.6436 10.1512 24.5841 8.11274 24.6046 5.60231C24.6252 3.07136 26.671 1.03292 29.1547 1.05344V1.06028Z" fill="#380F00"/>
<path id="Vector_46" d="M29.1615 1.07395C31.6726 1.10131 33.8006 2.98242 33.8006 5.49285C33.8006 8.00328 31.6726 10.1717 29.1615 10.1717C26.6505 10.1717 24.591 8.13325 24.6115 5.62282C24.632 3.09187 26.6847 1.05342 29.1615 1.07395Z" fill="#3A1000"/>
<path id="Vector_47" d="M29.1684 1.08079C31.6795 1.10815 33.8074 2.98242 33.8074 5.49285C33.8074 8.00328 31.6795 10.1717 29.1684 10.1717C26.6573 10.1717 24.5978 8.13325 24.6183 5.62282C24.6457 3.09187 26.6915 1.05342 29.1684 1.07395V1.08079Z" fill="#3B1000"/>
<path id="Vector_48" d="M29.1685 1.08765C31.6796 1.11501 33.8144 2.98244 33.8144 5.49287C33.8144 8.0033 31.6796 10.1786 29.1685 10.1786C26.6574 10.1786 24.5979 8.14011 24.6253 5.63652C24.6526 3.10557 26.6985 1.06713 29.1685 1.09449V1.08765Z" fill="#3D1100"/>
<path id="Vector_49" d="M29.1753 1.09448C31.6864 1.12184 33.8212 2.98928 33.8212 5.49971C33.8212 8.01014 31.6864 10.1854 29.1753 10.1854C26.6642 10.1854 24.6047 8.15379 24.6321 5.64336C24.6595 3.1124 26.7053 1.07396 29.1753 1.10132V1.09448Z" fill="#3F1100"/>
<path id="Vector_50" d="M29.1822 1.10135C31.6933 1.12871 33.828 2.9893 33.828 5.49973C33.828 8.01016 31.6933 10.1854 29.1822 10.1854C26.6711 10.1854 24.6116 8.15381 24.6389 5.64338C24.6663 3.11243 26.7121 1.07398 29.1822 1.10135Z" fill="#411200"/>
<path id="Vector_51" d="M29.1822 1.10818C31.6933 1.13554 33.828 2.98929 33.828 5.49972C33.828 8.01016 31.6864 10.1922 29.1822 10.1922C26.6779 10.1922 24.6116 8.16064 24.6389 5.65021C24.6663 3.11926 26.7121 1.08082 29.1822 1.10818Z" fill="#421200"/>
<path id="Vector_52" d="M29.189 1.11502C31.7001 1.14922 33.8417 2.99613 33.8417 5.50656C33.8417 8.01699 31.7001 10.1991 29.189 10.1991C26.6779 10.1991 24.6184 8.16748 24.6458 5.65705C24.6731 3.1261 26.719 1.08766 29.189 1.11502Z" fill="#441300"/>
<path id="Vector_53" d="M29.1958 1.12185C31.7069 1.15606 33.8485 2.99613 33.8485 5.50656C33.8485 8.01699 31.7069 10.2059 29.1958 10.2059C26.6847 10.2059 24.6252 8.17432 24.6526 5.66389C24.68 3.13293 26.7258 1.09449 29.1958 1.12185Z" fill="#461300"/>
<path id="Vector_54" d="M29.2027 1.12869C31.7069 1.1629 33.8554 3.00297 33.8554 5.50656C33.8554 8.01015 31.7069 10.2059 29.2027 10.2059C26.6984 10.2059 24.6321 8.17432 24.6594 5.66389C24.6868 3.13293 26.7326 1.09449 29.2027 1.12185V1.12869Z" fill="#471300"/>
<path id="Vector_55" d="M29.2027 1.13553C31.7069 1.16973 33.8622 3.00296 33.8622 5.51339C33.8622 8.02382 31.7138 10.2196 29.2027 10.2196C26.6916 10.2196 24.6321 8.18799 24.6594 5.67756C24.6868 3.14661 26.7326 1.10816 29.2027 1.13553Z" fill="#491400"/>
<path id="Vector_56" d="M29.2095 1.14923C31.7138 1.18343 33.8691 3.00982 33.8691 5.52025C33.8691 8.03068 31.7206 10.2265 29.2095 10.2265C26.6984 10.2265 24.6389 8.19485 24.6663 5.69126C24.7005 3.16031 26.7395 1.12187 29.2095 1.15607V1.14923Z" fill="#4B1400"/>
<path id="Vector_57" d="M29.2165 1.15607C31.7207 1.19027 33.876 3.01666 33.876 5.52025C33.876 8.02384 31.7207 10.2333 29.2165 10.2333C26.7122 10.2333 24.6459 8.20169 24.6801 5.6981C24.7143 3.16715 26.7601 1.12871 29.2165 1.16291V1.15607Z" fill="#4C1500"/>
<path id="Vector_58" d="M29.2165 1.1629C31.7207 1.1971 33.876 3.01665 33.876 5.52024C33.876 8.02383 31.7207 10.2333 29.2165 10.2333C26.7122 10.2333 24.6459 8.20168 24.6801 5.69809C24.7143 3.16714 26.7601 1.1287 29.2165 1.1629Z" fill="#4E1500"/>
<path id="Vector_59" d="M29.2233 1.16974C31.7276 1.20394 33.8897 3.02349 33.8897 5.52708C33.8897 8.03067 31.7344 10.2401 29.2233 10.2401C26.7122 10.2401 24.6527 8.20852 24.6869 5.70493C24.7212 3.17398 26.767 1.13553 29.2233 1.16974Z" fill="#501600"/>
<path id="Vector_60" d="M29.2302 1.17657C31.7344 1.21077 33.8965 3.02348 33.8965 5.52707C33.8965 8.03066 31.7344 10.247 29.2302 10.247C26.7259 10.247 24.6596 8.21535 24.6938 5.71176C24.728 3.18081 26.7738 1.14237 29.2302 1.17657Z" fill="#521600"/>
<path id="Vector_61" d="M29.237 1.18341C31.7412 1.22445 33.9034 3.02348 33.9034 5.52707C33.9034 8.03066 31.7412 10.247 29.237 10.247C26.7328 10.247 24.6664 8.21535 24.7006 5.71176C24.7348 3.18081 26.7806 1.14237 29.237 1.17657V1.18341Z" fill="#531700"/>
<path id="Vector_62" d="M29.237 1.19024C31.7412 1.23129 33.9034 3.03031 33.9034 5.5339C33.9034 8.03749 31.7412 10.2606 29.237 10.2606C26.7328 10.2606 24.6664 8.22903 24.7006 5.72544C24.7348 3.19448 26.7806 1.15604 29.237 1.19024Z" fill="#551700"/>
<path id="Vector_63" d="M29.2438 1.19708C31.7481 1.23813 33.9171 3.03031 33.9171 5.5339C33.9171 8.03749 31.7481 10.2606 29.2438 10.2606C26.7396 10.2606 24.6732 8.22903 24.7075 5.72544C24.7417 3.19448 26.7875 1.15604 29.2438 1.19024V1.19708Z" fill="#571800"/>
<path id="Vector_64" d="M29.2507 1.20392C31.7549 1.24496 33.9239 3.03031 33.9239 5.5339C33.9239 8.03749 31.7549 10.2675 29.2507 10.2675C26.7464 10.2675 24.6801 8.23586 24.7143 5.73227C24.7485 3.20132 26.7943 1.16288 29.2507 1.19708V1.20392Z" fill="#581800"/>
<path id="Vector_65" d="M29.2504 1.21759C31.7546 1.25863 33.9236 3.04398 33.9236 5.54757C33.9236 8.05116 31.7546 10.2811 29.2504 10.2811C26.7461 10.2811 24.6798 8.24953 24.7208 5.75278C24.755 3.22183 26.8008 1.18339 29.2504 1.22443V1.21759Z" fill="#5A1900"/>
<path id="Vector_66" d="M29.2572 1.22443C31.7614 1.26547 33.9373 3.04398 33.9373 5.54757C33.9373 8.05116 31.7614 10.288 29.2572 10.288C26.7529 10.288 24.6866 8.25637 24.7277 5.75962C24.7687 3.22867 26.8077 1.19022 29.2572 1.23127V1.22443Z" fill="#5C1900"/>
<path id="Vector_67" d="M29.264 1.23126C31.7683 1.2723 33.9441 3.05081 33.9441 5.54756C33.9441 8.04431 31.7683 10.288 29.264 10.288C26.7598 10.288 24.6934 8.25636 24.7345 5.75961C24.7755 3.22866 26.8214 1.19022 29.264 1.23126Z" fill="#5E1A00"/>
<path id="Vector_68" d="M29.2709 1.23816C31.7751 1.2792 33.9509 3.05087 33.9509 5.55446C33.9509 8.05805 31.7751 10.2949 29.2709 10.2949C26.7666 10.2949 24.7003 8.2701 24.7413 5.76651C24.7824 3.23556 26.8282 1.19712 29.2709 1.23816Z" fill="#5F1A00"/>
<path id="Vector_69" d="M29.2709 1.24499C31.7683 1.28604 33.9509 3.05086 33.9509 5.55445C33.9509 8.05804 31.7683 10.3017 29.2709 10.3017C26.7735 10.3017 24.7003 8.27694 24.7413 5.77335C24.7824 3.24239 26.8282 1.20395 29.2709 1.24499Z" fill="#611A00"/>
<path id="Vector_70" d="M29.2777 1.25183C31.7751 1.29972 33.9646 3.0577 33.9646 5.55445C33.9646 8.0512 31.782 10.3017 29.2777 10.3017C26.7735 10.3017 24.7071 8.27694 24.7482 5.77335C24.7892 3.24239 26.835 1.20395 29.2777 1.24499V1.25183Z" fill="#631B00"/>
<path id="Vector_71" d="M29.2845 1.25867C31.7819 1.30655 33.9714 3.05769 33.9714 5.56128C33.9714 8.06487 31.7819 10.3154 29.2845 10.3154C26.7871 10.3154 24.7139 8.29061 24.755 5.78702C24.796 3.25607 26.8419 1.21762 29.2845 1.25867Z" fill="#641B00"/>
<path id="Vector_72" d="M29.2845 1.26551C31.7819 1.31339 33.9714 3.06453 33.9714 5.56128C33.9714 8.05803 31.7819 10.3154 29.2845 10.3154C26.7871 10.3154 24.7139 8.29061 24.755 5.78702C24.796 3.25607 26.8419 1.21762 29.2845 1.25867V1.26551Z" fill="#661C00"/>
<path id="Vector_73" d="M29.2916 1.27234C31.789 1.32022 33.9785 3.06453 33.9785 5.56128C33.9785 8.05803 31.789 10.3222 29.2916 10.3222C26.7942 10.3222 24.721 8.29744 24.7689 5.80069C24.8099 3.26974 26.8558 1.2313 29.2916 1.27918V1.27234Z" fill="#681C00"/>
<path id="Vector_74" d="M29.2984 1.27917C31.7958 1.32706 33.9922 3.06452 33.9922 5.56811C33.9922 8.0717 31.7958 10.329 29.2984 10.329C26.801 10.329 24.7278 8.30428 24.7757 5.80753C24.8168 3.27657 26.8626 1.23813 29.2984 1.28602V1.27917Z" fill="#691D00"/>
<path id="Vector_75" d="M29.3053 1.29285C31.8027 1.34073 33.999 3.07819 33.999 5.57494C33.999 8.07169 31.8027 10.3427 29.3053 10.3427C26.8078 10.3427 24.7347 8.31795 24.7826 5.8212C24.8236 3.29025 26.8694 1.2518 29.3053 1.29969V1.29285Z" fill="#6B1D00"/>
<path id="Vector_76" d="M29.3053 1.29972C31.8027 1.3476 33.999 3.07822 33.999 5.57497C33.999 8.07172 31.8027 10.3427 29.3053 10.3427C26.8078 10.3427 24.7347 8.31798 24.7826 5.82123C24.8304 3.29028 26.8694 1.25183 29.3053 1.29972Z" fill="#6D1E00"/>
<path id="Vector_77" d="M29.3121 1.30655C31.8095 1.35443 34.0127 3.07822 34.0127 5.58181C34.0127 8.0854 31.8095 10.3496 29.3121 10.3496C26.8147 10.3496 24.7415 8.32481 24.7894 5.82806C24.8373 3.29711 26.8763 1.25867 29.3121 1.30655Z" fill="#6F1E00"/>
<path id="Vector_78" d="M29.3189 1.31339C31.8163 1.36811 34.0195 3.08505 34.0195 5.5818C34.0195 8.07855 31.8163 10.3564 29.3189 10.3564C26.8215 10.3564 24.7483 8.33165 24.7962 5.8349C24.8441 3.30395 26.8899 1.2655 29.3189 1.31339Z" fill="#701F00"/>
<path id="Vector_79" d="M29.3187 1.32023C31.8161 1.37495 34.0193 3.08505 34.0193 5.5818C34.0193 8.07855 31.8161 10.3564 29.3187 10.3564C26.8213 10.3564 24.755 8.33165 24.796 5.8349C24.8439 3.30395 26.8897 1.2655 29.3187 1.31339V1.32023Z" fill="#721F00"/>
<path id="Vector_80" d="M29.3255 1.32706C31.8229 1.38178 34.0261 3.09189 34.0261 5.58863C34.0261 8.08538 31.8161 10.3701 29.3255 10.3701C26.835 10.3701 24.7618 8.34532 24.8028 5.84857C24.8507 3.31762 26.8966 1.27918 29.3255 1.32706Z" fill="#742000"/>
<path id="Vector_81" d="M29.3329 1.3339C31.8303 1.38862 34.0403 3.09189 34.0403 5.58864C34.0403 8.08539 31.8303 10.3701 29.3329 10.3701C26.8355 10.3701 24.7691 8.34532 24.8102 5.84857C24.8581 3.31762 26.9039 1.27918 29.3329 1.3339Z" fill="#752000"/>
<path id="Vector_82" d="M29.3394 1.34076C31.8368 1.39548 34.0469 3.0919 34.0469 5.58865C34.0469 8.0854 31.8368 10.3769 29.3394 10.3769C26.842 10.3769 24.7757 8.35218 24.8236 5.86227C24.8715 3.33132 26.9173 1.29288 29.3394 1.3476V1.34076Z" fill="#772000"/>
<path id="Vector_83" d="M29.3394 1.34757C31.8368 1.4023 34.0469 3.09872 34.0469 5.58863C34.0469 8.07854 31.83 10.3769 29.3394 10.3769C26.8489 10.3769 24.7757 8.35215 24.8236 5.86224C24.8715 3.33129 26.9173 1.29285 29.3394 1.34757Z" fill="#792100"/>
<path id="Vector_84" d="M29.3463 1.35441C31.8368 1.40913 34.0605 3.09871 34.0605 5.59546C34.0605 8.09221 31.8437 10.3838 29.3463 10.3838C26.8489 10.3838 24.7825 8.35899 24.8304 5.86908C24.8783 3.33813 26.9241 1.29969 29.3463 1.35441Z" fill="#7A2100"/>
<path id="Vector_85" d="M29.3531 1.36808C31.8437 1.4228 34.0674 3.11239 34.0674 5.60229C34.0674 8.0922 31.8505 10.3974 29.3531 10.3974C26.8557 10.3974 24.7893 8.37266 24.8372 5.88275C24.892 3.3518 26.931 1.31336 29.3531 1.36808Z" fill="#7C2200"/>
<path id="Vector_86" d="M29.3531 1.37492C31.8437 1.42964 34.0674 3.11239 34.0674 5.60229C34.0674 8.0922 31.8437 10.3974 29.3531 10.3974C26.8625 10.3974 24.7893 8.37266 24.8372 5.88275C24.892 3.3518 26.931 1.31336 29.3531 1.36808V1.37492Z" fill="#7E2200"/>
<path id="Vector_87" d="M29.3599 1.38175C31.8505 1.44332 34.0742 3.11238 34.0742 5.60913C34.0742 8.10588 31.8505 10.4111 29.3599 10.4111C26.8694 10.4111 24.7962 8.39317 24.8441 5.89642C24.8988 3.36547 26.9378 1.32703 29.3599 1.38175Z" fill="#802300"/>
<path id="Vector_88" d="M29.3668 1.38859C31.8573 1.45016 34.0879 3.11922 34.0879 5.60913C34.0879 8.09904 31.8642 10.4111 29.3668 10.4111C26.8694 10.4111 24.803 8.39317 24.8509 5.89642C24.9057 3.36547 26.9446 1.32703 29.3668 1.38175V1.38859Z" fill="#812300"/>
<path id="Vector_89" d="M29.3736 1.39549C31.8642 1.45705 34.0947 3.11927 34.0947 5.60918C34.0947 8.09909 31.8642 10.418 29.3736 10.418C26.883 10.418 24.8099 8.40007 24.8577 5.90332C24.9125 3.37237 26.9583 1.33393 29.3736 1.38865V1.39549Z" fill="#832400"/>
<path id="Vector_90" d="M29.3738 1.40228C31.8644 1.46385 34.095 3.12607 34.095 5.61597C34.095 8.10588 31.8644 10.4248 29.3738 10.4248C26.8833 10.4248 24.8101 8.40686 24.8648 5.91695C24.9196 3.386 26.9654 1.34756 29.3738 1.40912V1.40228Z" fill="#852400"/>
<path id="Vector_91" d="M29.3807 1.40912C31.8712 1.47068 34.1018 3.12606 34.1018 5.61597C34.1018 8.10588 31.8712 10.4316 29.3807 10.4316C26.8901 10.4316 24.8169 8.4137 24.8717 5.92379C24.9264 3.39284 26.9722 1.3544 29.3807 1.41596V1.40912Z" fill="#862500"/>
<path id="Vector_92" d="M29.3875 1.41597C31.8781 1.47753 34.1155 3.12607 34.1155 5.61598C34.1155 8.10589 31.8781 10.4316 29.3875 10.4316C26.897 10.4316 24.8238 8.41371 24.8785 5.9238C24.9332 3.39285 26.9791 1.35441 29.3875 1.41597Z" fill="#882500"/>
<path id="Vector_93" d="M29.3875 1.42281C31.8781 1.48437 34.1155 3.13291 34.1155 5.62282C34.1155 8.11273 31.8781 10.4385 29.3875 10.4385C26.897 10.4385 24.8238 8.42055 24.8785 5.93064C24.9332 3.39969 26.9791 1.36124 29.3875 1.42281Z" fill="#8A2600"/>
<path id="Vector_94" d="M29.3944 1.43648C31.8849 1.49804 34.1223 3.13974 34.1223 5.62965C34.1223 8.11956 31.8849 10.4521 29.3944 10.4521C26.9038 10.4521 24.8306 8.43422 24.8853 5.94431C24.9401 3.41336 26.9859 1.37491 29.3944 1.43648Z" fill="#8B2600"/>
<path id="Vector_95" d="M29.4012 1.44332C31.8918 1.50488 34.136 3.13974 34.136 5.62965C34.136 8.11956 31.8918 10.4521 29.4012 10.4521C26.9106 10.4521 24.8374 8.43422 24.8922 5.94431C24.9538 3.41336 26.9927 1.37491 29.4012 1.43648V1.44332Z" fill="#8D2600"/>
<path id="Vector_96" d="M29.408 1.45021C31.8986 1.51862 34.1428 3.14663 34.1428 5.63654C34.1428 8.12645 31.8986 10.4659 29.408 10.4659C26.9175 10.4659 24.8443 8.44795 24.899 5.95804C24.9606 3.42709 26.9996 1.38865 29.408 1.45021Z" fill="#8F2700"/>
<path id="Vector_97" d="M29.408 1.45705C31.8986 1.52546 34.1428 3.14663 34.1428 5.63654C34.1428 8.12645 31.8986 10.4659 29.408 10.4659C26.9175 10.4659 24.8443 8.44795 24.899 5.95804C24.9606 3.42709 26.9996 1.38865 29.408 1.45021V1.45705Z" fill="#912700"/>
<path id="Vector_98" d="M29.4146 1.46387C31.8984 1.53227 34.1494 3.15345 34.1494 5.63652C34.1494 8.11959 31.8984 10.4727 29.4146 10.4727C26.9309 10.4727 24.8509 8.45477 24.9125 5.9717C24.974 3.44075 27.013 1.4023 29.4146 1.47071V1.46387Z" fill="#922800"/>
<path id="Vector_99" d="M29.4215 1.4707C31.9052 1.53911 34.1631 3.15344 34.1631 5.64335C34.1631 8.13326 31.912 10.4795 29.4215 10.4795C26.9309 10.4795 24.8577 8.4616 24.9193 5.97853C24.9809 3.44758 27.0267 1.40914 29.4215 1.47754V1.4707Z" fill="#942800"/>
<path id="Vector_100" d="M29.4215 1.47754C31.9052 1.54594 34.1631 3.15344 34.1631 5.64335C34.1631 8.13326 31.912 10.4864 29.4215 10.4864C26.9309 10.4864 24.8577 8.46844 24.9193 5.98537C24.9809 3.45442 27.0267 1.41598 29.4215 1.48438V1.47754Z" fill="#962900"/>
<path id="Vector_101" d="M29.4283 1.4844C31.912 1.5528 34.17 3.1603 34.17 5.64337C34.17 8.12644 31.912 10.4864 29.4283 10.4864C26.9446 10.4864 24.8646 8.46846 24.9261 5.98539C24.9877 3.45444 27.0335 1.416 29.4283 1.4844Z" fill="#972900"/>
<path id="Vector_102" d="M29.4351 1.49124C31.9189 1.55964 34.1768 3.1603 34.1768 5.65021C34.1768 8.14011 31.9189 10.4932 29.4351 10.4932C26.9514 10.4932 24.8714 8.47529 24.933 5.99223C24.9946 3.46127 27.0404 1.42283 29.4351 1.49124Z" fill="#992A00"/>
<path id="Vector_103" d="M29.442 1.49807C31.9257 1.56648 34.1905 3.16713 34.1905 5.6502C34.1905 8.13327 31.9325 10.5001 29.442 10.5001C26.9514 10.5001 24.8782 8.48213 24.9398 5.99906C25.0014 3.46811 27.0472 1.42967 29.442 1.49807Z" fill="#9B2A00"/>
<path id="Vector_104" d="M29.442 1.51175C31.9257 1.58015 34.1905 3.17397 34.1905 5.65704C34.1905 8.14011 31.9257 10.5069 29.442 10.5069C26.9583 10.5069 24.8782 8.48897 24.9398 6.0059C25.0014 3.47495 27.0472 1.4365 29.442 1.50491V1.51175Z" fill="#9C2B00"/>
<path id="Vector_105" d="M29.4488 1.51858C31.9325 1.59382 34.1973 3.17396 34.1973 5.66387C34.1973 8.15378 31.9325 10.5206 29.4488 10.5206C26.9651 10.5206 24.8851 8.50264 24.9466 6.01957C25.0151 3.48862 27.054 1.45018 29.4488 1.51858Z" fill="#9E2B00"/>
<path id="Vector_106" d="M29.4557 1.52542C31.9394 1.60066 34.211 3.1808 34.211 5.66387C34.211 8.14694 31.9462 10.5206 29.4557 10.5206C26.9651 10.5206 24.8919 8.50264 24.9535 6.01957C25.0219 3.48862 27.0609 1.45018 29.4557 1.51858V1.52542Z" fill="#A02C00"/>
<path id="Vector_107" d="M29.456 1.53229C31.9397 1.60753 34.2113 3.18083 34.2113 5.6639C34.2113 8.14696 31.9397 10.5274 29.456 10.5274C26.9722 10.5274 24.8922 8.51635 24.9606 6.03328C25.029 3.50233 27.068 1.46388 29.456 1.53913V1.53229Z" fill="#A22C00"/>
<path id="Vector_108" d="M29.4628 1.53913C31.9465 1.61437 34.2181 3.18083 34.2181 5.66389C34.2181 8.14696 31.9465 10.5274 29.4628 10.5274C26.9791 10.5274 24.899 8.51635 24.9675 6.03328C25.0359 3.50232 27.0749 1.46388 29.4628 1.53913Z" fill="#A32D00"/>
<path id="Vector_109" d="M29.4696 1.54596C31.9533 1.6212 34.225 3.18766 34.225 5.67073C34.225 8.1538 31.9533 10.5411 29.4696 10.5411C26.9859 10.5411 24.9059 8.53002 24.9743 6.04695C25.0427 3.516 27.0817 1.47756 29.4696 1.5528V1.54596Z" fill="#A52D00"/>
<path id="Vector_110" d="M29.4765 1.5528C31.9602 1.62804 34.2386 3.18766 34.2386 5.67073C34.2386 8.1538 31.9602 10.5411 29.4765 10.5411C26.9927 10.5411 24.9127 8.53002 24.9811 6.04695C25.0496 3.516 27.0954 1.47755 29.4765 1.5528Z" fill="#A72D00"/>
<path id="Vector_111" d="M29.4765 1.55964C31.9602 1.63488 34.2386 3.1945 34.2386 5.67073C34.2386 8.14695 31.9602 10.5411 29.4765 10.5411C26.9927 10.5411 24.9127 8.53002 24.9811 6.04695C25.0496 3.516 27.0954 1.47755 29.4765 1.5528V1.55964Z" fill="#A82E00"/>
<path id="Vector_112" d="M29.4833 1.56647C31.967 1.64172 34.2455 3.19449 34.2455 5.67756C34.2455 8.16063 31.967 10.5548 29.4833 10.5548C26.9996 10.5548 24.9195 8.54369 24.988 6.06062C25.0564 3.52967 27.1022 1.49123 29.4833 1.56647Z" fill="#AA2E00"/>
<path id="Vector_113" d="M29.4901 1.57331C31.967 1.64856 34.2523 3.19449 34.2523 5.67756C34.2523 8.16063 31.967 10.5548 29.4901 10.5548C27.0133 10.5548 24.9264 8.54369 24.9948 6.06062C25.0632 3.52967 27.109 1.49123 29.4901 1.56647V1.57331Z" fill="#AC2F00"/>
<path id="Vector_114" d="M29.4901 1.58698C31.967 1.66907 34.2592 3.20816 34.2592 5.68439C34.2592 8.16062 31.9739 10.5684 29.4901 10.5684C27.0064 10.5684 24.9264 8.55736 24.9948 6.07429C25.0632 3.54334 27.109 1.5049 29.4901 1.58014V1.58698Z" fill="#AD2F00"/>
<path id="Vector_115" d="M29.4968 1.59381C31.9737 1.6759 34.2658 3.20815 34.2658 5.69122C34.2658 8.17429 31.9805 10.5753 29.4968 10.5753C27.0131 10.5753 24.9331 8.56419 25.0083 6.08796C25.0836 3.55701 27.1226 1.51857 29.4968 1.60065V1.59381Z" fill="#AF3000"/>
<path id="Vector_116" d="M29.5036 1.60065C31.9805 1.68273 34.2727 3.21498 34.2727 5.69121C34.2727 8.16744 31.9805 10.5821 29.5036 10.5821C27.0268 10.5821 24.9399 8.57102 25.0152 6.0948C25.0904 3.56384 27.1294 1.5254 29.5036 1.60749V1.60065Z" fill="#B13000"/>
<path id="Vector_117" d="M29.5105 1.6075C31.9874 1.68958 34.2863 3.21499 34.2863 5.69122C34.2863 8.16745 31.9942 10.5821 29.5105 10.5821C27.0268 10.5821 24.9467 8.57103 25.022 6.09481C25.0973 3.56385 27.1362 1.52541 29.5105 1.6075Z" fill="#B33100"/>
<path id="Vector_118" d="M29.5105 1.61433C31.9874 1.69642 34.2863 3.21499 34.2863 5.69806C34.2863 8.18113 31.9942 10.589 29.5105 10.589C27.0268 10.589 24.9467 8.57787 25.022 6.10164C25.0973 3.57069 27.1362 1.53225 29.5105 1.61433Z" fill="#B43100"/>
<path id="Vector_119" d="M29.5173 1.62117C31.9942 1.70325 34.2932 3.22183 34.2932 5.69805C34.2932 8.17428 31.9942 10.5958 29.5173 10.5958C27.0404 10.5958 24.9536 8.58471 25.0288 6.10848C25.1041 3.57753 27.1431 1.53908 29.5173 1.62117Z" fill="#B63200"/>
<path id="Vector_120" d="M29.5242 1.62801C32.001 1.71009 34.3 3.22183 34.3 5.69805C34.3 8.17428 32.001 10.5958 29.5242 10.5958C27.0473 10.5958 24.9604 8.58471 25.0357 6.10848C25.1109 3.57753 27.1499 1.53908 29.5242 1.62117V1.62801Z" fill="#B83200"/>
<path id="Vector_121" d="M29.5242 1.63485C32.001 1.71693 34.3069 3.22182 34.3069 5.70489C34.3069 8.18796 32.001 10.6095 29.5242 10.6095C27.0473 10.6095 24.9604 8.59839 25.0357 6.12216C25.1109 3.58437 27.1568 1.55276 29.5242 1.63485Z" fill="#B93300"/>
<path id="Vector_122" d="M34.3137 5.70489C34.3137 8.18112 32.0079 10.6095 29.531 10.6095C27.0541 10.6095 24.9672 8.59839 25.0425 6.12216C25.1178 3.58437 27.1636 1.55276 29.531 1.63485C32.0079 1.72377 34.3137 3.22182 34.3137 5.69805V5.70489Z" fill="#BB3300"/>
<path id="Vector_123" opacity="0.99" d="M29.5378 1.64857C32.0147 1.73066 34.3205 3.23554 34.3205 5.71861C34.3205 8.20168 32.0216 10.6232 29.5378 10.6232C27.0541 10.6232 24.9741 8.61211 25.0493 6.13588C25.1246 3.60493 27.1704 1.57333 29.5378 1.64857Z" fill="#BC3502"/>
<path id="Vector_124" opacity="0.98" d="M29.538 1.65541C32.0149 1.7375 34.3138 3.24923 34.3138 5.72545C34.3138 8.20168 32.0149 10.6232 29.538 10.6232C27.0611 10.6232 24.9811 8.61211 25.0495 6.13588C25.1248 3.60493 27.1637 1.57333 29.538 1.64857V1.65541Z" fill="#BC3705"/>
<path id="Vector_125" opacity="0.97" d="M29.5448 1.66224C32.0217 1.74433 34.3207 3.2629 34.3207 5.73913C34.3207 8.21535 32.0217 10.6369 29.5448 10.6369C27.0679 10.6369 24.9879 8.62578 25.0563 6.14955C25.1316 3.6186 27.1706 1.587 29.5448 1.66224Z" fill="#BD3907"/>
<path id="Vector_126" opacity="0.96" d="M29.5448 1.66908C32.0217 1.75117 34.3138 3.26974 34.3138 5.74597C34.3138 8.22219 32.0217 10.6369 29.5448 10.6369C27.0679 10.6369 24.9879 8.62578 25.0563 6.14955C25.1316 3.6186 27.1706 1.587 29.5448 1.66224V1.66908Z" fill="#BD3A09"/>
<path id="Vector_127" opacity="0.95" d="M29.5517 1.67592C32.0285 1.758 34.3207 3.28341 34.3207 5.75964C34.3207 8.23587 32.0285 10.6437 29.5517 10.6437C27.0748 10.6437 24.9947 8.63261 25.0632 6.15639C25.1384 3.62543 27.1774 1.59383 29.5517 1.66908V1.67592Z" fill="#BE3C0C"/>
<path id="Vector_128" opacity="0.95" d="M29.5517 1.67592C32.0285 1.758 34.3207 3.28341 34.3207 5.75964C34.3207 8.23587 32.0354 10.6437 29.5517 10.6437C27.0679 10.6437 24.9947 8.63261 25.0632 6.15639C25.1384 3.62543 27.1774 1.59383 29.5517 1.66908V1.67592Z" fill="#BF3E0E"/>
<path id="Vector_129" opacity="0.94" d="M29.5585 1.68275C32.0354 1.76484 34.3207 3.29709 34.3207 5.77332C34.3207 8.24955 32.0354 10.6505 29.5585 10.6505C27.0816 10.6505 25.0016 8.63945 25.07 6.16322C25.1453 3.63227 27.1842 1.60067 29.5585 1.67591V1.68275Z" fill="#BF4010"/>
<path id="Vector_130" opacity="0.93" d="M29.5653 1.68959C32.0422 1.77168 34.3275 3.30393 34.3275 5.78015C34.3275 8.25638 32.0422 10.6574 29.5653 10.6574C27.0884 10.6574 25.0084 8.64629 25.0768 6.17006C25.1453 3.63911 27.1842 1.60751 29.5653 1.68275V1.68959Z" fill="#C04213"/>
<path id="Vector_131" opacity="0.92" d="M29.5653 1.69643C32.0422 1.77167 34.3207 3.3176 34.3207 5.79383C34.3207 8.27006 32.0422 10.6642 29.5653 10.6642C27.0884 10.6642 25.0084 8.65312 25.0768 6.17689C25.1453 3.64594 27.1842 1.61434 29.5653 1.68959V1.69643Z" fill="#C14415"/>
<path id="Vector_132" opacity="0.91" d="M29.5722 1.70328C32.049 1.77853 34.3275 3.32446 34.3275 5.80753C34.3275 8.2906 32.049 10.6779 29.5722 10.6779C27.0953 10.6779 25.0153 8.66682 25.0837 6.19059C25.1521 3.65964 27.1911 1.63488 29.5722 1.70328Z" fill="#C14617"/>
<path id="Vector_133" opacity="0.9" d="M29.5722 1.71012C32.049 1.78537 34.3275 3.33814 34.3275 5.81437C34.3275 8.2906 32.049 10.6779 29.5722 10.6779C27.0953 10.6779 25.0153 8.66682 25.0837 6.19059C25.1521 3.65964 27.1911 1.63488 29.5722 1.70328V1.71012Z" fill="#C24719"/>
<path id="Vector_134" opacity="0.89" d="M29.5792 1.71012C32.0561 1.78536 34.3277 3.34498 34.3277 5.82121C34.3277 8.29743 32.0561 10.6847 29.5792 10.6847C27.1023 10.6847 25.0291 8.67366 25.0907 6.19743C25.1591 3.66648 27.1981 1.64171 29.5792 1.71012Z" fill="#C2491C"/>
<path id="Vector_135" opacity="0.88" d="M29.5792 1.71696C32.0561 1.7922 34.3277 3.35182 34.3277 5.82805C34.3277 8.30427 32.0561 10.6847 29.5792 10.6847C27.1023 10.6847 25.0291 8.67366 25.0907 6.19743C25.1591 3.66648 27.1981 1.64171 29.5792 1.71012V1.71696Z" fill="#C34B1E"/>
<path id="Vector_136" opacity="0.87" d="M29.586 1.72379C32.0629 1.79903 34.3277 3.36549 34.3277 5.84172C34.3277 8.31795 32.0629 10.6916 29.586 10.6916C27.1091 10.6916 25.0359 8.68049 25.0975 6.20426C25.166 3.68015 27.2049 1.64855 29.586 1.71695V1.72379Z" fill="#C44D20"/>
<path id="Vector_137" opacity="0.86" d="M29.5929 1.73063C32.0697 1.80587 34.3345 3.37232 34.3345 5.84855C34.3345 8.32478 32.0697 10.6984 29.5929 10.6984C27.116 10.6984 25.0428 8.68732 25.1044 6.21109C25.1728 3.68698 27.2049 1.65538 29.5929 1.72379V1.73063Z" fill="#C44F23"/>
<path id="Vector_138" opacity="0.85" d="M29.5929 1.73746C32.0697 1.81271 34.3345 3.386 34.3345 5.86223C34.3345 8.33846 32.0697 10.7052 29.5929 10.7052C27.116 10.7052 25.0428 8.69416 25.1044 6.21793C25.1728 3.69382 27.2049 1.66222 29.5929 1.73062V1.73746Z" fill="#C55125"/>
<path id="Vector_139" opacity="0.85" d="M29.5997 1.7443C32.0766 1.81954 34.3345 3.39284 34.3345 5.86906C34.3345 8.34529 32.0766 10.7121 29.5997 10.7121C27.1228 10.7121 25.0496 8.70099 25.1112 6.22477C25.1796 3.70065 27.2118 1.66905 29.5997 1.73746V1.7443Z" fill="#C65327"/>
<path id="Vector_140" opacity="0.84" d="M29.5997 1.75113C32.0766 1.81954 34.3345 3.40651 34.3345 5.88274C34.3345 8.35897 32.0766 10.7189 29.5997 10.7189C27.1228 10.7189 25.0496 8.70783 25.1112 6.2316C25.1728 3.70749 27.2118 1.67589 29.5997 1.74429V1.75113Z" fill="#C6542A"/>
<path id="Vector_141" opacity="0.83" d="M29.6065 1.75118C32.0834 1.81959 34.3345 3.40656 34.3345 5.88963C34.3345 8.3727 32.0834 10.7258 29.6065 10.7258C27.1296 10.7258 25.0565 8.71472 25.118 6.23849C25.1796 3.71438 27.2186 1.68962 29.6065 1.75118Z" fill="#C7562C"/>
<path id="Vector_142" opacity="0.82" d="M29.6065 1.75802C32.0834 1.82643 34.3345 3.42024 34.3345 5.89647C34.3345 8.3727 32.0834 10.7258 29.6065 10.7258C27.1296 10.7258 25.0565 8.71472 25.118 6.23849C25.1796 3.71438 27.2186 1.68962 29.6065 1.75118V1.75802Z" fill="#C7582E"/>
<path id="Vector_143" opacity="0.81" d="M29.6134 1.76486C32.0902 1.83326 34.3413 3.43392 34.3413 5.91015C34.3413 8.38638 32.0902 10.7326 29.6134 10.7326C27.1365 10.7326 25.0633 8.72156 25.1249 6.24533C25.1865 3.72122 27.2254 1.69646 29.6134 1.75802V1.76486Z" fill="#C85A31"/>
<path id="Vector_144" opacity="0.8" d="M29.6131 1.7717C32.09 1.8401 34.3342 3.44076 34.3342 5.91699C34.3342 8.39321 32.09 10.7395 29.6131 10.7395C27.1362 10.7395 25.0699 8.72839 25.1246 6.25217C25.1862 3.72805 27.2183 1.70329 29.6131 1.76486V1.7717Z" fill="#C95C33"/>
<path id="Vector_145" opacity="0.79" d="M29.6199 1.77853C32.0968 1.84694 34.341 3.45443 34.341 5.93066C34.341 8.40689 32.0968 10.7463 29.6199 10.7463C27.143 10.7463 25.0767 8.73523 25.1314 6.259C25.193 3.73489 27.2252 1.71013 29.6199 1.77169V1.77853Z" fill="#C95E35"/>
<path id="Vector_146" opacity="0.78" d="M29.6268 1.78537C32.1036 1.85377 34.341 3.46127 34.341 5.9375C34.341 8.41373 32.1036 10.7531 29.6268 10.7531C27.1499 10.7531 25.0835 8.74207 25.1383 6.26584C25.1999 3.74173 27.232 1.71696 29.6268 1.77853V1.78537Z" fill="#CA6038"/>
<path id="Vector_147" opacity="0.77" d="M29.6268 1.78537C32.1036 1.85377 34.341 3.46811 34.341 5.94434C34.341 8.42057 32.1036 10.7531 29.6268 10.7531C27.1499 10.7531 25.0835 8.74207 25.1383 6.26584C25.1999 3.74173 27.232 1.71696 29.6268 1.77853V1.78537Z" fill="#CA613A"/>
<path id="Vector_148" opacity="0.76" d="M29.6336 1.7922C32.1105 1.8606 34.3479 3.47494 34.3479 5.95801C34.3479 8.44108 32.1105 10.7668 29.6336 10.7668C27.1567 10.7668 25.0904 8.75574 25.1451 6.27951C25.2067 3.7554 27.2388 1.73064 29.6336 1.7922Z" fill="#CB633C"/>
<path id="Vector_149" opacity="0.75" d="M29.6336 1.79904C32.1105 1.8606 34.341 3.48862 34.341 5.96485C34.341 8.44108 32.1105 10.7668 29.6336 10.7668C27.1567 10.7668 25.0904 8.75573 25.1451 6.27951C25.2067 3.76223 27.2388 1.73063 29.6336 1.7922V1.79904Z" fill="#CC653F"/>
<path id="Vector_150" opacity="0.75" d="M29.6404 1.80587C32.1173 1.86743 34.3479 3.50229 34.3479 5.97852C34.3479 8.45475 32.1173 10.7805 29.6404 10.7805C27.1636 10.7805 25.0972 8.76941 25.1519 6.29318C25.2067 3.77591 27.2457 1.7443 29.6404 1.80587Z" fill="#CC6741"/>
<path id="Vector_151" opacity="0.74" d="M29.6404 1.81273C32.1173 1.8743 34.3479 3.50916 34.3479 5.98538C34.3479 8.46161 32.1242 10.7805 29.6404 10.7805C27.1567 10.7805 25.0972 8.76943 25.1519 6.2932C25.2067 3.77593 27.2388 1.75117 29.6404 1.80589V1.81273Z" fill="#CD6943"/>
<path id="Vector_152" opacity="0.73" d="M29.6473 1.81957C32.1241 1.88113 34.3479 3.52283 34.3479 5.99906C34.3479 8.47529 32.1241 10.7873 29.6473 10.7873C27.1704 10.7873 25.104 8.77627 25.1588 6.30004C25.2135 3.78277 27.2457 1.75801 29.6473 1.81273V1.81957Z" fill="#CE6B46"/>
<path id="Vector_153" opacity="0.72" d="M29.6473 1.81957C32.1241 1.88113 34.3479 3.52283 34.3479 5.99906C34.3479 8.47529 32.1241 10.7873 29.6473 10.7873C27.1704 10.7873 25.104 8.77627 25.1588 6.30004C25.2135 3.78277 27.2457 1.75801 29.6473 1.81273V1.81957Z" fill="#CE6C48"/>
<path id="Vector_154" opacity="0.71" d="M29.6543 1.82641C32.1312 1.88797 34.3481 3.53651 34.3481 6.01274C34.3481 8.48897 32.1312 10.7942 29.6543 10.7942C27.1775 10.7942 25.118 8.7831 25.1659 6.30687C25.2206 3.7896 27.2527 1.76484 29.6543 1.81957V1.82641Z" fill="#CF6E4A"/>
<path id="Vector_155" opacity="0.7" d="M29.6612 1.83324C32.1381 1.89481 34.3549 3.54334 34.3549 6.01957C34.3549 8.4958 32.1381 10.801 29.6612 10.801C27.1843 10.801 25.1248 8.78994 25.1727 6.31371C25.2274 3.79644 27.2596 1.77168 29.6612 1.8264V1.83324Z" fill="#CF704C"/>
<path id="Vector_156" opacity="0.69" d="M29.6612 1.84008C32.1381 1.90164 34.3549 3.55702 34.3549 6.03325C34.3549 8.50948 32.1449 10.8079 29.6612 10.8079C27.1775 10.8079 25.1248 8.79677 25.1727 6.32055C25.2274 3.80328 27.2596 1.77851 29.6612 1.83324V1.84008Z" fill="#D0724F"/>
<path id="Vector_157" opacity="0.68" d="M29.668 1.84691C32.1449 1.90847 34.3549 3.56385 34.3549 6.04692C34.3549 8.52999 32.1449 10.8215 29.668 10.8215C27.1911 10.8215 25.1316 8.81045 25.1795 6.33422C25.2343 3.81695 27.2664 1.79219 29.668 1.84691Z" fill="#D17451"/>
<path id="Vector_158" opacity="0.67" d="M29.668 1.85375C32.1449 1.90847 34.3549 3.57753 34.3549 6.05376C34.3549 8.52999 32.1449 10.8215 29.668 10.8215C27.1911 10.8215 25.1316 8.81045 25.1795 6.33422C25.2343 3.81695 27.2596 1.79219 29.668 1.84691V1.85375Z" fill="#D17653"/>
<path id="Vector_159" opacity="0.66" d="M29.6749 1.85374C32.1517 1.90847 34.3549 3.58437 34.3549 6.0606C34.3549 8.53683 32.1517 10.8284 29.6749 10.8284C27.198 10.8284 25.1385 8.81728 25.1864 6.34105C25.2411 3.82378 27.2664 1.79902 29.6749 1.85374Z" fill="#D27856"/>
<path id="Vector_160" opacity="0.65" d="M29.6749 1.86058C32.1517 1.9153 34.3549 3.5912 34.3549 6.06743C34.3549 8.54366 32.1517 10.8284 29.6749 10.8284C27.198 10.8284 25.1385 8.81728 25.1864 6.34105C25.2343 3.82378 27.2664 1.80586 29.6749 1.85374V1.86058Z" fill="#D27958"/>
<path id="Vector_161" opacity="0.65" d="M29.6817 1.86748C32.1586 1.9222 34.3618 3.60494 34.3618 6.08117C34.3618 8.5574 32.1654 10.8353 29.6817 10.8353C27.198 10.8353 25.1453 8.82417 25.1932 6.34795C25.2411 3.83068 27.2732 1.81275 29.6817 1.86064V1.86748Z" fill="#D37B5A"/>
<path id="Vector_162" opacity="0.64" d="M29.6817 1.87431C32.1586 1.92903 34.3549 3.61177 34.3549 6.088C34.3549 8.56423 32.1586 10.8421 29.6817 10.8421C27.2048 10.8421 25.1453 8.83101 25.1932 6.35478C25.2411 3.84435 27.2732 1.81959 29.6817 1.86747V1.87431Z" fill="#D47D5D"/>
<path id="Vector_163" opacity="0.63" d="M29.6885 1.88115C32.1654 1.93587 34.3618 3.62545 34.3618 6.10168C34.3618 8.57791 32.1654 10.8489 29.6885 10.8489C27.2116 10.8489 25.1521 8.83784 25.2 6.36162C25.2479 3.85118 27.2801 1.82642 29.6885 1.87431V1.88115Z" fill="#D47F5F"/>
<path id="Vector_164" opacity="0.62" d="M29.6951 1.88798C32.172 1.94271 34.3615 3.63229 34.3615 6.10852C34.3615 8.58474 32.172 10.8558 29.6951 10.8558C27.2183 10.8558 25.1656 8.84468 25.2067 6.36845C25.2546 3.85802 27.2798 1.83326 29.6951 1.88114V1.88798Z" fill="#D58161"/>
<path id="Vector_165" opacity="0.61" d="M29.6951 1.89482C32.172 1.94954 34.3615 3.64596 34.3615 6.12219C34.3615 8.59842 32.172 10.8626 29.6951 10.8626C27.2183 10.8626 25.1656 8.85152 25.2067 6.37529C25.2546 3.86486 27.2798 1.8401 29.6951 1.88798V1.89482Z" fill="#D68364"/>
<path id="Vector_166" opacity="0.6" d="M29.702 1.89481C32.1789 1.94954 34.3684 3.6528 34.3684 6.12903C34.3684 8.60526 32.1789 10.8694 29.702 10.8694C27.2251 10.8694 25.1724 8.85835 25.2135 6.38212C25.2614 3.87169 27.2867 1.84693 29.702 1.89481Z" fill="#D68566"/>
<path id="Vector_167" opacity="0.59" d="M29.702 1.90165C32.1789 1.94954 34.3615 3.65964 34.3615 6.13587C34.3615 8.6121 32.1789 10.8694 29.702 10.8694C27.2251 10.8694 25.1724 8.85835 25.2135 6.38212C25.2614 3.87169 27.2867 1.84693 29.702 1.89481V1.90165Z" fill="#D78668"/>
<path id="Vector_168" opacity="0.58" d="M29.7088 1.90849C32.1857 1.95637 34.3684 3.67332 34.3684 6.14954C34.3684 8.62577 32.1857 10.8763 29.7088 10.8763C27.2319 10.8763 25.1793 8.86519 25.2203 6.38896C25.2682 3.87853 27.2935 1.85377 29.7088 1.90165V1.90849Z" fill="#D7886B"/>
<path id="Vector_169" opacity="0.57" d="M29.7088 1.91535C32.1857 1.96324 34.3615 3.68018 34.3615 6.15641C34.3615 8.63264 32.1857 10.8831 29.7088 10.8831C27.2319 10.8831 25.1793 8.87205 25.2203 6.39582C25.2614 3.88539 27.2935 1.86747 29.7088 1.90851V1.91535Z" fill="#D88A6D"/>
<path id="Vector_170" opacity="0.56" d="M29.7157 1.92219C32.1925 1.97007 34.3684 3.69386 34.3684 6.17008C34.3684 8.64631 32.1925 10.89 29.7157 10.89C27.2388 10.89 25.1861 8.87889 25.2272 6.40266C25.2682 3.89223 27.3004 1.87431 29.7157 1.91535V1.92219Z" fill="#D98C6F"/>
<path id="Vector_171" opacity="0.55" d="M29.7225 1.92903C32.1994 1.97691 34.3752 3.70069 34.3752 6.17692C34.3752 8.65315 32.1994 10.8968 29.7225 10.8968C27.2456 10.8968 25.193 8.88572 25.234 6.40949C25.2751 3.89906 27.3003 1.88114 29.7225 1.92218V1.92903Z" fill="#D98E72"/>
<path id="Vector_172" opacity="0.55" d="M29.7225 1.92903C32.1994 1.97691 34.3683 3.70753 34.3683 6.18376C34.3683 8.65999 32.1994 10.8968 29.7225 10.8968C27.2456 10.8968 25.193 8.88572 25.234 6.40949C25.2751 3.89906 27.3003 1.88114 29.7225 1.92218V1.92903Z" fill="#DA9074"/>
<path id="Vector_173" opacity="0.54" d="M29.7293 1.93586C32.2062 1.98374 34.3752 3.71436 34.3752 6.19743C34.3752 8.6805 32.2062 10.9105 29.7293 10.9105C27.2524 10.9105 25.1998 8.89939 25.2408 6.42317C25.2819 3.91274 27.3072 1.89481 29.7293 1.93586Z" fill="#DB9276"/>
<path id="Vector_174" opacity="0.53" d="M29.7296 1.9427C32.2065 1.99058 34.3687 3.72804 34.3687 6.20427C34.3687 8.6805 32.2065 10.9105 29.7296 10.9105C27.2528 10.9105 25.2069 8.89939 25.2411 6.42317C25.2822 3.91274 27.3075 1.89481 29.7296 1.93586V1.9427Z" fill="#DB9379"/>
<path id="Vector_175" opacity="0.52" d="M29.7365 1.94953C32.2133 1.99057 34.3755 3.74171 34.3755 6.21794C34.3755 8.69417 32.2133 10.9241 29.7365 10.9241C27.2596 10.9241 25.2138 8.91306 25.248 6.43684C25.289 3.93325 27.3143 1.90848 29.7365 1.94953Z" fill="#DC957B"/>
<path id="Vector_176" opacity="0.51" d="M29.7365 1.95637C32.2133 1.99741 34.3755 3.74856 34.3755 6.22478C34.3755 8.70101 32.2133 10.9241 29.7365 10.9241C27.2596 10.9241 25.2138 8.91306 25.248 6.43684C25.289 3.93325 27.3143 1.90848 29.7365 1.94953V1.95637Z" fill="#DC977D"/>
<path id="Vector_177" opacity="0.5" d="M29.7433 1.9632C32.2202 2.00425 34.3755 3.76223 34.3755 6.23846C34.3755 8.71469 32.2202 10.931 29.7433 10.931C27.2664 10.931 25.2206 8.9199 25.2548 6.44367C25.2959 3.94008 27.3212 1.91532 29.7433 1.95636V1.9632Z" fill="#DD9980"/>
<path id="Vector_178" opacity="0.49" d="M29.7433 1.9632C32.2202 2.00424 34.3755 3.76223 34.3755 6.23846C34.3755 8.71469 32.2202 10.931 29.7433 10.931C27.2664 10.931 25.2206 8.9199 25.2548 6.44367C25.2959 3.94008 27.3143 1.92216 29.7433 1.95636V1.9632Z" fill="#DE9B82"/>
<path id="Vector_179" opacity="0.48" d="M29.7501 1.97004C32.227 2.01108 34.3755 3.77591 34.3755 6.25213C34.3755 8.72836 32.227 10.9378 29.7501 10.9378C27.2733 10.9378 25.2274 8.92673 25.2617 6.45051C25.2959 3.94692 27.3212 1.92899 29.7501 1.9632V1.97004Z" fill="#DE9D84"/>
<path id="Vector_180" opacity="0.47" d="M29.757 1.97687C32.2339 2.01792 34.3823 3.78274 34.3823 6.25897C34.3823 8.7352 32.2339 10.9447 29.757 10.9447C27.2801 10.9447 25.2343 8.93357 25.2685 6.45734C25.3027 3.95375 27.328 1.93583 29.757 1.97003V1.97687Z" fill="#DF9F86"/>
<path id="Vector_181" opacity="0.46" d="M29.757 1.98371C32.2339 2.02475 34.3823 3.79642 34.3823 6.27265C34.3823 8.74887 32.2339 10.9515 29.757 10.9515C27.2801 10.9515 25.2343 8.94041 25.2685 6.46418C25.3027 3.96059 27.328 1.94267 29.757 1.97687V1.98371Z" fill="#DFA089"/>
<path id="Vector_182" opacity="0.45" d="M29.7638 1.9906C32.2407 2.03164 34.3823 3.80331 34.3823 6.28638C34.3823 8.76945 32.2407 10.9652 29.7638 10.9652C27.2869 10.9652 25.2411 8.95414 25.2753 6.47791C25.3095 3.97432 27.3348 1.9564 29.7638 1.9906Z" fill="#E0A28B"/>
<path id="Vector_183" opacity="0.45" d="M29.7638 1.99744C32.2407 2.03848 34.3823 3.81699 34.3823 6.29322C34.3823 8.76945 32.2407 10.9652 29.7638 10.9652C27.2869 10.9652 25.2411 8.95414 25.2753 6.47791C25.3095 3.97432 27.3348 1.9564 29.7638 1.9906V1.99744Z" fill="#E1A48D"/>
<path id="Vector_184" opacity="0.44" d="M29.7705 1.99744C32.2474 2.03164 34.389 3.82383 34.389 6.30006C34.389 8.77628 32.2542 10.9721 29.7705 10.9721C27.2868 10.9721 25.2546 8.96098 25.282 6.48475C25.3162 3.98116 27.3415 1.96324 29.7705 1.99744Z" fill="#E1A690"/>
<path id="Vector_185" opacity="0.43" d="M29.7705 2.00428C32.2474 2.03848 34.3821 3.83067 34.3821 6.3069C34.3821 8.78313 32.2474 10.9721 29.7705 10.9721C27.2936 10.9721 25.2546 8.96098 25.282 6.48475C25.3162 3.98116 27.3347 1.96324 29.7705 1.99744V2.00428Z" fill="#E2A892"/>
<path id="Vector_186" opacity="0.42" d="M29.7773 2.01111C32.2542 2.04532 34.389 3.84434 34.389 6.32057C34.389 8.7968 32.2542 10.9789 29.7773 10.9789C27.3005 10.9789 25.2615 8.96781 25.2888 6.49158C25.3231 3.98799 27.3415 1.97007 29.7773 2.00427V2.01111Z" fill="#E3AA94"/>
<path id="Vector_187" opacity="0.41" d="M29.7773 2.01792C32.2542 2.05212 34.3821 3.85115 34.3821 6.32738C34.3821 8.80361 32.2542 10.9857 29.7773 10.9857C27.3005 10.9857 25.2615 8.97462 25.2888 6.49839C25.3231 3.9948 27.3415 1.98372 29.7773 2.01108V2.01792Z" fill="#E3AC97"/>
<path id="Vector_188" opacity="0.4" d="M29.7842 2.02475C32.261 2.05896 34.389 3.86483 34.389 6.34105C34.389 8.81728 32.261 10.9925 29.7842 10.9925C27.3073 10.9925 25.2683 8.98145 25.2957 6.50522C25.3299 4.00847 27.3483 1.99055 29.7842 2.01791V2.02475Z" fill="#E4AD99"/>
<path id="Vector_189" opacity="0.39" d="M29.791 2.03159C32.2679 2.06579 34.3958 3.87166 34.3958 6.34789C34.3958 8.82412 32.2747 10.9994 29.791 10.9994C27.3073 10.9994 25.2752 8.98829 25.3025 6.51206C25.3299 4.01531 27.3552 1.99739 29.791 2.02475V2.03159Z" fill="#E4AF9B"/>
<path id="Vector_190" opacity="0.38" d="M29.791 2.03159C32.2679 2.06579 34.389 3.8785 34.389 6.35473C34.389 8.83096 32.2679 10.9994 29.791 10.9994C27.3141 10.9994 25.2751 8.98829 25.3025 6.51206C25.3299 4.01531 27.3552 1.99739 29.791 2.02475V2.03159Z" fill="#E5B19E"/>
<path id="Vector_191" opacity="0.37" d="M29.7978 2.03848C32.2747 2.07269 34.3958 3.89223 34.3958 6.36846C34.3958 8.84469 32.2747 11.0131 29.7978 11.0131C27.321 11.0131 25.282 9.00202 25.3094 6.52579C25.3367 4.02904 27.362 2.01112 29.7978 2.03848Z" fill="#E6B3A0"/>
<path id="Vector_192" opacity="0.36" d="M29.7978 2.04532C32.2747 2.07953 34.389 3.89907 34.389 6.3753C34.389 8.85153 32.2747 11.0131 29.7978 11.0131C27.321 11.0131 25.282 9.00202 25.3094 6.52579C25.3367 4.02904 27.3552 2.01112 29.7978 2.03848V2.04532Z" fill="#E6B5A2"/>
<path id="Vector_193" opacity="0.35" d="M29.8047 2.05216C32.2816 2.07952 34.3958 3.91275 34.3958 6.38898C34.3958 8.86521 32.2816 11.0199 29.8047 11.0199C27.3278 11.0199 25.2888 9.00886 25.3162 6.53263C25.3436 4.03588 27.362 2.01796 29.8047 2.04532V2.05216Z" fill="#E7B7A5"/>
<path id="Vector_194" opacity="0.35" d="M29.8046 2.059C32.2814 2.08636 34.3957 3.91959 34.3957 6.39581C34.3957 8.87204 32.2883 11.0268 29.8046 11.0268C27.3208 11.0268 25.2955 9.01569 25.3161 6.53946C25.3434 4.04271 27.3619 2.02479 29.8046 2.05215V2.059Z" fill="#E8B9A7"/>
<path id="Vector_195" opacity="0.34" d="M29.8114 2.06583C32.2883 2.09319 34.3957 3.93326 34.3957 6.40949C34.3957 8.88572 32.2883 11.0336 29.8114 11.0336C27.3345 11.0336 25.3024 9.02253 25.3229 6.5463C25.3503 4.04955 27.3687 2.03163 29.8114 2.05899V2.06583Z" fill="#E8BAA9"/>
<path id="Vector_196" opacity="0.33" d="M29.8182 2.07267C32.2951 2.10003 34.4025 3.9401 34.4025 6.41633C34.4025 8.89256 32.2951 11.0404 29.8182 11.0404C27.3414 11.0404 25.3092 9.02936 25.3297 6.55314C25.3571 4.05639 27.3756 2.03847 29.8182 2.06583V2.07267Z" fill="#E9BCAC"/>
<path id="Vector_197" opacity="0.32" d="M29.8182 2.07267C32.2951 2.10003 34.3957 3.94694 34.3957 6.42317C34.3957 8.8994 32.2951 11.0404 29.8182 11.0404C27.3414 11.0404 25.3092 9.02937 25.3297 6.55314C25.3571 4.05639 27.3756 2.04531 29.8182 2.06583V2.07267Z" fill="#E9BEAE"/>
<path id="Vector_198" opacity="0.31" d="M29.8251 2.0795C32.3019 2.10686 34.4025 3.95377 34.4025 6.43684C34.4025 8.91991 32.3019 11.0541 29.8251 11.0541C27.3482 11.0541 25.3161 9.04304 25.3366 6.56681C25.3571 4.07006 27.3824 2.05898 29.8251 2.0795Z" fill="#EAC0B0"/>
<path id="Vector_199" opacity="0.3" d="M29.8251 2.08634C32.3019 2.1137 34.4025 3.96745 34.4025 6.44368C34.4025 8.91991 32.3088 11.0541 29.8251 11.0541C27.3413 11.0541 25.3161 9.04304 25.3366 6.56681C25.3571 4.07006 27.3756 2.05898 29.8251 2.0795V2.08634Z" fill="#EBC2B3"/>
<path id="Vector_200" opacity="0.29" d="M29.8319 2.09317C32.3088 2.12053 34.4025 3.98113 34.4025 6.45735C34.4025 8.93358 32.3088 11.0678 29.8319 11.0678C27.355 11.0678 25.3229 9.05671 25.3434 6.58048C25.3639 4.08373 27.3824 2.07265 29.8319 2.09317Z" fill="#EBC4B5"/>
<path id="Vector_201" opacity="0.28" d="M29.8319 2.10001C32.3088 2.12737 34.4025 3.98797 34.4025 6.46419C34.4025 8.94042 32.3088 11.0678 29.8319 11.0678C27.355 11.0678 25.3229 9.05671 25.3434 6.58048C25.3639 4.09057 27.3824 2.07265 29.8319 2.09317V2.10001Z" fill="#ECC6B7"/>
<path id="Vector_202" opacity="0.27" d="M29.8387 2.10685C32.3156 2.12737 34.4025 4.00164 34.4025 6.47787C34.4025 8.9541 32.3156 11.0746 29.8387 11.0746C27.3619 11.0746 25.3297 9.06355 25.3503 6.58732C25.3708 4.09741 27.3892 2.07949 29.8387 2.10001V2.10685Z" fill="#ECC7B9"/>
<path id="Vector_203" opacity="0.26" d="M29.8387 2.10685C32.3156 2.12737 34.4025 4.00164 34.4025 6.47787C34.4025 8.9541 32.3156 11.0746 29.8387 11.0746C27.3619 11.0746 25.3297 9.06355 25.3503 6.58732C25.3708 4.09741 27.3892 2.07949 29.8387 2.10001V2.10685Z" fill="#EDC9BC"/>
<path id="Vector_204" opacity="0.25" d="M29.846 2.11368C32.3229 2.13421 34.4097 4.01532 34.4097 6.49155C34.4097 8.96778 32.3229 11.0815 29.846 11.0815C27.3691 11.0815 25.3438 9.07038 25.3575 6.59415C25.378 4.10424 27.3965 2.08632 29.846 2.10684V2.11368Z" fill="#EECBBE"/>
<path id="Vector_205" opacity="0.25" d="M29.8528 2.12052C32.3297 2.14104 34.4097 4.02216 34.4097 6.49838C34.4097 8.97461 32.3297 11.0883 29.8528 11.0883C27.3759 11.0883 25.3506 9.07722 25.3643 6.60099C25.3849 4.11108 27.3965 2.09316 29.8528 2.11368V2.12052Z" fill="#EECDC0"/>
<path id="Vector_206" opacity="0.24" d="M29.8528 2.12739C32.3297 2.14791 34.4097 4.03587 34.4097 6.5121C34.4097 8.98833 32.3297 11.0952 29.8528 11.0952C27.3759 11.0952 25.3506 9.08409 25.3643 6.60786C25.3849 4.11795 27.3965 2.10687 29.8528 2.12055V2.12739Z" fill="#EFCFC3"/>
<path id="Vector_207" opacity="0.23" d="M29.8596 2.13422C32.3365 2.15475 34.4097 4.04954 34.4097 6.52577C34.4097 9.002 32.3365 11.1088 29.8596 11.1088C27.3828 11.1088 25.3575 9.09776 25.3712 6.62153C25.3917 4.13162 27.4033 2.12054 29.8596 2.13422Z" fill="#F0D1C5"/>
<path id="Vector_208" opacity="0.22" d="M29.8596 2.14107C32.3365 2.16159 34.4097 4.05638 34.4097 6.53261C34.4097 9.00884 32.3365 11.1088 29.8596 11.1088C27.3828 11.1088 25.3575 9.09776 25.3712 6.62153C25.3848 4.13162 27.4033 2.12054 29.8596 2.13422V2.14107Z" fill="#F0D2C7"/>
<path id="Vector_209" opacity="0.21" d="M29.8665 2.14106C32.3434 2.16158 34.4166 4.06322 34.4166 6.53944C34.4166 9.01567 32.3434 11.1157 29.8665 11.1157C27.3896 11.1157 25.3643 9.1046 25.378 6.62837C25.3917 4.13846 27.4101 2.12738 29.8665 2.14106Z" fill="#F1D4CA"/>
<path id="Vector_210" opacity="0.2" d="M29.8665 2.1479C32.3434 2.16842 34.4097 4.07006 34.4097 6.54628C34.4097 9.02251 32.3434 11.1157 29.8665 11.1157C27.3896 11.1157 25.3643 9.1046 25.378 6.62837C25.3917 4.13846 27.4101 2.12738 29.8665 2.14106V2.1479Z" fill="#F1D6CC"/>
<path id="Vector_211" opacity="0.19" d="M29.8733 2.15474C32.3502 2.16842 34.4165 4.08373 34.4165 6.55996C34.4165 9.03619 32.3502 11.1225 29.8733 11.1225C27.3964 11.1225 25.3712 9.11143 25.3848 6.63521C25.3985 4.1453 27.417 2.13422 29.8733 2.1479V2.15474Z" fill="#F2D8CE"/>
<path id="Vector_212" opacity="0.18" d="M29.8733 2.16157C32.3502 2.17525 34.4097 4.09057 34.4097 6.5668C34.4097 9.04303 32.3502 11.1294 29.8733 11.1294C27.3964 11.1294 25.3712 9.11827 25.3848 6.64204C25.3985 4.15213 27.4101 2.14105 29.8733 2.15473V2.16157Z" fill="#F3DAD1"/>
<path id="Vector_213" opacity="0.17" d="M29.8802 2.16841C32.357 2.18209 34.4165 4.10424 34.4165 6.58047C34.4165 9.0567 32.357 11.1362 29.8802 11.1362C27.4033 11.1362 25.378 9.12511 25.3917 6.64888C25.4054 4.15897 27.417 2.14789 29.8802 2.16157V2.16841Z" fill="#F3DCD3"/>
<path id="Vector_214" opacity="0.16" d="M29.8869 2.17524C32.3638 2.18892 34.4233 4.11108 34.4233 6.59415C34.4233 9.07722 32.3638 11.1499 29.8869 11.1499C27.4101 11.1499 25.3916 9.13878 25.3985 6.66255C25.4121 4.17948 27.4237 2.16156 29.8869 2.17524Z" fill="#F4DED5"/>
<path id="Vector_215" opacity="0.15" d="M29.8869 2.17525C32.3638 2.18893 34.4165 4.11793 34.4165 6.59416C34.4165 9.07039 32.3638 11.143 29.8869 11.143C27.4101 11.143 25.3916 9.13195 25.3985 6.65572C25.4121 4.17265 27.4237 2.16157 29.8869 2.16841V2.17525Z" fill="#F4DFD8"/>
<path id="Vector_216" opacity="0.15" d="M29.8938 2.18209C32.3707 2.19577 34.4233 4.1316 34.4233 6.60783C34.4233 9.08406 32.3707 11.1567 29.8938 11.1567C27.4169 11.1567 25.3984 9.14562 25.4053 6.66939C25.419 4.18633 27.4306 2.17524 29.8938 2.18209Z" fill="#F5E1DA"/>
<path id="Vector_217" opacity="0.14" d="M29.8938 2.18893C32.3707 2.20261 34.4233 4.13844 34.4233 6.61467C34.4233 9.0909 32.3775 11.1567 29.8938 11.1567C27.4101 11.1567 25.3984 9.14562 25.4053 6.66939C25.419 4.18633 27.4306 2.17524 29.8938 2.18209V2.18893Z" fill="#F6E3DC"/>
<path id="Vector_218" opacity="0.13" d="M29.9006 2.19576C32.3775 2.20944 34.4233 4.15212 34.4233 6.62835C34.4233 9.10458 32.3775 11.1635 29.9006 11.1635C27.4237 11.1635 25.4053 9.15246 25.4121 6.67623C25.419 4.19316 27.4374 2.18208 29.9006 2.18892V2.19576Z" fill="#F6E5DF"/>
<path id="Vector_219" opacity="0.12" d="M29.9006 2.20266C32.3775 2.2095 34.4233 4.15902 34.4233 6.63524C34.4233 9.11147 32.3775 11.1704 29.9006 11.1704C27.4237 11.1704 25.4053 9.15936 25.4121 6.68313C25.419 4.20006 27.4306 2.18898 29.9006 2.19582V2.20266Z" fill="#F7E7E1"/>
<path id="Vector_220" opacity="0.11" d="M29.9074 2.20949C32.3843 2.21633 34.4233 4.17269 34.4233 6.64892C34.4233 9.12515 32.3843 11.1773 29.9074 11.1773C27.4306 11.1773 25.4121 9.16619 25.419 6.68996C25.4258 4.20689 27.4374 2.19581 29.9074 2.20265V2.20949Z" fill="#F8E9E3"/>
<path id="Vector_221" opacity="0.1" d="M29.9143 2.20949C32.3912 2.21633 34.4301 4.17269 34.4301 6.64892C34.4301 9.12515 32.3912 11.1773 29.9143 11.1773C27.4374 11.1773 25.419 9.16619 25.4258 6.68996C25.4326 4.20689 27.4443 2.19581 29.9143 2.20265V2.20949Z" fill="#F8EBE6"/>
<path id="Vector_222" opacity="0.09" d="M29.9143 2.21633C32.3912 2.22317 34.4301 4.18637 34.4301 6.6626C34.4301 9.13883 32.398 11.1841 29.9143 11.1841C27.4306 11.1841 25.419 9.17303 25.4258 6.6968C25.4326 4.21373 27.4443 2.20265 29.9143 2.20949V2.21633Z" fill="#F9ECE8"/>
<path id="Vector_223" opacity="0.08" d="M29.9211 2.22316C32.398 2.23 34.4301 4.1932 34.4301 6.67627C34.4301 9.15934 32.398 11.1978 29.9211 11.1978C27.4442 11.1978 25.4326 9.1867 25.4326 6.71047C25.4326 4.2274 27.4511 2.21632 29.9211 2.22316Z" fill="#F9EEEA"/>
<path id="Vector_224" opacity="0.07" d="M29.9211 2.22998C32.398 2.22998 34.4301 4.20686 34.4301 6.68309C34.4301 9.15932 32.398 11.1978 29.9211 11.1978C27.4442 11.1978 25.4326 9.18668 25.4326 6.71045C25.4326 4.22738 27.4511 2.22314 29.9211 2.22314V2.22998Z" fill="#FAF0EC"/>
<path id="Vector_225" opacity="0.06" d="M29.9279 2.23682C32.4048 2.23682 34.4301 4.22054 34.4301 6.69676C34.4301 9.17299 32.4048 11.2114 29.9279 11.2114C27.4511 11.2114 25.4395 9.20035 25.4395 6.72413C25.4395 4.24106 27.4579 2.23682 29.9279 2.23682Z" fill="#FBF2EF"/>
<path id="Vector_226" opacity="0.05" d="M29.9279 2.24366C32.4048 2.24366 34.4301 4.22738 34.4301 6.7036C34.4301 9.17983 32.4048 11.2114 29.9279 11.2114C27.4511 11.2114 25.4395 9.20035 25.4395 6.72413C25.4395 4.24106 27.4511 2.23682 29.9279 2.23682V2.24366Z" fill="#FBF4F1"/>
<path id="Vector_227" opacity="0.05" d="M29.9348 2.25049C32.4117 2.25049 34.437 4.24105 34.437 6.71728C34.437 9.19351 32.4185 11.2183 29.9348 11.2183C27.4511 11.2183 25.4463 9.20719 25.4463 6.73096C25.4463 4.25473 27.4579 2.24365 29.9348 2.24365V2.25049Z" fill="#FCF6F3"/>
<path id="Vector_228" opacity="0.04" d="M29.9348 2.25049C32.4117 2.25049 34.4301 4.24105 34.4301 6.71728C34.4301 9.19351 32.4117 11.2183 29.9348 11.2183C27.4579 11.2183 25.4463 9.20719 25.4463 6.73096C25.4463 4.25473 27.4579 2.24365 29.9348 2.24365V2.25049Z" fill="#FDF8F6"/>
<path id="Vector_229" opacity="0.03" d="M29.9416 2.25733C32.4185 2.25733 34.4369 4.25473 34.4369 6.73096C34.4369 9.20719 32.4185 11.2251 29.9416 11.2251C27.4647 11.2251 25.4531 9.21403 25.4531 6.7378C25.4531 4.26157 27.4647 2.25049 29.9416 2.25049V2.25733Z" fill="#FDF9F8"/>
<path id="Vector_230" opacity="0.02" d="M29.9484 2.26416C32.4253 2.26416 34.4369 4.26156 34.4369 6.73779C34.4369 9.21402 32.4253 11.2319 29.9484 11.2319C27.4716 11.2319 25.46 9.22086 25.46 6.74463C25.46 4.2684 27.4716 2.25732 29.9484 2.25732V2.26416Z" fill="#FEFBFA"/>
</g>
</g>
</g>
</g>
</g>
</g>
</g>
<defs>
<linearGradient id="paint0_linear_5981_9634" x1="31.2757" y1="8.96781" x2="28.1705" y2="4.10354" gradientUnits="userSpaceOnUse">
<stop stop-color="#FF9200"/>
<stop offset="0.21" stop-color="#FF8D00"/>
<stop offset="0.45" stop-color="#FF7F00"/>
<stop offset="0.62" stop-color="#FF7100"/>
<stop offset="0.82" stop-color="#FF5E00"/>
<stop offset="1" stop-color="#FF5200"/>
</linearGradient>
<linearGradient id="paint1_linear_5981_9634" x1="30.7831" y1="8.8994" x2="26.2486" y2="0.0332656" gradientUnits="userSpaceOnUse">
<stop stop-color="#FF7100" stop-opacity="0"/>
<stop offset="0.03" stop-color="#FF6D00" stop-opacity="0.03"/>
<stop offset="0.21" stop-color="#FF5900" stop-opacity="0.25"/>
<stop offset="0.39" stop-color="#FF4800" stop-opacity="0.42"/>
<stop offset="0.56" stop-color="#FF3B00" stop-opacity="0.56"/>
<stop offset="0.72" stop-color="#FF3200" stop-opacity="0.66"/>
<stop offset="0.86" stop-color="#FF2C00" stop-opacity="0.72"/>
<stop offset="0.98" stop-color="#FF2B00" stop-opacity="0.74"/>
</linearGradient>
</defs>
</svg>
