<svg width="29" height="18" viewBox="0 0 29 18" fill="none" xmlns="http://www.w3.org/2000/svg">
<g id="Group 810">
<path id="Vector" d="M6.38135 0H13.3989C14.3809 0 14.9852 0.800711 14.7586 1.78271L11.4878 15.8103C11.2536 16.7923 10.2792 17.593 9.29715 17.593H2.28715C1.30515 17.593 0.700838 16.7923 0.927455 15.8103L4.19828 1.78271C4.4249 0.800711 5.4069 0 6.38891 0" fill="#ED171F"/>
<path id="Vector_2" d="M12.8169 0H20.892C21.874 0 21.4283 0.800711 21.2017 1.78271L17.9309 15.8103C17.7043 16.7923 17.7722 17.593 16.7902 17.593H8.7227C7.7407 17.593 7.13639 16.7923 7.363 15.8103L10.6263 1.78271C10.8604 0.800711 11.8349 0 12.8169 0Z" fill="#082F67"/>
<path id="Vector_3" d="M20.5754 0H27.5929C28.5749 0 29.1792 0.800711 28.9526 1.78271L25.6818 15.8103C25.4552 16.7923 24.4732 17.593 23.4912 17.593H16.4736C15.4916 17.593 14.8797 16.7923 15.1139 15.8103L18.3772 1.78271C18.6038 0.800711 19.5858 0 20.5678 0" fill="#006A65"/>
<path id="Vector_4" fill-rule="evenodd" clip-rule="evenodd" d="M19.3967 13.1966H20.0614L20.2503 12.5621H19.5855L19.3967 13.1966ZM19.9254 11.4441L19.6988 12.1995C19.6988 12.1995 19.9481 12.0711 20.0841 12.0333C20.22 12.0031 20.424 11.9729 20.424 11.9729L20.5826 11.4441H19.9179H19.9254ZM20.2578 10.3639L20.0387 11.0891C20.0387 11.0891 20.288 10.9758 20.4164 10.938C20.5524 10.9003 20.7564 10.8927 20.7564 10.8927L20.915 10.3639H20.2578ZM21.7233 10.3639L20.8697 13.1966H21.0963L20.915 13.7783H20.6884L20.6355 13.9596H19.8197L19.8726 13.7783H18.2183L18.3844 13.2344H18.5506L19.4193 10.3639L19.5931 9.78229H20.424L20.3409 10.0769C20.3409 10.0769 20.56 9.91826 20.7715 9.86538C20.983 9.8125 22.184 9.78984 22.184 9.78984L22.0028 10.3639H21.7157H21.7233Z" fill="white"/>
<path id="Vector_5" d="M22.0859 9.78229H22.9697V10.1147C22.9697 10.1675 23.0226 10.1978 23.1284 10.1978H23.3097L23.1435 10.7416H22.6676C22.2521 10.7718 22.0935 10.5906 22.1086 10.3942L22.0935 9.78229H22.0859Z" fill="white"/>
<path id="Vector_6" d="M22.2069 12.3658H21.3609L21.5044 11.8823H22.4713L22.6073 11.4366H21.6555L21.8216 10.8852H24.4731L24.3069 11.4366H23.4155L23.2795 11.8823H24.1709L24.0274 12.3658H23.0605L22.8867 12.5697H23.2795L23.3777 13.1816C23.3853 13.242 23.3929 13.2798 23.408 13.31C23.4306 13.3326 23.5439 13.3402 23.6119 13.3402H23.7328L23.5515 13.937H23.2493C23.204 13.937 23.136 13.937 23.0378 13.9294C22.9472 13.9218 22.8792 13.869 22.8188 13.8388C22.7659 13.8085 22.6828 13.7406 22.6601 13.6272L22.5619 13.0154L22.1238 13.6197C21.9878 13.8085 21.799 13.9521 21.4742 13.9521H20.8623L21.0209 13.4233H21.2551C21.3231 13.4233 21.3835 13.3931 21.4288 13.3704C21.4742 13.3478 21.5119 13.3251 21.5573 13.2647L22.1993 12.3658H22.2069Z" fill="white"/>
<path id="Vector_7" d="M12.953 11.0362H15.1889L15.0227 11.5725H14.1314L13.9954 12.0258H14.9094L14.7432 12.5772H13.8292L13.6102 13.3175C13.5799 13.4006 13.8292 13.4081 13.9123 13.4081L14.3731 13.3477L14.1918 13.9595H13.1569C13.0738 13.9595 13.0134 13.9444 12.9228 13.9293C12.8397 13.9067 12.7943 13.8689 12.7566 13.8085C12.7188 13.748 12.6659 13.6952 12.7037 13.5667L12.9983 12.5847H12.4922L12.6584 12.0258H13.172L13.308 11.5725H12.8019L12.9681 11.0362H12.953Z" fill="white"/>
<path id="Vector_8" d="M14.4561 10.0769H15.3702L15.204 10.6359H13.95L13.8141 10.7567C13.7536 10.8172 13.7385 10.787 13.663 10.8323C13.595 10.87 13.4439 10.938 13.2475 10.938H12.8472L13.0134 10.4017H13.1342C13.24 10.4017 13.308 10.3942 13.3382 10.3715C13.3759 10.3488 13.4213 10.2884 13.4741 10.1978L13.7008 9.78229H14.6148L14.4561 10.0844V10.0769Z" fill="white"/>
<path id="Vector_9" fill-rule="evenodd" clip-rule="evenodd" d="M16.2163 10.9985C16.2163 10.9985 16.4656 10.7719 16.8962 10.6963C16.9944 10.6737 17.6063 10.6812 17.6063 10.6812L17.6969 10.3715H16.4052L16.2163 10.9909V10.9985ZM17.425 11.2327H16.1408L16.0653 11.4895H17.1757C17.3041 11.4744 17.3343 11.4895 17.3419 11.4895L17.425 11.2327ZM15.7631 9.78232H16.5487L16.4354 10.1751C16.4354 10.1751 16.6847 9.97872 16.8584 9.91073C17.0322 9.84275 17.4174 9.78987 17.4174 9.78987H18.6789L18.2483 11.2176C18.1728 11.4668 18.0897 11.6255 18.0368 11.6934C17.9915 11.769 17.9311 11.8294 17.8253 11.8899C17.7196 11.9503 17.6214 11.9805 17.5307 11.988C17.4476 11.988 17.3192 11.9956 17.1379 11.9956H15.9217L15.5743 13.1287C15.544 13.242 15.5289 13.2949 15.544 13.3251C15.5592 13.3553 15.6045 13.3855 15.6574 13.3855L16.1937 13.3326L16.0124 13.9521H15.4081C15.2192 13.9521 15.0757 13.9521 14.9775 13.9369C14.8869 13.9369 14.7887 13.9369 14.7207 13.8841C14.6678 13.8312 14.5771 13.7708 14.5771 13.7028C14.5771 13.6423 14.6074 13.5366 14.6451 13.4006L15.7404 9.76721L15.7631 9.78232Z" fill="white"/>
<path id="Vector_10" d="M18.0451 12.0937L17.9771 12.4412C17.9469 12.547 17.9167 12.6301 17.8336 12.698C17.7505 12.7736 17.6447 12.8491 17.4106 12.8491L16.98 12.8642V13.257C16.9724 13.3703 17.0027 13.3552 17.0178 13.3779C17.0404 13.393 17.0555 13.4081 17.0782 13.4081H17.2142L17.6296 13.3779L17.4559 13.9444H16.98C16.6476 13.9444 16.3983 13.9444 16.3153 13.8689C16.2322 13.816 16.2246 13.7556 16.2246 13.6423L16.2548 12.124H17.0102V12.4337H17.184C17.2444 12.4337 17.2897 12.4337 17.3124 12.411C17.335 12.3959 17.3501 12.3657 17.3652 12.3279L17.4408 12.0862H18.0375L18.0451 12.0937Z" fill="white"/>
<path id="Vector_11" d="M7.21218 4.47949C7.18196 4.60035 6.69852 6.85141 6.69852 6.85141C6.59276 7.30464 6.51722 7.62946 6.26039 7.84097C6.10931 7.96183 5.94313 8.02226 5.73917 8.02226C5.42191 8.02226 5.23306 7.86363 5.20285 7.56147V7.45572L5.29349 6.84385C5.29349 6.84385 5.80716 4.79676 5.8978 4.52482C5.8978 4.50971 5.8978 4.50215 5.90536 4.4946C4.90825 4.50215 4.73451 4.4946 4.7194 4.47949C4.7194 4.50215 4.68918 4.63057 4.68918 4.63057L4.16797 6.9345L4.12264 7.1309L4.03955 7.77298C4.03955 7.96183 4.07732 8.12046 4.15286 8.24888C4.39458 8.66434 5.06688 8.72477 5.45213 8.72477C5.94313 8.72477 6.41147 8.61902 6.72118 8.43017C7.26506 8.10535 7.40858 7.6068 7.537 7.16112L7.59743 6.9345C7.59743 6.9345 8.1262 4.80431 8.21684 4.53237C8.21684 4.51726 8.21684 4.50971 8.2244 4.50215C7.50678 4.50971 7.28772 4.50215 7.21973 4.48705" fill="white"/>
<path id="Vector_12" d="M10.1281 8.70216C9.77306 8.70216 9.6522 8.70216 9.23674 8.71727L9.22163 8.68705C9.2594 8.52842 9.29717 8.37734 9.33494 8.21871L9.38781 8.0072C9.46335 7.67483 9.53889 7.28203 9.54644 7.16872C9.54644 7.10074 9.57666 6.91945 9.3727 6.91945C9.28961 6.91945 9.19897 6.96477 9.10832 7.00254C9.05544 7.18383 8.95724 7.68239 8.91192 7.909C8.80616 8.3849 8.79861 8.44533 8.75329 8.6795L8.72307 8.70972C8.36049 8.70972 8.23207 8.70971 7.81661 8.72482L7.79395 8.68705C7.86193 8.40001 7.93747 8.11296 7.9979 7.83347C8.17164 7.06297 8.21696 6.76837 8.26229 6.37557L8.2925 6.35291C8.70041 6.29248 8.79861 6.28492 9.24429 6.19427L9.28206 6.2396L9.21407 6.48888C9.28961 6.44355 9.3576 6.39823 9.43314 6.36046C9.64464 6.25471 9.87126 6.22449 9.99968 6.22449C10.1961 6.22449 10.4076 6.27737 10.4907 6.50398C10.5738 6.70038 10.5209 6.94966 10.4076 7.43311L10.3472 7.68239C10.2338 8.21871 10.2187 8.31691 10.1508 8.68705L10.113 8.71727L10.1281 8.70216Z" fill="white"/>
<path id="Vector_13" d="M11.5633 8.70206C11.3518 8.70206 11.2158 8.70206 11.0799 8.70206C10.9439 8.70206 10.8155 8.70962 10.6191 8.71717L10.604 8.70206L10.5889 8.68695C10.6417 8.483 10.672 8.40746 10.7022 8.33948C10.7324 8.26394 10.7551 8.19595 10.8004 7.98444C10.8608 7.7125 10.8986 7.52366 10.9288 7.35747C10.959 7.19884 10.9741 7.06287 10.9968 6.90424L11.0119 6.88913L11.027 6.87402C11.2385 6.84381 11.3745 6.82115 11.5104 6.80604C11.6464 6.78338 11.7899 6.76072 12.009 6.71539V6.73805L12.0241 6.76072C11.9863 6.9269 11.941 7.09309 11.9032 7.26683C11.8655 7.43301 11.8201 7.5992 11.7824 7.77294C11.6993 8.12797 11.6691 8.26394 11.654 8.35458C11.6389 8.44523 11.6313 8.49811 11.6011 8.6794L11.5784 8.69451L11.5558 8.70962L11.5633 8.70206Z" fill="white"/>
<path id="Vector_14" d="M13.8067 7.44811C13.7841 7.53875 13.7085 7.87868 13.5952 8.0222C13.5197 8.12796 13.4291 8.19594 13.3309 8.19594C13.3006 8.19594 13.1269 8.19594 13.1269 7.93911C13.1269 7.81069 13.1496 7.68228 13.1798 7.53875C13.2704 7.13085 13.3837 6.78337 13.6632 6.78337C13.8823 6.78337 13.8974 7.0402 13.7992 7.45566M14.7208 7.49343C14.8416 6.94955 14.751 6.70027 14.6301 6.54164C14.4488 6.30747 14.124 6.23193 13.7841 6.23193C13.5801 6.23193 13.0967 6.2546 12.719 6.60207C12.447 6.85135 12.3262 7.19128 12.2506 7.51609C12.1751 7.84846 12.0845 8.44522 12.6359 8.67184C12.8096 8.73982 13.0514 8.76248 13.21 8.76248C13.6103 8.76248 14.0258 8.64917 14.3355 8.32436C14.5772 8.05997 14.683 7.65962 14.7208 7.49343Z" fill="white"/>
<path id="Vector_15" d="M23.3624 8.7398C22.9394 8.7398 22.811 8.7398 22.4182 8.75491L22.3955 8.72469C22.5013 8.31679 22.6146 7.91643 22.7052 7.50852C22.8261 6.97975 22.8563 6.75313 22.9016 6.44342L22.9318 6.41321C23.3548 6.35278 23.4682 6.33767 23.9138 6.25458L23.9289 6.29235C23.8459 6.62472 23.7703 6.95709 23.6872 7.28946C23.521 7.99197 23.4682 8.347 23.4002 8.70959L23.3624 8.7398Z" fill="white"/>
<path id="Vector_16" d="M22.7202 7.49338C22.6975 7.57647 22.622 7.92395 22.5087 8.06747C22.4332 8.17322 22.267 8.23366 22.1688 8.23366C22.1386 8.23366 21.9648 8.23366 21.9648 7.97682C21.9648 7.84841 21.9875 7.71999 22.0252 7.57647C22.1159 7.17611 22.2292 6.82863 22.5087 6.82863C22.7278 6.82863 22.826 7.07791 22.7278 7.49338M23.5738 7.53115C23.6947 6.98727 23.1961 7.48582 23.1206 7.30453C22.9997 7.02504 23.0752 6.46605 22.5842 6.2772C22.3954 6.20166 21.9497 6.29986 21.572 6.64734C21.3076 6.89662 21.1792 7.23654 21.1037 7.56136C21.0281 7.88618 20.9375 8.49049 21.4889 8.702C21.6627 8.77753 21.8213 8.8002 21.9799 8.79264C22.5314 8.76243 22.9468 7.9315 23.2565 7.59913C23.4983 7.3423 23.536 7.69733 23.5738 7.5387" fill="white"/>
<path id="Vector_17" d="M17.1464 8.70216C16.7914 8.70216 16.6705 8.70216 16.2551 8.71727L16.24 8.68705C16.2777 8.52842 16.3155 8.37734 16.3533 8.21871L16.4061 8.0072C16.4817 7.67483 16.5572 7.28203 16.5648 7.16872C16.5648 7.10074 16.595 6.91945 16.391 6.91945C16.3004 6.91945 16.2173 6.96477 16.1266 7.00254C16.0738 7.18383 15.9756 7.68239 15.9302 7.909C15.832 8.3849 15.8245 8.44533 15.7792 8.6795L15.749 8.70972C15.3864 8.70972 15.2579 8.70971 14.8425 8.72482L14.8198 8.68705C14.8878 8.40001 14.9558 8.11296 15.0238 7.83347C15.1975 7.06297 15.2428 6.76837 15.2882 6.37557L15.3184 6.35291C15.7263 6.29248 15.8245 6.28492 16.2702 6.19427L16.3079 6.2396L16.2475 6.48888C16.323 6.44355 16.391 6.39823 16.4666 6.36046C16.6705 6.25471 16.9047 6.22449 17.0331 6.22449C17.2295 6.22449 17.441 6.27737 17.5317 6.50398C17.6148 6.70038 17.5619 6.94966 17.4486 7.43311L17.3957 7.68239C17.2824 8.21871 17.2597 8.31691 17.1993 8.68705L17.154 8.71727L17.1464 8.70216Z" fill="white"/>
<path id="Vector_18" d="M20.2047 4.47191H19.9101C19.1472 4.47946 18.8375 4.47191 18.7166 4.46436C18.7015 4.51723 18.6864 4.62299 18.6864 4.62299L18.4145 5.89204C18.4145 5.89204 17.7573 8.58877 17.7271 8.70963C18.3918 8.70963 18.6637 8.70963 18.777 8.70963C18.7997 8.58122 18.9583 7.83338 18.9583 7.83338C18.9583 7.83338 19.0943 7.28195 19.1019 7.25929C19.1019 7.25929 19.1396 7.20641 19.1849 7.18375H19.2454C19.8195 7.18375 20.4691 7.18375 20.9752 6.80606C21.3227 6.54922 21.5569 6.17153 21.6626 5.71074C21.6928 5.59744 21.7079 5.46147 21.7079 5.3255C21.7079 5.15176 21.6702 4.97802 21.572 4.8345C21.3151 4.47191 20.8015 4.46436 20.1972 4.46436M20.5824 5.78628C20.522 6.06578 20.3407 6.29995 20.1065 6.42081C19.9101 6.51901 19.676 6.52656 19.4342 6.52656H19.2756L19.2907 6.46613C19.2907 6.46613 19.5853 5.20463 19.5777 5.20463V5.13665L19.5929 5.08377L19.7062 5.09888C19.7062 5.09888 20.3029 5.15176 20.318 5.15176C20.5522 5.2424 20.6504 5.47657 20.5824 5.78628Z" fill="white"/>
<path id="Vector_19" d="M26.8524 6.24706L26.8222 6.20929C26.3841 6.29238 26.3086 6.30749 25.9082 6.36792L25.878 6.39814V6.41324C25.5834 7.09309 25.5909 6.94957 25.3492 7.48589C25.3492 7.46323 25.3492 7.44057 25.3492 7.41791L25.2888 6.24706L25.251 6.20929C24.7978 6.29238 24.7827 6.30749 24.3597 6.36792L24.3294 6.39814C24.3294 6.39814 24.3294 6.42835 24.3294 6.44346C24.3823 6.72295 24.3672 6.66252 24.4201 7.08554C24.4427 7.29705 24.4805 7.501 24.5032 7.71251C24.5485 8.05999 24.5712 8.22617 24.6165 8.75495C24.3294 9.22329 24.2615 9.40458 23.9971 9.82004L24.0122 9.85781C24.4276 9.8427 24.5183 9.8427 24.8204 9.8427L24.8884 9.76717C25.115 9.26861 26.8751 6.26217 26.8751 6.26217" fill="white"/>
<path id="Vector_20" d="M11.9484 6.53412C12.1825 6.36794 12.2128 6.14887 12.0164 6.02801C11.82 5.9147 11.4725 5.94492 11.2308 6.1111C10.9966 6.26974 10.9664 6.49635 11.1628 6.61721C11.3592 6.73052 11.7066 6.70031 11.9484 6.53412Z" fill="white"/>
<path id="Vector_21" d="M24.8355 9.78973L24.4956 10.3789C24.3898 10.5829 24.1858 10.7264 23.8686 10.734H23.3247L23.4833 10.1976H23.5891C23.642 10.1976 23.6873 10.1976 23.7175 10.175C23.7477 10.1674 23.7628 10.1448 23.7855 10.1146L23.9894 9.79729H24.843L24.8355 9.78973Z" fill="white"/>
</g>
</svg>
