<svg width="59" height="16" viewBox="0 0 59 16" fill="none" xmlns="http://www.w3.org/2000/svg">
<g id="dinnerclub 1" clip-path="url(#clip0_5981_9875)">
<path id="Vector" d="M1.20654 8.09485C1.20654 4.03109 4.50203 0.735596 8.5658 0.735596C12.6296 0.735596 15.9251 4.02953 15.9251 8.09485C15.9251 12.1602 12.6311 15.4541 8.5658 15.4541C4.50048 15.4541 1.20654 12.1586 1.20654 8.09485Z" fill="white"/>
<path id="Vector_2" d="M20.9686 3.62051C20.9686 2.89889 20.5907 2.9471 20.2314 2.93933V2.73248C20.544 2.74648 20.8644 2.74648 21.177 2.74648C21.5129 2.74648 21.9702 2.73248 22.5643 2.73248C24.6405 2.73248 25.7711 4.11818 25.7711 5.53808C25.7711 6.33124 25.3061 8.32813 22.4678 8.32813C22.0604 8.32813 21.6825 8.31258 21.3061 8.31258C20.9297 8.31258 20.5923 8.32035 20.2314 8.32813V8.11973C20.712 8.07152 20.9453 8.05597 20.9686 7.51164V3.62206V3.62051ZM21.7524 7.38101C21.7524 7.99842 22.1941 8.06996 22.586 8.06996C24.3185 8.06996 24.8862 6.76359 24.8862 5.56919C24.8862 4.07152 23.9251 2.98909 22.3776 2.98909C22.0495 2.98909 21.8971 3.01242 21.7524 3.0202V7.38101Z" fill="#231F20"/>
<path id="Vector_3" d="M26.051 8.11817H26.2034C26.4274 8.11817 26.5876 8.11817 26.5876 7.85223V5.68115C26.5876 5.32812 26.4678 5.27991 26.1708 5.12128V4.99219C26.5487 4.87866 26.9966 4.72781 27.0293 4.70293C27.0852 4.67182 27.1334 4.66405 27.1739 4.66405C27.2143 4.66405 27.2299 4.71226 27.2299 4.77602V7.85378C27.2299 8.11972 27.4072 8.11972 27.6311 8.11972H27.768V8.32812C27.4958 8.32812 27.2143 8.31257 26.9266 8.31257C26.6389 8.31257 26.3496 8.32034 26.0526 8.32812V8.11972L26.051 8.11817ZM26.9095 3.42921C26.6995 3.42921 26.516 3.23636 26.516 3.02796C26.516 2.81957 26.7089 2.64227 26.9095 2.64227C27.1101 2.64227 27.303 2.81024 27.303 3.02796C27.303 3.24569 27.1257 3.42921 26.9095 3.42921Z" fill="#231F20"/>
<path id="Vector_4" d="M28.5285 5.72938C28.5285 5.43389 28.4399 5.35302 28.0635 5.20217V5.0482C28.4072 4.93622 28.7353 4.83047 29.121 4.66406C29.1444 4.66406 29.1692 4.67961 29.1692 4.74338V5.26593C29.6265 4.93622 30.0199 4.66406 30.558 4.66406C31.2392 4.66406 31.4803 5.16017 31.4803 5.78692V7.8538C31.4803 8.11974 31.6576 8.11974 31.8815 8.11974H32.0262V8.32814C31.7447 8.32814 31.4647 8.31259 31.177 8.31259C30.8893 8.31259 30.6 8.32036 30.3108 8.32814V8.11974H30.4554C30.6809 8.11974 30.8395 8.11974 30.8395 7.8538V5.77915C30.8395 5.32192 30.5596 5.09797 30.1024 5.09797C29.8458 5.09797 29.4367 5.30636 29.1724 5.48366V7.85535C29.1724 8.12129 29.3496 8.12129 29.5752 8.12129H29.7198V8.32969C29.4383 8.32969 29.1568 8.31414 28.8691 8.31414C28.5814 8.31414 28.2921 8.32192 28.0044 8.32969V8.12129H28.149C28.373 8.12129 28.5332 8.12129 28.5332 7.85535V5.73094L28.5285 5.72938Z" fill="#231F20"/>
<path id="Vector_5" d="M32.6342 6.11507C32.6171 6.18661 32.6171 6.30636 32.6342 6.58008C32.6809 7.34213 33.1708 7.96733 33.8115 7.96733C34.2532 7.96733 34.5985 7.72627 34.894 7.42923L35.0059 7.5412C34.6374 8.02954 34.1801 8.44633 33.5238 8.44633C32.2486 8.44633 31.9919 7.2115 31.9919 6.69983C31.9919 5.12907 33.0495 4.66406 33.6109 4.66406C34.261 4.66406 34.9593 5.07308 34.9671 5.92223C34.9671 5.97199 34.9671 6.01865 34.9593 6.06686L34.8862 6.11507H32.6342ZM34.0526 5.85846C34.2517 5.85846 34.275 5.75426 34.275 5.65784C34.275 5.24727 34.0262 4.91912 33.5783 4.91912C33.0899 4.91912 32.7524 5.27993 32.656 5.85691H34.0526V5.85846Z" fill="#231F20"/>
<path id="Vector_6" d="M35.1506 8.11818H35.3684C35.5923 8.11818 35.7525 8.11818 35.7525 7.85224V5.6003C35.7525 5.35302 35.457 5.30481 35.3357 5.23949V5.12129C35.9205 4.87246 36.2424 4.66406 36.3139 4.66406C36.3621 4.66406 36.3855 4.68739 36.3855 4.76826V5.48988H36.4026C36.6016 5.17728 36.9391 4.66562 37.4275 4.66562C37.6281 4.66562 37.8831 4.80092 37.8831 5.09019C37.8831 5.30636 37.7323 5.50077 37.5068 5.50077C37.2579 5.50077 37.2579 5.30792 36.978 5.30792C36.8411 5.30792 36.3932 5.49143 36.3932 5.97355V7.85535C36.3932 8.12129 36.5534 8.12129 36.7774 8.12129H37.2268V8.32969C36.7852 8.32192 36.4492 8.31414 36.1055 8.31414C35.7618 8.31414 35.4399 8.32192 35.1506 8.32969V8.12129V8.11818Z" fill="#231F20"/>
<path id="Vector_7" d="M38.2376 7.21305C38.3418 7.74182 38.6637 8.19128 39.2485 8.19128C39.7212 8.19128 39.897 7.90201 39.897 7.62207C39.897 6.6765 38.1505 6.97977 38.1505 5.6905C38.1505 5.24105 38.5113 4.66406 39.3931 4.66406C39.6497 4.66406 39.9934 4.7356 40.306 4.89579L40.362 5.71383H40.1785C40.0991 5.20839 39.8177 4.91912 39.3044 4.91912C38.9825 4.91912 38.6792 5.10419 38.6792 5.44944C38.6792 6.38724 40.5393 6.09952 40.5393 7.35769C40.5393 7.88646 40.1147 8.44789 39.1614 8.44789C38.8394 8.44789 38.4631 8.33591 38.1831 8.17573L38.0945 7.25349L38.2376 7.21305Z" fill="#231F20"/>
<path id="Vector_8" d="M47.7773 4.18197H47.5767C47.4243 3.24418 46.7586 2.86782 45.8628 2.86782C44.967 2.86782 43.6 3.48523 43.6 5.40747C43.6 7.028 44.7571 8.1913 45.9904 8.1913C46.7835 8.1913 47.4414 7.64698 47.6031 6.80405L47.7866 6.85226L47.6031 8.02334C47.2656 8.23173 46.359 8.44791 45.8302 8.44791C43.9546 8.44791 42.7695 7.23796 42.7695 5.43391C42.7695 3.79005 44.2361 2.61121 45.8069 2.61121C46.4569 2.61121 47.0806 2.8196 47.698 3.03578L47.7773 4.18197Z" fill="#231F20"/>
<path id="Vector_9" d="M48.0667 8.11823H48.2191C48.4446 8.11823 48.6048 8.11823 48.6048 7.85228V3.38883C48.6048 2.86628 48.485 2.85073 48.1802 2.76208V2.633C48.5006 2.5288 48.838 2.38572 49.006 2.28774C49.0931 2.23953 49.1584 2.1991 49.1817 2.1991C49.2299 2.1991 49.2455 2.24731 49.2455 2.31263V7.85073C49.2455 8.11667 49.4228 8.11667 49.6467 8.11667H49.7836V8.32507C49.513 8.32507 49.2315 8.30952 48.9407 8.30952C48.6499 8.30952 48.3653 8.31729 48.0667 8.32507V8.11667V8.11823Z" fill="#231F20"/>
<path id="Vector_10" d="M53.2144 7.88649C53.2144 8.03112 53.3015 8.0389 53.4383 8.0389C53.5332 8.0389 53.6545 8.03112 53.7603 8.03112V8.19908C53.4135 8.23019 52.7572 8.39971 52.6048 8.44636L52.5659 8.42303V7.77451C52.0853 8.16642 51.7152 8.44636 51.146 8.44636C50.7136 8.44636 50.2657 8.16642 50.2657 7.49302V5.44014C50.2657 5.23174 50.2331 5.02957 49.7852 4.99069V4.83828C50.0744 4.82894 50.7136 4.78229 50.8194 4.78229C50.908 4.78229 50.908 4.83828 50.908 5.01401V7.08244C50.908 7.32195 50.908 8.01246 51.6047 8.01246C51.8769 8.01246 52.2377 7.80406 52.5736 7.52568V5.36705C52.5736 5.20686 52.1895 5.11977 51.9018 5.0389V4.89426C52.6234 4.84605 53.0729 4.78229 53.1522 4.78229C53.2159 4.78229 53.2159 4.83828 53.2159 4.92692V7.88338L53.2144 7.88649Z" fill="#231F20"/>
<path id="Vector_11" d="M54.8099 5.24103C55.1303 4.96887 55.5642 4.6656 56.0043 4.6656C56.9344 4.6656 57.4958 5.47587 57.4958 6.34834C57.4958 7.3981 56.726 8.44943 55.5782 8.44943C54.9841 8.44943 54.6731 8.25658 54.4647 8.16949L54.2252 8.353L54.0572 8.26591C54.1272 7.79313 54.1692 7.32812 54.1692 6.83823V3.39188C54.1692 2.86933 54.0495 2.85378 53.7446 2.76513V2.63605C54.0666 2.53185 54.4025 2.38877 54.5704 2.2908C54.6575 2.24258 54.7229 2.20215 54.7477 2.20215C54.796 2.20215 54.8115 2.25036 54.8115 2.31568V5.24103H54.8099ZM54.8099 7.42143C54.8099 7.72625 55.0992 8.23947 55.6358 8.23947C56.4942 8.23947 56.855 7.39655 56.855 6.68426C56.855 5.81957 56.1972 5.09795 55.572 5.09795C55.2734 5.09795 55.0261 5.2908 54.8099 5.47587V7.42299V7.42143Z" fill="#231F20"/>
<path id="Vector_12" d="M20.2222 12.9891H20.2828C20.4399 12.9891 20.6063 12.9689 20.6063 12.7403V10.4557C20.6063 10.2286 20.4399 10.2068 20.2828 10.2068H20.2222V10.0746C20.3932 10.0746 20.6545 10.0933 20.8676 10.0933C21.0806 10.0933 21.3466 10.0746 21.5519 10.0746V10.2068H21.4912C21.3341 10.2068 21.1677 10.2271 21.1677 10.4557V12.7403C21.1677 12.9673 21.3341 12.9891 21.4912 12.9891H21.5519V13.1213C21.3435 13.1213 21.0806 13.1042 20.8629 13.1042C20.6452 13.1042 20.3917 13.1213 20.2222 13.1213V12.9891Z" fill="#231F20"/>
<path id="Vector_13" d="M21.5517 13.1384C21.3418 13.1384 21.079 13.1213 20.8628 13.1213C20.6466 13.1213 20.3931 13.1384 20.222 13.1384H20.2034V12.9705H20.2827C20.4413 12.9674 20.5844 12.9534 20.586 12.7403V10.4557C20.586 10.2426 20.4413 10.2286 20.2827 10.2255H20.2034V10.0576H20.222C20.3931 10.0576 20.6544 10.0747 20.8674 10.0747C21.0805 10.0747 21.3449 10.0576 21.5517 10.0576H21.5704V10.2255H21.4911C21.3325 10.2286 21.1878 10.2426 21.1863 10.4557V12.7403C21.1863 12.9534 21.3325 12.9674 21.4911 12.9705H21.5704V13.1384H21.5517ZM21.5331 13.1011V13.0078H21.4911C21.3356 13.0078 21.1489 12.9798 21.1489 12.7387V10.4541C21.1489 10.2131 21.3356 10.1866 21.4911 10.1866H21.5331V10.0949C21.3325 10.0949 21.079 10.112 20.8674 10.112C20.6559 10.112 20.4087 10.0964 20.2407 10.0949V10.1866H20.2827C20.4382 10.1866 20.6233 10.2131 20.6233 10.4541V12.7387C20.6233 12.9798 20.4367 13.0078 20.2827 13.0078H20.2407V13.1011C20.4087 13.098 20.6559 13.084 20.8628 13.084C21.0696 13.084 21.3278 13.0995 21.5331 13.1011Z" fill="#231F20"/>
<path id="Vector_14" d="M24.5487 12.2613L24.5581 12.2519V10.6159C24.5581 10.2582 24.3092 10.2068 24.1786 10.2068H24.0837V10.0746C24.289 10.0746 24.4896 10.0918 24.6949 10.0918C24.8738 10.0918 25.0526 10.0746 25.2315 10.0746V10.2068H25.1677C24.9842 10.2068 24.7774 10.2411 24.7774 10.7605V12.7465C24.7774 12.8989 24.782 13.0513 24.8038 13.1866H24.6374L22.3901 10.6827V12.479C22.3901 12.86 22.4632 12.9891 22.8007 12.9891H22.8738V13.1213C22.6872 13.1213 22.499 13.1042 22.3108 13.1042C22.1226 13.1042 21.9142 13.1213 21.7183 13.1213V12.9891H21.7789C22.0806 12.9891 22.1724 12.7854 22.1724 12.4355V10.5988C22.1724 10.3546 21.9702 10.2068 21.7742 10.2068H21.7183V10.0746C21.8831 10.0746 22.0542 10.0918 22.219 10.0918C22.3497 10.0918 22.4772 10.0746 22.6078 10.0746L24.5503 12.2613H24.5487Z" fill="#231F20"/>
<path id="Vector_15" d="M24.8023 13.2053L24.6219 13.1991L22.4073 10.7325V12.4805C22.4135 12.86 22.471 12.9673 22.7992 12.9735H22.8925V13.1415H22.8723C22.6841 13.1415 22.4959 13.1244 22.3093 13.1244C22.1227 13.1244 21.9143 13.1415 21.7152 13.1415H21.6965V12.9735H21.7774C22.0667 12.9704 22.1475 12.7854 22.1522 12.4386V10.6018C22.1522 10.3701 21.9609 10.2286 21.7743 10.2286H21.6981V10.0606H21.7167C21.8847 10.0606 22.0542 10.0777 22.2191 10.0777C22.3482 10.0777 22.4757 10.0606 22.6219 10.0669L24.5395 12.2239V10.619C24.5363 10.2721 24.3062 10.2302 24.1786 10.227H24.0636V10.0591H24.0838C24.2891 10.0591 24.4912 10.0762 24.695 10.0762C24.8723 10.0762 25.0511 10.0591 25.2315 10.0591H25.2517V10.227H25.1678C24.9874 10.2317 24.8023 10.2488 24.7976 10.762V12.748C24.7976 12.8989 24.8023 13.0513 24.8225 13.1851L24.8256 13.2068H24.8038L24.8023 13.2053ZM24.6359 13.1664H24.7805C24.7603 13.0358 24.7572 12.8896 24.7572 12.7449V10.7589C24.7572 10.2348 24.9765 10.1866 25.1646 10.1866H25.2113V10.0933C25.0387 10.0933 24.8676 10.1104 24.6934 10.1104C24.4928 10.1104 24.2984 10.0949 24.1009 10.0933V10.1866H24.1771C24.3124 10.1866 24.5752 10.2457 24.5752 10.6158L24.5706 12.2644L24.5612 12.2721L24.5457 12.2861L22.6063 10.0933C22.4757 10.0933 22.3497 10.1104 22.2175 10.1104C22.0573 10.1104 21.894 10.0949 21.7354 10.0933V10.1866H21.7727C21.978 10.1866 22.188 10.3421 22.188 10.5972V12.4339C22.188 12.7838 22.09 13.0062 21.7774 13.0078H21.7354V13.1011C21.9236 13.098 22.118 13.0824 22.3093 13.0824C22.5006 13.0824 22.6732 13.098 22.8536 13.1011V13.0078H22.7992C22.4555 13.0078 22.3699 12.8585 22.3699 12.4774V10.6314L24.6359 13.1648V13.1664Z" fill="#231F20"/>
<path id="Vector_16" d="M25.883 10.2924C25.5548 10.2924 25.5439 10.3717 25.4771 10.689H25.3464C25.3635 10.5677 25.3853 10.4448 25.3993 10.3173C25.4164 10.196 25.4258 10.0731 25.4258 9.94714H25.5315C25.5657 10.0778 25.6746 10.0731 25.7928 10.0731H28.0432C28.1614 10.0731 28.2702 10.07 28.2796 9.93781L28.3838 9.95647C28.3682 10.0731 28.3495 10.1913 28.3371 10.3095C28.3278 10.4277 28.3278 10.5459 28.3278 10.6625L28.1971 10.7107C28.1878 10.549 28.166 10.2908 27.8737 10.2908H27.1583V12.6112C27.1583 12.9487 27.3107 12.986 27.5206 12.986H27.603V13.1167C27.4335 13.1167 27.1272 13.0995 26.8923 13.0995C26.631 13.0995 26.3247 13.1167 26.1551 13.1167V12.986H26.2376C26.4786 12.986 26.5999 12.9642 26.5999 12.6205V10.2893H25.8845L25.883 10.2924Z" fill="#231F20"/>
<path id="Vector_17" d="M27.6031 13.1384C27.4305 13.1384 27.1257 13.1213 26.8908 13.1213C26.6296 13.1213 26.3247 13.1384 26.1537 13.1384H26.135V12.9704H26.2361C26.4771 12.9642 26.5736 12.9611 26.5782 12.6236V10.311H25.8815V10.2737H26.6156V12.6221C26.6156 12.972 26.474 13.0077 26.2345 13.0077H26.1708V13.0995C26.3434 13.0995 26.6358 13.0824 26.8893 13.0824C27.1163 13.0824 27.4087 13.0979 27.5813 13.0995V13.0077H27.5176C27.3061 13.0077 27.1366 12.9564 27.1366 12.6127V10.2737H27.8706C28.163 10.2737 28.2019 10.5225 28.2112 10.6843L28.3061 10.65C28.3061 10.5365 28.3061 10.423 28.3138 10.3079C28.3263 10.1959 28.3418 10.0855 28.3589 9.97353L28.2921 9.96264C28.2703 10.0886 28.149 10.0964 28.0401 10.0948H25.7664C25.6638 10.0948 25.5518 10.0902 25.5129 9.96887H25.4398C25.4398 10.0902 25.4305 10.2068 25.4134 10.3235C25.4009 10.4432 25.3823 10.5583 25.3652 10.6718H25.4585C25.516 10.3686 25.5534 10.2706 25.8784 10.2752V10.3126C25.5565 10.3188 25.5642 10.3732 25.4911 10.6951L25.488 10.7107H25.3201L25.3232 10.6889C25.3403 10.5676 25.3636 10.4448 25.3761 10.3172C25.3932 10.1959 25.4025 10.0746 25.4025 9.9502V9.93154H25.5409L25.544 9.94554C25.5736 10.056 25.6544 10.056 25.7649 10.0591H28.0386C28.1599 10.056 28.2485 10.0544 28.2563 9.94087V9.92065L28.2781 9.92376L28.4009 9.94243V9.96109C28.3823 10.0793 28.3652 10.1959 28.3527 10.3126C28.3434 10.4292 28.3434 10.5474 28.3434 10.6656V10.6796L28.331 10.6843L28.1754 10.7402V10.7138C28.163 10.5505 28.1459 10.3126 27.8706 10.3126H27.1739V12.6143C27.1785 12.944 27.3092 12.9673 27.5176 12.9704H27.6187V13.1384H27.6016H27.6031Z" fill="#231F20"/>
<path id="Vector_18" d="M28.5223 12.9891H28.583C28.74 12.9891 28.9049 12.9689 28.9049 12.7403V10.4557C28.9049 10.2286 28.7385 10.2068 28.583 10.2068H28.5223V10.0746C28.7867 10.0746 29.2424 10.0933 29.6078 10.0933C29.9733 10.0933 30.4274 10.0746 30.7245 10.0746C30.7167 10.2628 30.7214 10.5521 30.7338 10.7434L30.6016 10.7776C30.5814 10.4946 30.5285 10.2675 30.0697 10.2675H29.4648V11.409H29.9827C30.2455 11.409 30.3015 11.2613 30.3279 11.0264H30.4585C30.4508 11.196 30.4461 11.367 30.4461 11.5365C30.4461 11.7061 30.4508 11.8678 30.4585 12.0342L30.3279 12.0606C30.303 11.7994 30.289 11.6283 29.9873 11.6283H29.4648V12.6439C29.4648 12.9269 29.7167 12.9269 29.9951 12.9269C30.5192 12.9269 30.7494 12.8927 30.8816 12.395L31.0029 12.4261C30.9469 12.6579 30.894 12.888 30.8551 13.1197C30.5767 13.1197 30.0744 13.1026 29.6809 13.1026C29.2875 13.1026 28.7696 13.1197 28.5208 13.1197V12.9876L28.5223 12.9891Z" fill="#231F20"/>
<path id="Vector_19" d="M30.855 13.1384C30.575 13.1384 30.0743 13.1213 29.6808 13.1213C29.2873 13.1213 28.7694 13.1384 28.5206 13.1384H28.502V12.9704H28.5813C28.7383 12.9673 28.883 12.9533 28.8845 12.7403V10.4541C28.8845 10.241 28.7383 10.227 28.5813 10.2239H28.502V10.056H28.5206C28.7866 10.056 29.2407 10.0731 29.6062 10.0731C29.9716 10.0731 30.4257 10.056 30.7228 10.056H30.743V10.0746C30.7399 10.1399 30.7383 10.2177 30.7383 10.3001C30.7383 10.4494 30.743 10.6143 30.7523 10.7387V10.7543L30.7383 10.7589L30.5844 10.7994V10.776C30.5579 10.493 30.5206 10.2877 30.0712 10.283H29.4833V11.3872H29.9825C30.2345 11.3857 30.278 11.2566 30.3091 11.0218V11.0046H30.4786V11.0233C30.4693 11.1928 30.4646 11.3639 30.4646 11.5334C30.4646 11.7029 30.4693 11.8647 30.4786 12.0311V12.0466L30.4631 12.0497L30.3107 12.0793V12.0591C30.2796 11.7931 30.278 11.6469 29.9872 11.6438H29.4817V12.6407C29.4817 12.9051 29.7104 12.9051 29.995 12.9051C30.5206 12.902 30.7306 12.8771 30.8628 12.3872L30.8674 12.3701L30.8861 12.3732L31.0261 12.409L31.0229 12.4277C30.967 12.6578 30.9141 12.8896 30.8752 13.1197L30.8721 13.1353H30.8565L30.855 13.1384ZM30.8394 13.1011C30.8768 12.8818 30.9265 12.6609 30.981 12.4417L30.8954 12.4199C30.7648 12.9082 30.5113 12.9518 29.9965 12.9471C29.7212 12.9471 29.446 12.9471 29.446 12.6454V11.6112H29.9887C30.2936 11.6081 30.3231 11.7916 30.3449 12.0404L30.4397 12.0202C30.432 11.86 30.4273 11.6983 30.4273 11.5381C30.4273 11.3779 30.432 11.2115 30.4397 11.0451H30.3449C30.3215 11.2737 30.25 11.4323 29.9841 11.4292H29.446V10.2488H30.0712C30.5253 10.2457 30.6015 10.4805 30.6201 10.7543L30.7135 10.7294C30.7057 10.6065 30.7026 10.4494 30.7026 10.3032C30.7026 10.227 30.7026 10.1571 30.7057 10.0964C30.4102 10.0964 29.967 10.1135 29.6093 10.1135C29.2516 10.1135 28.8099 10.098 28.5424 10.0964V10.1897H28.5844C28.7399 10.1897 28.925 10.2162 28.9265 10.4572V12.7434C28.9265 12.9844 28.7399 13.0093 28.5844 13.0124H28.5424V13.1042C28.7959 13.1042 29.3013 13.0871 29.6839 13.0871C30.0665 13.0871 30.5595 13.1026 30.841 13.1042" fill="#231F20"/>
<path id="Vector_20" d="M31.5939 10.5381C31.5939 10.2193 31.4197 10.2068 31.2844 10.2068H31.2051V10.0746C31.345 10.0746 31.6157 10.0918 31.8816 10.0918C32.1475 10.0918 32.3528 10.0746 32.5845 10.0746C33.1335 10.0746 33.6219 10.2239 33.6219 10.8429C33.6219 11.2348 33.3606 11.4743 33.0169 11.6112L33.7634 12.7263C33.8847 12.9113 33.9718 12.9627 34.1864 12.9876V13.1182C34.0433 13.1182 33.9034 13.1011 33.7587 13.1011C33.6219 13.1011 33.4835 13.1182 33.3482 13.1182C33.0122 12.6781 32.7245 12.2068 32.4415 11.7045H32.1538V12.6376C32.1538 12.9751 32.3093 12.986 32.5099 12.986H32.5892V13.1166C32.3388 13.1166 32.0869 13.0995 31.838 13.0995C31.6296 13.0995 31.4244 13.1166 31.2051 13.1166V12.986H31.2844C31.4446 12.986 31.5939 12.9129 31.5939 12.7512V10.535V10.5381ZM32.1522 11.549H32.3653C32.8023 11.549 33.0371 11.3841 33.0371 10.8694C33.0371 10.4821 32.7883 10.2317 32.3995 10.2317C32.2673 10.2317 32.2113 10.2457 32.1522 10.2488V11.549Z" fill="#231F20"/>
<path id="Vector_21" d="M34.1833 13.1384C34.0372 13.1384 33.8987 13.1213 33.7541 13.1213C33.6219 13.1213 33.4819 13.1384 33.3295 13.1322C32.9952 12.692 32.709 12.2239 32.4275 11.7247H32.1694V12.6392C32.174 12.9673 32.3062 12.9642 32.5068 12.9704H32.6048V13.1384H32.5846C32.3342 13.1384 32.0807 13.1213 31.8334 13.1213C31.625 13.1213 31.4213 13.1384 31.2005 13.1384H31.1833V12.9704H31.2813C31.4384 12.9704 31.5706 12.9004 31.5706 12.7527V10.5365C31.5675 10.227 31.4151 10.2286 31.2813 10.2239H31.1833V10.056H31.2005C31.3435 10.056 31.611 10.0731 31.8785 10.0731C32.146 10.0731 32.3482 10.056 32.5815 10.056C33.1305 10.056 33.6375 10.2084 33.639 10.8413C33.639 11.2348 33.3778 11.4805 33.0418 11.619L33.7743 12.7169C33.8956 12.8989 33.9718 12.944 34.1849 12.9704H34.2005V13.1384H34.1818H34.1833ZM32.1507 11.6874H32.4493L32.454 11.6967C32.737 12.199 33.0247 12.6687 33.3466 13.1011C33.4804 13.1011 33.6204 13.084 33.7557 13.084C33.891 13.084 34.0294 13.0995 34.1662 13.1011V13.0046C33.961 12.9798 33.8661 12.9191 33.7463 12.7387L32.9858 11.6034L33.0076 11.5941C33.3482 11.4603 33.6017 11.227 33.6017 10.8429C33.6017 10.2379 33.1305 10.0964 32.583 10.0948C32.3529 10.0948 32.1414 10.112 31.8801 10.112C31.6188 10.112 31.3653 10.0964 31.2222 10.0948V10.1882H31.2829C31.4182 10.1882 31.611 10.2099 31.611 10.5381V12.7543C31.611 12.93 31.4477 13.0093 31.2829 13.0093H31.2222V13.1011C31.4322 13.1011 31.6312 13.084 31.835 13.084C32.0791 13.084 32.3249 13.0995 32.5675 13.1011V13.0093H32.5084C32.3093 13.0093 32.132 12.9844 32.132 12.6407V11.6889H32.1507V11.6874ZM32.1507 11.5676H32.132V10.2317H32.1476C32.2082 10.2255 32.2658 10.2146 32.398 10.2146C32.7945 10.2146 33.0543 10.4728 33.0543 10.8709C33.0543 11.3919 32.8023 11.5692 32.3638 11.5692H32.1507V11.5676ZM32.3653 11.5303C32.7961 11.5256 33.0154 11.3763 33.0185 10.8693C33.0169 10.4883 32.779 10.2519 32.3995 10.2504C32.2813 10.2504 32.2269 10.2613 32.1709 10.2675V11.5303H32.3653Z" fill="#231F20"/>
<path id="Vector_22" d="M37.1459 12.2613L37.1537 12.2519V10.6159C37.1537 10.2582 36.9049 10.2068 36.7758 10.2068H36.6793V10.0746C36.8846 10.0746 37.0837 10.0918 37.2905 10.0918C37.4694 10.0918 37.6482 10.0746 37.8271 10.0746V10.2068H37.7618C37.5783 10.2068 37.373 10.2411 37.373 10.7605V12.7465C37.373 12.8989 37.3761 13.0513 37.3979 13.1866H37.233L34.9857 10.6827V12.479C34.9857 12.86 35.0604 12.9891 35.3963 12.9891H35.4709V13.1213C35.2828 13.1213 35.0946 13.1042 34.908 13.1042C34.7213 13.1042 34.5114 13.1213 34.3154 13.1213V12.9891H34.3761C34.6778 12.9891 34.7696 12.7854 34.7696 12.4355V10.5988C34.7696 10.3546 34.5689 10.2068 34.373 10.2068H34.317V10.0746C34.4818 10.0746 34.6529 10.0918 34.8178 10.0918C34.9484 10.0918 35.0744 10.0746 35.205 10.0746L37.1459 12.2613Z" fill="#231F20"/>
<path id="Vector_23" d="M37.3978 13.2053L37.219 13.1991L35.0059 10.7325V12.4806C35.0106 12.8616 35.0681 12.9674 35.3978 12.9736H35.4896V13.1415H35.4709C35.2827 13.1415 35.0945 13.1244 34.9079 13.1244C34.7213 13.1244 34.5098 13.1415 34.3154 13.1415H34.2952V12.9736H34.3745C34.6622 12.9736 34.7462 12.7854 34.7493 12.437V10.6003C34.7493 10.367 34.5596 10.2271 34.3714 10.2271H34.2952V10.0591H34.3154C34.4818 10.0591 34.6529 10.0762 34.8162 10.0762C34.9452 10.0762 35.0712 10.0591 35.2174 10.0638L37.135 12.2224V10.6174C37.135 10.2706 36.9017 10.2271 36.7757 10.2255H36.6606V10.0576H36.6793C36.8861 10.0576 37.0868 10.0747 37.2905 10.0747C37.4678 10.0747 37.6466 10.0576 37.827 10.0576H37.8457V10.2255H37.7617C37.5813 10.2302 37.3963 10.2473 37.3916 10.7605V12.7465C37.3916 12.8974 37.3947 13.0482 37.418 13.1835V13.2053H37.3994H37.3978ZM37.233 13.1664H37.376C37.3574 13.0358 37.3543 12.8896 37.3543 12.745V10.759C37.3543 10.2349 37.5751 10.1882 37.7617 10.1866H37.8068V10.0933C37.6358 10.0933 37.4631 10.1104 37.2889 10.1104C37.0883 10.1104 36.8939 10.0949 36.6964 10.0933V10.1866H36.7742C36.9079 10.1866 37.1723 10.2457 37.1723 10.6159L37.1661 12.2644L37.1583 12.2722L37.1443 12.2877L35.2034 10.0933C35.0743 10.0933 34.9468 10.1104 34.8162 10.1104C34.6544 10.1104 34.4911 10.0949 34.3325 10.0933V10.1866H34.3698C34.5751 10.1866 34.7851 10.3422 34.7851 10.5972V12.4339C34.7851 12.7838 34.6855 13.0062 34.3729 13.0078H34.3309V13.0995C34.5191 13.0995 34.7135 13.0824 34.9064 13.0824C35.0992 13.0824 35.2703 13.098 35.4507 13.0995V13.0078H35.3963C35.0526 13.0078 34.967 12.8585 34.9655 12.4775V10.6314L37.233 13.1649V13.1664Z" fill="#231F20"/>
<path id="Vector_24" d="M38.5284 12.4961C38.4833 12.6439 38.4304 12.7589 38.4304 12.8367C38.4304 12.9673 38.6155 12.9891 38.7586 12.9891H38.8068V13.1198C38.6311 13.1104 38.4538 13.1027 38.278 13.1027C38.1209 13.1027 37.9639 13.1104 37.8083 13.1198V12.9891H37.8332C38.0028 12.9891 38.1474 12.8896 38.2111 12.7061L38.9094 10.7045C38.9654 10.5428 39.0463 10.325 39.0712 10.1617C39.2111 10.1135 39.3853 10.028 39.4693 9.97512C39.4833 9.97046 39.4895 9.96735 39.5035 9.96735C39.516 9.96735 39.5253 9.96735 39.5346 9.97979C39.5471 10.014 39.5611 10.0544 39.5751 10.0887L40.3776 12.3701C40.4304 12.5226 40.4818 12.6843 40.5393 12.8149C40.5922 12.9362 40.6839 12.9876 40.8286 12.9876H40.8535V13.1182C40.6575 13.1089 40.4615 13.1011 40.2516 13.1011C40.0416 13.1011 39.8192 13.1089 39.5984 13.1182V12.9876H39.6466C39.7461 12.9876 39.9172 12.972 39.9172 12.8616C39.9172 12.804 39.8783 12.6874 39.8286 12.5474L39.6591 12.042H38.6684L38.53 12.4961H38.5284ZM39.1645 10.563H39.1552L38.7493 11.7978H39.5642L39.1629 10.563H39.1645Z" fill="#231F20"/>
<path id="Vector_25" d="M40.8521 13.1384C40.6577 13.1306 40.4602 13.1213 40.2518 13.1213C40.0434 13.1213 39.821 13.1306 39.5986 13.1384H39.5784V13.1197V12.9689H39.6453C39.7448 12.9689 39.8956 12.9471 39.8956 12.8631C39.8956 12.8134 39.8583 12.6936 39.8101 12.5552L39.6437 12.0622H38.681L38.5442 12.5023C38.4991 12.6516 38.4477 12.7667 38.4477 12.8367C38.4477 12.9424 38.6126 12.9689 38.7572 12.9689H38.8241V13.14H38.8039C38.6297 13.1306 38.4509 13.1213 38.2767 13.1213C38.1196 13.1213 37.9625 13.1306 37.807 13.1384H37.7883V13.1197V12.9689H37.8319C37.9936 12.9689 38.1289 12.8756 38.1927 12.6983L38.891 10.6967C38.9485 10.535 39.0263 10.3173 39.0652 10.1446C39.202 10.0964 39.3762 10.0093 39.4617 9.95644C39.4742 9.95178 39.4851 9.94556 39.5037 9.94556C39.5146 9.94556 39.5379 9.94867 39.5519 9.972C39.5659 10.0078 39.5784 10.0466 39.5924 10.0809L40.3964 12.3624C40.4477 12.5148 40.5006 12.6765 40.5566 12.804C40.6064 12.9207 40.6872 12.9673 40.8272 12.9673H40.8723V13.1384H40.8521ZM39.6157 13.0995C39.8303 13.0933 40.0434 13.084 40.2518 13.084C40.4602 13.084 40.6437 13.0933 40.8334 13.0995V13.0093H40.8272C40.6779 13.0093 40.5753 12.9502 40.5208 12.8227C40.4648 12.6905 40.4104 12.5288 40.3591 12.3763L39.5566 10.0949C39.5426 10.0591 39.5302 10.0202 39.5193 9.9891C39.5146 9.98444 39.5162 9.98444 39.5131 9.98444H39.5053C39.496 9.98444 39.4913 9.98755 39.4804 9.99066C39.3964 10.0451 39.2207 10.1306 39.0916 10.1648C39.0652 10.3312 38.9858 10.5474 38.9299 10.7092L38.2331 12.7123C38.1662 12.902 38.0138 13.0093 37.835 13.0093H37.8288V13.0995C37.9781 13.0933 38.1289 13.084 38.2813 13.084C38.4493 13.084 38.6219 13.0933 38.7883 13.0995V13.0093H38.7603C38.6173 13.0078 38.4197 12.9922 38.4151 12.8367C38.4151 12.7496 38.468 12.6376 38.5115 12.4914L38.5302 12.4961L38.5115 12.4899L38.6546 12.0233H39.6701L39.8459 12.5412C39.8956 12.6812 39.9345 12.7978 39.9345 12.8616C39.9283 12.9953 39.7448 13.0047 39.6453 13.0078H39.6157V13.098V13.0995ZM38.723 11.818L39.1414 10.5459H39.1647H39.1771L39.5908 11.818H38.723ZM38.7759 11.7791H39.5395L39.16 10.6096L38.7759 11.7791Z" fill="#231F20"/>
<path id="Vector_26" d="M41.0448 10.2924C40.7167 10.2924 40.7043 10.3717 40.6389 10.689H40.5083C40.5254 10.5677 40.5487 10.4448 40.5612 10.3173C40.5783 10.196 40.5876 10.0731 40.5876 9.94714H40.6918C40.726 10.0778 40.8364 10.0731 40.9531 10.0731H43.2035C43.3217 10.0731 43.429 10.07 43.4383 9.93781L43.5441 9.95647C43.527 10.0731 43.5099 10.1913 43.4959 10.3095C43.485 10.4277 43.485 10.5459 43.485 10.6625L43.3559 10.7107C43.3481 10.549 43.3263 10.2908 43.034 10.2908H42.3186V12.6112C42.3186 12.9487 42.471 12.986 42.6809 12.986H42.7634V13.1167C42.5938 13.1167 42.289 13.0995 42.0526 13.0995C41.7913 13.0995 41.485 13.1167 41.3139 13.1167V12.986H41.3979C41.6389 12.986 41.7618 12.9642 41.7618 12.6205V10.2893H41.0464L41.0448 10.2924Z" fill="#231F20"/>
<path id="Vector_27" d="M42.7632 13.1384C42.5937 13.1384 42.2874 13.1213 42.0525 13.1213C41.7912 13.1213 41.4864 13.1384 41.3138 13.1384H41.2951V12.9705H41.3962C41.6373 12.9642 41.7321 12.9611 41.7384 12.6236V10.311H41.0432V10.2737H41.7772V12.6221C41.7772 12.972 41.6373 13.0062 41.3962 13.0078H41.3325V13.0995C41.5051 13.098 41.7975 13.0824 42.051 13.0824C42.278 13.0824 42.5704 13.098 42.743 13.0995V13.0078H42.6777C42.4678 13.0062 42.2982 12.9565 42.2982 12.6128V10.2737H43.0323C43.3262 10.2737 43.3636 10.5225 43.3729 10.6843L43.4678 10.6501C43.4678 10.5365 43.4678 10.423 43.4771 10.3079C43.4895 10.196 43.5066 10.084 43.5222 9.97356L43.4569 9.96112C43.4351 10.0871 43.3138 10.0949 43.2034 10.0933H40.9297C40.827 10.0933 40.7166 10.0886 40.6762 9.96579H40.6046C40.6046 10.0886 40.5953 10.2037 40.5782 10.3219C40.5657 10.4417 40.5455 10.5568 40.5284 10.6703H40.6217C40.6793 10.367 40.7166 10.2675 41.0432 10.2737V10.311C40.7197 10.3173 40.7275 10.3717 40.6559 10.6936L40.6528 10.7092H40.4849L40.488 10.6874C40.5051 10.5661 40.5284 10.4432 40.5409 10.3173C40.558 10.1944 40.5673 10.0731 40.5673 9.94868V9.93001H40.7057L40.7088 9.94401C40.7399 10.0544 40.8208 10.0544 40.9312 10.0575H43.2049C43.3262 10.0544 43.4149 10.0529 43.4211 9.93935V9.91913L43.4429 9.92224L43.5673 9.9409L43.5642 9.95956C43.5455 10.0778 43.53 10.1944 43.516 10.311C43.5082 10.4277 43.5082 10.5459 43.5082 10.6641V10.6781L43.4942 10.6827L43.3387 10.7387V10.7123C43.3278 10.549 43.3107 10.311 43.0339 10.311H42.3371V12.6128C42.3418 12.9425 42.4724 12.9658 42.6793 12.9689H42.7819V13.1369H42.7632V13.1384Z" fill="#231F20"/>
<path id="Vector_28" d="M43.7043 12.9891H43.765C43.9236 12.9891 44.0885 12.9689 44.0885 12.7403V10.4557C44.0885 10.2286 43.9236 10.2068 43.765 10.2068H43.7043V10.0746C43.8739 10.0746 44.1351 10.0933 44.3498 10.0933C44.5644 10.0933 44.8303 10.0746 45.0356 10.0746V10.2068H44.975C44.8163 10.2068 44.6499 10.2271 44.6499 10.4557V12.7403C44.6499 12.9673 44.8163 12.9891 44.975 12.9891H45.0356V13.1213C44.8257 13.1213 44.5644 13.1042 44.3451 13.1042C44.1258 13.1042 43.8739 13.1213 43.7043 13.1213V12.9891Z" fill="#231F20"/>
<path id="Vector_29" d="M45.0355 13.1384C44.824 13.1384 44.5627 13.1213 44.345 13.1213C44.1272 13.1213 43.8737 13.1384 43.7042 13.1384H43.6855V12.9704H43.7649C43.9235 12.9673 44.0666 12.9533 44.0681 12.7403V10.4541C44.0681 10.241 43.9235 10.227 43.7649 10.2239H43.6855V10.056H43.7042C43.8737 10.056 44.1366 10.0731 44.3496 10.0731C44.5627 10.0731 44.8286 10.056 45.0355 10.056H45.0526V10.2239H44.9733C44.8131 10.227 44.67 10.2426 44.6684 10.4541V12.7403C44.6684 12.9533 44.8131 12.9673 44.9733 12.9704H45.0526V13.1384H45.0355ZM45.0152 13.1011V13.0093H44.9748C44.8177 13.0093 44.6327 12.9813 44.6327 12.7403V10.4541C44.6327 10.213 44.8177 10.1866 44.9748 10.1866H45.0152V10.0933C44.8146 10.0933 44.5627 10.1104 44.3496 10.1104C44.1366 10.1104 43.8924 10.0948 43.7229 10.0933V10.1866H43.7649C43.9204 10.1866 44.107 10.213 44.107 10.4541V12.7403C44.107 12.9813 43.9204 13.0093 43.7649 13.0093H43.7229V13.1011C43.8908 13.098 44.1381 13.084 44.345 13.084C44.5518 13.084 44.81 13.0995 45.0152 13.1011Z" fill="#231F20"/>
<path id="Vector_30" d="M46.7757 10.0093C47.7057 10.0093 48.446 10.5848 48.446 11.5148C48.446 12.5179 47.7259 13.1851 46.7974 13.1851C45.869 13.1851 45.166 12.5583 45.166 11.619C45.166 10.6796 45.8674 10.0093 46.7741 10.0093M46.841 12.9938C47.6886 12.9938 47.8348 12.2473 47.8348 11.6112C47.8348 10.9751 47.4911 10.2022 46.7679 10.2022C46.0043 10.2022 45.7788 10.8818 45.7788 11.4666C45.7788 12.2473 46.1365 12.9938 46.8425 12.9938" fill="#231F20"/>
<path id="Vector_31" d="M45.1476 11.619C45.1507 10.7014 45.8598 9.99225 46.7759 9.98914V10.028C45.8785 10.028 45.1833 10.7216 45.1833 11.619C45.1833 12.5459 45.8816 13.1649 46.7976 13.1664C47.7168 13.1664 48.4259 12.5086 48.429 11.5148C48.429 10.5972 47.6981 10.0296 46.7759 10.0296V9.99069C47.7121 9.99225 48.4633 10.5739 48.4648 11.5148C48.4648 12.5288 47.737 13.2038 46.7976 13.2053C45.8645 13.2038 45.1491 12.5677 45.146 11.6206M45.7572 11.4666C45.7572 10.8803 45.9889 10.1835 46.7665 10.1835C47.5084 10.1835 47.8536 10.972 47.8536 11.6128C47.8536 12.2489 47.7028 13.0125 46.8396 13.0125V12.9751C47.6701 12.9751 47.8132 12.2473 47.8163 11.6112C47.8163 10.9782 47.4757 10.2209 46.7665 10.2209C46.0185 10.2209 45.7961 10.8865 45.7961 11.4666C45.7961 12.2442 46.1507 12.9736 46.8412 12.9751V13.0125C46.118 13.0125 45.7588 12.252 45.7572 11.4666Z" fill="#231F20"/>
<path id="Vector_32" d="M51.387 12.2613L51.3963 12.2519V10.6159C51.3963 10.2582 51.1475 10.2068 51.0153 10.2068H50.922V10.0746C51.1257 10.0746 51.3279 10.0918 51.5316 10.0918C51.712 10.0918 51.8909 10.0746 52.0682 10.0746V10.2068H52.0028C51.8193 10.2068 51.614 10.2411 51.614 10.7605V12.7465C51.614 12.8989 51.6187 13.0513 51.6405 13.1866H51.4741L49.2283 10.6827V12.479C49.2283 12.86 49.3014 12.9891 49.6389 12.9891H49.712V13.1213C49.5238 13.1213 49.3372 13.1042 49.149 13.1042C48.9608 13.1042 48.7509 13.1213 48.5549 13.1213V12.9891H48.6171C48.9188 12.9891 49.0091 12.7854 49.0091 12.4355V10.5988C49.0091 10.3546 48.81 10.2068 48.6125 10.2068H48.5565V10.0746C48.7229 10.0746 48.8924 10.0918 49.0588 10.0918C49.1895 10.0918 49.3154 10.0746 49.4461 10.0746L51.3885 12.2613H51.387Z" fill="#231F20"/>
<path id="Vector_33" d="M51.6389 13.2053L51.4585 13.1991L49.2455 10.7325V12.4805C49.2501 12.8616 49.3092 12.9673 49.6358 12.972H49.7307V13.1415H49.712C49.5238 13.1415 49.3357 13.1244 49.149 13.1244C48.9624 13.1244 48.7525 13.1415 48.555 13.1415H48.5378V12.972H48.6172C48.9049 12.972 48.9873 12.7854 48.9904 12.4386V10.6018C48.9904 10.3686 48.8007 10.2286 48.6125 10.2286H48.5378V10.0606H48.555C48.7229 10.0606 48.8924 10.0777 49.0573 10.0777C49.1864 10.0777 49.3123 10.0606 49.4601 10.0669L51.3761 12.2239V10.619C51.3761 10.2721 51.1444 10.2302 51.0153 10.227H50.9018V10.0591H50.9204C51.1257 10.0591 51.3279 10.0762 51.5301 10.0762C51.7105 10.0762 51.8862 10.0591 52.0682 10.0591H52.0868V10.227H52.0028C51.824 10.2317 51.6374 10.2488 51.6343 10.762V12.748C51.6343 12.8989 51.6374 13.0513 51.6576 13.1851L51.6607 13.2068H51.6389V13.2053ZM51.4725 13.1664H51.6172C51.5985 13.0358 51.5938 12.8896 51.5938 12.7449V10.7589C51.5938 10.2348 51.8147 10.1882 52.0013 10.1866H52.048V10.0933C51.8753 10.0933 51.7027 10.1104 51.5285 10.1104C51.331 10.1104 51.1366 10.0949 50.9375 10.0933V10.1866H51.0137C51.1506 10.1866 51.4134 10.2473 51.4134 10.6158L51.4088 12.2644L51.401 12.2721L51.387 12.2877L49.4445 10.0933C49.3154 10.0933 49.1879 10.1104 49.0573 10.1104C48.8955 10.1104 48.7322 10.0949 48.5736 10.0933V10.1866H48.6109C48.8162 10.1866 49.0277 10.3421 49.0277 10.5972V12.4339C49.0277 12.7838 48.9298 13.0062 48.6172 13.0078H48.5752V13.0995C48.7649 13.0995 48.9577 13.0824 49.1506 13.0824C49.3326 13.0824 49.5145 13.098 49.6949 13.0995V13.0078H49.6389C49.2968 13.0078 49.2113 12.8585 49.2113 12.4774V10.6314L51.4756 13.1648L51.4725 13.1664Z" fill="#231F20"/>
<path id="Vector_34" d="M52.7681 12.4961C52.7261 12.6439 52.6732 12.7589 52.6732 12.8367C52.6732 12.9673 52.8583 12.9891 52.9998 12.9891H53.048V13.1198C52.8738 13.1104 52.695 13.1027 52.5192 13.1027C52.3606 13.1027 52.2051 13.1104 52.0496 13.1198V12.9891H52.0729C52.244 12.9891 52.3886 12.8896 52.4539 12.7061L53.1522 10.7045C53.2082 10.5428 53.2875 10.325 53.3124 10.1617C53.4524 10.1135 53.6265 10.028 53.709 9.97512C53.723 9.97046 53.7307 9.96735 53.7447 9.96735C53.7587 9.96735 53.765 9.96735 53.7743 9.97979C53.7883 10.014 53.8007 10.0544 53.8147 10.0887L54.6172 12.3701C54.6685 12.5226 54.723 12.6843 54.779 12.8149C54.8303 12.9362 54.9236 12.9876 55.0667 12.9876H55.0931V13.1182C54.8972 13.1089 54.6996 13.1011 54.4912 13.1011C54.2828 13.1011 54.0589 13.1089 53.8365 13.1182V12.9876H53.8847C53.9842 12.9876 54.1553 12.972 54.1553 12.8616C54.1553 12.804 54.1149 12.6874 54.0667 12.5474L53.8972 12.042H52.908L52.7665 12.4961H52.7681ZM53.4057 10.563H53.3964L52.9905 11.7978H53.8085L53.4057 10.563Z" fill="#231F20"/>
<path id="Vector_35" d="M55.0931 13.1384C54.8972 13.1306 54.6997 13.1213 54.4928 13.1213C54.286 13.1213 54.0605 13.1306 53.8381 13.1384H53.8194V13.1197V12.9704H53.8847C53.9858 12.9704 54.1367 12.9471 54.1382 12.8631C54.1382 12.8134 54.0993 12.6936 54.0496 12.5552L53.8847 12.0622H52.9221L52.7883 12.5023C52.7448 12.6516 52.6919 12.7667 52.6934 12.8367C52.6934 12.944 52.8567 12.972 53.0014 12.972H53.0682V13.1415H53.048C52.8738 13.1322 52.695 13.1229 52.5224 13.1229C52.3653 13.1229 52.2082 13.1322 52.0511 13.14H52.0325V13.1213V12.972H52.076C52.2378 12.9704 52.3746 12.8771 52.4384 12.6998L53.1367 10.6983C53.1927 10.5365 53.2704 10.3188 53.3093 10.1462C53.4462 10.098 53.6219 10.0109 53.7059 9.958C53.7168 9.95333 53.7308 9.94867 53.7479 9.94867C53.7588 9.94867 53.7821 9.95022 53.7961 9.97511C53.8085 10.0093 53.821 10.0482 53.835 10.084L54.6374 12.3655C54.6888 12.5179 54.7416 12.6796 54.7992 12.8087C54.8505 12.9253 54.9283 12.9704 55.0698 12.972H55.1149V13.1415H55.0962L55.0931 13.1384ZM53.8567 13.0995C54.0714 13.0917 54.2844 13.084 54.4928 13.084C54.7012 13.084 54.8847 13.0933 55.0745 13.0995V13.0093H55.0682C54.9205 13.0093 54.8163 12.9502 54.7634 12.8227C54.7043 12.6905 54.653 12.5288 54.6017 12.3764L53.7992 10.0949C53.7867 10.0591 53.7712 10.0202 53.7619 9.99066C53.7619 9.99066 53.7598 9.98859 53.7556 9.98444H53.7479C53.7385 9.98444 53.7339 9.98755 53.723 9.99066C53.639 10.0435 53.4648 10.1322 53.3342 10.1648C53.3077 10.3313 53.2284 10.5474 53.1724 10.7092L52.4741 12.7123C52.4073 12.902 52.2564 13.0093 52.076 13.0093H52.0682V13.0995C52.2191 13.0933 52.37 13.084 52.5224 13.084C52.6903 13.084 52.863 13.0933 53.0325 13.0995V13.0093H53.0014C52.8598 13.0078 52.6608 12.9922 52.6561 12.8367C52.6561 12.7512 52.7105 12.6392 52.7541 12.4914L52.7712 12.4961L52.7541 12.4899L52.8972 12.0233H53.9158L54.09 12.5412C54.1382 12.6812 54.1771 12.7978 54.1771 12.8616C54.1709 12.9953 53.9874 13.0047 53.8878 13.0078H53.8598V13.0995H53.8567ZM52.964 11.8165L53.3839 10.5459H53.4042H53.4182L53.8303 11.8165H52.9625H52.964ZM53.0169 11.7792H53.7805L53.3995 10.6112L53.0169 11.7792Z" fill="#231F20"/>
<path id="Vector_36" d="M56.1942 12.6921C56.1942 12.8662 56.3155 12.9191 56.4555 12.9362C56.6343 12.9502 56.8303 12.9502 57.0325 12.9269C57.2144 12.9051 57.373 12.8009 57.4508 12.6905C57.5208 12.5941 57.5581 12.4728 57.5861 12.3764H57.7121C57.6639 12.6252 57.6017 12.8694 57.5503 13.1182C57.1662 13.1182 56.7821 13.1011 56.3995 13.1011C56.0169 13.1011 55.6312 13.1182 55.2471 13.1182V12.986H55.3077C55.4664 12.986 55.6359 12.9658 55.6359 12.6936V10.4526C55.6359 10.2255 55.4664 10.2037 55.3077 10.2037H55.2471V10.0715C55.4788 10.0715 55.7059 10.0886 55.936 10.0886C56.1662 10.0886 56.3777 10.0715 56.6001 10.0715V10.2037H56.4897C56.3248 10.2037 56.1942 10.2084 56.1942 10.4401V12.6905V12.6921Z" fill="#231F20"/>
<path id="Vector_37" d="M57.5485 13.1384C57.1644 13.1384 56.7802 13.1213 56.3976 13.1213C56.0151 13.1213 55.6294 13.1384 55.2437 13.1384H55.2266V12.9705H55.3059C55.4645 12.9674 55.6138 12.9549 55.6154 12.6952V10.4526C55.6154 10.2411 55.4645 10.2255 55.3059 10.2224H55.2266V10.0544H55.2437C55.4754 10.0544 55.7025 10.0716 55.9342 10.0716C56.1659 10.0716 56.3743 10.0544 56.5983 10.0544H56.6154V10.2224H56.4878C56.3183 10.2271 56.2126 10.2193 56.2095 10.4401V12.6905C56.211 12.8523 56.3168 12.8958 56.4552 12.916C56.5314 12.9207 56.6123 12.9238 56.6962 12.9238C56.802 12.9238 56.914 12.9191 57.0275 12.9067C57.2048 12.8849 57.3572 12.7838 57.4334 12.6796C57.5003 12.5863 57.5392 12.4666 57.564 12.3717L57.5687 12.3562H57.7336L57.7289 12.3795C57.6807 12.6283 57.62 12.8725 57.5672 13.1213L57.5625 13.1353H57.5485V13.1384ZM57.5345 13.1011C57.5843 12.8647 57.6418 12.633 57.6885 12.3966H57.5983C57.5718 12.493 57.5329 12.6097 57.4645 12.7045C57.3836 12.8181 57.2219 12.9238 57.0322 12.9471C56.9171 12.9596 56.8051 12.9642 56.6978 12.9642C56.6138 12.9642 56.5298 12.9611 56.4521 12.9549C56.3105 12.9394 56.1737 12.8787 56.1752 12.6921V10.4417C56.1752 10.1991 56.3277 10.1866 56.4909 10.1866H56.5811V10.0933C56.3665 10.0933 56.1535 10.1104 55.9373 10.1104C55.7211 10.1104 55.4894 10.0949 55.267 10.0933V10.1866H55.309C55.4645 10.1866 55.6558 10.2131 55.6558 10.4541V12.6967C55.6558 12.9798 55.4661 13.0093 55.309 13.0093H55.267V13.1011C55.6434 13.1011 56.0213 13.084 56.4007 13.084C56.7802 13.084 57.1581 13.0995 57.5361 13.1011" fill="#231F20"/>
<path id="Vector_38" d="M57.6576 9.95178C57.9204 9.95178 58.1164 10.154 58.1164 10.4121C58.1164 10.6703 57.9204 10.8694 57.6576 10.8694C57.3948 10.8694 57.1973 10.6687 57.1973 10.4121C57.1973 10.1555 57.3948 9.95178 57.6576 9.95178ZM57.6576 10.7838C57.8629 10.7838 58.0215 10.6096 58.0215 10.4121C58.0215 10.2146 57.866 10.0373 57.6576 10.0373C57.4492 10.0373 57.2937 10.2146 57.2937 10.4121C57.2937 10.6096 57.4508 10.7838 57.6576 10.7838ZM57.429 10.6547V10.6314C57.485 10.6236 57.4959 10.6267 57.4959 10.5894V10.2504C57.4959 10.2022 57.4912 10.1851 57.4305 10.1882V10.1648H57.6669C57.7463 10.1648 57.8209 10.2037 57.8209 10.2877C57.8209 10.3561 57.7758 10.4059 57.712 10.4261L57.7867 10.5319C57.8225 10.5785 57.8629 10.6236 57.8893 10.6392V10.6547H57.7991C57.7571 10.6547 57.7198 10.563 57.6343 10.4432H57.5845V10.5956C57.5845 10.6267 57.5954 10.6236 57.6514 10.6314V10.6547H57.4305H57.429ZM57.5845 10.4121H57.6389C57.698 10.4121 57.726 10.367 57.726 10.2955C57.726 10.2239 57.6825 10.1975 57.6358 10.1975H57.5861V10.4137L57.5845 10.4121Z" fill="#231F20"/>
<path id="Vector_39" d="M8.57665 15.5848C4.35892 15.605 0.887695 12.1882 0.887695 8.02957C0.887695 3.48524 4.35892 0.340608 8.57665 0.342164H10.5533C14.7197 0.342164 18.5238 3.48369 18.5238 8.03112C18.5238 12.1882 14.7197 15.5863 10.5533 15.5863H8.57665V15.5848ZM8.59376 0.972024C4.73995 0.972024 1.61709 4.09644 1.61709 7.95025C1.61709 11.8041 4.73995 14.9269 8.59376 14.9269C12.4476 14.9269 15.5704 11.8041 15.572 7.95025C15.572 4.09644 12.4476 0.973579 8.59376 0.972024ZM7.009 12.0762V3.82272C5.35115 4.46192 4.17541 6.06689 4.17074 7.95025C4.17541 9.83361 5.35115 11.4386 7.009 12.0762ZM13.0168 7.95025C13.0137 6.06534 11.8364 4.4588 10.1754 3.82272V12.0793C11.8348 11.4417 13.0137 9.83672 13.0168 7.95181" fill="#0D4E96"/>
</g>
<defs>
<clipPath id="clip0_5981_9875">
<rect width="57.9005" height="16" fill="white" transform="translate(0.512939)"/>
</clipPath>
</defs>
</svg>
