<svg width="54" height="14" viewBox="0 0 54 14" fill="none" xmlns="http://www.w3.org/2000/svg">
<g id="paypal-3 1" clip-path="url(#clip0_5981_9916)">
<path id="Vector" d="M20.3346 3.44946H17.4028C17.3057 3.4494 17.2118 3.48377 17.138 3.54636C17.0642 3.60896 17.0153 3.69568 17.0002 3.79088L15.8145 11.2566C15.809 11.2912 15.8112 11.3266 15.8208 11.3604C15.8305 11.3941 15.8474 11.4254 15.8704 11.452C15.8933 11.4786 15.9218 11.5 15.9539 11.5146C15.986 11.5292 16.0209 11.5368 16.0562 11.5367H17.4559C17.553 11.5368 17.647 11.5023 17.7208 11.4397C17.7946 11.377 17.8434 11.2902 17.8585 11.1949L18.1783 9.18125C18.1933 9.08604 18.242 8.99928 18.3158 8.93661C18.3895 8.87393 18.4833 8.83946 18.5804 8.83941H19.5085C21.4398 8.83941 22.5544 7.91135 22.8454 6.07228C22.9766 5.26768 22.851 4.6355 22.4716 4.19276C22.0549 3.70659 21.3159 3.44946 20.3346 3.44946ZM20.6728 6.17615C20.5125 7.22085 19.7087 7.22085 18.9315 7.22085H18.4891L18.7994 5.26981C18.8085 5.21273 18.8378 5.16074 18.8821 5.1232C18.9263 5.08567 18.9826 5.06504 19.0408 5.06504H19.2436C19.773 5.06504 20.2724 5.06504 20.5305 5.36474C20.6844 5.54354 20.7316 5.80919 20.6728 6.17615ZM29.0983 6.14252H27.6944C27.6362 6.14252 27.5799 6.16314 27.5356 6.20068C27.4914 6.23822 27.4621 6.29021 27.453 6.34729L27.3909 6.73724L27.2927 6.5959C26.9887 6.15784 26.311 6.0114 25.6345 6.0114C24.0831 6.0114 22.758 7.17828 22.4999 8.81514C22.3657 9.63166 22.5565 10.4124 23.0229 10.9569C23.4507 11.4575 24.0629 11.6661 24.7913 11.6661C26.0413 11.6661 26.7345 10.8679 26.7345 10.8679L26.6719 11.2553C26.6664 11.29 26.6684 11.3254 26.6779 11.3592C26.6875 11.3929 26.7043 11.4242 26.7272 11.451C26.7501 11.4777 26.7785 11.4991 26.8106 11.5139C26.8427 11.5286 26.8775 11.5362 26.9129 11.5363H28.1775C28.2746 11.5363 28.3686 11.5019 28.4424 11.4392C28.5162 11.3765 28.565 11.2897 28.58 11.1944L29.3388 6.42264C29.3444 6.38808 29.3424 6.35273 29.3329 6.31903C29.3233 6.28532 29.3066 6.25408 29.2837 6.22744C29.2608 6.20081 29.2324 6.17942 29.2004 6.16476C29.1684 6.1501 29.1336 6.14251 29.0983 6.14252ZM27.1414 8.85601C27.0059 9.65252 26.3693 10.1872 25.5573 10.1872C25.1497 10.1872 24.8238 10.0574 24.6146 9.81131C24.4072 9.56695 24.3283 9.21914 24.3943 8.83174C24.5208 8.04205 25.1681 7.4899 25.9676 7.4899C26.3663 7.4899 26.6904 7.62144 26.9039 7.86963C27.1178 8.12038 27.2027 8.47031 27.1414 8.85601ZM36.5756 6.14252H35.1648C35.0982 6.14262 35.0327 6.15885 34.9739 6.18978C34.9151 6.22072 34.8648 6.26543 34.8274 6.32004L32.8815 9.16635L32.0567 6.43115C32.0314 6.34773 31.9797 6.27462 31.9093 6.22263C31.8389 6.17065 31.7535 6.14256 31.6658 6.14252H30.2794C30.2405 6.14242 30.2021 6.15154 30.1674 6.16915C30.1328 6.18675 30.1029 6.21231 30.0802 6.24371C30.0575 6.27511 30.0427 6.31144 30.037 6.34967C30.0313 6.3879 30.0349 6.42693 30.0475 6.46351L31.6015 10.9922L30.1405 13.0403C30.1145 13.0766 30.0991 13.1194 30.096 13.1638C30.0928 13.2082 30.102 13.2526 30.1226 13.2922C30.1432 13.3318 30.1744 13.3649 30.2127 13.3881C30.251 13.4113 30.295 13.4235 30.3398 13.4235H31.7489C31.8147 13.4236 31.8796 13.4078 31.9379 13.3776C31.9962 13.3473 32.0462 13.3035 32.0837 13.2498L36.7762 6.52353C36.8016 6.48714 36.8166 6.44453 36.8193 6.40032C36.8221 6.35611 36.8127 6.31199 36.792 6.27273C36.7713 6.23348 36.7402 6.20059 36.7021 6.17764C36.6639 6.15468 36.6202 6.14254 36.5756 6.14252Z" fill="#253B80"/>
<path id="Vector_2" d="M41.2468 3.44946H38.3145C38.2175 3.4495 38.1237 3.48391 38.05 3.5465C37.9763 3.60909 37.9275 3.69575 37.9124 3.79088L36.7266 11.2566C36.7211 11.2912 36.7232 11.3265 36.7328 11.3602C36.7424 11.3939 36.7592 11.4252 36.7821 11.4518C36.805 11.4784 36.8334 11.4998 36.8654 11.5145C36.8975 11.5291 36.9323 11.5367 36.9676 11.5367H38.4723C38.5402 11.5366 38.6058 11.5125 38.6573 11.4686C38.7089 11.4248 38.743 11.3641 38.7535 11.2975L39.09 9.18125C39.105 9.08604 39.1538 8.99928 39.2275 8.9366C39.3012 8.87393 39.3951 8.83946 39.4921 8.8394H40.4198C42.3515 8.8394 43.4657 7.91135 43.7572 6.07227C43.8888 5.26768 43.7623 4.6355 43.3829 4.19275C42.9667 3.70659 42.228 3.44946 41.2468 3.44946ZM41.585 6.17615C41.4251 7.22085 40.6213 7.22085 39.8437 7.22085H39.4017L39.7125 5.26981C39.7214 5.21272 39.7506 5.1607 39.7948 5.12314C39.839 5.08558 39.8952 5.06497 39.9534 5.06504H40.1562C40.6852 5.06504 41.185 5.06504 41.4431 5.36474C41.597 5.54354 41.6437 5.80918 41.585 6.17615ZM50.0101 6.14252H48.607C48.5488 6.14236 48.4925 6.16294 48.4483 6.20051C48.404 6.23809 48.3749 6.29017 48.3661 6.34728L48.3039 6.73724L48.2053 6.5959C47.9014 6.15784 47.224 6.0114 46.5475 6.0114C44.9961 6.0114 43.6714 7.17827 43.4134 8.81514C43.2796 9.63165 43.4695 10.4124 43.936 10.9569C44.3646 11.4575 44.976 11.6661 45.7043 11.6661C46.9544 11.6661 47.6476 10.8679 47.6476 10.8679L47.585 11.2553C47.5794 11.29 47.5815 11.3255 47.591 11.3594C47.6006 11.3932 47.6175 11.4246 47.6405 11.4513C47.6635 11.478 47.6921 11.4994 47.7242 11.5141C47.7564 11.5288 47.7914 11.5364 47.8268 11.5363H49.091C49.188 11.5362 49.2819 11.5018 49.3556 11.4391C49.4293 11.3764 49.4781 11.2897 49.4931 11.1944L50.2523 6.42264C50.2577 6.38797 50.2554 6.35255 50.2457 6.31883C50.236 6.2851 50.2191 6.25385 50.1961 6.22724C50.1731 6.20063 50.1445 6.17928 50.1124 6.16465C50.0803 6.15003 50.0454 6.14248 50.0101 6.14252ZM48.0531 8.85601C47.9185 9.65251 47.281 10.1872 46.4691 10.1872C46.0623 10.1872 45.7356 10.0574 45.5264 9.8113C45.3189 9.56695 45.2409 9.21914 45.3061 8.83174C45.4334 8.04204 46.0798 7.4899 46.8794 7.4899C47.278 7.4899 47.6021 7.62144 47.8156 7.86963C48.0304 8.12038 48.1153 8.47031 48.0531 8.85601ZM51.6653 3.65423L50.4619 11.2566C50.4564 11.2912 50.4585 11.3265 50.4681 11.3602C50.4777 11.3939 50.4945 11.4252 50.5174 11.4518C50.5403 11.4784 50.5687 11.4998 50.6007 11.5145C50.6328 11.5291 50.6676 11.5367 50.7029 11.5367H51.9126C52.1137 11.5367 52.2843 11.392 52.3152 11.1949L53.5018 3.72958C53.5073 3.69498 53.5052 3.6596 53.4956 3.62588C53.4861 3.59216 53.4692 3.56089 53.4464 3.53423C53.4235 3.50758 53.395 3.48616 53.363 3.47145C53.331 3.45674 53.2961 3.4491 53.2609 3.44904H51.9062C51.848 3.44924 51.7919 3.47 51.7477 3.5076C51.7036 3.5452 51.6743 3.59718 51.6653 3.65423Z" fill="#179BD7"/>
<path id="Vector_3" d="M3.63904 12.9876L3.86324 11.5733L3.36382 11.5618H0.979004L2.63633 1.12636C2.64126 1.09448 2.65757 1.06541 2.68228 1.04447C2.70699 1.02353 2.73845 1.0121 2.77094 1.01227H6.79207C8.12702 1.01227 9.04828 1.28813 9.52927 1.83262C9.75476 2.08804 9.89837 2.35497 9.96782 2.64871C10.0407 2.95692 10.042 3.32516 9.97082 3.77429L9.96568 3.80707V4.09485L10.1912 4.22171C10.3633 4.30832 10.518 4.42548 10.6477 4.56739C10.8406 4.78578 10.9654 5.06335 11.0181 5.39242C11.0726 5.73086 11.0546 6.13359 10.9654 6.58953C10.8625 7.114 10.6962 7.57079 10.4715 7.94457C10.2733 8.27941 10.0069 8.56942 9.68917 8.79599C9.3908 9.00629 9.03627 9.16594 8.63544 9.26811C8.24705 9.36857 7.80421 9.41923 7.3185 9.41923H7.00556C6.78178 9.41923 6.56443 9.49927 6.39381 9.64273C6.22344 9.78773 6.11041 9.98807 6.07487 10.2081L6.05129 10.3354L5.65518 12.8279L5.63717 12.9194C5.63246 12.9484 5.62431 12.9629 5.61231 12.9727C5.60068 12.9821 5.58617 12.9873 5.57115 12.9876H3.63904Z" fill="#253B80"/>
<path id="Vector_4" d="M10.4048 3.84027C10.3928 3.91647 10.3791 3.99438 10.3637 4.07441C9.8334 6.77811 8.01917 7.71212 5.70209 7.71212H4.52233C4.23897 7.71212 4.00018 7.91646 3.95603 8.19403L3.352 11.9982L3.18095 13.0765C3.17414 13.1193 3.17674 13.163 3.18858 13.2047C3.20042 13.2464 3.22121 13.285 3.24952 13.318C3.27784 13.3509 3.31301 13.3773 3.3526 13.3955C3.3922 13.4136 3.43529 13.423 3.47889 13.4231H5.57134C5.81912 13.4231 6.02961 13.2443 6.06862 13.0016L6.0892 12.896L6.48317 10.4133L6.50846 10.277C6.54704 10.0335 6.75796 9.85473 7.00574 9.85473H7.31869C9.34597 9.85473 10.933 9.03737 11.3968 6.67211C11.5906 5.68403 11.4903 4.859 10.9776 4.27875C10.8151 4.09926 10.621 3.95067 10.4048 3.84027Z" fill="#179BD7"/>
<path id="Vector_5" d="M9.85014 3.62063C9.68082 3.57198 9.50857 3.53402 9.33443 3.50696C8.99032 3.45445 8.64255 3.42925 8.29442 3.43161H5.14267C5.02273 3.43152 4.90671 3.47404 4.81558 3.55149C4.72446 3.62895 4.66424 3.73622 4.64582 3.85392L3.97535 8.07102L3.95605 8.19405C3.97694 8.0598 4.04552 7.93741 4.1494 7.84902C4.25327 7.76063 4.38557 7.71208 4.52236 7.71215H5.70212C8.0192 7.71215 9.83342 6.77771 10.3637 4.07443C10.3796 3.9944 10.3929 3.9165 10.4049 3.84029C10.2649 3.76742 10.1191 3.70633 9.96889 3.65766C9.92951 3.64469 9.88992 3.63234 9.85014 3.62063Z" fill="#222D65"/>
<path id="Vector_6" d="M4.64582 3.85391C4.66409 3.73618 4.72427 3.62886 4.81544 3.55145C4.90661 3.47403 5.02272 3.43166 5.14268 3.43203H8.29442C8.66781 3.43203 9.01634 3.4563 9.33443 3.50738C9.54968 3.54098 9.76196 3.59122 9.96932 3.65766C10.1258 3.70917 10.2711 3.77005 10.4053 3.84029C10.5631 2.84114 10.404 2.16086 9.86001 1.54485C9.26027 0.866691 8.17782 0.576355 6.79271 0.576355H2.77158C2.48864 0.576355 2.24729 0.780697 2.20356 1.05869L0.528662 11.6014C0.520861 11.6504 0.523829 11.7004 0.537363 11.7481C0.550896 11.7958 0.574674 11.8401 0.60706 11.8778C0.639447 11.9155 0.679673 11.9458 0.724972 11.9666C0.770272 11.9873 0.819569 11.9981 0.869473 11.9982H3.35203L3.97535 8.07102L4.64582 3.85391Z" fill="#253B80"/>
</g>
<defs>
<clipPath id="clip0_5981_9916">
<rect width="53" height="14" fill="white" transform="translate(0.512695)"/>
</clipPath>
</defs>
</svg>
