<svg width="36" height="36" viewBox="0 0 36 36" fill="none" xmlns="http://www.w3.org/2000/svg">
    <path d="M23.7502 12.4899V12.6399C23.7402 13.3499 23.6102 14.0199 23.3602 14.6399L25.0302 15.6399C24.9002 15.9499 24.7302 16.2499 24.5602 16.5399C24.4102 16.7999 24.2302 17.0499 24.0402 17.2899L22.3702 16.2899C21.9502 16.7899 21.4402 17.2099 20.8802 17.5299C20.8602 17.5499 20.8302 17.5699 20.8002 17.5799C20.2402 17.8999 19.6202 18.1199 18.9602 18.2199V20.1599C18.6402 20.1999 18.3302 20.2199 18.0002 20.2199C17.6702 20.2199 17.3602 20.1999 17.0402 20.1599V18.2199C16.3802 18.1099 15.7602 17.8899 15.2002 17.5799C15.1702 17.5699 15.1402 17.5499 15.1202 17.5299C14.5602 17.1999 14.0502 16.7799 13.6302 16.2899L11.9602 17.2899C11.7702 17.0499 11.6002 16.7999 11.4402 16.5399C11.2702 16.2499 11.1002 15.9499 10.9702 15.6399L12.6402 14.6399C12.3902 14.0199 12.2602 13.3499 12.2502 12.6399V12.4899C12.2602 11.7799 12.3902 11.1099 12.6402 10.4899L10.9702 9.4899C11.1002 9.1799 11.2702 8.8799 11.4402 8.5899C11.5902 8.3299 11.7702 8.0799 11.9602 7.8399L13.6302 8.8399C14.0502 8.3399 14.5602 7.9199 15.1202 7.5999C15.1402 7.5799 15.1702 7.5599 15.2002 7.5499C15.7602 7.2299 16.3802 7.0099 17.0402 6.9099V4.9599C17.3602 4.9199 17.6702 4.8999 18.0002 4.8999C18.3302 4.8999 18.6402 4.9199 18.9602 4.9599V6.8999C19.6202 7.0099 20.2402 7.2299 20.8002 7.5399C20.8302 7.5499 20.8602 7.5699 20.8802 7.5899C21.4502 7.9199 21.9502 8.3399 22.3702 8.8299L24.0402 7.8299C24.2302 8.0699 24.4002 8.3199 24.5602 8.5799C24.7302 8.8699 24.9002 9.1699 25.0302 9.4799L23.3602 10.4799C23.6002 11.1099 23.7402 11.7799 23.7502 12.4899Z" fill="white"/>
    <path d="M18.0001 4.8999C18.3301 4.8999 18.6401 4.9199 18.9601 4.9599V6.8999C19.6201 7.0099 20.2401 7.2299 20.8001 7.5399C20.8301 7.5499 20.8601 7.5699 20.8801 7.5899C21.4501 7.9199 21.9501 8.3399 22.3701 8.8299L24.0401 7.8299C24.2301 8.0699 24.4001 8.3199 24.5601 8.5799C24.7301 8.8699 24.9001 9.1699 25.0301 9.4799L23.3601 10.4799C23.6101 11.0999 23.7401 11.7699 23.7501 12.4799V12.6299C23.7401 13.3399 23.6101 14.0099 23.3601 14.6299L25.0301 15.6299C24.9001 15.9399 24.7301 16.2399 24.5601 16.5299C24.4101 16.7899 24.2301 17.0399 24.0401 17.2799L22.3701 16.2799C21.9501 16.7799 21.4401 17.1999 20.8801 17.5199C20.8601 17.5399 20.8301 17.5599 20.8001 17.5699C20.2401 17.8899 19.6201 18.1099 18.9601 18.2099V20.1499C18.6401 20.1899 18.3301 20.2099 18.0001 20.2099C17.6701 20.2099 17.3601 20.1899 17.0401 20.1499V18.2099C16.3801 18.0999 15.7601 17.8799 15.2001 17.5699C15.1701 17.5599 15.1401 17.5399 15.1201 17.5199C14.5601 17.1899 14.0501 16.7699 13.6301 16.2799L11.9601 17.2799C11.7701 17.0399 11.6001 16.7899 11.4401 16.5299C11.2701 16.2399 11.1001 15.9399 10.9701 15.6299L12.6401 14.6299C12.3901 14.0099 12.2601 13.3399 12.2501 12.6299V12.4799C12.2601 11.7699 12.3901 11.0999 12.6401 10.4799L10.9701 9.4799C11.1001 9.1699 11.2701 8.8699 11.4401 8.5799C11.5901 8.3199 11.7701 8.0699 11.9601 7.8299L13.6301 8.8299C14.0501 8.3299 14.5601 7.9099 15.1201 7.5899C15.1401 7.5699 15.1701 7.5499 15.2001 7.5399C15.7601 7.2199 16.3801 6.9999 17.0401 6.8999V4.9599C17.3601 4.9199 17.6701 4.8999 18.0001 4.8999ZM18.0001 4.1499C17.6401 4.1499 17.3001 4.1699 16.9501 4.2099C16.5701 4.2599 16.2901 4.5799 16.2901 4.9499V6.2999C15.7901 6.4299 15.3201 6.6199 14.8701 6.8699C14.8101 6.8999 14.7501 6.9299 14.6901 6.9799C14.2501 7.2399 13.8501 7.5399 13.4901 7.8899L12.3501 7.1999C12.2301 7.1299 12.1001 7.0899 11.9701 7.0899C11.7501 7.0899 11.5301 7.1899 11.3801 7.3699C11.1701 7.6399 10.9701 7.9199 10.8001 8.1999C10.6001 8.5299 10.4301 8.8599 10.2901 9.1799C10.1401 9.5299 10.2701 9.9299 10.5901 10.1199L11.7401 10.8099C11.5901 11.3399 11.5101 11.8999 11.5001 12.4699V12.6299C11.5101 13.2099 11.5901 13.7699 11.7401 14.2999L10.5901 14.9899C10.2701 15.1799 10.1401 15.5899 10.2901 15.9299C10.4301 16.2499 10.6001 16.5799 10.8001 16.9199C10.9701 17.1999 11.1601 17.4799 11.3701 17.7499C11.5201 17.9299 11.7301 18.0299 11.9601 18.0299C12.0901 18.0299 12.2201 17.9999 12.3401 17.9199L13.4901 17.2299C13.8501 17.5799 14.2501 17.8799 14.6901 18.1399C14.7401 18.1799 14.8001 18.2199 14.8701 18.2499C15.3201 18.4999 15.7901 18.6899 16.2901 18.8199V20.1599C16.2901 20.5399 16.5701 20.8599 16.9501 20.8999C17.3001 20.9399 17.6401 20.9599 18.0001 20.9599C18.3601 20.9599 18.7001 20.9399 19.0501 20.8999C19.4301 20.8499 19.7101 20.5299 19.7101 20.1599V18.8199C20.2101 18.6899 20.6801 18.4999 21.1301 18.2499C21.1901 18.2199 21.2501 18.1899 21.3101 18.1499C21.7501 17.8899 22.1501 17.5899 22.5101 17.2399L23.6601 17.9299C23.7801 17.9999 23.9101 18.0399 24.0401 18.0399C24.2601 18.0399 24.4801 17.9399 24.6301 17.7599C24.8401 17.4999 25.0401 17.2199 25.2101 16.9299C25.4101 16.5999 25.5801 16.2699 25.7201 15.9499C25.8701 15.5999 25.7401 15.1999 25.4201 15.0099L24.2701 14.3199C24.4201 13.7899 24.5001 13.2299 24.5101 12.6599V12.4999C24.5001 11.9199 24.4201 11.3599 24.2701 10.8299L25.4201 10.1399C25.7401 9.9499 25.8701 9.5399 25.7201 9.1999C25.5801 8.8799 25.4101 8.5499 25.2101 8.2099C25.0401 7.9299 24.8501 7.6499 24.6401 7.3799C24.4901 7.1999 24.2801 7.0999 24.0501 7.0999C23.9201 7.0999 23.7901 7.1299 23.6701 7.2099L22.5001 7.8799C22.1401 7.5299 21.7401 7.2299 21.3001 6.9699C21.2501 6.9299 21.1901 6.8899 21.1201 6.8699C20.6701 6.6199 20.2001 6.4299 19.7001 6.2999V4.9599C19.7001 4.5799 19.4201 4.2599 19.0401 4.2199C18.7001 4.1699 18.3601 4.1499 18.0001 4.1499Z" fill="black"/>
    <path d="M18.0001 14.7499C19.2096 14.7499 20.1901 13.7694 20.1901 12.5599C20.1901 11.3504 19.2096 10.3699 18.0001 10.3699C16.7906 10.3699 15.8101 11.3504 15.8101 12.5599C15.8101 13.7694 16.7906 14.7499 18.0001 14.7499Z" fill="#1D59F9"/>
    <path d="M15.9202 26.3399H20.8202C21.4702 26.3299 21.9902 25.7399 21.9902 25.0899C21.9802 24.4399 21.4502 23.9199 20.8002 23.9199L15.7302 23.9999C15.7302 23.9999 12.9902 22.2599 10.7202 24.5399C9.19016 26.0699 7.66016 27.6299 7.66016 27.6299L11.1602 31.0999L12.7902 29.5899C14.1002 29.4799 17.4402 29.5599 19.7802 29.5899C20.3202 29.5999 20.8302 29.3999 21.2102 29.0099L26.3602 23.9599C26.9202 23.3999 26.9002 22.4799 26.3202 21.9399C25.7802 21.4399 24.9502 21.4399 24.4102 21.9399L21.7602 24.3999" fill="white"/>
    <path d="M11.1501 31.47C11.0501 31.47 10.9601 31.43 10.8901 31.36L7.39009 27.89C7.24009 27.74 7.24009 27.51 7.39009 27.36C7.39009 27.36 8.93009 25.79 10.4601 24.26C12.6601 22.06 15.2801 23.31 15.8301 23.61L20.7901 23.54C21.1501 23.53 21.4901 23.65 21.7701 23.87L24.1501 21.66C24.8301 21.03 25.8901 21.03 26.5701 21.66C26.9301 21.99 27.1301 22.44 27.1401 22.93C27.1501 23.42 26.9701 23.87 26.6201 24.22L21.4701 29.27C21.0301 29.72 20.3901 29.96 19.7801 29.95L18.2201 29.93C16.2501 29.9 14.0301 29.87 12.9501 29.94L11.4101 31.36C11.3301 31.44 11.2401 31.47 11.1501 31.47ZM8.18009 27.62L11.1601 30.58L12.5301 29.31C12.5901 29.25 12.6701 29.22 12.7501 29.21C13.8001 29.12 16.1501 29.16 18.2201 29.19L19.7801 29.21C20.2001 29.22 20.6301 29.05 20.9401 28.75L26.0901 23.7C26.2801 23.5 26.3901 23.24 26.3801 22.96C26.3701 22.68 26.2601 22.42 26.0501 22.23C25.6601 21.87 25.0501 21.87 24.6501 22.23L22.2201 24.49C22.3001 24.68 22.3501 24.89 22.3501 25.1C22.3601 25.97 21.6601 26.72 20.8101 26.73H15.9101C15.7001 26.73 15.5301 26.56 15.5301 26.35C15.5301 26.14 15.7001 25.97 15.9101 25.97H20.8101C21.2301 25.97 21.6101 25.56 21.6001 25.1C21.6001 24.94 21.5501 24.79 21.4601 24.66C21.4501 24.64 21.4401 24.63 21.4201 24.61C21.4001 24.58 21.3801 24.56 21.3501 24.53C21.2001 24.38 21.0301 24.31 20.7801 24.3L15.7101 24.37C15.6501 24.36 15.5701 24.35 15.5001 24.31C15.4001 24.25 12.9801 22.76 10.9601 24.79C9.83009 25.94 8.68009 27.11 8.18009 27.62Z" fill="black"/>
    <path d="M30.62 13.5798L31.27 14.8998L32.72 15.1098L31.67 16.1298L31.92 17.5798L30.62 16.8998L29.32 17.5798L29.56 16.1298L28.51 15.1098L29.97 14.8998L30.62 13.5798Z" fill="#1D59F9"/>
    <path d="M5.38003 13.5798L6.03003 14.8998L7.49003 15.1098L6.44003 16.1298L6.68003 17.5798L5.38003 16.8998L4.08003 17.5798L4.33003 16.1298L3.28003 15.1098L4.73003 14.8998L5.38003 13.5798Z" fill="#1D59F9"/>
    </svg>
    