<svg viewBox="0 0 400 196" xmlns="http://www.w3.org/2000/svg">
  <defs>

  </defs>
 
  <g class="g" id="step2">
    <rect width="400" height="128" y="31" fill="#fff" rx="8"/> <path fill="#000" d="M174.032 68.032h5.534v5.534h-5.534z"/><path fill="#000" fill-rule="evenodd" d="M211.919 82.08V58.667h23.413V82.08h-23.413Zm5.509-5.509h12.395V64.176h-12.395V76.57Z" clip-rule="evenodd"/><path fill="#000" d="M220.433 68.032h5.534v5.534h-5.534z"/><path fill="#000" fill-rule="evenodd" d="M164.666 129.333v-23.414h23.413v23.414h-23.413Zm5.508-5.509h12.396v-12.396h-12.396v12.396Z" clip-rule="evenodd"/><path fill="#000" d="M174.032 114.433h5.534v5.534h-5.534zM170.2 85.486h5.534v5.534H170.2zM180.908 96.98v-5.535h-5.173v5.535h5.044v5.534h5.173V96.98h-5.044ZM203.83 68.883h5.534v5.534h-5.534zM192.762 64.201h5.534v10.217h-5.534zM198.297 58.667h5.534v5.534h-5.534zM198.296 75.269v5.534h-5.534v5.534h11.068V75.27h-5.534ZM203.83 107.978v-5.464h-5.534V91.445h-5.534v11.209h5.534v5.464h5.534v5.464h11.068v-5.604H203.83ZM203.83 85.486h5.534v11.068h-5.534z"/><path fill="#000" fill-rule="evenodd" d="M229.956 86.763v5.162h5.377v10.589h-15.056v-5.162h-5.378v-5.295h5.243v-5.294h9.814Zm-9.679 10.456h9.679v-5.162h-9.679v5.162Z" clip-rule="evenodd"/><path fill="#000" d="M229.798 108.048h5.534v11.068h-5.534zM209.365 96.98h5.534v5.534h-5.534zM214.899 113.582h5.534v5.534h-5.534zM220.433 107.196h5.534v5.534h-5.534zM219.582 119.116v10.217h5.676v-4.91h4.541v-5.307h-10.217ZM192.762 108.048h5.534v10.217h-5.534zM208.886 123.799v-5.534h-10.589v11.068h5.294v-5.534h5.162v5.534h5.295v-5.534h-5.162ZM181.269 85.486h11.068v5.534h-11.068zM164.666 91.445h5.534v11.068h-5.534z"/><rect width="55" height="4" x="307" y="91" fill="#E4E4E4" rx="2"/><rect width="55" height="4" x="307" y="102" fill="#E4E4E4" rx="2"/><rect width="55" height="4" x="307" y="113" fill="#E4E4E4" rx="2"/><rect width="37" height="4" x="307" y="124" fill="#E4E4E4" rx="2"/><rect width="56" height="4" x="62" y="59" fill="#E4E4E4" rx="2"/><rect width="26" height="4" x="62" y="69" fill="#E4E4E4" rx="2"/><rect width="12" height="12" x="62" y="89" fill="#E4E4E4" rx="4"/><rect width="12" height="12" x="80" y="89" fill="#E4E4E4" rx="4"/><rect width="12" height="12" x="98" y="89" fill="#E4E4E4" rx="4"/><g filter="url(#b)"><rect width="110" height="57" x="50" y="128" fill="#fff" rx="8"/><rect width="110" height="57" x="50" y="128" stroke="#E4E4E4" stroke-width="2" fill="#fff" rx="8"/></g><rect width="37" height="19" x="62" y="142" fill="#31D3B3" rx="4"/><rect width="37" height="4" x="62" y="167" fill="#E4E4E4" rx="2"/><rect width="37" height="19" x="111" y="142" fill="#FDBCCB" rx="4"/><rect width="37" height="4" x="111" y="167" fill="#E4E4E4" rx="2"/><g filter="url(#c)"><rect width="55" height="57" x="240" y="3" stroke="#1D59F9" stroke-width="2" fill="#fff" rx="8"/></g><path fill="#220E27" d="M270.226 39.629h-2.391c-.269 0-.491-.065-.668-.195a1.2 1.2 0 0 1-.367-.506l-1.243-3.393h-6.888l-1.242 3.393a1.074 1.074 0 0 1-.368.483.994.994 0 0 1-.655.218H254L260.532 23h3.162l6.532 16.629Zm-10.763-6.279h5.301l-2.024-5.532a39.872 39.872 0 0 1-.311-.862 28.52 28.52 0 0 1-.321-1.093 30.37 30.37 0 0 1-.322 1.093c-.1.337-.2.633-.299.886l-2.024 5.508ZM281.024 39.629h-1.276c-.269 0-.48-.038-.633-.115-.153-.084-.268-.25-.345-.495l-.253-.839c-.299.268-.594.506-.885.713a5.38 5.38 0 0 1-.886.506 4.548 4.548 0 0 1-.977.31 5.886 5.886 0 0 1-1.15.104c-.499 0-.959-.065-1.38-.196a3.105 3.105 0 0 1-1.093-.609 2.765 2.765 0 0 1-.701-1c-.169-.4-.253-.863-.253-1.392 0-.445.115-.882.345-1.311.237-.437.628-.828 1.173-1.173.544-.353 1.268-.644 2.173-.874.905-.23 2.028-.36 3.37-.391v-.69c0-.79-.169-1.372-.506-1.748-.33-.383-.813-.575-1.449-.575-.46 0-.844.054-1.15.161-.307.107-.575.23-.805.368-.223.13-.43.25-.621.357a1.276 1.276 0 0 1-.633.16.82.82 0 0 1-.494-.149c-.138-.1-.25-.222-.334-.368l-.517-.909c1.357-1.241 2.993-1.863 4.91-1.863.69 0 1.303.116 1.84.345a3.82 3.82 0 0 1 1.38.944c.376.398.659.877.851 1.437.199.56.299 1.173.299 1.84v7.452Zm-5.52-1.771c.291 0 .56-.027.805-.08.245-.054.475-.135.69-.242a3.65 3.65 0 0 0 .633-.391c.207-.161.414-.349.621-.564v-1.989c-.828.038-1.522.111-2.082.218-.552.1-.997.23-1.334.392-.337.16-.579.348-.724.563a1.272 1.272 0 0 0-.207.702c0 .498.145.854.437 1.069.299.215.686.322 1.161.322Z"/><path fill="#220E27" d="M337.893 38.065c-1.012-.069-1.334-.322-2.07-2.001L330.096 23h-.46l-4.784 11.293c-.437 1.012-1.15 2.691-1.679 3.266-.414.437-.805.483-1.173.506v.437h4.554v-.437c-.483 0-1.564 0-1.564-.966 0-.253.069-.575.184-.874l1.058-2.691h6.026l.943 2.208c.138.322.437 1.081.437 1.449 0 .851-.759.874-1.61.874v.437h5.865v-.437Zm-11.27-5.474 2.645-6.325 2.668 6.325h-5.313ZM344.855 35.673c0 .69-.069.966-.782 1.311-.207.115-.92.414-1.426.414-.851 0-1.518-.713-1.518-1.794v-.046c0-.782.253-2.07 3.726-3.22v3.335Zm3.565 1.311c-.253.207-.552.437-1.035.437-.667 0-.667-.667-.667-1.334v-4.485c0-1.38 0-3.68-3.427-3.68-2.668 0-3.749 1.633-3.749 2.553 0 .368.276 1.012.989 1.012.598 0 1.035-.506 1.035-.989 0-.207-.115-.552-.115-.897 0-.713.874-1.127 1.633-1.127.69 0 1.771.253 1.771 1.909v1.403c-3.749 1.472-5.75 2.254-5.75 4.554 0 1.541 1.196 2.392 2.438 2.392 1.265 0 2.484-.92 3.335-1.679.115 1.656 1.081 1.679 1.495 1.679.368 0 1.081-.023 2.047-1.15v-.598Z"/><defs><filter id="b" width="126" height="73" x="47" y="115" color-interpolation-filters="sRGB" filterUnits="userSpaceOnUse"><feFlood flood-opacity="0" result="BackgroundImageFix"/><feColorMatrix in="SourceAlpha" result="hardAlpha" values="0 0 0 0 0 0 0 0 0 0 0 0 0 0 0 0 0 0 127 0"/><feMorphology in="SourceAlpha" operator="dilate" radius="1" result="effect1_dropShadow_4317_12518"/><feOffset dx="5" dy="-5"/><feGaussianBlur stdDeviation="3"/><feComposite in2="hardAlpha" operator="out"/><feColorMatrix values="0 0 0 0 0 0 0 0 0 0 0 0 0 0 0 0 0 0 0.08 0"/><feBlend in2="BackgroundImageFix" result="effect1_dropShadow_4317_12518"/><feBlend in="SourceGraphic" in2="effect1_dropShadow_4317_12518" result="shape"/></filter><filter id="c" width="71" height="73" x="227" y="0" color-interpolation-filters="sRGB" filterUnits="userSpaceOnUse"><feFlood flood-opacity="0" result="BackgroundImageFix"/><feColorMatrix in="SourceAlpha" result="hardAlpha" values="0 0 0 0 0 0 0 0 0 0 0 0 0 0 0 0 0 0 127 0"/><feMorphology in="SourceAlpha" operator="dilate" radius="1" result="effect1_dropShadow_4317_12518"/><feOffset dx="-5" dy="5"/><feGaussianBlur stdDeviation="3"/><feComposite in2="hardAlpha" operator="out"/><feColorMatrix values="0 0 0 0 0.113725 0 0 0 0 0.34902 0 0 0 0 0.976471 0 0 0 0.1 0"/><feBlend in2="BackgroundImageFix" result="effect1_dropShadow_4317_12518"/><feBlend in="SourceGraphic" in2="effect1_dropShadow_4317_12518" result="shape"/></filter><filter id="d" width="71" height="73" x="294" y="0" color-interpolation-filters="sRGB" filterUnits="userSpaceOnUse"><feFlood flood-opacity="0" result="BackgroundImageFix"/><feColorMatrix in="SourceAlpha" result="hardAlpha" values="0 0 0 0 0 0 0 0 0 0 0 0 0 0 0 0 0 0 127 0"/><feMorphology in="SourceAlpha" operator="dilate" radius="1" result="effect1_dropShadow_4317_12518"/><feOffset dx="-5" dy="5"/><feGaussianBlur stdDeviation="3"/><feComposite in2="hardAlpha" operator="out"/><feColorMatrix values="0 0 0 0 0 0 0 0 0 0 0 0 0 0 0 0 0 0 0.08 0"/><feBlend in2="BackgroundImageFix" result="effect1_dropShadow_4317_12518"/><feBlend in="SourceGraphic" in2="effect1_dropShadow_4317_12518" result="shape"/></filter></defs>
  </g>
  <g class="g" id="step3">
    <rect width="400" height="128" y="33" fill="#fff" rx="8"/><rect width="54" height="70" x="33" y="123" fill="#fff" stroke="#E4E4E4" stroke-width="2" rx="8"/><path fill="#220E27" d="M53.903 172.085a.365.365 0 0 1-.13.155.308.308 0 0 1-.17.045.448.448 0 0 1-.225-.075 5.868 5.868 0 0 0-.295-.175 2.282 2.282 0 0 0-.4-.17 1.609 1.609 0 0 0-.535-.08c-.187 0-.35.023-.49.07a1.024 1.024 0 0 0-.35.185.757.757 0 0 0-.21.29.926.926 0 0 0-.07.365c0 .17.047.312.14.425.096.113.223.21.38.29.157.08.335.152.535.215s.403.132.61.205c.21.07.415.153.615.25.2.093.378.213.535.36.156.143.281.32.375.53.096.21.145.465.145.765 0 .327-.057.633-.17.92-.11.283-.273.532-.49.745-.214.21-.475.377-.785.5-.31.12-.665.18-1.065.18-.23 0-.457-.023-.68-.07a3.43 3.43 0 0 1-1.22-.49 2.91 2.91 0 0 1-.475-.39l.39-.645a.469.469 0 0 1 .13-.115.326.326 0 0 1 .175-.05.47.47 0 0 1 .27.105c.096.067.21.142.34.225.133.083.288.16.465.23.18.067.395.1.645.1.383 0 .68-.09.89-.27.21-.183.315-.445.315-.785a.718.718 0 0 0-.145-.465 1.099 1.099 0 0 0-.375-.3 2.754 2.754 0 0 0-.535-.21c-.2-.057-.404-.118-.61-.185a5.38 5.38 0 0 1-.61-.24 1.968 1.968 0 0 1-.535-.365 1.698 1.698 0 0 1-.38-.56 2.197 2.197 0 0 1-.14-.835c0-.263.051-.52.155-.77.106-.25.26-.472.46-.665a2.31 2.31 0 0 1 .745-.465 2.696 2.696 0 0 1 1.005-.175c.426 0 .82.067 1.18.2s.666.32.92.56l-.33.635Zm1.776-1.315h1.085a.451.451 0 0 1 .45.305l1.7 4.41c.057.143.11.302.16.475.053.17.104.35.15.54.077-.383.172-.722.285-1.015l1.695-4.41a.517.517 0 0 1 .16-.21.434.434 0 0 1 .285-.095h1.085l-2.92 7.23H58.6l-2.92-7.23Zm11.847 6.24c.303 0 .566-.027.79-.08a3.44 3.44 0 0 0 .645-.23v-1.315h-.905a.287.287 0 0 1-.205-.07.245.245 0 0 1-.075-.18v-.76h2.405v2.925a3.629 3.629 0 0 1-1.21.59 4.63 4.63 0 0 1-.72.14 6.52 6.52 0 0 1-.83.05 3.777 3.777 0 0 1-1.455-.275 3.447 3.447 0 0 1-1.15-.765 3.522 3.522 0 0 1-.76-1.17 3.986 3.986 0 0 1-.27-1.485c0-.543.088-1.042.265-1.495.176-.453.426-.843.75-1.17.326-.327.721-.58 1.185-.76.463-.18.983-.27 1.56-.27.59 0 1.1.088 1.53.265.433.173.8.4 1.1.68l-.39.61c-.077.123-.179.185-.305.185a.456.456 0 0 1-.245-.08 14.676 14.676 0 0 0-.33-.19 2.149 2.149 0 0 0-.37-.165 2.88 2.88 0 0 0-.455-.115 3.307 3.307 0 0 0-.58-.045c-.357 0-.68.06-.97.18-.287.12-.532.292-.735.515-.204.223-.36.492-.47.805-.11.313-.165.663-.165 1.05 0 .417.058.788.175 1.115.116.323.28.597.49.82.21.223.46.395.75.515.29.117.606.175.95.175Z"/><g filter="url(#e)"><rect width="54" height="70" x="103" y="123" fill="#fff" rx="8"/><rect width="54" height="70" x="103" y="123" stroke="#1D59F9" stroke-width="2" fill="#fff" rx="8"/></g><path fill="#220E27" d="M123.719 175.43c0 .407-.05.773-.15 1.1-.1.327-.25.605-.45.835-.197.23-.443.407-.74.53a2.69 2.69 0 0 1-1.035.185c-.18 0-.357-.012-.53-.035a4.358 4.358 0 0 1-.545-.1l.07-.8a.261.261 0 0 1 .08-.175c.05-.047.122-.07.215-.07.057 0 .13.012.22.035.093.023.21.035.35.035.19 0 .358-.027.505-.08a.859.859 0 0 0 .365-.265c.1-.12.175-.275.225-.465a2.83 2.83 0 0 0 .075-.7v-4.69h1.345v4.66Zm3.845.025V178h-1.345v-7.23h2.355c.484 0 .902.057 1.255.17.354.113.645.272.875.475.23.203.4.447.51.73.11.283.165.593.165.93 0 .35-.058.672-.175.965-.116.29-.291.54-.525.75-.233.21-.525.373-.875.49-.35.117-.76.175-1.23.175h-1.01Zm0-1.05h1.01c.247 0 .462-.03.645-.09.184-.063.335-.152.455-.265.12-.117.21-.257.27-.42.06-.167.09-.352.09-.555 0-.193-.03-.368-.09-.525-.06-.157-.15-.29-.27-.4a1.175 1.175 0 0 0-.455-.25 2.075 2.075 0 0 0-.645-.09h-1.01v2.595Zm9.18 2.605c.304 0 .567-.027.79-.08.227-.057.442-.133.645-.23v-1.315h-.905a.288.288 0 0 1-.205-.07.245.245 0 0 1-.075-.18v-.76h2.405v2.925a3.599 3.599 0 0 1-1.21.59c-.223.063-.463.11-.72.14-.256.033-.533.05-.83.05a3.782 3.782 0 0 1-1.455-.275 3.457 3.457 0 0 1-1.15-.765 3.537 3.537 0 0 1-.76-1.17 3.986 3.986 0 0 1-.27-1.485c0-.543.089-1.042.265-1.495.177-.453.427-.843.75-1.17.327-.327.722-.58 1.185-.76.464-.18.984-.27 1.56-.27.59 0 1.1.088 1.53.265.434.173.8.4 1.1.68l-.39.61c-.076.123-.178.185-.305.185a.458.458 0 0 1-.245-.08 12.107 12.107 0 0 0-.33-.19 2.139 2.139 0 0 0-.37-.165 2.871 2.871 0 0 0-.455-.115 3.301 3.301 0 0 0-.58-.045c-.356 0-.68.06-.97.18-.286.12-.531.292-.735.515-.203.223-.36.492-.47.805-.11.313-.165.663-.165 1.05 0 .417.059.788.175 1.115.117.323.28.597.49.82.21.223.46.395.75.515.29.117.607.175.95.175Z"/><rect width="54" height="70" x="173" y="123" fill="#fff" stroke="#E4E4E4" stroke-width="2" rx="8"/><path fill="#220E27" d="M190.602 175.455V178h-1.345v-7.23h2.355c.484 0 .902.057 1.255.17.354.113.645.272.875.475.23.203.4.447.51.73.11.283.165.593.165.93 0 .35-.058.672-.175.965-.116.29-.291.54-.525.75-.233.21-.525.373-.875.49-.35.117-.76.175-1.23.175h-1.01Zm0-1.05h1.01c.247 0 .462-.03.645-.09.184-.063.335-.152.455-.265.12-.117.21-.257.27-.42.06-.167.09-.352.09-.555 0-.193-.03-.368-.09-.525-.06-.157-.15-.29-.27-.4a1.175 1.175 0 0 0-.455-.25 2.075 2.075 0 0 0-.645-.09h-1.01v2.595Zm6.565-3.635c.06 0 .11.003.15.01.04.003.075.013.105.03a.274.274 0 0 1 .095.065c.03.027.064.063.1.11l3.795 4.835a7.242 7.242 0 0 1-.03-.34 12.032 12.032 0 0 1-.005-.315v-4.395h1.185V178h-.695a.623.623 0 0 1-.265-.05.586.586 0 0 1-.205-.18l-3.78-4.815c.01.107.017.213.02.32.007.103.01.198.01.285V178h-1.185v-7.23h.705Zm11.174 6.24c.303 0 .567-.027.79-.08.227-.057.442-.133.645-.23v-1.315h-.905a.287.287 0 0 1-.205-.07.245.245 0 0 1-.075-.18v-.76h2.405v2.925a3.629 3.629 0 0 1-1.21.59c-.223.063-.463.11-.72.14a6.52 6.52 0 0 1-.83.05 3.775 3.775 0 0 1-1.455-.275 3.447 3.447 0 0 1-1.15-.765 3.522 3.522 0 0 1-.76-1.17 3.986 3.986 0 0 1-.27-1.485c0-.543.088-1.042.265-1.495.177-.453.427-.843.75-1.17.327-.327.722-.58 1.185-.76.463-.18.983-.27 1.56-.27.59 0 1.1.088 1.53.265.433.173.8.4 1.1.68l-.39.61c-.077.123-.178.185-.305.185a.456.456 0 0 1-.245-.08 16.143 16.143 0 0 0-.33-.19 2.139 2.139 0 0 0-.37-.165 2.871 2.871 0 0 0-.455-.115 3.31 3.31 0 0 0-.58-.045c-.357 0-.68.06-.97.18a2.05 2.05 0 0 0-.735.515c-.203.223-.36.492-.47.805-.11.313-.165.663-.165 1.05 0 .417.058.788.175 1.115.117.323.28.597.49.82.21.223.46.395.75.515.29.117.607.175.95.175Z"/><rect width="54" height="70" x="243" y="123" fill="#fff" stroke="#E4E4E4" stroke-width="2" rx="8"/><path fill="#220E27" d="M264.164 170.77v1.105h-2.175V178h-1.345v-6.125h-2.185v-1.105h5.705Zm3.367 7.23h-1.35v-7.23h1.35V178Zm7.19-7.23v1.07h-3.205v2.14h2.705v1.075h-2.705V178h-1.355v-7.23h4.56Zm6.615 0v1.07h-3.205v2.14h2.705v1.075h-2.705V178h-1.355v-7.23h4.56Z"/><rect width="54" height="70" x="313" y="123" fill="#fff" stroke="#E4E4E4" stroke-width="2" rx="8"/><path fill="#220E27" d="M331.452 175.455V178h-1.345v-7.23h2.355c.483 0 .902.057 1.255.17.353.113.645.272.875.475.23.203.4.447.51.73.11.283.165.593.165.93 0 .35-.058.672-.175.965a2.01 2.01 0 0 1-.525.75c-.233.21-.525.373-.875.49-.35.117-.76.175-1.23.175h-1.01Zm0-1.05h1.01c.247 0 .462-.03.645-.09.183-.063.335-.152.455-.265.12-.117.21-.257.27-.42.06-.167.09-.352.09-.555 0-.193-.03-.368-.09-.525-.06-.157-.15-.29-.27-.4a1.182 1.182 0 0 0-.455-.25 2.075 2.075 0 0 0-.645-.09h-1.01v2.595Zm12.28-.02c0 .53-.088 1.017-.265 1.46a3.362 3.362 0 0 1-.745 1.145c-.32.32-.705.568-1.155.745a4.05 4.05 0 0 1-1.495.265h-2.76v-7.23h2.76c.547 0 1.045.09 1.495.27.45.177.835.425 1.155.745.32.317.568.697.745 1.14.177.443.265.93.265 1.46Zm-1.375 0c0-.397-.053-.752-.16-1.065a2.233 2.233 0 0 0-.455-.8 1.953 1.953 0 0 0-.72-.505 2.445 2.445 0 0 0-.95-.175h-1.405v5.09h1.405c.353 0 .67-.058.95-.175.283-.117.523-.283.72-.5.197-.22.348-.487.455-.8.107-.317.16-.673.16-1.07Zm7.986-3.615v1.07h-3.205v2.14h2.705v1.075h-2.705V178h-1.355v-7.23h4.56Z"/><rect width="86" height="86" x="157" y="1" fill="#fff" stroke="#E4E4E4" stroke-width="2" rx="8"/><path fill="#000" fill-rule="evenodd" d="M171.333 34.33V15.333h18.996v18.995h-18.996Zm4.469-4.47h10.057V19.803h-10.057V29.86Z" clip-rule="evenodd"/><path fill="#000" d="M178.932 22.932h4.49v4.49h-4.49z"/><path fill="#000" fill-rule="evenodd" d="M209.67 34.33V15.333h18.996v18.995H209.67Zm4.469-4.47h10.057V19.803h-10.057V29.86Z" clip-rule="evenodd"/><path fill="#000" d="M216.577 22.932h4.49v4.49h-4.49z"/><path fill="#000" fill-rule="evenodd" d="M171.333 72.666V53.67h18.996v18.996h-18.996Zm4.469-4.47h10.057V58.14h-10.057v10.057Z" clip-rule="evenodd"/><path fill="#000" d="M178.932 60.578h4.49v4.49h-4.49zM175.823 37.092h4.49v4.49h-4.49zM184.51 46.417v-4.49h-4.197v4.49h4.093v4.49h4.197v-4.49h-4.093ZM203.107 23.623h4.49v4.49h-4.49zM194.128 19.823h4.49v8.289h-4.49zM198.618 15.334h4.49v4.49h-4.49zM198.618 28.803v4.49h-4.49v4.49h8.98v-8.98h-4.49ZM203.108 55.34v-4.433h-4.49v-8.98h-4.49v9.094h4.49v4.433h4.49v4.433h8.98V55.34h-8.98Z"/><path fill="#000" d="M203.107 37.092h4.49v8.98h-4.49z"/><path fill="#000" fill-rule="evenodd" d="M224.304 38.129v4.188h4.363v8.59h-12.215V46.72h-4.363v-4.295h4.253v-4.295h7.962Zm-7.853 8.483h7.853v-4.188h-7.853v4.188Z" clip-rule="evenodd"/><path fill="#000" d="M224.176 55.397h4.49v8.98h-4.49zM207.599 46.417h4.49v4.49h-4.49zM212.089 59.887h4.49v4.49h-4.49zM216.577 54.707h4.49v4.49h-4.49zM215.888 64.377v8.29h4.605v-3.984h3.684v-4.306h-8.289ZM194.128 55.397h4.49v8.289h-4.49zM207.209 68.176v-4.49h-8.591v8.98h4.296v-4.49h4.188v4.49h4.295v-4.49h-4.188ZM184.803 37.092h8.98v4.49h-8.98zM171.333 41.928h4.49v8.98h-4.49z"/><path stroke="#1D59F9" stroke-dasharray="2 2" fill="#fff" d="M60 116v-4a8 8 0 0 1 8-8h62.126M339 116v-4a8 8 0 0 0-8-8h-61.625m-139.249 12v-12m0 0h139.249m0 0v12M199 92v24"/><circle cx="130" cy="149" r="10" fill="#1D59F9"/><path fill="#fff" d="M129.646 153.354a.502.502 0 0 0 .708 0l3.182-3.182a.502.502 0 0 0-.708-.708L130 152.293l-2.828-2.829a.502.502 0 0 0-.708.708l3.182 3.182ZM129.5 145v8h1v-8h-1Z"/><circle cx="60" cy="149" r="10" fill="#D9D9D9"/><path fill="#220E27" d="M59.646 153.354a.5.5 0 0 0 .708 0l3.181-3.182a.501.501 0 0 0-.707-.708L60 152.293l-2.828-2.829a.5.5 0 0 0-.707.708l3.181 3.182ZM59.5 145v8h1v-8h-1Z"/><circle cx="200" cy="149" r="10" fill="#D9D9D9"/><path fill="#220E27" d="M199.646 153.354a.502.502 0 0 0 .708 0l3.182-3.182a.502.502 0 0 0-.708-.708L200 152.293l-2.828-2.829a.502.502 0 0 0-.708.708l3.182 3.182ZM199.5 145v8h1v-8h-1Z"/><circle cx="270" cy="149" r="10" fill="#D9D9D9"/><path fill="#220E27" d="M269.646 153.354a.502.502 0 0 0 .708 0l3.182-3.182a.502.502 0 0 0-.708-.708L270 152.293l-2.828-2.829a.502.502 0 0 0-.708.708l3.182 3.182ZM269.5 145v8h1v-8h-1Z"/><circle cx="340" cy="149" r="10" fill="#D9D9D9"/><path fill="#220E27" d="M339.646 153.354a.502.502 0 0 0 .708 0l3.182-3.182a.502.502 0 0 0-.708-.708L340 152.293l-2.828-2.829a.502.502 0 0 0-.708.708l3.182 3.182ZM339.5 145v8h1v-8h-1Z"/><defs><filter id="e" width="70" height="86" x="100" y="110" color-interpolation-filters="sRGB" filterUnits="userSpaceOnUse"><feFlood flood-opacity="0" result="BackgroundImageFix"/><feColorMatrix in="SourceAlpha" result="hardAlpha" values="0 0 0 0 0 0 0 0 0 0 0 0 0 0 0 0 0 0 127 0"/><feMorphology in="SourceAlpha" operator="dilate" radius="1" result="effect1_dropShadow_4317_12580"/><feOffset dx="5" dy="-5"/><feGaussianBlur stdDeviation="3"/><feComposite in2="hardAlpha" operator="out"/><feColorMatrix values="0 0 0 0 0.113725 0 0 0 0 0.34902 0 0 0 0 0.976471 0 0 0 0.1 0"/><feBlend in2="BackgroundImageFix" result="effect1_dropShadow_4317_12580"/><feBlend in="SourceGraphic" in2="effect1_dropShadow_4317_12580" result="shape"/></filter></defs>
  </g>
</svg>
