<svg width="80" height="80" viewBox="0 0 80 80" fill="none" xmlns="http://www.w3.org/2000/svg">
<g id="Group 1314">
<g id="Group 1315">
<path id="Rectangle 6" d="M0 8C0 3.58172 3.58172 0 8 0H72C76.4183 0 80 3.58172 80 8V72C80 76.4183 76.4183 80 72 80H8C3.58172 80 0 76.4183 0 72V8Z" fill="#F7F7F7"/>
<g id="Group 1297">
<path id="Vector" d="M48.4886 37.1923C47.8085 37.0964 47.2155 37.0005 46.5354 36.8959C46.4395 36.8 46.3436 36.8 46.3436 36.7041C46.2477 36.4076 46.0471 36.1198 45.9512 35.8234C45.8553 35.7275 45.8553 35.6316 45.9512 35.5269C46.3436 35.1346 46.6313 34.6463 47.0237 34.158C47.2155 33.8615 47.2155 33.7656 47.0237 33.4779C46.4395 32.8937 45.7507 32.2048 45.1665 31.6206C45.0706 31.5247 44.9746 31.4288 44.87 31.4288C44.7654 31.4288 44.6782 31.4288 44.5735 31.5247C44.0853 31.9171 43.597 32.3094 43.1087 32.6931C43.0447 32.757 42.9808 32.789 42.9168 32.789H42.8209C42.5245 32.6931 42.3326 32.5972 42.0362 32.4926C41.9403 32.4926 41.8444 32.3966 41.8444 32.3007C41.7484 31.7165 41.6525 31.0277 41.5479 30.3476C41.5479 30.0511 41.452 29.9552 41.1555 29.9552H39.8825C39.4901 29.9552 39.0018 29.9552 38.3217 29.8593C38.1299 29.8593 37.9293 29.9552 37.9293 30.2517C37.8334 30.9318 37.7375 31.5247 37.6329 32.2048C37.6329 32.3966 37.5369 32.5013 37.441 32.5013C37.1446 32.5972 36.8568 32.6931 36.6563 32.7977H36.5604C36.4645 32.7977 36.4645 32.7018 36.3685 32.7018C35.9762 32.3094 35.4879 32.0217 34.9996 31.6293C34.8078 31.5334 34.7031 31.4375 34.6072 31.4375C34.5113 31.4375 34.4154 31.5334 34.2148 31.6293C33.9184 31.8212 33.7265 32.0217 33.5347 32.2135C33.1423 32.6059 32.75 33.0942 32.3663 33.4779C32.0699 33.6697 32.1745 33.8702 32.3663 34.158C32.6628 34.5503 33.0464 35.0386 33.4388 35.5269C33.5347 35.6228 33.4388 35.7188 33.4388 35.8234C33.3429 36.1198 33.247 36.3117 33.1423 36.6081C33.1423 36.7041 33.0464 36.8 32.9505 36.8C32.2704 36.8959 31.6775 36.9918 30.9974 37.0964C30.8055 37.1923 30.605 37.2883 30.605 37.5847V40.1221C30.7009 40.4185 30.7968 40.6104 31.0933 40.6104C31.7734 40.7063 32.3663 40.8022 33.0464 40.9068C33.1423 41.0027 33.2383 41.0027 33.2383 41.0987C33.3342 41.3951 33.5347 41.6829 33.6306 41.9793C33.6946 42.0433 33.6946 42.1072 33.6306 42.1711C33.2383 42.5635 32.9505 43.0518 32.5581 43.5401C32.2617 43.8366 32.2617 44.0284 32.5581 44.3249C33.1423 45.005 33.8312 45.5979 34.4154 46.1821C34.5113 46.278 34.6072 46.278 34.7118 46.278C34.9037 46.278 35.0083 46.278 35.1042 46.1821C35.5925 45.8856 36.0808 45.502 36.5691 45.1096C36.633 45.0457 36.697 45.0137 36.7609 45.0137H36.9527C37.2492 45.1096 37.441 45.2055 37.7375 45.3101C37.8334 45.3101 37.9293 45.4061 37.9293 45.502C38.0252 46.1821 38.1212 46.775 38.2258 47.4551C38.2258 47.551 38.3217 47.7516 38.4176 47.8475H41.4433C41.5392 47.7516 41.6351 47.6557 41.6351 47.4551C41.731 46.8709 41.8269 46.1821 41.9316 45.5979C41.9316 45.4061 42.0275 45.3014 42.1234 45.3014C42.4198 45.2055 42.6117 45.1096 42.9081 45.005H43.004L43.1 45.1009C43.5882 45.3973 44.0765 45.781 44.5648 46.1734C44.7567 46.2693 44.8613 46.3652 44.9572 46.3652C45.0531 46.3652 45.149 46.2693 45.2537 46.1734C45.646 45.8769 46.0384 45.4933 46.4221 45.1009C46.6139 44.9091 46.9104 44.6126 47.1022 44.3161C47.294 44.0197 47.294 43.9238 47.1022 43.636C46.7098 43.2436 46.4221 42.7553 46.0297 42.2671C45.9338 42.1711 45.9338 42.0752 46.0297 41.9706C46.1256 41.6741 46.2215 41.4823 46.3262 41.1858C46.3262 41.0899 46.4221 40.994 46.518 40.994C47.1981 40.8981 47.791 40.8022 48.4711 40.6976C48.663 40.6016 48.8635 40.5057 48.8635 40.2093V37.6719C48.8635 37.3754 48.7676 37.1836 48.4711 37.1836L48.4886 37.1923ZM39.8999 42.0752C38.2432 42.0752 36.8743 40.7063 36.8743 39.0496C36.8743 37.3929 38.2432 36.0239 39.8999 36.0239C41.5566 36.0239 42.9256 37.3929 42.9256 39.0496C42.9256 40.7063 41.5566 42.0752 39.8999 42.0752Z" fill="#1D59F9"/>
<g id="Group">
<path id="Vector_2" d="M24.1789 49.1205C22.1386 49.1205 20.4731 47.4551 20.4731 45.4148V41.0638C20.4731 39.0234 22.1386 37.358 24.1789 37.358H25.7571C26.7773 37.358 27.7016 38.1951 27.7016 39.3024V47.1761C27.7016 48.1963 26.8645 49.1205 25.7571 49.1205H24.1789Z" fill="white"/>
<path id="Vector_3" d="M25.7571 38.3695C26.3151 38.3695 26.7773 38.8316 26.7773 39.3896V47.2633C26.7773 47.8213 26.3151 48.2835 25.7571 48.2835H24.1789C22.6966 48.2835 21.3974 47.0802 21.3974 45.502V41.151C21.3974 39.6687 22.6006 38.3695 24.1789 38.3695H25.7571ZM25.7571 36.5209H24.1789C21.6764 36.5209 19.5488 38.5613 19.5488 41.151V45.502C19.5488 48.0045 21.5892 50.132 24.1789 50.132H25.7571C27.3353 50.132 28.6258 48.8328 28.6258 47.2633V39.3896C28.5299 37.8114 27.2394 36.5209 25.7571 36.5209Z" fill="#220E27"/>
</g>
<path id="Vector_4" d="M24.5539 48.6497C24.3011 48.6497 24.0918 48.4404 24.0918 48.1876V37.9073C24.0918 37.6545 24.3011 37.4452 24.5539 37.4452C24.8068 37.4452 25.0161 37.6545 25.0161 37.9073V48.1876C25.0161 48.4404 24.8068 48.6497 24.5539 48.6497Z" fill="#220E27"/>
<g id="Group_2">
<path id="Vector_5" d="M53.7726 49.1205C52.7524 49.1205 51.8281 48.2835 51.8281 47.1761V39.3024C51.8281 38.2823 52.6652 37.358 53.7726 37.358H55.3508C57.3911 37.358 59.0566 39.0234 59.0566 41.0638V45.4148C59.0566 47.4551 57.3911 49.1205 55.3508 49.1205H53.7726Z" fill="white"/>
<path id="Vector_6" d="M55.3507 38.3695C56.833 38.3695 58.1322 39.5727 58.1322 41.151V45.502C58.1322 46.9843 56.9289 48.2835 55.3507 48.2835H53.7725C53.2145 48.2835 52.7523 47.8213 52.7523 47.2633V39.3896C52.7523 38.8316 53.2145 38.3695 53.7725 38.3695H55.3507ZM55.3507 36.5209H53.7725C52.1943 36.5209 50.9038 37.8201 50.9038 39.3896V47.2633C50.9038 48.8415 52.203 50.132 53.7725 50.132H55.3507C57.8532 50.132 59.9808 48.0916 59.9808 45.502V41.151C59.9808 38.5613 57.8532 36.5209 55.3507 36.5209Z" fill="#220E27"/>
</g>
<path id="Vector_7" d="M54.9763 48.6497C54.7234 48.6497 54.5142 48.4404 54.5142 48.1876V37.9073C54.5142 37.6545 54.7234 37.4452 54.9763 37.4452C55.2292 37.4452 55.4384 37.6545 55.4384 37.9073V48.1876C55.4384 48.4404 55.2292 48.6497 54.9763 48.6497Z" fill="#220E27"/>
<path id="Vector_8" d="M55.787 37.9073H54.1826C54.1826 28.9001 51.7237 22.9012 39.7171 22.9012C29.7682 22.9012 25.33 27.5312 25.33 37.9073H23.7256C23.7256 26.5633 28.9573 21.0526 39.7171 21.0526C50.4769 21.0526 55.787 26.0925 55.787 37.9073Z" fill="#220E27"/>
<path id="Vector_9" d="M48.0179 56.5408H40.2314C39.7169 56.5408 39.3071 56.1222 39.3071 55.6165C39.3071 55.1108 39.7257 54.6923 40.2314 54.6923H48.0179C51.3487 54.6923 54.0517 51.9805 54.0517 48.6584C54.0517 48.144 54.4209 48.3443 54.9267 48.3443C55.4324 48.3443 55.9003 48.1527 55.9003 48.6584C55.9003 53.0094 52.3602 56.5495 48.0091 56.5495L48.0179 56.5408Z" fill="#220E27"/>
<g id="Group_3">
<path id="Vector_10" d="M41.4694 54.1342H38.993C38.1744 54.1342 37.5107 54.7979 37.5107 55.6165C37.5107 56.4352 38.1744 57.0988 38.993 57.0988H41.4694C42.288 57.0988 42.9517 56.4352 42.9517 55.6165C42.9517 54.7979 42.288 54.1342 41.4694 54.1342Z" fill="white"/>
<path id="Vector_11" d="M41.4693 54.1342C42.2889 54.1342 42.9516 54.7969 42.9516 55.6165C42.9516 56.4362 42.2889 57.0988 41.4693 57.0988H38.9929C38.1733 57.0988 37.5106 56.4362 37.5106 55.6165C37.5106 54.7969 38.1733 54.1342 38.9929 54.1342H41.4693ZM41.4693 52.2857H38.9929C37.1531 52.2857 35.6621 53.7767 35.6621 55.6165C35.6621 57.4563 37.1531 58.9474 38.9929 58.9474H41.4693C43.3091 58.9474 44.8001 57.4563 44.8001 55.6165C44.8001 53.7767 43.3091 52.2857 41.4693 52.2857Z" fill="#220E27"/>
</g>
</g>
</g>
</g>
</svg>
