<?xml version="1.0" encoding="UTF-8"?>
<svg id="iconos" xmlns="http://www.w3.org/2000/svg" viewBox="0 0 80 80">
  <defs>
    <style>
      .cls-1 {
        fill: #220e27;
      }

      .cls-1, .cls-2 {
        stroke-width: 0px;
      }

      .cls-2 {
        fill: #fff;
      }

      .cls-3 {
        fill: #1d59f9;
        font-size: 20.52px;
      }
    </style>
  </defs>
  <g>
    <path class="cls-2" d="M58.02,20.28H20.89c-2.04,0-3.71,1.67-3.71,3.71v24.14c0,2.04,1.67,3.71,3.71,3.71h22.28l5.48,5.48h0c1.49,1.39,3.9.19,3.9-1.76l-.09-3.71h5.57c2.04,0,3.71-1.67,3.71-3.71v-24.14c0-2.04-1.67-3.71-3.71-3.71Z"/>
    <path class="cls-1" d="M58.02,22.28c.94,0,1.71.77,1.71,1.71v24.14c0,.94-.77,1.71-1.71,1.71h-5.57c-.54,0-1.06.22-1.43.6-.38.39-.58.91-.57,1.45l.09,3.66c0,.22-.26.37-.4.37-.03,0-.06,0-.11-.05l-5.45-5.45c-.38-.38-.88-.59-1.41-.59h-22.28c-.94,0-1.71-.77-1.71-1.71v-24.14c0-.94.77-1.71,1.71-1.71h37.13M58.02,20.28H20.89c-2.04,0-3.71,1.67-3.71,3.71v24.14c0,2.04,1.67,3.71,3.71,3.71h22.28l5.48,5.48c.45.42.97.6,1.5.6,1.22,0,2.4-1,2.4-2.37l-.09-3.71h5.57c2.04,0,3.71-1.67,3.71-3.71v-24.14c0-2.04-1.67-3.71-3.71-3.71h0Z"/>
  </g>
  <text class="cls-3" transform="translate(30.45 44.08)"><tspan x="0" y="0">#</tspan></text>
</svg>