<?xml version="1.0" encoding="UTF-8"?>
<svg id="iconos" xmlns="http://www.w3.org/2000/svg" viewBox="0 0 80 80">
  <defs>
    <style>
      .cls-1 {
        fill: #220e27;
      }

      .cls-1, .cls-2, .cls-3 {
        stroke-width: 0px;
      }

      .cls-2 {
        fill: #1d59f9;
      }

      .cls-3, .cls-4 {
        fill: #fff;
      }

      .cls-4 {
        font-size: 13.05px;
      }
    </style>
  </defs>
  <g>
    <path class="cls-3" d="M59.47,36l-15.75-12.82c-2.12-1.73-5.11-1.73-7.23,0l-15.96,13.03v10.86h38.93v-11.07Z"/>
    <path class="cls-1" d="M59.47,48.07H20.53c-.55,0-1-.45-1-1v-10.86c0-.3.13-.58.37-.77l15.96-13.03c2.5-2.04,5.99-2.04,8.49,0l15.75,12.82c.23.19.37.47.37.78v11.07c0,.55-.45,1-1,1ZM21.53,46.07h36.93v-9.6l-15.38-12.52c-1.76-1.43-4.21-1.43-5.96,0l-15.59,12.73v9.38Z"/>
  </g>
  <rect class="cls-2" x="25.46" y="25.04" width="29.08" height="27.83" rx="4.07" ry="4.07"/>
  <g>
    <path class="cls-3" d="M56.68,58.12H23.32c-1.54,0-2.79-1.25-2.79-2.79v-19.33l16.63,9.82c1.77.89,3.9.89,5.67,0l16.63-9.82v19.33c0,1.54-1.25,2.79-2.79,2.79Z"/>
    <path class="cls-1" d="M56.68,59.12H23.32c-2.09,0-3.79-1.7-3.79-3.79v-19.33c0-.36.19-.69.5-.87.31-.18.7-.17,1,0l16.63,9.82c1.43.71,3.22.72,4.71-.03l16.57-9.78c.31-.18.69-.18,1,0,.31.18.5.51.5.87v19.33c0,2.09-1.7,3.79-3.79,3.79ZM21.53,37.76v17.58c0,.99.8,1.79,1.79,1.79h33.36c.99,0,1.79-.8,1.79-1.79v-17.57l-15.12,8.93c-2.12,1.06-4.57,1.06-6.62.03l-15.18-8.96Z"/>
  </g>
  <g>
    <line class="cls-3" x1="58.9" y1="57.02" x2="46.01" y2="44.14"/>
    <path class="cls-1" d="M58.9,57.52c-.13,0-.26-.05-.35-.15l-12.88-12.88c-.2-.2-.2-.51,0-.71s.51-.2.71,0l12.88,12.88c.2.2.2.51,0,.71-.1.1-.23.15-.35.15Z"/>
  </g>
  <g>
    <line class="cls-3" x1="21.83" y1="57.02" x2="34.56" y2="44.29"/>
    <path class="cls-1" d="M21.83,57.52c-.13,0-.26-.05-.35-.15-.2-.2-.2-.51,0-.71l12.73-12.73c.2-.2.51-.2.71,0s.2.51,0,.71l-12.73,12.73c-.1.1-.23.15-.35.15Z"/>
  </g>
  <text class="cls-4" transform="translate(34.02 38.87)"><tspan x="0" y="0">@</tspan></text>
</svg>