<?xml version="1.0" encoding="UTF-8"?>
<svg id="iconos" xmlns="http://www.w3.org/2000/svg" viewBox="0 0 80 80">
  <defs>
    <style>
      .cls-1 {
        fill: #220e27;
      }

      .cls-1, .cls-2, .cls-3 {
        stroke-width: 0px;
      }

      .cls-2 {
        fill: #1d59f9;
      }

      .cls-4 {
        font-size: 12px;
      }

      .cls-4, .cls-3 {
        fill: #fff;
      }
    </style>
  </defs>
  <circle class="cls-3" cx="40.03" cy="39.98" r="18.6"/>
  <path class="cls-1" d="M40.03,59.08c-5.78,0-10.47-8.57-10.47-19.1s4.7-19.1,10.47-19.1c4.71,0,8.78,5.5,10.13,13.69.04.27-.14.53-.41.57-.27.05-.53-.14-.57-.41-1.27-7.69-4.94-12.85-9.14-12.85-5.22,0-9.47,8.12-9.47,18.1s4.25,18.1,9.47,18.1c3.61,0,6.97-4.07,8.56-10.36.07-.27.34-.43.61-.36.27.07.43.34.36.61-1.71,6.75-5.45,11.11-9.53,11.11Z"/>
  <rect class="cls-1" x="39.53" y="22.15" width="1" height="36.43"/>
  <path class="cls-1" d="M47.64,40.48h-26.21c-.28,0-.5-.22-.5-.5s.22-.5.5-.5h26.21c.28,0,.5.22.5.5s-.22.5-.5.5Z"/>
  <path class="cls-1" d="M55.25,29.76h-30.85c-.28,0-.5-.22-.5-.5s.22-.5.5-.5h30.85c.28,0,.5.22.5.5s-.22.5-.5.5Z"/>
  <path class="cls-1" d="M55.25,51.2h-30.85c-.28,0-.5-.22-.5-.5s.22-.5.5-.5h30.85c.28,0,.5.22.5.5s-.22.5-.5.5Z"/>
  <path class="cls-1" d="M40.03,59.08c-.28,0-.5-.22-.5-.5s.22-.5.5-.5c5.22,0,9.48-8.12,9.48-18.1s-4.25-18.1-9.48-18.1c-.28,0-.5-.22-.5-.5s.22-.5.5-.5c5.78,0,10.48,8.57,10.48,19.1s-4.7,19.1-10.48,19.1Z"/>
  <path class="cls-1" d="M58.63,40.48h-26.21c-.28,0-.5-.22-.5-.5s.22-.5.5-.5h26.21c.28,0,.5.22.5.5s-.22.5-.5.5Z"/>
  <path class="cls-1" d="M39.91,59.62c-10.79,0-19.58-8.78-19.58-19.58s8.78-19.58,19.58-19.58,19.58,8.78,19.58,19.58-8.78,19.58-19.58,19.58ZM39.91,22.46c-9.69,0-17.58,7.88-17.58,17.58s7.88,17.58,17.58,17.58,17.58-7.88,17.58-17.58-7.88-17.58-17.58-17.58Z"/>
  <rect class="cls-2" x="18.76" y="32.64" width="42.48" height="15.47" rx="1.49" ry="1.49"/>
  <text class="cls-4" transform="translate(25.42 44.11)"><tspan x="0" y="0">www</tspan></text>
</svg>