<svg xmlns="http://www.w3.org/2000/svg" width="80" height="80" viewBox="0 0 80 80" fill="none">
    <path d="M40.35 22C52.35 13.9 59.95 26.7 52.25 35.4C49.45 38.9 45.25 42.1 40.35 45.2C35.75 42.7 31.95 39.4 28.75 35.6C20.35 24.2 30.65 14.9 40.35 22Z" fill="white"/>
    <path d="M47.35 19.8C54.65 19.8 57.75 28.8 51.95 35.5C49.15 38.9 45.05 42.1 40.25 45.2001C35.75 42.7001 32.05 39.5 28.85 35.7001C22.55 27.2001 26.85 19.9 33.45 19.9C35.65 19.9 37.85 20.6 40.25 22.4C42.85 20.6 45.25 19.8 47.35 19.8ZM47.35 17.8C45.05 17.8 42.75 18.5 40.25 19.9C38.05 18.6 35.75 17.8 33.45 17.8C29.65 17.8 26.45 19.8 24.85 22.9C22.75 26.9 23.75 32.0001 27.25 36.9001V37C30.65 41 34.65 44.4001 39.25 46.9001L40.25 47.5L41.25 46.9001C46.65 43.4001 50.75 40.1 53.45 36.8C56.85 32.9 57.85 27.6 55.95 23.3C54.45 19.8 51.25 17.8 47.35 17.8Z" fill="#220E27"/>
    <path d="M49.3499 20.1C49.9499 20.2 50.45 20.4 50.95 20.7C52.15 21.4 53.05 22.3 53.75 23.4C54.65 24.7 55.05 26.2 55.15 27.7C55.25 29.8 54.7499 31.7 53.5499 33.5C53.2499 33.9 52.95 34.3 52.75 34.8C52.75 34.7 52.65 34.7 52.65 34.7C52.25 34 51.65 33.5 50.95 33.1C50.55 32.9 50.0499 32.8 49.5499 32.8C48.9499 32.9 48.35 32.9 47.75 32.8C47.55 32.8 47.45 32.7 47.25 32.6C47.05 32.5 46.95 32.3 46.95 32.1C46.95 31.8 47.1499 31.6 47.3499 31.5C47.6499 31.2 48.05 31 48.45 30.8C48.65 30.6 48.95 30.5 49.15 30.3C49.35 30.1 49.55 29.8 49.45 29.5C49.45 29 49.65 28.6 50.15 28.3C50.65 28 51.05 27.8 51.45 27.4C51.75 27.1 52.05 26.7 51.95 26.2C51.95 25.9 51.75 25.6 51.65 25.4C51.25 24.8 50.85 24.2 50.45 23.5C49.85 22.6 49.4499 21.5 49.3499 20.4C49.3499 20.3 49.3499 20.2 49.3499 20.1Z" fill="#1D59F9"/>
    <path d="M25.55 28.2C26.15 28.1 26.75 28.1 27.35 28.2C27.85 28.3 28.35 28.4 28.85 28.6C29.35 28.9 29.6501 29.3 29.85 29.8C30.1501 30.6 30.55 31.2 31.35 31.6C31.6501 31.7 32.05 31.8 32.35 31.9C32.45 31.9 32.5501 32 32.6501 32C33.1501 32.1 33.55 32.4 33.75 32.8C34.05 33.4 34.25 34 34.35 34.6C34.35 34.9 34.4501 35.2 34.4501 35.6C34.4501 36 34.2501 36.4 33.9501 36.8C33.6501 37.1 33.45 37.5 33.25 37.9C32.95 38.6 32.9501 39.2 33.1501 39.9C33.1501 40 33.25 40.2 33.25 40.3C33.25 40.3 33.1501 40.3 33.1501 40.2C31.4501 38.8 29.95 37.2 28.55 35.5C27.75 34.5 26.9501 33.4 26.4501 32.2C25.9501 31.1 25.65 29.9 25.55 28.7C25.55 28.6 25.55 28.4 25.55 28.2Z" fill="#1D59F9"/>
    <path d="M45.85 41.2999C44.35 42.3999 42.85 43.4999 41.35 44.3999C41.25 44.1999 41.0501 43.9999 40.9501 43.8999C40.3501 42.9999 39.75 42.0999 39.25 41.0999C39.15 40.7999 39.05 40.5999 39.05 40.2999C39.05 39.9999 39.15 39.7999 39.35 39.4999C39.65 39.1999 39.95 38.7999 40.35 38.4999C40.95 37.7999 41.05 37.0999 40.85 36.1999C40.75 35.5999 40.85 34.9999 41.35 34.6999C41.65 34.4999 41.95 34.3999 42.25 34.2999C42.45 34.1999 42.7501 34.2999 42.9501 34.2999C43.0501 34.2999 43.1501 34.3999 43.1501 34.4999C43.1501 34.7999 43.25 34.9999 43.25 35.2999C43.35 35.6999 43.55 35.9999 43.85 36.2999C44.15 36.5999 44.2501 36.8999 44.1501 37.1999C43.9501 37.8999 43.85 38.4999 44.05 39.1999C44.25 40.0999 44.8501 40.6999 45.6501 41.0999C45.6501 41.1999 45.75 41.2999 45.85 41.2999Z" fill="#1D59F9"/>
    <path d="M27.4501 22.7C28.2501 21.7 29.2501 20.9 30.5501 20.4C31.6501 20 32.8501 19.8 34.0501 19.9C35.6501 20 36.9501 20.5 38.3501 21.2C38.8501 21.4 39.5501 22 40.0501 22.3C40.1501 22.3 38.2501 22.9 40.8501 24.7C41.1501 25 41.2501 25.4 41.1501 25.8C41.0501 26.1 40.8501 26.4 40.6501 26.6C40.4501 26.8 40.1501 26.8 39.8501 26.7C39.4501 26.6 39.1501 26.5 38.8501 26.3C38.5501 26.1 38.3501 25.9 38.0501 25.7C37.6501 25.5 37.2501 25.4 36.7501 25.6C36.4501 25.7 36.2501 25.8 35.9501 25.9C35.7501 26 35.5501 26.1 35.2501 26.2C34.7501 26.4 34.3501 26.3 33.9501 25.9C33.5501 25.6 33.3501 25.2 33.0501 24.7C32.9501 24.5 32.8501 24.3 32.6501 24C32.2501 23.4 31.7501 23.1 31.0501 23.1C29.4501 23 28.0501 23.3 26.6501 24C26.6501 23.9 27.0501 23.2 27.4501 22.7Z" fill="#1D59F9"/>
    <path d="M35.25 60.6V57.2001C35.25 56.2001 34.85 55.3 34.15 54.6L27.75 48.4001C27.25 47.9001 26.45 47.9001 25.95 48.4001L25.05 49.3V39.1C25.05 38.4 24.45 37.8 23.75 37.8H22.05C21.35 37.8 20.75 38.4 20.75 39.1V52.9001C20.75 53.2001 20.85 53.5 21.05 53.8L28.45 61.5C28.65 61.8 29.05 61.9001 29.35 61.9001H33.85C34.75 61.9001 35.25 61.3 35.25 60.6Z" fill="white"/>
    <path d="M33.85 62.9H29.35C28.66 62.9 28.05 62.62 27.68 62.14L20.33 54.49C20.33 54.49 20.25 54.4 20.22 54.35C19.91 53.88 19.75 53.39 19.75 52.89V39.09C19.75 37.84 20.8 36.79 22.05 36.79H23.75C25 36.79 26.05 37.84 26.05 39.09V47.16C26.86 46.86 27.81 47.03 28.46 47.68L34.85 53.87C35.76 54.78 36.25 55.95 36.25 57.19V60.59C36.25 61.92 35.24 62.89 33.85 62.89V62.9ZM21.84 53.18L29.17 60.81C29.17 60.81 29.23 60.88 29.26 60.92C29.25 60.89 29.29 60.9 29.35 60.9H33.85C34.25 60.9 34.25 60.69 34.25 60.6V57.2C34.25 56.49 33.97 55.84 33.44 55.31L27.05 49.12C26.93 49 26.76 49 26.65 49.11L25.75 50.01C25.46 50.3 25.03 50.38 24.66 50.23C24.29 50.08 24.04 49.71 24.04 49.31V39.11C24.04 38.96 23.89 38.81 23.74 38.81H22.04C21.89 38.81 21.74 38.96 21.74 39.11V52.91C21.74 52.99 21.77 53.09 21.83 53.19L21.84 53.18Z" fill="#220E27"/>
    <path d="M25.75 49.3L25.25 49.8C24.75 50.3 24.75 51.1 25.25 51.6L29.95 56.4001" fill="white"/>
    <path d="M29.9501 56.9C29.8201 56.9 29.6901 56.85 29.5901 56.75L24.8901 51.95C24.2001 51.26 24.2001 50.14 24.8901 49.45L25.3901 48.95C25.5901 48.75 25.9001 48.75 26.1001 48.95C26.3001 49.15 26.3001 49.46 26.1001 49.66L25.6001 50.16C25.2901 50.47 25.2901 50.95 25.6001 51.25L30.3001 56.05C30.4901 56.25 30.4901 56.56 30.3001 56.76C30.2001 56.86 30.0801 56.9 29.9501 56.9Z" fill="#220E27"/>
    <path d="M44.8501 60.9V57.5C44.8501 56.5 45.2501 55.6 45.9501 54.9L52.3501 48.7C52.8501 48.2 53.6501 48.2 54.1501 48.7L55.0501 49.6V39.4C55.0501 38.7 55.6501 38.1 56.3501 38.1H57.9501C58.6501 38.1 59.2501 38.7 59.2501 39.4V53.2C59.2501 53.5 59.1501 53.8 58.9501 54.1L51.5501 61.8C51.3501 62.1 50.9501 62.2 50.6501 62.2H46.1501C45.3501 62.1 44.8501 61.5 44.8501 60.9Z" fill="white"/>
    <path d="M50.6501 63.2H46.1501C46.1501 63.2 46.0701 63.2 46.0301 63.2C44.7901 63.04 43.8501 62.06 43.8501 60.91V57.51C43.8501 56.28 44.3501 55.1 45.2401 54.2L51.6501 47.99C52.2901 47.35 53.2401 47.18 54.0501 47.48V39.41C54.0501 38.16 55.1001 37.11 56.3501 37.11H57.9501C59.2001 37.11 60.2501 38.16 60.2501 39.41V53.21C60.2501 53.71 60.0901 54.2 59.7801 54.67C59.7501 54.72 59.7101 54.77 59.6701 54.81L52.3201 62.46C51.9601 62.94 51.3401 63.22 50.6501 63.22V63.2ZM46.2201 61.2H50.6501C50.7101 61.2 50.7701 61.18 50.7901 61.18L58.1601 53.48C58.2201 53.38 58.2501 53.28 58.2501 53.2V39.4C58.2501 39.25 58.1001 39.1 57.9501 39.1H56.3501C56.2001 39.1 56.0501 39.25 56.0501 39.4V49.6C56.0501 50 55.8101 50.37 55.4301 50.52C55.0601 50.67 54.6301 50.59 54.3401 50.3L53.4401 49.4C53.3301 49.29 53.1601 49.29 53.0501 49.4L46.6401 55.61C46.1201 56.13 45.8401 56.78 45.8401 57.49V60.89C45.8401 60.97 45.9501 61.14 46.2201 61.19V61.2Z" fill="#220E27"/>
    <path d="M54.8499 49.9L55.3499 50.4C55.8499 50.9 55.8499 51.7 55.3499 52.2L50.6499 57" fill="white"/>
    <path d="M50.6499 57.5C50.5199 57.5 50.3999 57.45 50.2999 57.36C50.0999 57.17 50.0999 56.85 50.2999 56.65L54.9999 51.85C55.3099 51.54 55.3099 51.06 54.9999 50.75L54.4999 50.25C54.2999 50.05 54.2999 49.74 54.4999 49.54C54.6999 49.34 55.0099 49.34 55.2099 49.54L55.7099 50.04C56.3999 50.73 56.3999 51.86 55.7099 52.55L51.0099 57.35C50.9099 57.45 50.7799 57.5 50.6499 57.5Z" fill="#220E27"/>
  </svg>