<svg xmlns="http://www.w3.org/2000/svg" width="80" height="80" viewBox="0 0 80 80" fill="none">
    <path d="M58.73 37.29L55.38 28.88V27.07C55.38 26.53 55.02 26.17 54.48 26.17H25.53C24.99 26.17 24.63 26.53 24.63 27.07V28.88L21.28 37.29C21.1 37.47 21.01 37.65 21.01 37.92V41.54C21.01 42.08 21.46 42.44 21.91 42.44H23.72V60.54C23.72 61.54 24.53 62.35 25.53 62.35H54.48C55.48 62.35 56.29 61.54 56.29 60.54V42.44H58.1C58.64 42.44 59 42.08 59 41.54V37.92C59 37.65 58.91 37.47 58.73 37.29Z" fill="white"/>
    <path d="M54.48 63.35H25.53C23.98 63.35 22.72 62.09 22.72 60.54V43.44H21.91C20.86 43.44 20.01 42.59 20.01 41.54V37.92C20.01 37.48 20.14 37.09 20.42 36.75L23.63 28.68V27.06C23.63 25.96 24.43 25.16 25.53 25.16H54.48C55.58 25.16 56.38 25.96 56.38 27.06V28.68L59.59 36.75C59.86 37.09 60 37.47 60 37.92V41.54C60 42.64 59.2 43.44 58.1 43.44H57.29V60.54C57.29 62.09 56.03 63.35 54.48 63.35ZM22 41.45H24.71V60.55C24.71 61 25.07 61.36 25.52 61.36H54.47C54.92 61.36 55.28 61 55.28 60.55V41.45H57.99V37.98L57.88 37.87L57.79 37.66L54.37 29.07V27.17H25.61V29.07L22.12 37.85L22 37.97V41.44V41.45Z" fill="#220E27"/>
    <path d="M39.1499 62.4H28.1899V49.41C28.1899 48.06 29.3299 46.92 30.6799 46.92H36.5599C37.9299 46.92 39.0499 48.04 39.0499 49.41L39.1399 62.4H39.1499ZM29.1899 61.4H38.1399L38.0499 49.42C38.0499 48.61 37.3699 47.93 36.5599 47.93H30.6799C29.8699 47.93 29.1899 48.61 29.1899 49.42V61.41V61.4Z" fill="#220E27"/>
    <path d="M51.13 54.66H45.25C44.16 54.66 43.26 53.76 43.26 52.67V49.5C43.26 48.41 44.16 47.51 45.25 47.51H51.13C52.22 47.51 53.12 48.41 53.12 49.5V52.67C53.12 53.76 52.22 54.66 51.13 54.66Z" fill="white"/>
    <path d="M51.13 55.16H45.25C43.88 55.16 42.76 54.04 42.76 52.67V49.5C42.76 48.13 43.88 47.01 45.25 47.01H51.13C52.48 47.01 53.62 48.15 53.62 49.5V52.67C53.62 54.02 52.48 55.16 51.13 55.16ZM45.25 48.01C44.44 48.01 43.76 48.69 43.76 49.5V52.67C43.76 53.48 44.44 54.16 45.25 54.16H51.13C51.94 54.16 52.62 53.48 52.62 52.67V49.5C52.62 48.69 51.94 48.01 51.13 48.01H45.25Z" fill="#220E27"/>
    <path d="M31.86 54.7H30.95C30.67 54.7 30.45 54.48 30.45 54.2C30.45 53.92 30.67 53.7 30.95 53.7H31.86C32.14 53.7 32.36 53.92 32.36 54.2C32.36 54.48 32.14 54.7 31.86 54.7Z" fill="#220E27"/>
    <path d="M55.38 29.73H24.62V30.73H55.38V29.73Z" fill="#220E27"/>
    <path d="M59 36.97H21V37.97H59V36.97Z" fill="#220E27"/>
    <path d="M59 41.49H21V42.49H59V41.49Z" fill="#220E27"/>
    <path d="M33.21 37.51C33.21 37.51 33.12 37.51 33.07 37.49C32.8 37.41 32.65 37.14 32.73 36.87L34.54 30.54C34.62 30.27 34.89 30.12 35.16 30.2C35.43 30.28 35.58 30.55 35.5 30.82L33.69 37.15C33.63 37.37 33.43 37.51 33.21 37.51Z" fill="#220E27"/>
    <path d="M46.7899 37.5099C46.5699 37.5099 46.3699 37.3699 46.3099 37.1499L44.4999 30.8199C44.4199 30.5499 44.5799 30.2799 44.8399 30.1999C45.1099 30.1299 45.3799 30.2799 45.4599 30.5399L47.2699 36.8699C47.3499 37.1399 47.1899 37.4099 46.9299 37.4899C46.8799 37.4999 46.8399 37.5099 46.7899 37.5099Z" fill="#220E27"/>
    <path d="M52.21 37.5099C51.99 37.5099 51.79 37.3699 51.73 37.1499L49.92 30.8199C49.84 30.5499 50 30.2799 50.26 30.1999C50.53 30.1299 50.8 30.2799 50.88 30.5399L52.69 36.8699C52.77 37.1399 52.61 37.4099 52.35 37.4899C52.3 37.4999 52.26 37.5099 52.21 37.5099Z" fill="#220E27"/>
    <path d="M27.7899 37.51C27.7899 37.51 27.6999 37.51 27.6499 37.49C27.3799 37.41 27.2299 37.14 27.3099 36.87L29.1199 30.54C29.1999 30.27 29.4699 30.12 29.7399 30.2C30.0099 30.28 30.1599 30.55 30.0799 30.82L28.2699 37.15C28.2099 37.37 28.0099 37.51 27.7899 37.51Z" fill="#220E27"/>
    <path d="M40 37.9699C39.72 37.9699 39.5 37.7499 39.5 37.4699V30.6799C39.5 30.3999 39.72 30.1799 40 30.1799C40.28 30.1799 40.5 30.3999 40.5 30.6799V37.4699C40.5 37.7499 40.28 37.9699 40 37.9699Z" fill="#220E27"/>
    <path d="M49.05 28.51H30.95C28.69 28.51 26.88 26.7 26.88 24.44V21.73C26.88 19.47 28.69 17.66 30.95 17.66H49.05C51.31 17.66 53.12 19.47 53.12 21.73V24.44C53.12 26.7 51.22 28.51 49.05 28.51Z" fill="#1D59F9"/>
    <path d="M29.41 24.17L30.41 23.99C30.59 24.62 31.04 24.89 31.59 24.89C32.04 24.89 32.59 24.62 32.59 24.26C32.59 24.08 32.5 23.9 32.14 23.72L30.87 23.36C30.51 23.27 29.69 23 29.69 22C29.69 20.91 30.5 20.46 31.59 20.46C32.59 20.46 33.31 21 33.58 22L32.58 22.18C32.49 21.64 32.04 21.37 31.58 21.37C31.12 21.37 30.68 21.55 30.68 21.91C30.68 22.27 31.04 22.36 31.31 22.45L32.21 22.72C32.75 22.9 33.57 23.08 33.57 24.17C33.57 25.26 32.57 25.8 31.58 25.8C30.4 25.8 29.5 25.17 29.41 24.17Z" fill="white"/>
    <path d="M34.9301 20.55H35.8301V22.72H38.0901V20.55H38.9901V25.8H38.0901V23.63H35.8301V25.8H34.9301V20.55Z" fill="white"/>
    <path d="M40.4501 23.08C40.4501 21.45 41.3501 20.37 42.8901 20.37C44.4301 20.37 45.3301 21.46 45.3301 23.08C45.3301 24.7 44.4301 25.79 42.8901 25.79C41.3501 25.79 40.4501 24.7 40.4501 23.08ZM44.3401 23.08C44.3401 21.99 43.8901 21.27 42.8901 21.27C41.8901 21.27 41.4401 21.99 41.4401 23.08C41.4401 24.17 41.8901 24.89 42.8901 24.89C43.8901 24.89 44.3401 24.17 44.3401 23.08Z" fill="white"/>
    <path d="M46.7001 20.55H49.2301C50.1301 20.73 50.5001 21.3601 50.5001 22.2701C50.5001 23.1801 50.1401 23.81 49.2301 23.99H47.6001V25.8H46.7001V20.55ZM48.7801 22.99H49.1401C49.5001 22.9 49.5901 22.5401 49.5901 22.2701C49.5901 22.0001 49.5001 21.64 49.1401 21.55H47.6901V23.18H48.7801V23V22.99Z" fill="white"/>
  </svg>