<svg xmlns="http://www.w3.org/2000/svg" width="80" height="80" viewBox="0 0 80 80" fill="none">
    <path d="M19.38 61.34C16.87 61.34 14.9 59.37 14.9 56.86V26.38C14.9 23.87 16.87 21.9 19.38 21.9H60.62C63.13 21.9 65.1 23.87 65.1 26.38V56.86C65.1 59.37 63.13 61.34 60.62 61.34H19.38Z" fill="white"/>
    <path d="M60.62 22.79C62.59 22.79 64.21 24.4 64.21 26.38V56.86C64.21 58.83 62.6 60.45 60.62 60.45H19.38C17.41 60.45 15.79 58.84 15.79 56.86V26.38C15.79 24.41 17.4 22.79 19.38 22.79H60.62ZM60.62 21H19.38C16.42 21 14 23.42 14 26.38V56.86C14 59.82 16.42 62.24 19.38 62.24H60.62C63.58 62.24 66 59.82 66 56.86V26.38C66 23.42 63.58 21 60.62 21Z" fill="#220E27"/>
    <path d="M20.28 27.28C20.7771 27.28 21.18 26.877 21.18 26.38C21.18 25.8829 20.7771 25.48 20.28 25.48C19.783 25.48 19.38 25.8829 19.38 26.38C19.38 26.877 19.783 27.28 20.28 27.28Z" fill="#220E27"/>
    <path d="M22.9699 27.28C23.467 27.28 23.8699 26.877 23.8699 26.38C23.8699 25.8829 23.467 25.48 22.9699 25.48C22.4729 25.48 22.0699 25.8829 22.0699 26.38C22.0699 26.877 22.4729 27.28 22.9699 27.28Z" fill="#220E27"/>
    <path d="M25.66 27.28C26.1571 27.28 26.56 26.877 26.56 26.38C26.56 25.8829 26.1571 25.48 25.66 25.48C25.163 25.48 24.76 25.8829 24.76 26.38C24.76 26.877 25.163 27.28 25.66 27.28Z" fill="#220E27"/>
    <path d="M64.21 30.47H15.79C15.51 30.47 15.29 30.25 15.29 29.97C15.29 29.69 15.51 29.47 15.79 29.47H64.2C64.48 29.47 64.7 29.69 64.7 29.97C64.7 30.25 64.48 30.47 64.2 30.47H64.21Z" fill="#220E27"/>
    <path d="M41.7 52.56H38.92C38.83 52.47 38.74 52.29 38.74 52.2C38.65 51.57 38.56 51.03 38.47 50.41C38.47 50.32 38.38 50.23 38.29 50.23C38.02 50.14 37.84 50.05 37.57 49.96C37.48 49.87 37.39 49.96 37.21 49.96C36.76 50.32 36.31 50.68 35.87 50.95C35.6 51.13 35.42 51.13 35.24 50.95C34.7 50.41 34.07 49.87 33.54 49.25C33.27 48.98 33.27 48.8 33.54 48.53C33.9 48.08 34.17 47.63 34.53 47.27C34.59 47.21 34.59 47.15 34.53 47.09C34.44 46.82 34.26 46.55 34.17 46.28C34.17 46.19 34.08 46.19 33.99 46.1C33.36 46.01 32.82 45.92 32.2 45.83C31.93 45.83 31.84 45.65 31.75 45.38V43.05C31.75 42.78 31.93 42.69 32.11 42.6C32.74 42.51 33.28 42.42 33.9 42.33C33.99 42.33 34.08 42.24 34.08 42.15C34.17 41.88 34.26 41.7 34.35 41.43C34.35 41.34 34.44 41.25 34.35 41.16C33.99 40.71 33.63 40.26 33.36 39.9C33.18 39.63 33.09 39.45 33.36 39.27C33.72 38.91 34.08 38.46 34.44 38.1C34.62 37.92 34.8 37.74 35.07 37.56C35.34 37.38 35.43 37.38 35.79 37.56C36.24 37.92 36.69 38.19 37.05 38.55C37.14 38.64 37.23 38.64 37.32 38.55C37.5 38.46 37.77 38.37 38.04 38.28C38.13 38.28 38.22 38.19 38.22 38.01C38.31 37.38 38.4 36.84 38.49 36.22C38.49 35.95 38.67 35.86 38.85 35.86H41.27C41.54 35.86 41.63 35.95 41.63 36.22C41.72 36.85 41.81 37.48 41.9 38.01C41.9 38.1 41.99 38.19 42.08 38.19C42.35 38.28 42.53 38.37 42.8 38.46H43.07C43.52 38.1 43.97 37.74 44.41 37.38C44.59 37.2 44.77 37.2 45.04 37.38C45.58 37.92 46.21 38.55 46.74 39.08C46.92 39.35 46.92 39.44 46.74 39.71C46.38 40.16 46.11 40.61 45.75 40.97C45.66 41.06 45.66 41.15 45.75 41.24C45.84 41.51 46.02 41.78 46.11 42.05C46.11 42.14 46.2 42.14 46.29 42.23C46.92 42.32 47.46 42.41 48.08 42.5C48.35 42.5 48.44 42.68 48.44 42.95V45.28C48.44 45.55 48.26 45.64 48.08 45.73C47.45 45.82 46.91 45.91 46.29 46C46.2 46 46.11 46.09 46.11 46.18C46.02 46.45 45.93 46.63 45.84 46.9C45.75 46.99 45.75 47.08 45.84 47.17C46.2 47.62 46.47 48.07 46.83 48.43C47.01 48.7 47.01 48.79 46.83 49.06C46.65 49.33 46.38 49.6 46.2 49.78C45.84 50.14 45.48 50.5 45.12 50.77C44.85 50.95 44.76 50.95 44.49 50.77C44.04 50.41 43.59 50.05 43.15 49.78C43.09 49.72 43.03 49.72 42.97 49.78C42.7 49.87 42.52 49.96 42.25 50.05C42.16 50.05 42.07 50.14 42.07 50.32C41.98 50.86 41.89 51.49 41.8 52.02C41.89 52.29 41.8 52.47 41.71 52.56H41.7ZM43.04 44.31C43.04 42.79 41.78 41.53 40.26 41.53C38.74 41.53 37.48 42.79 37.48 44.31C37.48 45.83 38.74 47.09 40.26 47.09C41.78 47.09 43.04 45.83 43.04 44.31Z" fill="#1D59F9"/>
    <path d="M60.17 40.6899H51.38C51.1 40.6899 50.88 40.4699 50.88 40.1899C50.88 39.9099 51.1 39.6899 51.38 39.6899H60.17C60.45 39.6899 60.67 39.9099 60.67 40.1899C60.67 40.4699 60.45 40.6899 60.17 40.6899Z" fill="#220E27"/>
    <path d="M60.17 44.8101H51.38C51.1 44.8101 50.88 44.5901 50.88 44.3101C50.88 44.0301 51.1 43.8101 51.38 43.8101H60.17C60.45 43.8101 60.67 44.0301 60.67 44.3101C60.67 44.5901 60.45 44.8101 60.17 44.8101Z" fill="#220E27"/>
    <path d="M60.26 48.84H51.47C51.19 48.84 50.97 48.62 50.97 48.34C50.97 48.06 51.19 47.84 51.47 47.84H60.26C60.54 47.84 60.76 48.06 60.76 48.34C60.76 48.62 60.54 48.84 60.26 48.84Z" fill="#220E27"/>
    <path d="M28.52 48.9301H19.73C19.45 48.9301 19.23 48.7101 19.23 48.4301C19.23 48.1501 19.45 47.9301 19.73 47.9301H28.52C28.8 47.9301 29.02 48.1501 29.02 48.4301C29.02 48.7101 28.8 48.9301 28.52 48.9301Z" fill="#220E27"/>
    <path d="M28.52 44.8101H19.73C19.45 44.8101 19.23 44.5901 19.23 44.3101C19.23 44.0301 19.45 43.8101 19.73 43.8101H28.52C28.8 43.8101 29.02 44.0301 29.02 44.3101C29.02 44.5901 28.8 44.8101 28.52 44.8101Z" fill="#220E27"/>
    <path d="M28.52 40.6899H19.73C19.45 40.6899 19.23 40.4699 19.23 40.1899C19.23 39.9099 19.45 39.6899 19.73 39.6899H28.52C28.8 39.6899 29.02 39.9099 29.02 40.1899C29.02 40.4699 28.8 40.6899 28.52 40.6899Z" fill="#220E27"/>
  </svg>