<svg xmlns="http://www.w3.org/2000/svg" width="80" height="80" viewBox="0 0 80 80" fill="none">
    <path d="M39.9999 63.1C52.7577 63.1 63.0999 52.7578 63.0999 40C63.0999 27.2422 52.7577 16.9 39.9999 16.9C27.2421 16.9 16.8999 27.2422 16.8999 40C16.8999 52.7578 27.2421 63.1 39.9999 63.1Z" fill="white"/>
    <path d="M39.9999 64.1C26.7099 64.1 15.8999 53.29 15.8999 40C15.8999 26.71 26.7099 15.9 39.9999 15.9C53.2899 15.9 64.0999 26.71 64.0999 40C64.0999 53.29 53.2899 64.1 39.9999 64.1ZM39.9999 17.9C27.8099 17.9 17.8999 27.81 17.8999 40C17.8999 52.19 27.8099 62.1 39.9999 62.1C52.1899 62.1 62.0999 52.19 62.0999 40C62.0999 27.81 52.1899 17.9 39.9999 17.9Z" fill="#220E27"/>
    <path d="M52.4999 50.3C52.3899 50.3 52.2799 50.27 52.1899 50.19C51.9699 50.02 51.9299 49.71 52.0999 49.49C54.2599 46.72 55.3899 43.44 55.3899 40C55.3899 38.16 55.0299 36.3 54.3199 34.48C54.2199 34.22 54.3499 33.93 54.5999 33.83C54.8599 33.73 55.1499 33.86 55.2499 34.11C55.9999 36.05 56.3799 38.02 56.3799 39.99C56.3799 43.65 55.1699 47.15 52.8699 50.1C52.7699 50.23 52.6199 50.29 52.4799 50.29L52.4999 50.3Z" fill="#220E27"/>
    <path d="M31.1001 27.1C30.9601 27.1 30.8101 27.04 30.7101 26.92C30.5401 26.71 30.5701 26.39 30.7801 26.22C33.5101 24 35.9201 23.61 40.0001 23.61C42.6701 23.61 45.2401 24.22 47.4301 25.37C47.6701 25.5 47.7701 25.8 47.6401 26.04C47.5101 26.28 47.2101 26.38 46.9601 26.25C44.9101 25.18 42.5001 24.61 39.9901 24.61C36.0801 24.61 33.9101 24.95 31.4101 27C31.3201 27.08 31.2101 27.11 31.0901 27.11L31.1001 27.1Z" fill="#220E27"/>
    <path d="M27.2001 49.9C27.0501 49.9 26.8901 49.83 26.8001 49.69C24.7401 46.87 23.6001 43.43 23.6001 39.99C23.6001 37.89 23.9501 35.97 24.6401 34.3C24.7501 34.04 25.0401 33.92 25.2901 34.03C25.5401 34.13 25.6701 34.43 25.5601 34.68C24.9201 36.23 24.6001 38.02 24.6001 39.99C24.6001 43.21 25.6701 46.44 27.6001 49.1C27.7601 49.32 27.7101 49.64 27.4901 49.8C27.4001 49.86 27.3001 49.9 27.2001 49.9Z" fill="#220E27"/>
    <path d="M40 56.4001C37.08 56.4001 34.19 55.6201 31.65 54.1301C31.41 53.9901 31.33 53.6801 31.47 53.4501C31.61 53.2101 31.92 53.1301 32.15 53.2701C34.54 54.6601 37.25 55.4001 40 55.4001C42.42 55.4001 44.9 54.7501 47.37 53.4601C47.62 53.3301 47.92 53.4301 48.04 53.6701C48.16 53.9101 48.07 54.2201 47.83 54.3401C45.21 55.7001 42.58 56.4001 40 56.4001Z" fill="#220E27"/>
    <path d="M47.6001 34.8999L48.5001 35.7999L48.8001 35.4999L53.6001 30.6999C54.0001 30.2999 54.4001 30.1999 54.7001 30.4999C55.0001 30.7999 55.0001 31.1999 54.5001 31.5999L48.8001 37.2999C48.7001 37.3999 48.5001 37.4999 48.3001 37.4999C47.4001 37.4999 46.5001 37.4999 45.6001 37.3999C45.2001 37.3999 44.8001 37.4999 44.5001 37.7999C40.9001 41.3999 37.4001 44.9999 33.8001 48.4999L28.9001 53.3999C28.8001 53.4999 27.8001 52.5999 27.9001 52.4999L43.2001 37.1999L43.6001 36.7999C43.9001 36.5999 43.9001 36.2999 43.9001 35.8999C43.9001 34.9999 43.8001 33.9999 43.8001 33.0999C43.8001 32.8999 43.9001 32.6999 44.0001 32.5999C45.9001 30.6999 47.7001 28.7999 49.6001 26.9999L49.7001 26.8999C50.1001 26.5999 50.4001 26.4999 50.7001 26.7999C51.0001 27.0999 51.0001 27.4999 50.6001 27.7999L45.7001 32.6999L45.4001 32.9999L46.4001 33.9999L46.7001 33.6999L51.5001 28.8999L51.7001 28.6999C52.0001 28.4999 52.4001 28.4999 52.6001 28.6999C52.8001 28.9999 52.9001 29.3999 52.6001 29.5999C51.8001 30.4999 50.9001 31.2999 50.1001 32.0999L47.6001 34.5999C47.8001 34.7999 47.7001 34.8999 47.6001 34.8999Z" fill="#1D59F9"/>
    <path d="M28.8502 53.65C28.8502 53.65 28.8002 53.65 28.7802 53.65C28.5002 53.58 27.7202 52.89 27.6502 52.6C27.6302 52.51 27.6502 52.39 27.7202 52.32L43.4202 36.62C43.6302 36.47 43.6502 36.32 43.6502 35.9C43.6502 35.45 43.6202 34.98 43.6002 34.51C43.5702 34.03 43.5502 33.55 43.5502 33.1C43.5502 32.82 43.6902 32.56 43.8202 32.42C44.4602 31.78 45.0902 31.14 45.7102 30.5C46.9102 29.27 48.1602 28.01 49.4202 26.81L49.5202 26.71C49.7902 26.51 50.3502 26.08 50.8702 26.61C51.0702 26.81 51.1702 27.06 51.1602 27.3C51.1502 27.48 51.0602 27.74 50.7502 27.98L45.7502 32.98L46.4002 33.63L51.5202 28.51C51.9602 28.21 52.4902 28.23 52.7702 28.51C52.9302 28.75 53.0202 28.96 53.0302 29.16C53.0502 29.42 52.9502 29.64 52.7602 29.78C52.2202 30.38 51.6402 30.94 51.0802 31.48C50.8002 31.74 50.5302 32 50.2702 32.27L47.9202 34.62C47.9702 34.73 47.9602 34.83 47.9502 34.89L48.5002 35.44L53.4202 30.52C53.9402 30 54.4802 29.93 54.8702 30.32C55.0602 30.51 55.1602 30.74 55.1502 30.98C55.1302 31.27 54.9702 31.54 54.6502 31.79L48.9702 37.47C48.8402 37.61 48.5702 37.74 48.2902 37.74C47.4002 37.74 46.4802 37.74 45.5602 37.64C45.1902 37.64 44.8802 37.75 44.6602 37.97C43.4602 39.17 42.2802 40.37 41.0902 41.56C38.7602 43.91 36.3602 46.34 33.9502 48.67L29.0502 53.57C29.0502 53.57 28.9102 53.65 28.8302 53.65H28.8502ZM28.2002 52.55C28.3502 52.72 28.6602 53 28.8302 53.11L33.6202 48.32C36.0202 45.98 38.4302 43.56 40.7502 41.21C41.9302 40.02 43.1202 38.82 44.3202 37.62C44.6302 37.31 45.0602 37.15 45.6002 37.15C46.5102 37.25 47.4202 37.25 48.3002 37.25C48.4302 37.25 48.5702 37.17 48.6202 37.12L54.3202 31.42C54.5402 31.25 54.6402 31.09 54.6502 30.95C54.6502 30.86 54.6102 30.76 54.5202 30.67C54.3402 30.49 54.0902 30.56 53.7702 30.87L48.6702 35.97C48.6702 35.97 48.5602 36.04 48.4902 36.04C48.4202 36.04 48.3602 36.01 48.3102 35.97L47.4102 35.07C47.3402 35 47.3202 34.89 47.3602 34.8C47.3602 34.78 47.3802 34.76 47.3902 34.75C47.3602 34.71 47.3402 34.65 47.3402 34.6C47.3402 34.53 47.3702 34.47 47.4102 34.42L49.9102 31.92C50.1702 31.66 50.4502 31.39 50.7202 31.13C51.2802 30.59 51.8602 30.03 52.4002 29.43C52.4102 29.41 52.4302 29.4 52.4502 29.39C52.4902 29.36 52.5402 29.32 52.5302 29.2C52.5302 29.09 52.4702 28.96 52.3802 28.83C52.3102 28.77 52.0502 28.75 51.8302 28.9L51.6702 29.07L46.5702 34.17C46.5702 34.17 46.4602 34.24 46.3902 34.24C46.3202 34.24 46.2602 34.21 46.2102 34.17L45.2102 33.17C45.1102 33.07 45.1102 32.91 45.2102 32.82L50.4102 27.62C50.5302 27.53 50.6402 27.42 50.6502 27.28C50.6502 27.15 50.5802 27.04 50.5102 26.97C50.3802 26.84 50.2602 26.77 49.8402 27.09L49.7702 27.17C48.5102 28.36 47.3202 29.57 46.0702 30.85C45.4502 31.49 44.8202 32.13 44.1702 32.77C44.1202 32.82 44.0402 32.96 44.0402 33.09C44.0402 33.54 44.0702 34.01 44.0902 34.48C44.1202 34.96 44.1402 35.44 44.1402 35.89C44.1402 36.32 44.1402 36.72 43.7302 37L43.3702 37.37L28.2002 52.55Z" fill="#1D59F9"/>
    <path d="M51.2001 52.6L50.3001 53.5L50.0001 53.2L38.8001 42C38.5001 41.7 38.1001 41.5 37.7001 41.5H34.9001C34.7001 41.5 34.5001 41.4 34.4001 41.3C32.1001 39 29.7001 36.7 27.4001 34.3C25.4001 32.2 24.7001 29.7 25.1001 26.8C25.1001 26.7 25.1001 26.6 25.2001 26.5C33.9001 35.2 42.5001 43.9 51.2001 52.6Z" fill="#1D59F9"/>
    <path d="M50.3001 53.75C50.2401 53.75 50.1701 53.73 50.1201 53.68L38.6201 42.18C38.3501 41.91 38.0101 41.75 37.7001 41.75H34.9001C34.6201 41.75 34.3601 41.61 34.2201 41.48C33.4601 40.72 32.6901 39.96 31.9201 39.2C30.3701 37.67 28.7601 36.09 27.2201 34.48C25.2001 32.36 24.4301 29.84 24.8501 26.77C24.8501 26.69 24.8501 26.5 25.0201 26.33C25.1201 26.23 25.2801 26.23 25.3701 26.33C29.7101 30.67 34.0201 35.01 38.3401 39.35C42.6701 43.71 47.0101 48.07 51.3701 52.43C51.4701 52.53 51.4701 52.69 51.3701 52.78L50.4701 53.68C50.4701 53.68 50.3601 53.75 50.2901 53.75H50.3001ZM25.3301 26.98C24.9801 29.84 25.7201 32.17 27.5801 34.13C29.1201 35.73 30.7201 37.31 32.2701 38.84C33.0401 39.6 33.8101 40.36 34.5701 41.12C34.6201 41.17 34.7601 41.25 34.8901 41.25H37.6901C38.1401 41.25 38.6001 41.46 38.9701 41.82L50.2901 53.14L50.8401 52.59C46.5401 48.29 42.2601 43.99 37.9801 39.69C33.7701 35.45 29.5501 31.21 25.3101 26.97L25.3301 26.98Z" fill="#1D59F9"/>
  </svg>